<?xml version="1.0" encoding="iso-8859-1"?>
<!-- Generator: Adobe Illustrator 19.0.0, SVG Export Plug-In . SVG Version: 6.00 Build 0)  -->
<svg version="1.1" id="Capa_1" xmlns="http://www.w3.org/2000/svg" xmlns:xlink="http://www.w3.org/1999/xlink" x="0px" y="0px"
	 viewBox="0 0 512 512" style="enable-background:new 0 0 512 512;" xml:space="preserve">
<g>
	<g>
		<g>
			<path d="M416,146.286V91.429C415.983,76.287,403.713,64.017,388.571,64H352v27.429c-0.017,15.142-12.287,27.412-27.429,27.429
				H123.429C108.287,118.841,96.017,106.57,96,91.429V64H59.429C44.287,64.017,32.017,76.287,32,91.429V448
				c0.017,15.142,12.287,27.412,27.429,27.429h109.714V173.714c0.017-15.142,12.287-27.412,27.429-27.429H416z"/>
			<path d="M288,9.143c-0.007-5.047-4.096-9.136-9.143-9.143H169.143c-5.047,0.007-9.136,4.096-9.143,9.143v18.286h128V9.143z"/>
			<path d="M123.429,100.571h201.143c5.049,0,9.143-4.093,9.143-9.143V54.857c0-5.049-4.093-9.143-9.143-9.143H123.429
				c-5.049,0-9.143,4.093-9.143,9.143v36.571C114.286,96.478,118.379,100.571,123.429,100.571z"/>
			<path d="M470.857,164.571H196.571c-5.047,0.007-9.136,4.096-9.143,9.143v329.143c0.007,5.047,4.096,9.136,9.143,9.143h274.286
				c5.047-0.007,9.136-4.096,9.143-9.143V173.714C479.993,168.668,475.904,164.578,470.857,164.571z M416,411.429H251.429
				c-5.049,0-9.143-4.093-9.143-9.143c0-5.049,4.093-9.143,9.143-9.143H416c5.049,0,9.143,4.093,9.143,9.143
				C425.143,407.335,421.049,411.429,416,411.429z M416,365.714H251.429c-5.049,0-9.143-4.093-9.143-9.143
				c0-5.049,4.093-9.143,9.143-9.143H416c5.049,0,9.143,4.093,9.143,9.143C425.143,361.621,421.049,365.714,416,365.714z M416,320
				H251.429c-5.049,0-9.143-4.093-9.143-9.143c0-5.049,4.093-9.143,9.143-9.143H416c5.049,0,9.143,4.093,9.143,9.143
				C425.143,315.907,421.049,320,416,320z M416,274.286H251.429c-5.049,0-9.143-4.093-9.143-9.143c0-5.049,4.093-9.143,9.143-9.143
				H416c5.049,0,9.143,4.093,9.143,9.143C425.143,270.192,421.049,274.286,416,274.286z"/>
		</g>
	</g>
</g>
<g>
</g>
<g>
</g>
<g>
</g>
<g>
</g>
<g>
</g>
<g>
</g>
<g>
</g>
<g>
</g>
<g>
</g>
<g>
</g>
<g>
</g>
<g>
</g>
<g>
</g>
<g>
</g>
<g>
</g>
</svg>
