<?xml version="1.0" encoding="utf-8"?>
<!-- Generator: Adobe Illustrator 22.0.0, SVG Export Plug-In . SVG Version: 6.00 Build 0)  -->
<svg version="1.1" id="Layer_1" xmlns="http://www.w3.org/2000/svg" xmlns:xlink="http://www.w3.org/1999/xlink" x="0px" y="0px"
	 viewBox="0 0 308 118" enable-background="new 0 0 308 118" xml:space="preserve">
<g>
	<linearGradient id="SVGID_1_" gradientUnits="userSpaceOnUse" x1="216.2741" y1="117.8285" x2="216.2741" y2="21.7779">
		<stop  offset="0" style="stop-color:#6CC4A4"/>
		<stop  offset="1" style="stop-color:#11B9C4"/>
	</linearGradient>
	<path fill="url(#SVGID_1_)" d="M178.5,21.8l-21,66h-12l-21-66h12l15,47.2l15-47.2H178.5z M203.4,72.5l7.4,8.7
		c-5.4,4.6-10.4,6.6-16.6,6.6c-6.6,0.1-12.8-2.9-17-8l0,0c-0.8-1-1.5-2.1-2.1-3.2l0,0c-0.8-1.5-1.4-3.1-1.8-4.8l0-0.1
		c-2.2-9.7,2.7-19.5,11.7-23.6c9-4.1,19.7-1.2,25.4,6.9h0c0.2,0.2,0.3,0.4,0.4,0.7c0.1,0.1,0.2,0.3,0.3,0.4c0.2,0.3,0.4,0.6,0.5,0.9
		c0.1,0.1,0.1,0.2,0.2,0.4c0.2,0.4,0.4,0.8,0.6,1.2l0,0l0,0l0,0.1l0,0l0,0.1l0,0l0,0.1l0,0l0,0.1l2.2,5.3L203.5,69l-1.6,0.6
		l-12.7,5.2c1.4,0.9,3.1,1.3,4.8,1.3C197.4,76.2,200.1,75.4,203.4,72.5z M184.8,65.7l0.4-0.2l6.8-2.8l7-2.9
		c-0.1-0.1-0.1-0.1-0.2-0.2c-1.6-1.2-3.5-1.9-5.5-1.9c-1.1,0-2.2,0.2-3.2,0.7C187.2,59.7,185.2,62.5,184.8,65.7L184.8,65.7z
		 M264.6,46.3v11.4h-5.5v9.3c0,5.5-2.2,10.8-6.1,14.7c-3.9,3.9-9.2,6.1-14.7,6.1h-7.6c-1,0-1.8,0.8-1.8,1.8c0,1,0.8,1.8,1.8,1.8
		h15.1c7.3,0,13.2,5.9,13.2,13.2c0,7.3-5.9,13.2-13.2,13.2h-13.3v-11.4h13.3c1,0,1.8-0.8,1.8-1.8c0-1-0.8-1.8-1.8-1.8h-15.1
		c-5.5,0-10.4-3.4-12.3-8.5c-2-5.1-0.6-10.9,3.5-14.5c-6.3-8.1-5.7-19.7,1.4-27.1c7.1-7.4,18.7-8.5,27-2.5c0.2-0.2,0.4-0.4,0.6-0.6
		c2.1-2.1,4.9-3.3,7.9-3.3H264.6z M238.4,57.7c-5.2,0-9.3,4.2-9.3,9.3c0,3.8,2.3,7.2,5.8,8.6c3.5,1.4,7.5,0.6,10.2-2
		c2.7-2.7,3.5-6.7,2-10.2C245.6,60,242.1,57.7,238.4,57.7L238.4,57.7z M308,64.8v23.1h-11.4V64.8c0-3.9-3.1-7-7-7s-7,3.1-7,7v23.1
		h-11.4v-66h11.4v25.9c2.2-0.9,4.6-1.4,7-1.4C299.8,46.4,308,54.6,308,64.8z"/>
	<g>
		<linearGradient id="SVGID_3_" gradientUnits="userSpaceOnUse" x1="53.4045" y1="106.9804" x2="53.4045" y2="0.1715">
			<stop  offset="0" style="stop-color:#6CC4A4"/>
			<stop  offset="1" style="stop-color:#11B9C4"/>
		</linearGradient>
		<circle id="SVGID_2_" fill="url(#SVGID_3_)" cx="53.4" cy="53.6" r="53.4"/>
		<g>
			<path opacity="0.33" fill="#F1F1F1" d="M64.3,31.2L1.2,64.9c4.5,20.8,21.2,37,42.2,41l32.2-63.2C77.4,40.3,66.8,29.5,64.3,31.2z"
				/>
		</g>
		<g>
			<path fill="#E4E3E3" d="M82.8,29.2l-37,51.5l-17-3.3L82,25.6l0.6,0.6C83.4,27,83.5,28.2,82.8,29.2L82.8,29.2z"/>
			<path fill="#D8D8D7" d="M28.9,77.4l-2.8-17.1l52.5-35.4c0.9-0.6,2.2-0.5,3,0.3l0.6,0.6L28.9,77.4z M45.9,80.6l3.4-3.3l-8-6.2
				L45.9,80.6z"/>
			<path fill="#CECECD" d="M36.4,66.2l-10.3-5.9l3.1-3L36.4,66.2z"/>
			<path fill="#EFEEEE" d="M81.7,25.2l-45.2,41L17.7,46.9c-0.8-0.9-0.5-2.3,0.7-2.7l59.9-19.8C79.5,24,80.8,24.3,81.7,25.2
				L81.7,25.2z M82.6,26.2l-41.3,45L59,89.5c0.8,0.9,2.3,0.6,2.7-0.6l21.5-59.3C83.8,28.4,83.5,27.1,82.6,26.2L82.6,26.2z"/>
			<path fill="#FCFDFF" d="M83.3,29.6L71.2,63c-2.2,6-9.8,7.6-14.2,3.1c-3.2-3.3-3.2-8.4-0.2-11.8l25.8-28.1
				C83.5,27.1,83.8,28.4,83.3,29.6L83.3,29.6z M78.3,24.4L44.5,35.5c-6,2-7.9,9.6-3.5,14.1l0.6,0.6c3.2,3.3,8.5,3.5,11.9,0.4
				l28.1-25.4C80.8,24.3,79.5,24,78.3,24.4L78.3,24.4z"/>
		</g>
		<path fill="#FFFFFF" d="M39.2,76.1L27.6,87.3c-0.2,0.2-0.4,0.2-0.6,0.2s-0.4-0.1-0.6-0.2c-0.3-0.3-0.3-0.8,0-1.2L38,74.9
			c0.3-0.3,0.8-0.3,1.2,0C39.5,75.2,39.5,75.8,39.2,76.1z M40.2,80c-0.3-0.3-0.8-0.3-1.2,0l-5.9,5.7c-0.3,0.3-0.3,0.8,0,1.2
			c0.2,0.2,0.4,0.2,0.6,0.2c0.2,0,0.4-0.1,0.6-0.2l5.9-5.7C40.5,80.8,40.5,80.3,40.2,80z M30.8,88l-2.4,2.3c-0.3,0.3-0.3,0.8,0,1.2
			c0.2,0.2,0.4,0.2,0.6,0.2s0.4-0.1,0.6-0.2l2.4-2.3c0.3-0.3,0.3-0.8,0-1.2C31.6,87.7,31.1,87.7,30.8,88z M38.2,86.4l-2.4,2.3
			c-0.3,0.3-0.3,0.8,0,1.2c0.2,0.2,0.4,0.2,0.6,0.2s0.4-0.1,0.6-0.2l2.4-2.3c0.3-0.3,0.3-0.8,0-1.2C39,86.1,38.5,86.1,38.2,86.4z"/>
	</g>
</g>
</svg>
