<svg xmlns="http://www.w3.org/2000/svg" xmlns:xlink="http://www.w3.org/1999/xlink" width="484.537" height="346.591" viewBox="0 0 484.537 346.591"><defs><linearGradient id="a" x1="0.5" y1="1" x2="0.5" gradientUnits="objectBoundingBox"><stop offset="0" stop-color="gray" stop-opacity="0.251"/><stop offset="0.54" stop-color="gray" stop-opacity="0.122"/><stop offset="1" stop-color="gray" stop-opacity="0.102"/></linearGradient><linearGradient id="b" x1="0.5" y1="1" x2="0.5" xlink:href="#a"/></defs><g transform="translate(0.025 -0.003)"><path d="M545.825,273.053c-11.232,23.169-34.037,38.662-57.672,48.879-31.818,13.76-66.857,19.217-101.415,16.909q-9.084-.6-18.114-1.932a228.454,228.454,0,0,1-60.563-17.636q-8.344-3.758-16.351-8.2a209.174,209.174,0,0,1-25.558-16.714q-3.056-2.333-6.028-4.785c-1.374-1.133-2.735-2.291-4.117-3.416a51.958,51.958,0,0,0-9.266-6.311,33.106,33.106,0,0,0-3.1-1.37c-10.6-4.033-22.827-2.511-33.864.634-8.4,2.393-16.579,5.669-24.966,8.006a82.847,82.847,0,0,1-11.375,2.418,60.537,60.537,0,0,1-25.558-2.245l-.706-.22q-1.775-.558-3.521-1.222l-.706-.271q-1.691-.651-3.31-1.4l-.706-.321q-1.691-.786-3.31-1.661c-.389-.2-.774-.423-1.154-.63a69.187,69.187,0,0,1-16.554-12.889c-.14-.139-.271-.283-.423-.423-.672-.727-1.332-1.467-1.97-2.224-.237-.279-.473-.558-.706-.845q-1.137-1.387-2.194-2.836c-.106-.139-.207-.283-.309-.423a61.122,61.122,0,0,1-7.127-12.889c-.059-.139-.114-.283-.165-.423q-.845-2.177-1.543-4.426c-.19-.626-.372-1.268-.533-1.894-.055-.186-.106-.376-.152-.562-2.333-9.186-2.6-18.735-2.6-28.229v-3.318c.068-15.357.3-30.977,2.57-46.123a1.925,1.925,0,0,1,.047-.313A144.046,144.046,0,0,1,105.9,148.6a111.7,111.7,0,0,1,5.2-15.345c5.212-12.259,12.792-23.414,21.208-33.754,21.2-26.018,49-47.86,81.543-56.036,35.065-8.805,74.035-.368,102.319,22.151,8.624,6.865,16.372,14.994,26.056,20.257,8.454,4.582,18.35,6.48,27.4,2.874,7.482-2.98,12.352-4.46,20.756-4.007A173.974,173.974,0,0,1,441.266,95.4c.659.241,1.319.49,1.974.74,42.572,16.287,79.167,48.647,98.189,90.23q.757,1.649,1.467,3.323C554.237,216.185,558.338,247.234,545.825,273.053Z" transform="translate(-68.984 -40.04)" fill="#16bac5" opacity="0.1"/><ellipse cx="37.318" cy="5.994" rx="37.318" ry="5.994" transform="translate(13.789 302.09)" fill="#16bac5" opacity="0.1"/><ellipse cx="66.168" cy="6.425" rx="66.168" ry="6.425" transform="translate(319.716 333.743)" fill="#16bac5" opacity="0.1"/><rect width="401.723" height="227.563" rx="12.49" transform="translate(49.349 45.55)" fill="url(#a)"/><rect width="400.493" height="223.606" rx="12.49" transform="translate(49.987 48.75)" fill="#fff"/><rect width="400.493" height="223.606" rx="12.49" transform="translate(49.987 48.75)" fill="#fff"/><rect width="400.493" height="223.606" rx="12.49" transform="translate(49.987 48.75)" fill="#fff" opacity="0.04"/><path d="M543.08,149.29H146.653a2.033,2.033,0,0,0-2.033,2.033v8.594H545.1v-8.594a2.033,2.033,0,0,0-2.016-2.033Z" transform="translate(-94.633 -103.106)" fill="#5a5773"/><g transform="translate(55.237 48.75)"><circle cx="2.748" cy="2.748" r="2.748" fill="#fff"/><circle cx="2.748" cy="2.748" r="2.748" transform="translate(7.398)" fill="#fff"/><circle cx="2.748" cy="2.748" r="2.748" transform="translate(14.795)" fill="#fff"/></g><rect width="107.476" height="9.122" transform="translate(82.972 76.797)" fill="#16bac5" opacity="0.2"/><rect width="334.523" height="140.326" transform="translate(82.972 113.375)" fill="#5a5773" opacity="0.1"/><path d="M594.876,283.036h-5.728V271.91A22.876,22.876,0,1,0,543.4,271.6v11.435h-5.715a9.562,9.562,0,0,0-9.532,9.532v45.747a9.562,9.562,0,0,0,9.532,9.532h57.194a9.558,9.558,0,0,0,9.528-9.532V292.569a9.558,9.558,0,0,0-9.528-9.532Zm-25.258,29.738v16.385a3.42,3.42,0,0,1-3.17,3.432,3.344,3.344,0,0,1-3.5-3.34V312.766a7.609,7.609,0,1,1,6.671,0Zm12.868-29.738H550.068V271.6a16.2,16.2,0,0,1,32.406,0Z" transform="translate(-316.037 -160.509)" opacity="0.1"/><path d="M594.876,281.036h-5.728V269.91A22.876,22.876,0,1,0,543.4,269.6v11.435h-5.715a9.562,9.562,0,0,0-9.532,9.532v45.747a9.562,9.562,0,0,0,9.532,9.532h57.194a9.558,9.558,0,0,0,9.528-9.532V290.569a9.558,9.558,0,0,0-9.528-9.532Zm-25.258,29.738v16.385a3.42,3.42,0,0,1-3.17,3.432,3.344,3.344,0,0,1-3.5-3.339V310.766a7.609,7.609,0,1,1,6.671,0Zm12.868-29.738H550.068V269.6a16.2,16.2,0,0,1,32.406,0Z" transform="translate(-316.037 -159.355)" fill="#16bac5"/><rect width="33.86" height="7.994" transform="translate(383.635 99.869)" fill="#5a5773" opacity="0.1"/><path d="M929.315,526.024a12.036,12.036,0,0,0-1.133-3.217l-5.073-7.575h.03s-.8-3.8,0-5.673-2.849-6.463-2.849-6.463a2.726,2.726,0,0,1,.714-2.574c1.158-1.42-.714-5.58-.714-5.58s-.888-8.687-.976-10.014-.8-8.683-.8-8.683l-1.691-15.594-3.01-41.329-.055-.774c.372-.182.571-.3.571-.3l-.6-22.852.52-.469c4.54-4.109,15.011-13.62,14.905-13.827s-1.268-15.882-1.4-19.8a23.6,23.6,0,0,0-1.8-8.108c-.262-.52-1.019-3.948-1.332-5.4-.085-.4-.14-.647-.14-.647s-3.069-5.85-2.8-8.509.8-4.65-5.745-5.58c0,0-5.5-.82-8.767-3.056a24.937,24.937,0,0,0-6.282-3.145s-1.835-3.382-3.111-2.236a17.757,17.757,0,0,1-1.2-3.766l-.038-.237a12.457,12.457,0,0,0,4.921-7.042c.042-.161.076-.326.114-.486a1.373,1.373,0,0,0,.393.072c1.112,0,1.8-1.239,2.836-1.632.423-.165.943-.19,1.268-.524a1.239,1.239,0,0,0,.279-.934,1.906,1.906,0,0,0,0-.347q0-.061,0-.123v.042c-.283-1.539-1.475-2.9-1.344-4.468.127-1.471,1.42-2.765,1.315-4.2a2.283,2.283,0,0,0-.03-.338v.051a3.619,3.619,0,0,0-.845-1.5,4.8,4.8,0,0,0-1.742-1.463c-.588-.258-1.268-.317-1.818-.626-1.615-.879-1.611-3.17-2.57-4.734a4.189,4.189,0,0,0-3.919-1.94c-1.2.118-2.287.757-3.475.964a9.085,9.085,0,0,1-4.815-.845,13.255,13.255,0,0,0-4.751-1.268,4.035,4.035,0,0,0-3.94,2.405c-.266.845-.135,1.754-.338,2.612A5.688,5.688,0,0,1,875,297.646c-.845.469-1.852,1.006-2.114,1.894v-.068a1.619,1.619,0,0,0-.042.216,1.591,1.591,0,0,0,0,.283,5.328,5.328,0,0,0,.537,1.767,4.874,4.874,0,0,1-.025,3.407c-.313.8-.845,1.509-1.15,2.308a4.543,4.543,0,0,0-.279,1.158v-.068a4.665,4.665,0,0,0,0,.541,3.805,3.805,0,0,0,.423,1.775,3.188,3.188,0,0,0,1.9,1.594c.845.194,1.374-.634,2.266-.423a3.56,3.56,0,0,1,.469.148c.03.19.059.38.093.566A12.424,12.424,0,0,0,881.362,320a2.726,2.726,0,0,0,.047.309h0a28.376,28.376,0,0,1,.351,5.1s-1.332-1.949-3.158,1.813c0,0-4.764,2.748-6.408,3.06s-7.482,2.346-7.482,2.346a5.149,5.149,0,0,1-3.027.976c-1.822,0-3.335,3.986-3.115,6.155s-.131,3.766-1.826,3.855-.769,3.526-.757,3.585l-.156.74c-.33,1.513-1.048,4.76-1.3,5.267a23.673,23.673,0,0,0-1.8,8.108c-.131,3.923-1.268,19.538-1.4,19.8-.089.173,7.085,6.73,12.128,11.312l.731.659-2.321,21.677A5.787,5.787,0,0,0,864.246,419c0,.254,0,.512-.025.778-.1,2.536-.3,5.605-.71,6.408-.71,1.42-.533,9.038-.533,9.038s-.714,15.505-1.6,17.192a11.728,11.728,0,0,0-.8,5.918c.266.693-.892,19.314-.892,19.314l-.888,8.332s.266,7.973-.537,8.15-1.247,5.673-1.247,5.673-2.845,3.9-1.6,5.314-.182,2.042-.313,2.393-2.714,1.691-.845,6.645a1.437,1.437,0,0,0,.059.144c-1.75,2.431-7.3,10.272-6.958,11.464a3.141,3.141,0,0,0,1.479,1.775c1.306.782,3.547,1.146,7.11,0,5.918-1.906,5.5-3.28,5.5-3.28a2.511,2.511,0,0,1,2.494-2.393,7.005,7.005,0,0,0,4.274-2.435l-.287-1.069-.393-1.48c.047-.423.347-1.162,1.691-1.573,2.05-.621,1.513-4.519,1.513-4.519s-.178-4.075.71-4.608.537-7.267.537-7.267a49.934,49.934,0,0,1,2.4-8.154c1.42-3.28,3.12-22.768,3.12-22.768s1.154-9.57,2.224-12.318,2.05-10.454,2.05-10.454,6.59-12.762,6.675-15.6c0,0,.845-2.659,1.691.266s3.221,9.925,3.221,9.925l2.312,8.594,2.76,12.846,1.784,10.813s-.271,4.075.423,5.5,1.691,4.692,1.158,5.314,1.065,3.547,1.513,4.164,0,13.734,0,13.734,2.046,11.164,4.984,13.1a3.594,3.594,0,0,0,.651.338c-.042,1.209-.085,2.828-.03,3.673a1.407,1.407,0,0,0,.093.554c.266.355,3.293,2.748,3.919,2.748s2.845,1.551,2.938,2.3,6.506,3.94,7.415,4.033,5.314.883,5.918-.355A2.05,2.05,0,0,0,929.315,526.024ZM913.56,366.354l.457.393s.469,3.657.8,4.751a9.177,9.177,0,0,1-.068,3.225,7.418,7.418,0,0,0,.469,2.325c.4.8-.8,2.536-.8,2.536h-1.07l-.334-13.688Zm-31.8-40.869v-.08a.264.264,0,0,0-.013.08Zm-16.423,52.692a1.543,1.543,0,0,1-.068-1.129,3.381,3.381,0,0,0,.224-.626,9.675,9.675,0,0,0,.245-1.691.122.122,0,0,0,0-.021,8.94,8.94,0,0,1-.063-3.2c.317-1.04.8-4.751.8-4.751l.3-.258.706-.613a5.02,5.02,0,0,1,.051-.6c.148,3.213.266,6.764.076,6.941-.355.351-1.649,3.8-1.336,3.94A16.175,16.175,0,0,1,866,379.45,6.739,6.739,0,0,1,865.337,378.178Z" transform="translate(-500.297 -183.92)" fill="url(#b)"/><path d="M944.2,364.4v5.259l-10.788,5.423s-10.712-6.48-8.07-9.059c1.691-1.632,1.365-6.113.909-9.194h0c-.266-1.792-.575-3.107-.575-3.107s19.242-5.5,16.334-1.323a6.562,6.562,0,0,0-.723,4.988A22.657,22.657,0,0,0,944.2,364.4Z" transform="translate(-545.084 -219.451)" fill="#c37098"/><path d="M875.769,459.213l-1.391,17.129s-2.084-1.89-4.781-4.35c-5-4.561-12.1-11.084-12.018-11.257.131-.266,1.268-15.806,1.391-19.711a23.587,23.587,0,0,1,1.784-8.065,50.153,50.153,0,0,0,1.268-5.246c.1-.469.165-.774.165-.774L864.52,426s9.723,10.847,9.723,11.046-.664,8.531-.664,8.531l-.689.6-.3.258s-.465,3.64-.795,4.73a8.493,8.493,0,0,0,.063,3.187h0a9.833,9.833,0,0,1-.241,1.691,3.543,3.543,0,0,1-.224.621,1.552,1.552,0,0,0,.068,1.124,6.792,6.792,0,0,0,.727,1.391Z" transform="translate(-506.21 -262.845)" fill="#3f3d56"/><path d="M1015.177,460.752c.1.207-10.268,9.672-14.761,13.76l-2.038,1.847L997,459.23h3.572s1.192-1.72.795-2.515a7.352,7.352,0,0,1-.461-2.312,9.215,9.215,0,0,0,.063-3.208c-.33-1.095-.795-4.73-.795-4.73l-.452-.389-.537-.469s-.664-8.332-.664-8.53,9.723-11.046,9.723-11.046l2.316.926s.051.249.135.647c.313,1.441,1.061,4.853,1.319,5.373a23.586,23.586,0,0,1,1.784,8.065C1013.909,444.947,1015.042,460.486,1015.177,460.752Z" transform="translate(-586.695 -262.863)" fill="#3f3d56"/><path d="M1012.6,832.419c-.621,1.234-4.984.423-5.884.355s-7.258-3.268-7.347-4.016-2.291-2.291-2.908-2.291-3.614-2.384-3.881-2.735a1.349,1.349,0,0,1-.089-.55c-.093-1.45.089-5.182.089-5.182l12.787.706,6.214,9.346a12.059,12.059,0,0,1,1.124,3.2,2.114,2.114,0,0,1-.106,1.167Z" transform="translate(-584.079 -489.139)" fill="#3f3d56"/><path d="M1012.6,832.419c-.621,1.234-4.984.423-5.884.355s-7.258-3.268-7.347-4.016-2.291-2.291-2.908-2.291-3.614-2.384-3.881-2.735a1.349,1.349,0,0,1-.089-.55c-.093-1.45.089-5.182.089-5.182l12.787.706,6.214,9.346a12.059,12.059,0,0,1,1.124,3.2,2.114,2.114,0,0,1-.106,1.167Z" transform="translate(-584.079 -489.139)" opacity="0.1"/><path d="M1012.637,839.5c-.621,1.234-4.984.423-5.884.355s-7.258-3.268-7.347-4.016-2.291-2.291-2.908-2.291-3.614-2.384-3.881-2.735a1.349,1.349,0,0,1-.089-.549l4.143,2.621a17.482,17.482,0,0,1,3.352,2.693c.706,1,6.269,3.086,6.73,3.128.342.034,3.995-.668,5.99-.372A2.114,2.114,0,0,1,1012.637,839.5Z" transform="translate(-584.113 -496.217)" opacity="0.1"/><path d="M868.909,825.334a6.918,6.918,0,0,1-4.227,2.422,2.49,2.49,0,0,0-2.469,2.38s.423,1.37-5.423,3.268c-3.53,1.137-5.749.778-7.042,0a3.145,3.145,0,0,1-1.467-1.767c-.4-1.408,7.406-12.124,7.406-12.124l7.1-.423,5.073,2.291.778,2.9Z" transform="translate(-500.834 -489.768)" fill="#3f3d56"/><path d="M868.909,825.334a6.918,6.918,0,0,1-4.227,2.422,2.49,2.49,0,0,0-2.469,2.38s.423,1.37-5.423,3.268c-3.53,1.137-5.749.778-7.042,0a3.145,3.145,0,0,1-1.467-1.767c-.4-1.408,7.406-12.124,7.406-12.124l7.1-.423,5.073,2.291.778,2.9Z" transform="translate(-500.834 -489.768)" opacity="0.1"/><path d="M870.932,832.405a6.918,6.918,0,0,1-4.227,2.422,2.49,2.49,0,0,0-2.469,2.38s.423,1.37-5.423,3.268c-3.53,1.137-5.749.778-7.042,0,3.327-.347,10.678-2.448,11.413-3.175.883-.883,1.987-3.31,2.735-3.352a29.432,29.432,0,0,0,4.747-2.608Z" transform="translate(-502.857 -496.84)" fill="none"/><path d="M870.932,832.405a6.918,6.918,0,0,1-4.227,2.422,2.49,2.49,0,0,0-2.469,2.38s.423,1.37-5.423,3.268c-3.53,1.137-5.749.778-7.042,0,3.327-.347,10.678-2.448,11.413-3.175.883-.883,1.987-3.31,2.735-3.352a29.432,29.432,0,0,0,4.747-2.608Z" transform="translate(-502.857 -496.84)" opacity="0.1"/><path d="M931.741,673.178c-.795,1.852,0,5.643,0,5.643s-11.836.617-14.728-1.323-4.937-13.054-4.937-13.054.423-13.049,0-13.667-2.029-3.525-1.5-4.143-.423-3.881-1.146-5.292-.423-5.466-.423-5.466l-1.767-10.762-2.731-12.783-2.321-8.556s-2.38-6.966-3.187-9.875-1.661-.266-1.661-.266c-.085,2.824-6.611,15.522-6.611,15.522s-.972,7.672-2.029,10.4-2.207,12.259-2.207,12.259-1.691,19.4-3.086,22.662a49.994,49.994,0,0,0-2.355,8.112s.355,6.7-.528,7.233-.74,4.587-.74,4.587.528,3.876-1.5,4.5-1.691,1.94-1.691,1.94-11.287,1.852-13.138-3.09.706-6.256.845-6.611,1.547-.968.313-2.384,1.585-5.288,1.585-5.288.444-5.466,1.234-5.643.533-8.112.533-8.112l.879-8.289s1.15-18.519.884-19.225a11.745,11.745,0,0,1,.795-5.918c.884-1.691,1.585-17.112,1.585-17.112s-.177-7.579.528-8.991c.423-.8.6-3.872.7-6.379.076-1.915.093-3.5.093-3.5l9.875-3.7,12.682-4.054,10.669,5.115,15.611,3,.194,2.693,2.98,41.135,1.691,15.518s.706,7.317.795,8.64.968,9.968.968,9.968,1.852,4.143.706,5.555a2.678,2.678,0,0,0-.706,2.536S932.536,671.327,931.741,673.178Z" transform="translate(-509.215 -347.446)" fill="#3f3d56"/><path d="M943.054,352.4a6.562,6.562,0,0,0-.723,4.988,12.4,12.4,0,0,1-15.036-.562h0c-.266-1.792-.575-3.107-.575-3.107S945.962,348.227,943.054,352.4Z" transform="translate(-546.124 -219.453)" opacity="0.1"/><path d="M942.171,324.855a12.326,12.326,0,1,1-3.61-8.775A12.386,12.386,0,0,1,942.171,324.855Z" transform="translate(-540.744 -197.307)" fill="#c37098"/><path d="M913.52,350.114l-4.058,72.264-22.045-4.629L883.05,388.78l4.324-38.89,3.255.419,5.74.731,5.686.351,6.163-.685Z" transform="translate(-509.513 -201.983)" opacity="0.1"/><path d="M913.52,351.37l-4.058,72.264L887.417,419l-4.367-28.969,4.324-38.886,3.255.414,5.74.731,5.686.351,6.163-.685Z" transform="translate(-509.513 -202.71)" fill="#16bac5"/><path d="M939.23,396.3l7.939.266-2.232,3.124s.156,6.311,1.217,8.12.748,29.759.748,29.759l-2.114,4.012-3.614-4.5.047-36.9Z" transform="translate(-553.346 -245.7)" fill="#3f3d56"/><path d="M939.23,396.3l7.939.266-2.232,3.124s.156,6.311,1.217,8.12.748,29.759.748,29.759l-2.114,4.012-3.614-4.5.047-36.9Z" transform="translate(-553.346 -245.7)" opacity="0.1"/><path d="M931.556,336.86l-7.406,8.2,4.231,4.409,7.013-6.835Z" transform="translate(-533.24 -194.461)" opacity="0.1"/><path d="M931.556,335.61l-7.406,8.2,4.231,4.409,7.013-6.835Z" transform="translate(-533.24 -193.739)" fill="#16bac5"/><path d="M905.545,345.085l-7.5-7.495-.706,3.923,3.441,8.6Z" transform="translate(-517.763 -194.882)" opacity="0.1"/><path d="M906.171,343.835l-7.495-7.495-.706,3.923,3.441,8.6Z" transform="translate(-518.126 -194.161)" fill="#16bac5"/><path d="M936.918,583.385a36.594,36.594,0,0,1-11.413,3.3c-7.275.926-12.035-8.332-12.035-8.332l-2.777,3.614c-.884,3.838-14.33,4.806-19.8,3.352a8.747,8.747,0,0,1-3.137-1.484c.076-1.915.093-3.5.093-3.5l9.875-3.7,12.682-4.054,10.669,5.115,15.611,3Z" transform="translate(-523.633 -347.463)" opacity="0.1"/><path d="M940.478,391.414l-4.054,72.26-22.049-4.629L910,430.08l4.32-38.89,3.255.423a39.5,39.5,0,0,1-.478,4.227c-.528,2.473,2.735,20.02,2.735,20.02s6.2,19.678,8.991,16.841,6.763-17.813,6.763-17.813c2.693-5.555.047-21.136-.152-21.449a6.3,6.3,0,0,1-.254-1.416Z" transform="translate(-536.472 -242.75)" opacity="0.1"/><path d="M1000.225,512.783l.186,7.081-2.037,1.847L997,504.57h3.044Z" transform="translate(-586.695 -308.202)" opacity="0.1"/><path d="M890.932,493.1h0a9.833,9.833,0,0,1-.241,1.691c0-.156,0-.245-.034-.258C890.531,494.5,890.683,493.852,890.932,493.1Z" transform="translate(-525.279 -301.581)" opacity="0.1"/><path d="M892.182,502.671,890.791,519.8s-2.084-1.89-4.781-4.35l.321-3.035s1.137-7.457,1.551-11.134a6.8,6.8,0,0,0,.727,1.391Z" transform="translate(-522.623 -306.303)" opacity="0.1"/><path d="M893.716,375.642s-1.319-1.94-3.128,1.8c0,0-4.718,2.735-6.341,3.044s-7.4,2.338-7.4,2.338a5.106,5.106,0,0,1-3,.968c-1.809,0-3.31,3.969-3.09,6.129s-.131,3.75-1.805,3.838-.752,3.568-.752,3.568l11.156,12.787s.706,11.773.355,12.128-1.632,3.8-1.323,3.923-1.691,13.138-1.691,13.138l-2.688,25.266s0,4.227,5.47,5.686,18.925.495,19.792-3.344l2.777-3.618s4.76,9.262,12.035,8.336a34.986,34.986,0,0,0,11.908-3.572l-.795-30.279-.528-21.825,11.359-18.663s-3.044-5.821-2.777-8.454.79-4.629-5.69-5.555c0,0-5.466-.816-8.687-3.044a24.829,24.829,0,0,0-6.214-3.128s-1.818-3.382-3.082-2.224a41.559,41.559,0,0,1,1.162,5.5,18.185,18.185,0,0,0,.4,4.278c.2.334,2.845,15.894.152,21.449,0,0-3.952,14.977-6.764,17.813s-8.991-16.841-8.991-16.841-3.263-17.551-2.735-20.02S893.716,375.642,893.716,375.642Z" transform="translate(-512.198 -233.201)" fill="#3f3d56"/><circle cx="1.94" cy="1.94" r="1.94" transform="translate(389.012 196.368)" fill="#3f3d56"/><circle cx="1.94" cy="1.94" r="1.94" transform="translate(389.012 205.515)" fill="#3f3d56"/><circle cx="1.94" cy="1.94" r="1.94" transform="translate(389.012 196.368)" opacity="0.1"/><circle cx="1.94" cy="1.94" r="1.94" transform="translate(389.012 205.515)" opacity="0.1"/><path d="M992.47,804.34s7.964.617,8.755,1.234S992.47,804.34,992.47,804.34Z" transform="translate(-584.08 -481.254)" stroke="#6c63ff" stroke-miterlimit="10" stroke-width="1" opacity="0.1"/><path d="M880.3,789.53s1.691,2.114.972,3.086S880.3,789.53,880.3,789.53Z" transform="translate(-519.327 -472.704)" stroke="#6c63ff" stroke-miterlimit="10" stroke-width="1" opacity="0.1"/><path d="M885.1,806s3.086-2.029,4.32-.681S885.1,806,885.1,806Z" transform="translate(-522.098 -481.551)" stroke="#6c63ff" stroke-miterlimit="10" stroke-width="1" opacity="0.1"/><path d="M942.182,324.861a12.324,12.324,0,0,1-.4,3.132,1.408,1.408,0,0,1-.82-1.378c.055-.5.389-.964.317-1.463-.106-.769-1.036-1.082-1.526-1.691a3.934,3.934,0,0,1-.423-2.756c.051-.951-.19-2.114-1.082-2.439-.266-.1-.558-.106-.816-.216-.7-.3-.917-1.167-1.387-1.767-.938-1.209-2.8-1.184-4.227-.609a20.077,20.077,0,0,1-1.9.795,2.486,2.486,0,0,1-1.991-.148c-.279-.178-.5-.423-.79-.6-.955-.575-2.207,0-3.035.74a10.49,10.49,0,0,1-2.536,2.185c-.469.211-1.048.338-1.268.795a1.665,1.665,0,0,0-.135.79,23.636,23.636,0,0,1-.148,4.925c-.22,1.036-.947,2.211-2,2.084a1.974,1.974,0,0,1-.385-.1,12.386,12.386,0,1,1,24.56-2.291Z" transform="translate(-540.755 -197.312)" opacity="0.1"/><path d="M910.333,314.631c.317.072.617.237.943.279,1.053.127,1.78-1.048,2-2.084a22.8,22.8,0,0,0,.152-4.925,1.611,1.611,0,0,1,.131-.79c.241-.457.82-.583,1.268-.795a10.947,10.947,0,0,0,2.536-2.185c.845-.757,2.076-1.315,3.031-.74.283.169.512.423.791.6a2.536,2.536,0,0,0,2,.148c.655-.194,1.268-.537,1.9-.795,1.412-.575,3.28-.6,4.227.6.469.6.685,1.471,1.387,1.767.258.11.55.123.816.22.892.334,1.12,1.488,1.082,2.439a4.1,4.1,0,0,0,.423,2.756c.49.6,1.42.913,1.526,1.691.068.5-.262.964-.317,1.463a1.4,1.4,0,0,0,1.323,1.5c1.1,0,1.78-1.23,2.807-1.623a3.336,3.336,0,0,0,1.268-.524,1.4,1.4,0,0,0,.262-1.146c-.207-1.619-1.5-3.027-1.365-4.65.131-1.556,1.573-2.913,1.268-4.443a3.6,3.6,0,0,0-.845-1.509,4.887,4.887,0,0,0-1.725-1.458,17.745,17.745,0,0,1-1.805-.621c-1.6-.875-1.594-3.158-2.536-4.713a4.138,4.138,0,0,0-3.855-1.919c-1.188.118-2.266.748-3.441.96a8.92,8.92,0,0,1-4.768-.845,13.041,13.041,0,0,0-4.7-1.268,4.012,4.012,0,0,0-3.906,2.393c-.262.845-.131,1.75-.334,2.6a5.675,5.675,0,0,1-3.035,3.331c-.926.516-2.038,1.108-2.147,2.16a4.453,4.453,0,0,0,.528,1.915,4.874,4.874,0,0,1-.025,3.382c-.309.8-.824,1.5-1.137,2.3a4.122,4.122,0,0,0,.11,3.382,3.153,3.153,0,0,0,1.932,1.585C908.921,315.261,909.445,314.437,910.333,314.631Z" transform="translate(-534.01 -185.501)" fill="#3f3d56"/><g transform="translate(371.724 116.54)" opacity="0.1"><path d="M913.273,336.353c-.22,1.036-.951,2.211-2,2.084-.325-.042-.621-.207-.943-.279-.883-.194-1.408.634-2.24.423A3.162,3.162,0,0,1,906.15,337a3.66,3.66,0,0,1-.393-1.382,3.86,3.86,0,0,0,.393,2.177,3.162,3.162,0,0,0,1.936,1.585c.845.194,1.357-.634,2.24-.423a9.554,9.554,0,0,0,.943.275c1.053.131,1.784-1.044,2-2.08a12.216,12.216,0,0,0,.2-2.777A10.413,10.413,0,0,1,913.273,336.353Z" transform="translate(-905.733 -326.489)"/><path d="M908.755,319.388a4.865,4.865,0,0,0-.279-2.042,10.792,10.792,0,0,1-.486-1.336,1.947,1.947,0,0,0-.042.216,4.531,4.531,0,0,0,.528,1.915,4.848,4.848,0,0,1,.279,1.247Z" transform="translate(-907.006 -315.89)"/><path d="M984.514,318.73c-.2,1.2-1.171,2.329-1.268,3.593a3.022,3.022,0,0,0,0,.651C983.457,321.5,984.764,320.193,984.514,318.73Z" transform="translate(-950.469 -317.461)"/><path d="M978.729,339.83a.994.994,0,0,1-.241.473c-.313.334-.845.359-1.268.524-1.027.393-1.691,1.636-2.807,1.623a1.416,1.416,0,0,1-1.268-.981,2.186,2.186,0,0,0-.059.279,1.4,1.4,0,0,0,1.323,1.492c1.1,0,1.78-1.23,2.807-1.619.423-.165.938-.19,1.268-.524a1.4,1.4,0,0,0,.262-1.146C978.742,339.9,978.734,339.868,978.729,339.83Z" transform="translate(-944.613 -329.641)"/><path d="M971.166,334.8c-.106-.769-1.036-1.082-1.526-1.691a2.316,2.316,0,0,1-.465-1.387,3.12,3.12,0,0,0,.465,2.181c.486.592,1.226.845,1.463,1.454A1.357,1.357,0,0,0,971.166,334.8Z" transform="translate(-942.35 -324.96)"/><path d="M943.04,321.139c.034-.951-.194-2.114-1.086-2.439-.262-.1-.554-.11-.812-.216-.7-.3-.922-1.167-1.387-1.767-.943-1.2-2.807-1.184-4.227-.609-.634.258-1.239.6-1.9.795a2.486,2.486,0,0,1-1.991-.148c-.279-.178-.507-.423-.79-.6-.96-.575-2.211,0-3.035.74a10.5,10.5,0,0,1-2.536,2.185c-.473.211-1.048.338-1.293.795a1.662,1.662,0,0,0-.131.79v.495a1.2,1.2,0,0,1,.123-.49c.245-.457.82-.583,1.294-.795a10.947,10.947,0,0,0,2.536-2.185c.845-.757,2.076-1.315,3.035-.74.283.169.511.423.791.6a2.469,2.469,0,0,0,1.991.148,19.544,19.544,0,0,0,1.9-.79c1.416-.575,3.28-.6,4.227.6.465.6.685,1.471,1.386,1.767.258.11.55.123.812.22a2.029,2.029,0,0,1,1.074,1.885Z" transform="translate(-916.19 -315.727)"/></g><g transform="translate(377.754 123.057)" opacity="0.1"><path d="M920,334.465a3.242,3.242,0,0,1,2.443-3.031,10.146,10.146,0,0,1,5.7.258c4.012,1.327-.507,6.1-.507,6.1s-3.006,2.959-5.808.892a4.392,4.392,0,0,1-1.636-2.536A6.467,6.467,0,0,1,920,334.465Z" transform="translate(-919.997 -331.144)"/><path d="M958.784,334.465a3.242,3.242,0,0,0-2.448-3.031,10.146,10.146,0,0,0-5.694.258c-4.012,1.327.507,6.1.507,6.1s3,2.959,5.808.892a4.392,4.392,0,0,0,1.636-2.536,6.472,6.472,0,0,0,.19-1.687Z" transform="translate(-936.73 -331.144)"/><path d="M910.5,291.428v.2h7.326v-.237Z" transform="translate(-903.114 -291.269)"/><path d="M942.723,334.94h.232v-.672a1.925,1.925,0,0,1,1.978,0v.6h.423v-.393h-.207s.085-.816-1.294-.685c0,0-1.108-.106-1.082.6h-.254Z" transform="translate(-932.999 -332.663)"/></g><path d="M920,333.818a3.242,3.242,0,0,1,2.443-3.031,10.2,10.2,0,0,1,5.7.258c4.012,1.332-.507,6.1-.507,6.1s-3.005,2.959-5.808.892a4.367,4.367,0,0,1-1.636-2.536A6.428,6.428,0,0,1,920,333.818Z" transform="translate(-542.243 -207.714)" fill="#16bac5"/><path d="M958.784,333.818a3.242,3.242,0,0,0-2.448-3.031,10.183,10.183,0,0,0-5.694.258c-4.012,1.332.507,6.1.507,6.1s3,2.959,5.808.892a4.367,4.367,0,0,0,1.636-2.536A6.425,6.425,0,0,0,958.784,333.818Z" transform="translate(-558.976 -207.714)" fill="#16bac5"/><path d="M910.5,290.8v.2h7.326v-.241Z" transform="translate(-525.36 -167.848)" fill="#6c63ff"/><path d="M942.723,334.311h.232v-.672a1.936,1.936,0,0,1,1.978,0v.6h.423v-.4h-.207s.085-.812-1.294-.685c0,0-1.108-.1-1.082.6h-.254Z" transform="translate(-555.245 -209.244)" fill="#6c63ff"/><rect width="2.401" height="54.066" transform="translate(49.907 193.265)" fill="#535461"/><path d="M141.3,619.758l-.152,2.435-.211,3.437-.089,1.433-.211,3.441-.093,1.433-.211,3.437-2.422,39.089a6.62,6.62,0,0,1-6.607,6.214H118.718a6.615,6.615,0,0,1-6.6-6.213l-2.435-39.089-.211-3.437-.089-1.433-.207-3.449-.089-1.433-.211-3.437-.152-2.435a3.428,3.428,0,0,1,3.424-3.64h25.739a3.424,3.424,0,0,1,3.42,3.648Z" transform="translate(-73.906 -372.592)" fill="#3f3d56"/><path d="M114.393,590.46l-.211,3.437H82.321l-.211-3.437Z" transform="translate(-47.146 -340.859)" fill="#9d9cb5"/><path d="M114.5,601.98l-.211,3.441H83.036l-.216-3.441Z" transform="translate(-47.556 -347.509)" fill="#9d9cb5"/><path d="M114.614,613.51l-.211,3.437H83.756l-.216-3.437Z" transform="translate(-47.972 -354.165)" fill="#9d9cb5"/><path d="M58.269,530.565c13.984,10.116,19.809,25.942,19.809,25.942s-16.854-.579-30.859-10.695S27.41,519.87,27.41,519.87,44.281,520.449,58.269,530.565Z" transform="translate(-26.97 -317.035)" fill="#16bac5"/><path d="M27.46,519.87s17.492,9.723,23.1,17.754,27.544,18.887,27.544,18.887" transform="translate(-26.999 -317.035)" fill="none" stroke="#535461" stroke-miterlimit="10" stroke-width="2"/><path d="M98.842,489.051a33.9,33.9,0,0,1,10.784,14.119,33.9,33.9,0,0,1-16.786-5.821A33.9,33.9,0,0,1,82.06,483.23,33.637,33.637,0,0,1,98.842,489.051Z" transform="translate(-58.518 -295.883)" fill="#16bac5"/><path d="M82.06,483.18s9.52,5.284,12.572,9.659,14.994,10.281,14.994,10.281" transform="translate(-58.518 -295.854)" fill="none" stroke="#535461" stroke-miterlimit="10" stroke-width="2"/><path d="M158.973,512.065c-8.746,9.608-10.593,22.163-10.593,22.163s12.327-3.022,21.068-12.631,10.593-22.167,10.593-22.167S167.715,502.452,158.973,512.065Z" transform="translate(-96.804 -305.235)" fill="#16bac5"/><path d="M180.042,499.43s-11.388,9.849-14.284,16.638-17.378,18.177-17.378,18.177" transform="translate(-96.804 -305.235)" fill="none" stroke="#535461" stroke-miterlimit="10" stroke-width="2"/></g></svg>