<?xml version="1.0" encoding="iso-8859-1"?>
<!-- Generator: Adobe Illustrator 19.0.0, SVG Export Plug-In . SVG Version: 6.00 Build 0)  -->
<svg version="1.1" id="Capa_1" xmlns="http://www.w3.org/2000/svg" xmlns:xlink="http://www.w3.org/1999/xlink" x="0px" y="0px"
	 viewBox="0 0 480 480" style="enable-background:new 0 0 480 480;" xml:space="preserve">
<path style="fill:#EFECE8;" d="M240,8C111.872,8,8,111.872,8,240c0,56.256,20.032,107.824,53.336,147.992
	c15.512-63.176,63.688-113.384,125.552-132.04C161.048,238.744,144,209.376,144,176c0-53.016,42.984-96,96-96s96,42.984,96,96
	c0,33.376-17.048,62.744-42.896,79.952c61.864,18.656,110.04,68.864,125.552,132.04C451.968,347.824,472,296.256,472,240
	C472,111.872,368.128,8,240,8z"/>
<path style="fill:#C6C3BD;" d="M293.104,255.952C318.952,238.744,336,209.376,336,176c0-53.016-42.984-96-96-96s-96,42.984-96,96
	c0,33.376,17.048,62.744,42.896,79.952c-61.864,18.656-110.04,68.864-125.552,132.04c0,0,0,0.008,0.008,0.008
	c2.528,3.048,5.152,6.024,7.832,8.944c0.648,0.712,1.328,1.392,1.992,2.088c2.064,2.192,4.152,4.352,6.296,6.464
	c0.888,0.872,1.792,1.712,2.696,2.568c1.984,1.888,3.992,3.752,6.04,5.568c1.016,0.896,2.048,1.784,3.072,2.664
	c2.008,1.72,4.04,3.408,6.112,5.056c1.088,0.872,2.184,1.728,3.28,2.584c2.096,1.616,4.224,3.184,6.376,4.72
	c1.112,0.792,2.208,1.6,3.336,2.376c2.272,1.568,4.584,3.072,6.912,4.56c1.048,0.664,2.072,1.352,3.128,2.008
	c2.688,1.656,5.424,3.24,8.184,4.792c0.728,0.408,1.44,0.848,2.176,1.248c3.568,1.952,7.192,3.824,10.872,5.592
	c0.088,0.04,0.184,0.08,0.272,0.12c3.512,1.68,7.08,3.272,10.688,4.776c1.12,0.472,2.264,0.888,3.392,1.336
	c2.608,1.04,5.216,2.064,7.872,3.008c1.408,0.504,2.832,0.96,4.248,1.44c2.416,0.816,4.848,1.608,7.296,2.336
	c1.552,0.464,3.112,0.896,4.68,1.328c2.368,0.656,4.752,1.28,7.16,1.864c1.624,0.392,3.256,0.768,4.896,1.128
	c2.408,0.528,4.824,1.008,7.256,1.456c1.648,0.304,3.288,0.616,4.952,0.88c2.512,0.408,5.04,0.752,7.576,1.08
	c1.6,0.208,3.192,0.44,4.8,0.608c2.8,0.304,5.624,0.52,8.448,0.72c1.368,0.096,2.72,0.24,4.088,0.312
	c4.216,0.24,8.448,0.376,12.72,0.376s8.504-0.136,12.72-0.36c1.368-0.072,2.728-0.216,4.088-0.312c2.832-0.2,5.656-0.416,8.448-0.72
	c1.608-0.176,3.2-0.4,4.8-0.608c2.536-0.328,5.064-0.672,7.576-1.08c1.656-0.272,3.304-0.576,4.952-0.88
	c2.432-0.448,4.856-0.928,7.256-1.456c1.64-0.36,3.272-0.736,4.896-1.128c2.4-0.584,4.784-1.208,7.16-1.864
	c1.56-0.432,3.128-0.864,4.68-1.328c2.456-0.736,4.88-1.528,7.296-2.336c1.416-0.48,2.848-0.936,4.248-1.44
	c2.648-0.952,5.264-1.968,7.872-3.008c1.128-0.448,2.272-0.872,3.392-1.336c3.592-1.504,7.144-3.08,10.64-4.76
	c0.104-0.048,0.216-0.096,0.32-0.144c3.68-1.768,7.304-3.64,10.872-5.592c0.736-0.4,1.448-0.84,2.176-1.248
	c2.76-1.552,5.496-3.136,8.184-4.792c1.056-0.648,2.088-1.336,3.128-2.008c2.328-1.488,4.64-3,6.912-4.56
	c1.12-0.776,2.224-1.576,3.336-2.376c2.152-1.544,4.28-3.112,6.376-4.72c1.104-0.848,2.192-1.712,3.28-2.584
	c2.064-1.648,4.104-3.336,6.112-5.056c1.032-0.88,2.064-1.768,3.072-2.664c2.048-1.816,4.056-3.68,6.04-5.568
	c0.896-0.856,1.808-1.704,2.696-2.568c2.144-2.112,4.24-4.272,6.296-6.464c0.656-0.704,1.336-1.384,1.992-2.088
	c2.68-2.92,5.304-5.896,7.832-8.944c0,0,0-0.008,0.008-0.008C403.152,324.816,354.976,274.6,293.104,255.952z"/>
<path style="fill:#4B413A;" d="M240,0C107.664,0,0,107.664,0,240c0,57.96,20.656,111.184,54.992,152.704
	c0.088,0.12,0.096,0.272,0.192,0.384c24.792,29.896,55.928,52.816,90.624,67.624c0.4,0.168,0.792,0.352,1.192,0.52
	c2.808,1.184,5.648,2.28,8.496,3.352c1.12,0.424,2.24,0.856,3.376,1.264c2.456,0.88,4.928,1.712,7.416,2.512
	c1.592,0.512,3.184,1.016,4.792,1.496c2.2,0.656,4.408,1.288,6.632,1.888c1.952,0.528,3.92,1.016,5.888,1.488
	c1.992,0.48,3.992,0.96,6,1.384c2.24,0.48,4.504,0.904,6.776,1.32c1.824,0.336,3.64,0.688,5.48,0.984
	c2.52,0.408,5.056,0.728,7.6,1.056c1.64,0.208,3.272,0.448,4.92,0.624c2.88,0.304,5.784,0.52,8.696,0.72
	c1.352,0.096,2.696,0.24,4.056,0.312c4.248,0.24,8.544,0.368,12.872,0.368s8.624-0.128,12.888-0.352
	c1.36-0.072,2.704-0.216,4.056-0.312c2.912-0.208,5.816-0.416,8.696-0.72c1.648-0.176,3.28-0.416,4.92-0.624
	c2.544-0.328,5.08-0.648,7.6-1.056c1.832-0.296,3.656-0.648,5.48-0.984c2.264-0.416,4.528-0.84,6.776-1.32
	c2.008-0.432,4-0.904,6-1.384c1.968-0.48,3.936-0.968,5.888-1.488c2.224-0.592,4.432-1.232,6.632-1.888
	c1.608-0.48,3.2-0.984,4.792-1.496c2.488-0.8,4.96-1.632,7.416-2.512c1.128-0.408,2.248-0.84,3.376-1.264
	c2.856-1.072,5.688-2.176,8.496-3.352c0.4-0.168,0.792-0.352,1.192-0.52c34.688-14.808,65.832-37.728,90.624-67.624
	c0.096-0.112,0.104-0.272,0.192-0.384C459.344,351.184,480,297.96,480,240C480,107.664,372.336,0,240,0z M287.872,249.736
	c-3.152,2.048-6.432,3.88-9.8,5.48c-0.4,0.192-0.792,0.392-1.192,0.576c-23.168,10.536-50.592,10.536-73.76,0
	c-0.4-0.184-0.8-0.384-1.192-0.576c-3.376-1.6-6.648-3.432-9.8-5.48C168.008,234.024,152,206.864,152,176c0-48.52,39.48-88,88-88
	s88,39.48,88,88C328,206.864,311.992,234.024,287.872,249.736z M189.152,266.632c0.672,0.376,1.336,0.776,2.016,1.136
	c2.384,1.264,4.8,2.448,7.272,3.512c1.896,0.832,3.856,1.536,5.808,2.256c0.384,0.136,0.768,0.288,1.152,0.424
	c10.848,3.84,22.456,6.04,34.6,6.04c12.144,0,23.752-2.2,34.592-6.04c0.384-0.136,0.768-0.288,1.152-0.424
	c1.952-0.72,3.912-1.424,5.808-2.256c2.472-1.064,4.888-2.248,7.272-3.512c0.68-0.368,1.344-0.76,2.016-1.136
	c1.144-0.64,2.312-1.248,3.432-1.936c56.32,18.272,100.088,64.176,115.56,121.112c-20.008,23.272-44.664,42.44-72.576,55.952
	c-0.12,0.056-0.232,0.12-0.352,0.176c-2.856,1.376-5.76,2.672-8.688,3.936c-0.664,0.28-1.32,0.568-1.984,0.848
	c-2.56,1.072-5.152,2.088-7.76,3.064c-1.088,0.408-2.176,0.808-3.272,1.192c-2.312,0.824-4.632,1.616-6.976,2.368
	c-1.456,0.464-2.92,0.904-4.384,1.336c-2.08,0.624-4.168,1.224-6.28,1.784c-1.776,0.472-3.568,0.904-5.36,1.328
	c-1.88,0.448-3.752,0.904-5.648,1.304c-2.072,0.44-4.16,0.816-6.24,1.192c-1.688,0.312-3.368,0.64-5.072,0.912
	c-2.344,0.368-4.712,0.664-7.072,0.96c-1.496,0.192-2.984,0.416-4.496,0.576c-2.696,0.288-5.416,0.472-8.128,0.664
	c-1.208,0.08-2.408,0.216-3.632,0.28c-3.96,0.208-7.928,0.32-11.912,0.32s-7.952-0.112-11.904-0.32
	c-1.216-0.064-2.416-0.192-3.632-0.28c-2.72-0.184-5.432-0.376-8.128-0.664c-1.512-0.16-3-0.384-4.496-0.576
	c-2.36-0.296-4.728-0.592-7.072-0.96c-1.704-0.272-3.384-0.6-5.072-0.912c-2.088-0.376-4.176-0.76-6.24-1.192
	c-1.896-0.4-3.776-0.856-5.648-1.304c-1.792-0.432-3.584-0.856-5.36-1.328c-2.104-0.56-4.2-1.168-6.28-1.784
	c-1.464-0.432-2.928-0.872-4.384-1.336c-2.344-0.752-4.672-1.544-6.976-2.368c-1.096-0.392-2.184-0.792-3.272-1.192
	c-2.608-0.976-5.2-1.992-7.76-3.064c-0.664-0.272-1.312-0.56-1.976-0.84c-2.928-1.256-5.832-2.56-8.696-3.936
	c-0.12-0.056-0.232-0.112-0.352-0.176c-27.912-13.504-52.568-32.672-72.576-55.952c15.464-56.944,59.24-102.848,115.56-121.112
	C186.848,265.384,188.008,265.992,189.152,266.632z M421.832,370.584c-18.136-53.552-59.512-96.832-112.376-117.392
	C330.6,234.144,344,206.64,344,176c0-57.344-46.656-104-104-104s-104,46.656-104,104c0,30.64,13.4,58.144,34.552,77.192
	c-52.864,20.568-94.24,63.84-112.376,117.392C31.672,333.792,16,288.704,16,240C16,116.488,116.488,16,240,16s224,100.488,224,224
	C464,288.704,448.328,333.792,421.832,370.584z"/>
<g>
</g>
<g>
</g>
<g>
</g>
<g>
</g>
<g>
</g>
<g>
</g>
<g>
</g>
<g>
</g>
<g>
</g>
<g>
</g>
<g>
</g>
<g>
</g>
<g>
</g>
<g>
</g>
<g>
</g>
</svg>
