<?xml version="1.0" encoding="iso-8859-1"?>
<!-- Generator: Adobe Illustrator 19.0.0, SVG Export Plug-In . SVG Version: 6.00 Build 0)  -->
<svg version="1.1" id="Capa_1" xmlns="http://www.w3.org/2000/svg" xmlns:xlink="http://www.w3.org/1999/xlink" x="0px" y="0px"
	 viewBox="0 0 512 512" style="enable-background:new 0 0 512 512;" xml:space="preserve">
<path style="fill:#63CBFF;" d="M511.913,256.087c0,6.079-0.209,12.106-0.627,18.071c-4.46,63.926-32.391,121.366-75.238,163.784
	c-38.753,38.377-89.695,64.438-146.497,71.875C278.573,511.259,267.375,512,256,512c-5.808,0-11.574-0.198-17.287-0.585
	c-5.369-0.355-10.686-0.877-15.95-1.556c-56.938-7.385-107.995-33.478-146.821-71.927C29.104,391.554,0.087,327.21,0.087,256.087
	C0.087,114.75,114.663,0.174,256,0.174c13.621,0,27.001,1.065,40.048,3.113c15.668,2.465,30.877,6.351,45.469,11.521
	C424.276,44.149,487.461,114.865,506.2,202.084C509.95,219.497,511.913,237.557,511.913,256.087z"/>
<g>
	<path style="fill:#A1E4FF;" d="M134.832,202.959L134.832,202.959c0-6.634-5.378-12.012-12.012-12.012H55.969
		c-6.634,0-12.012,5.378-12.012,12.012l0,0c0,6.634,5.378,12.012,12.012,12.012h8.357c6.634,0,12.012,5.378,12.012,12.012l0,0
		c0,6.634-5.378,12.012-12.012,12.012H38.735c-6.634,0-12.012,5.378-12.012,12.012l0,0c0,6.634,5.378,12.012,12.012,12.012h66.851
		c6.634,0,12.012-5.378,12.012-12.012l0,0c0-6.634,5.378-12.012,12.012-12.012h25.591c6.634,0,12.012-5.378,12.012-12.012l0,0
		c0-6.634-5.378-12.012-12.012-12.012h-8.357C140.21,214.972,134.832,209.593,134.832,202.959z"/>
	<path style="fill:#A1E4FF;" d="M511.913,256.087c0,6.079-0.209,12.106-0.627,18.071h-15.428c-6.633,0-12.012-5.379-12.012-12.012
		c0-3.311-1.347-6.32-3.52-8.492s-5.181-3.52-8.492-3.52h-25.591c-6.633,0-12.012-5.379-12.012-12.012
		c0-3.311,1.347-6.319,3.52-8.492s5.181-3.52,8.492-3.52h8.356c6.633,0,12.012-5.379,12.012-12.012
		c0-6.633,5.379-12.012,12.012-12.012H506.2C509.95,219.497,511.913,237.557,511.913,256.087z"/>
	<path style="fill:#A1E4FF;" d="M494.564,163.258h-40.633c-6.633,0-12.012-5.379-12.012-12.012c0-3.322-1.347-6.32-3.52-8.492
		s-5.181-3.52-8.492-3.52h-25.591c-6.633,0-12.012-5.379-12.012-12.012c0-3.322,1.347-6.319,3.52-8.492
		c2.173-2.173,5.181-3.52,8.492-3.52h8.356c6.643,0,12.012-5.379,12.012-12.012c0-6.633,5.379-12.012,12.012-12.012h15.01
		C469.693,112.504,484.264,136.821,494.564,163.258z"/>
</g>
<path style="fill:#69AF54;" d="M508.79,296.062C489.602,418.409,383.727,512,255.99,512S22.377,418.409,3.189,296.062
	L508.79,296.062L508.79,296.062z"/>
<g>
	<path style="fill:#77BC62;" d="M148.412,354.034c0,6.633-5.379,12.012-12.012,12.012h-25.591c-3.322,0-6.319,1.347-8.492,3.52
		c-2.173,2.173-3.52,5.171-3.52,8.492c0,6.633-5.379,12.012-12.012,12.012H37.931c-4.774-7.74-9.15-15.762-13.078-24.025h20.672
		c3.322,0,6.319-1.347,8.492-3.52c2.173-2.173,3.52-5.171,3.52-8.492c0-6.633-5.379-12.012-12.012-12.012h-8.356
		c-3.322,0-6.319-1.347-8.492-3.52s-3.52-5.171-3.52-8.492c0-6.633,5.379-12.012,12.012-12.012h66.851
		c6.633,0,12.012,5.379,12.012,12.012c0,6.633,5.379,12.012,12.012,12.012h8.356c3.322,0,6.32,1.347,8.492,3.52
		S148.412,350.712,148.412,354.034z"/>
	<path style="fill:#77BC62;" d="M448.893,345.888L448.893,345.888c0-6.634-5.378-12.012-12.012-12.012H370.03
		c-6.634,0-12.012,5.378-12.012,12.012l0,0c0,6.634,5.378,12.012,12.012,12.012h8.357c6.634,0,12.012,5.378,12.012,12.012l0,0
		c0,6.634-5.378,12.012-12.012,12.012h-25.591c-6.634,0-12.012,5.378-12.012,12.012l0,0c0,6.634,5.378,12.012,12.012,12.012h66.851
		c6.634,0,12.012-5.378,12.012-12.012l0,0c0-6.634,5.378-12.012,12.012-12.012h25.591c6.634,0,12.012-5.378,12.012-12.012l0,0
		c0-6.634-5.378-12.012-12.012-12.012h-8.357C454.271,357.9,448.893,352.521,448.893,345.888z"/>
</g>
<path style="fill:#DBCC9E;" d="M371.401,474.888c3.489-3.52,5.453-8.513,4.93-13.83c-0.512-5.306-3.395-9.819-7.489-12.597
	c3.489-3.52,5.432-8.503,4.92-13.809c-0.522-5.317-3.405-9.829-7.5-12.608c3.489-3.51,5.442-8.492,4.92-13.809
	c-0.522-5.306-3.395-9.819-7.5-12.597c3.489-3.52,5.442-8.503,4.92-13.809c-0.522-5.317-3.395-9.829-7.489-12.608
	c3.478-3.51,5.432-8.492,4.909-13.809c-0.512-5.306-3.395-9.819-7.489-12.597c3.478-3.52,5.432-8.503,4.92-13.809
	c-0.522-5.317-3.405-9.829-7.5-12.608c3.489-3.51,5.432-8.492,4.92-13.809c-0.522-5.306-3.405-9.819-7.5-12.597
	c3.489-3.52,5.432-8.503,4.92-13.809c-0.355-3.614-1.797-6.852-3.969-9.422c-1.024-1.222-2.214-2.288-3.531-3.175
	c3.489-3.52,5.442-8.503,4.92-13.819c-0.919-9.474-9.359-16.399-18.823-15.48c-7.343,0.721-13.14,5.954-14.958,12.681h-137.88
	c-1.734-6.852-7.594-12.221-15.031-12.942c-9.474-0.93-17.903,6.006-18.823,15.48c-0.512,5.233,1.379,10.153,4.774,13.663
	c-4.011,2.789-6.821,7.249-7.322,12.482c-0.512,5.233,1.368,10.153,4.763,13.663c-4.001,2.789-6.81,7.249-7.322,12.482
	s1.379,10.153,4.774,13.663c-4.011,2.789-6.81,7.249-7.322,12.482c-0.512,5.244,1.379,10.153,4.774,13.663
	c-4.011,2.789-6.821,7.249-7.322,12.482c-0.512,5.244,1.368,10.153,4.763,13.663c-4.001,2.789-6.81,7.249-7.322,12.482
	c-0.512,5.244,1.379,10.163,4.774,13.663c-4.011,2.789-6.81,7.249-7.322,12.493c-0.512,5.233,1.379,10.153,4.774,13.652
	c-4.011,2.789-6.821,7.249-7.333,12.493c-0.501,5.233,1.379,10.153,4.774,13.663c-4.001,2.779-6.81,7.239-7.322,12.482
	c-0.512,5.244,1.389,10.153,4.784,13.663c-0.418,0.292-0.836,0.595-1.243,0.94c-1.734,1.452-3.123,3.207-4.136,5.15
	c11.072,6.33,22.656,11.856,34.689,16.493C192.461,505.952,223.525,512,256,512c43.84,0,85.099-11.02,121.167-30.448
	C375.872,478.899,373.898,476.58,371.401,474.888z"/>
<g>
	<path style="fill:#EADDB0;" d="M371.401,474.888c3.489-3.52,5.453-8.513,4.93-13.83c-0.512-5.306-3.395-9.819-7.489-12.597
		c3.489-3.52,5.432-8.503,4.92-13.809c-0.522-5.317-3.405-9.829-7.5-12.608c3.489-3.51,5.442-8.492,4.92-13.809
		c-0.522-5.306-3.395-9.819-7.5-12.597c3.489-3.52,5.442-8.503,4.92-13.809c-0.522-5.317-3.395-9.829-7.489-12.608
		c3.478-3.51,5.432-8.492,4.909-13.809c-0.512-5.306-3.395-9.819-7.489-12.597c3.478-3.52,5.432-8.503,4.92-13.809
		c-0.522-5.317-3.405-9.829-7.5-12.608c3.489-3.51,5.432-8.492,4.92-13.809c-0.522-5.306-3.405-9.819-7.5-12.597
		c3.489-3.52,5.432-8.503,4.92-13.809c-0.355-3.614-1.797-6.852-3.969-9.422c0,0.021-0.01,0.031-0.01,0.052h-137.88
		c-1.734-6.852-7.594-12.221-15.031-12.942c-9.474-0.93-17.903,6.006-18.823,15.48c-0.512,5.233,1.379,10.153,4.774,13.663
		c-4.011,2.789-6.821,7.249-7.322,12.482c-0.512,5.233,1.368,10.153,4.763,13.663c-4.001,2.789-6.81,7.249-7.322,12.482
		c-0.512,5.233,1.379,10.153,4.774,13.663c-4.011,2.789-6.81,7.249-7.322,12.482c-0.512,5.244,1.379,10.153,4.774,13.663
		c-4.011,2.789-6.821,7.249-7.322,12.482c-0.512,5.244,1.368,10.153,4.763,13.663c-4.001,2.789-6.81,7.249-7.322,12.482
		c-0.512,5.244,1.379,10.163,4.774,13.663c-4.011,2.789-6.81,7.249-7.322,12.493c-0.512,5.233,1.379,10.153,4.774,13.652
		c-4.011,2.789-6.821,7.249-7.333,12.493c-0.501,5.233,1.379,10.153,4.774,13.663c-4.001,2.778-6.81,7.239-7.322,12.482
		c-0.512,5.244,1.389,10.153,4.784,13.663c-0.418,0.292-0.836,0.595-1.243,0.94c-0.658,0.554-1.274,1.159-1.828,1.797
		C192.461,505.952,223.525,512,256,512c43.84,0,85.099-11.02,121.167-30.448C375.872,478.899,373.898,476.58,371.401,474.888z"/>
	<path style="fill:#EADDB0;" d="M355.984,155.977c0.839-0.299,1.652-0.63,2.473-0.978c45.587-18.456,68.476-70.01,51.188-116.386
		l-2.914-7.824l-8.252-22.154c-2.838-7.618-11.856-10.955-18.895-6.888c-37.851,21.87-55.535,68.496-39.775,110.842L355.984,155.977
		z"/>
</g>
<path style="fill:#4D4445;" d="M363.252,152.145c0.492-0.175,0.969-0.37,1.451-0.573c26.738-10.825,40.164-41.063,30.023-68.265
	l-1.709-4.589l-5.567-14.946c-1.243-3.337-5.134-4.862-8.293-3.218c-23.613,12.29-34.917,40.55-25.392,66.145L363.252,152.145z"/>
<path style="fill:#EADDB0;" d="M150.118,155.977c-0.839-0.299-1.652-0.63-2.473-0.978c-45.587-18.457-68.476-70.011-51.187-116.387
	l2.914-7.824l8.252-22.154c2.838-7.618,11.856-10.955,18.895-6.888c37.851,21.87,55.535,68.497,39.775,110.843L150.118,155.977z"/>
<path style="fill:#4D4445;" d="M142.85,152.145c-0.492-0.175-0.969-0.37-1.451-0.573c-26.738-10.825-40.164-41.063-30.023-68.265
	l1.709-4.589l5.567-14.946c1.243-3.337,5.134-4.862,8.293-3.218c23.613,12.29,34.917,40.55,25.392,66.145L142.85,152.145z"/>
<path style="fill:#EADDB0;" d="M405.036,175.261c-1.598-2.601-3.865-4.753-6.57-6.194c3.029-3.175,4.774-7.437,4.774-11.897
	c0-1.755-0.272-3.541-0.846-5.306c-1.003-3.092-2.789-5.703-5.076-7.688c-2.288-1.995-5.066-3.353-8.043-3.927
	c1.191-2.402,1.807-5.045,1.807-7.719c0-3.332-0.961-6.706-2.977-9.672c-3.332-4.899-8.743-7.542-14.258-7.542
	c-0.418,0-0.846,0.01-1.264,0.042c0.23-1.128,0.345-2.277,0.345-3.426c0-4.742-1.932-9.453-5.735-12.858
	c-3.29-2.946-7.406-4.398-11.5-4.398c-1.723,0-3.437,0.251-5.097,0.763c-0.063-2.914-0.877-5.766-2.34-8.283
	c-1.462-2.528-3.583-4.7-6.288-6.267c-2.716-1.556-5.672-2.298-8.586-2.298c-2.862,0-5.693,0.721-8.221,2.079
	c-0.627-2.81-1.953-5.432-3.844-7.604c-1.891-2.183-4.356-3.907-7.28-4.93c-1.891-0.658-3.813-0.982-5.703-0.982
	c-3.938,0-7.73,1.358-10.759,3.771c-1.097-2.643-2.841-4.982-5.066-6.79c-2.225-1.797-4.941-3.071-7.97-3.583
	c-0.971-0.167-1.943-0.24-2.893-0.24c-4.972,0-9.599,2.152-12.796,5.714c-0.251-0.397-0.512-0.783-0.794-1.149
	c-1.421-1.912-3.228-3.51-5.296-4.69c-2.476-1.421-5.348-2.235-8.409-2.256h-0.115c-2.925,0-5.661,0.721-8.074,2.006
	c-2.601,1.389-4.805,3.416-6.403,5.881c-3.207-3.645-7.886-5.891-12.952-5.891c-0.877,0-1.765,0.073-2.664,0.209
	c-3.029,0.47-5.755,1.703-8.012,3.478c-2.246,1.765-4.032,4.074-5.17,6.696c-3.05-2.507-6.925-3.917-10.936-3.917
	c-1.807,0-3.656,0.282-5.463,0.888c-2.925,0.982-5.421,2.674-7.354,4.815c-1.922,2.141-3.29,4.742-3.959,7.542
	c-2.58-1.441-5.494-2.204-8.461-2.204c-2.831,0-5.693,0.689-8.335,2.152c-2.726,1.515-4.878,3.656-6.393,6.152
	c-1.504,2.486-2.35,5.327-2.476,8.231c-1.744-0.575-3.562-0.857-5.379-0.857c-4.001,0-8.001,1.379-11.26,4.189
	c-3.948,3.405-5.985,8.221-5.985,13.057c0,1.024,0.094,2.058,0.282,3.081c-0.533-0.052-1.076-0.073-1.609-0.073
	c-5.39,0-10.696,2.517-14.06,7.239c-2.162,3.029-3.196,6.518-3.196,9.986c0,2.528,0.554,5.045,1.629,7.343
	c-2.987,0.512-5.797,1.797-8.127,3.719c-2.329,1.932-4.189,4.492-5.265,7.552c-0.669,1.891-0.982,3.823-0.982,5.724
	c0,4.293,1.609,8.419,4.45,11.563c-2.737,1.368-5.066,3.457-6.727,6.017c-1.661,2.559-2.664,5.588-2.758,8.868
	c-0.01,0-0.01,0-0.01,0c0,0.167-0.01,0.334-0.01,0.501c0,6.351,3.447,11.95,8.617,14.937c-3.269,3.207-5.181,7.646-5.181,12.315
	c0,1.577,0.219,3.186,0.679,4.774c0.909,3.123,2.622,5.797,4.847,7.855c2.225,2.068,4.962,3.51,7.928,4.178
	c-1.358,2.517-2.058,5.338-2.058,8.189c0,3.175,0.877,6.393,2.716,9.276c1.64,2.57,3.844,4.554,6.351,5.891
	c2.507,1.347,5.317,2.058,8.147,2.068c-0.439,1.535-0.669,3.134-0.669,4.753c0,2.726,0.658,5.505,2.026,8.085
	c0.951,1.776,2.162,3.322,3.562,4.606c1.4,1.285,2.998,2.319,4.711,3.071c-2.465,3.029-3.896,6.863-3.896,10.895
	c0,1.264,0.136,2.538,0.428,3.813c0.679,2.966,2.079,5.588,3.98,7.709c1.901,2.12,4.304,3.739,6.978,4.7
	c-2.11,2.925-3.28,6.466-3.28,10.111c0,2.12,0.397,4.272,1.233,6.361c1.139,2.862,2.956,5.254,5.191,7.051
	c2.246,1.797,4.899,3.019,7.73,3.541c-1.18,2.371-1.797,5.003-1.797,7.656c0,3.102,0.846,6.257,2.611,9.088
	c3.259,5.254,8.879,8.127,14.634,8.127h0.219c-0.397,1.473-0.595,2.977-0.595,4.492c0,4.335,1.629,8.67,4.888,12.023
	c3.374,3.468,7.865,5.223,12.357,5.223c1.441,0,2.883-0.188,4.293-0.543v0.355c0,5.912,3.05,11.678,8.523,14.885
	c2.737,1.598,5.735,2.361,8.691,2.361c3.186,0,6.33-0.888,9.056-2.559c0.867,2.987,2.538,5.682,4.794,7.803
	c2.267,2.11,5.118,3.635,8.377,4.283c6.57,1.306,13.005-1.295,16.89-6.205c1.598,2.162,3.666,3.917,6.037,5.129
	c0.877,0.449,1.797,0.836,2.758,1.128c1.609,0.501,3.322,0.763,5.066,0.763c0.93,0,1.859-0.073,2.81-0.23
	c3.29-0.543,6.194-1.974,8.534-4.011c2.34-2.037,4.095-4.68,5.066-7.646c2.82,1.859,6.131,2.852,9.505,2.852
	c2.789,0,5.63-0.679,8.252-2.11c2.852-1.556,5.087-3.802,6.612-6.414s2.34-5.588,2.361-8.617c1.546,0.439,3.134,0.658,4.732,0.658
	c4.356,0,8.722-1.64,12.075-4.941c3.437-3.374,5.16-7.824,5.16-12.284c0-1.4-0.167-2.789-0.501-4.147
	c0.188,0.01,0.376,0.01,0.554,0.01c5.651,0,11.187-2.768,14.488-7.855c0-0.01,0-0.01,0-0.01c1.88-2.893,2.778-6.152,2.778-9.37
	c0-2.549-0.564-5.076-1.65-7.385c2.831-0.47,5.515-1.64,7.792-3.405c2.267-1.765,4.126-4.126,5.317-6.967
	c0.898-2.162,1.327-4.408,1.327-6.612c0-3.562-1.107-7.019-3.123-9.902c2.684-0.93,5.118-2.517,7.051-4.606
	c1.932-2.089,3.374-4.69,4.095-7.656c0.334-1.358,0.491-2.716,0.491-4.053c0-4.178-1.535-8.147-4.168-11.218
	c1.859-0.857,3.572-2.047,5.035-3.52c1.462-1.483,2.684-3.259,3.562-5.275c0.961-2.235,1.421-4.554,1.421-6.842
	c0-1.682-0.251-3.343-0.721-4.93c2.716-0.042,5.4-0.731,7.813-2.006c2.413-1.285,4.554-3.155,6.194-5.578
	c1.995-2.956,2.956-6.309,2.956-9.631c0-2.684-0.637-5.359-1.849-7.771c2.977-0.585,5.755-1.953,8.043-3.948
	c2.277-1.995,4.063-4.617,5.056-7.709c0.554-1.744,0.825-3.52,0.825-5.254c0-4.481-1.765-8.764-4.815-11.95
	c2.695-1.452,4.972-3.614,6.56-6.225c1.588-2.601,2.507-5.672,2.507-8.952v-0.345C407.553,180.932,406.623,177.861,405.036,175.261z
	"/>
<path style="fill:#DBCC9E;" d="M238.661,101.779c1.943-1.337,3.531-3.008,4.742-4.868c1.201-1.88,2.016-3.948,2.423-6.1
	c2.235,1.034,4.7,1.598,7.228,1.598c1.588,0,3.196-0.23,4.794-0.689c7.542-2.183,12.441-9.067,12.441-16.546
	c0-1.588-0.219-3.207-0.689-4.805c-0.23-0.825-0.522-1.609-0.867-2.361c-0.104-0.867-0.272-1.744-0.522-2.622
	c-0.052-0.178-0.094-0.345-0.157-0.512c-1.421-1.912-3.228-3.51-5.296-4.69c-2.476-1.421-5.348-2.235-8.409-2.256h-0.115
	c-6.069,0-11.406,3.144-14.477,7.886c-3.207-3.645-7.886-5.891-12.952-5.891c-0.877,0-1.765,0.073-2.664,0.209
	c-3.029,0.47-5.755,1.703-8.012,3.478c-2.246,1.765-4.032,4.074-5.17,6.696c-3.05-2.507-6.925-3.917-10.936-3.917
	c-1.807,0-3.656,0.282-5.463,0.888c-2.925,0.982-5.421,2.674-7.354,4.815c-1.922,2.141-3.29,4.742-3.959,7.542
	c-2.58-1.441-5.494-2.204-8.461-2.204c-2.831,0-5.693,0.689-8.335,2.152c-2.726,1.515-4.878,3.656-6.393,6.152
	c-1.504,2.486-2.35,5.327-2.476,8.231c-1.744-0.575-3.562-0.857-5.379-0.857c-4.001,0-8.001,1.379-11.26,4.189
	c-3.948,3.405-5.985,8.221-5.985,13.057c0,1.024,0.094,2.058,0.282,3.081c-0.533-0.052-1.076-0.073-1.609-0.073
	c-5.39,0-10.696,2.517-14.06,7.239c-2.162,3.029-3.196,6.518-3.196,9.986c0,2.528,0.554,5.045,1.629,7.343
	c-2.987,0.512-5.797,1.797-8.127,3.719c-2.329,1.932-4.189,4.492-5.265,7.552c-0.669,1.891-0.982,3.823-0.982,5.724
	c0,4.293,1.609,8.419,4.45,11.563c-2.737,1.368-5.066,3.457-6.727,6.017c-1.661,2.559-2.664,5.588-2.758,8.868
	c-0.01,0-0.01,0-0.01,0c0,0.167-0.01,0.334-0.01,0.501c0,6.351,3.447,11.95,8.617,14.937c-3.269,3.207-5.181,7.646-5.181,12.315
	c0,1.577,0.219,3.186,0.679,4.774c0.909,3.123,2.622,5.797,4.847,7.855c2.225,2.068,4.962,3.51,7.928,4.178
	c-1.358,2.517-2.058,5.338-2.058,8.189c0,3.175,0.877,6.393,2.716,9.276c1.64,2.57,3.844,4.554,6.351,5.891
	c2.507,1.347,5.317,2.058,8.147,2.068c-0.439,1.535-0.669,3.134-0.669,4.753c0,2.726,0.658,5.505,2.026,8.085
	c0.951,1.776,2.162,3.322,3.562,4.606c1.4,1.285,2.998,2.319,4.711,3.071c-2.465,3.029-3.896,6.863-3.896,10.895
	c0,1.264,0.136,2.538,0.428,3.813c0.679,2.967,2.079,5.588,3.98,7.709c1.901,2.12,4.304,3.739,6.978,4.7
	c-2.11,2.925-3.28,6.466-3.28,10.111c0,2.12,0.397,4.272,1.233,6.361c1.139,2.862,2.956,5.254,5.191,7.051
	c2.246,1.797,4.899,3.019,7.73,3.541c-1.18,2.371-1.797,5.003-1.797,7.656c0,3.102,0.846,6.257,2.611,9.088
	c3.259,5.254,8.879,8.127,14.634,8.127h0.219c-0.397,1.473-0.595,2.977-0.595,4.492c0,4.335,1.629,8.67,4.888,12.023
	c3.374,3.468,7.865,5.223,12.357,5.223c1.441,0,2.883-0.188,4.293-0.543v0.355c0,5.912,3.05,11.678,8.523,14.885
	c2.737,1.598,5.735,2.361,8.691,2.361c3.186,0,6.33-0.888,9.056-2.559c0.867,2.987,2.538,5.682,4.794,7.803
	c2.267,2.11,5.118,3.635,8.377,4.283c6.57,1.306,13.005-1.295,16.89-6.205c1.598,2.162,3.666,3.917,6.037,5.129
	c0.877,0.449,1.797,0.836,2.758,1.128c1.692-2.747,2.549-5.87,2.549-9.014c0-4.032-1.4-8.085-4.262-11.354
	c-0.334-0.376-0.679-0.731-1.034-1.076c1.118-2.34,1.692-4.888,1.692-7.458c0-3.844-1.274-7.709-3.896-10.905
	c-3.416-4.168-8.346-6.319-13.339-6.319h-0.386c0.282-1.243,0.418-2.517,0.418-3.792c0-3.844-1.274-7.709-3.896-10.915
	c-3.405-4.157-8.346-6.309-13.328-6.309h-0.386c0.282-1.243,0.418-2.517,0.418-3.792c0-3.844-1.274-7.709-3.896-10.915
	c-3.416-4.156-8.346-6.309-13.339-6.309h-0.386c0.282-1.253,0.418-2.528,0.418-3.802c0-3.844-1.274-7.698-3.896-10.905
	c-1.535-1.88-3.395-3.353-5.421-4.398c-2.037-1.045-4.241-1.671-6.487-1.859c0.449-1.546,0.689-3.155,0.689-4.805
	c0-1.086-0.104-2.194-0.313-3.301c-0.512-2.601-1.577-4.951-3.05-6.946c-1.473-2.006-3.363-3.645-5.515-4.847
	c2.893-3.113,4.627-7.26,4.627-11.73c0-0.689-0.042-1.389-0.125-2.089c-0.313-2.611-1.201-5.014-2.507-7.103
	c-1.316-2.079-3.05-3.844-5.087-5.191c3.426-3.155,5.567-7.688,5.567-12.67c0-0.209,0-0.418-0.01-0.627
	c-0.094-2.59-0.742-5.035-1.849-7.207c-1.107-2.173-2.653-4.074-4.523-5.588c1.912-1.452,3.51-3.29,4.68-5.411
	c1.18-2.12,1.912-4.533,2.1-7.113c0.031-0.407,0.042-0.815,0.042-1.222c0-4.627-1.838-8.889-4.888-12.012
	c2.026-1.201,3.813-2.81,5.223-4.742c1.4-1.932,2.423-4.189,2.925-6.685c0.23-1.149,0.345-2.298,0.345-3.426
	c0-3.708-1.201-7.239-3.301-10.122c2.141-0.877,4.105-2.194,5.755-3.865c1.64-1.671,2.967-3.708,3.844-6.048
	c0.742-1.985,1.097-4.032,1.097-6.037c0-2.653-0.616-5.254-1.776-7.595c2.225-0.5,4.345-1.421,6.236-2.758
	c1.88-1.337,3.531-3.071,4.794-5.17c1.682-2.778,2.476-5.839,2.476-8.868c0-1.515-0.198-3.008-0.585-4.46
	c2.256-0.052,4.492-0.533,6.581-1.452c2.089-0.919,4.021-2.277,5.672-4.053c3.092-3.322,4.617-7.531,4.617-11.73
	c0-0.272-0.01-0.543-0.021-0.815c1.086,0.209,2.194,0.313,3.301,0.313C232.279,104.797,235.673,103.826,238.661,101.779z"/>
<circle style="fill:#BCAC79;" cx="253.051" cy="347.029" r="35.567"/>
<path style="fill:#DDCE93;" d="M329.825,290.007c0,35.483-25.372,65.2-59.414,72.857c-4.23,0.951-8.335-0.992-11.124-4.711
	c-0.501-0.679-0.971-1.41-1.379-2.204c-0.919-1.776-1.588-3.823-1.922-6.048c-0.982-6.769-2.141-13.318-2.935-13.318
	c-0.783,0-1.953,6.549-2.935,13.318c-0.324,2.225-0.992,4.272-1.922,6.048c-0.407,0.794-0.877,1.525-1.379,2.204
	c-2.789,3.719-6.894,5.661-11.114,4.711c-34.052-7.656-59.424-37.374-59.424-72.857c0-12.869,3.343-24.975,9.213-35.546
	c5.755-10.351,9.944-21.935,12.451-34.24c7.876-38.659,29.571-66.433,55.11-66.433c25.55,0,47.245,27.774,55.11,66.433
	c2.507,12.305,6.696,23.889,12.451,34.24C326.493,265.031,329.825,277.138,329.825,290.007z"/>
<path style="fill:#4D4445;" d="M277.88,308.662c0,5.682-4.439,12.754-11.177,17.193c-4.721,3.113-7.416,8.513-7.416,14.164v18.133
	c-0.501-0.679-0.971-1.41-1.379-2.204c-0.919-1.776-1.588-3.823-1.922-6.048c-0.009-0.068-0.02-0.136-0.029-0.203
	c-0.492-3.325-5.319-3.325-5.811,0c-0.01,0.068-0.02,0.136-0.029,0.203c-0.324,2.225-0.992,4.272-1.922,6.048
	c-0.407,0.794-0.877,1.525-1.379,2.204v-18.133c0-5.651-2.695-11.051-7.416-14.164c-6.727-4.429-11.177-11.511-11.177-17.193
	c0-9.004,11.114,4.544,24.829,4.544C266.766,313.206,277.88,299.658,277.88,308.662z"/>
<path style="fill:#0F0F0E;" d="M380.708,217.06c0,1.866-0.255,3.683-0.718,5.406c-2.375,8.833-10.428,15.322-20.009,15.322
	c-11.448,0-20.727-9.28-20.727-20.727c0-9.583,6.489-17.634,15.322-20.009c1.722-0.463,3.54-0.718,5.405-0.718
	C371.429,196.333,380.708,205.613,380.708,217.06z"/>
<path style="fill:#E6E6E6;" d="M380.708,217.06c0,1.866-0.255,3.683-0.718,5.406c-2.439,1.132-5.182,1.769-8.051,1.769
	c-10.571,0-19.133-8.562-19.133-19.133c0-2.87,0.638-5.612,1.769-8.051c1.722-0.463,3.54-0.718,5.406-0.718
	C371.429,196.333,380.708,205.613,380.708,217.06z"/>
<path style="fill:#0F0F0E;" d="M166.851,217.06c0,1.866-0.255,3.683-0.718,5.406c-2.375,8.833-10.428,15.322-20.009,15.322
	c-11.448,0-20.727-9.28-20.727-20.727c0-9.583,6.489-17.634,15.322-20.009c1.722-0.463,3.54-0.718,5.406-0.718
	C157.572,196.333,166.851,205.613,166.851,217.06z"/>
<path style="fill:#E6E6E6;" d="M166.851,217.06c0,1.866-0.255,3.683-0.718,5.406c-2.439,1.132-5.182,1.769-8.051,1.769
	c-10.571,0-19.133-8.562-19.133-19.133c0-2.87,0.638-5.612,1.769-8.051c1.722-0.463,3.54-0.718,5.406-0.718
	C157.572,196.333,166.851,205.613,166.851,217.06z"/>
<path style="fill:#CCBB87;" d="M205.003,290.005c0,0,9.923-33.091,56.928-33.091c0,0-15.635-5.892-32.117-7.715
	c-8.67-0.959-14.649-9.101-13.033-17.674c0.696-3.687,1.289-7.461,1.779-11.306c4.93-38.659,18.499-66.433,34.491-66.433
	c-25.55,0-47.245,27.774-55.11,66.433c-2.507,12.305-6.696,23.889-12.451,34.24c-5.87,10.571-9.213,22.677-9.213,35.546
	c0,35.483,25.372,65.2,59.414,72.857c1.901,0.428,3.771,0.272,5.515-0.376C220.39,354.287,205.003,324.935,205.003,290.005z"/>
<path style="fill:#DBCC9E;" d="M297.573,70.921c-16.399-3.175-29.038,11.814-29.038,11.814l-22.374-22.802
	c2.413-1.285,5.15-2.006,8.074-2.006h0.115c3.061,0.021,5.933,0.836,8.409,2.256c2.068,1.18,3.875,2.778,5.296,4.69
	c0.282,0.366,0.543,0.752,0.794,1.149c3.196-3.562,7.824-5.714,12.796-5.714c0.951,0,1.922,0.073,2.893,0.24
	c3.029,0.512,5.745,1.786,7.97,3.583C294.732,65.938,296.476,68.279,297.573,70.921z"/>
<g>
</g>
<g>
</g>
<g>
</g>
<g>
</g>
<g>
</g>
<g>
</g>
<g>
</g>
<g>
</g>
<g>
</g>
<g>
</g>
<g>
</g>
<g>
</g>
<g>
</g>
<g>
</g>
<g>
</g>
</svg>
