<?xml version="1.0" encoding="iso-8859-1"?>
<!-- Generator: Adobe Illustrator 19.0.0, SVG Export Plug-In . SVG Version: 6.00 Build 0)  -->
<svg version="1.1" id="Capa_1" xmlns="http://www.w3.org/2000/svg" xmlns:xlink="http://www.w3.org/1999/xlink" x="0px" y="0px"
	 viewBox="0 0 512 512" style="enable-background:new 0 0 512 512;" xml:space="preserve">
<path style="fill:#63CBFF;" d="M512,256c0,2.508-0.031,4.995-0.104,7.481c-0.24,8.338-0.878,16.572-1.912,24.68
	c-1.484,11.88-3.783,23.51-6.844,34.826c-5.454,20.187-13.322,39.382-23.28,57.26c-2.508,4.535-5.162,8.976-7.941,13.333
	C426.454,464.792,346.739,512,256,512c-90.749,0-170.475-47.219-215.928-118.439c-2.779-4.347-5.433-8.788-7.941-13.312
	c-9.947-17.878-17.816-37.083-23.27-57.26c-3.062-11.316-5.36-22.946-6.844-34.826c-1.034-8.108-1.672-16.342-1.912-24.68
	C0.031,260.995,0,258.508,0,256c0-7.784,0.345-15.485,1.024-23.082c1.87-20.929,6.259-41.138,12.863-60.312
	C48.483,72.161,143.809,0,256,0s207.517,72.161,242.113,172.607c6.604,19.174,10.992,39.382,12.863,60.312
	C511.655,240.515,512,248.215,512,256z"/>
<path style="fill:#427A2D;" d="M512,256c0,2.508-0.031,4.995-0.104,7.481c-6.98,3.835-14.994,6.008-23.51,6.008
	c-15.768,0-29.78-7.461-38.724-19.048c-8.955,11.588-22.967,19.048-38.734,19.048c-15.768,0-29.79-7.461-38.734-19.048
	c-8.944,11.588-22.956,19.048-38.734,19.048c-15.768,0-29.78-7.461-38.724-19.048C285.78,262.029,271.767,269.49,256,269.49
	s-29.78-7.461-38.734-19.048c-8.944,11.588-22.956,19.048-38.724,19.048c-15.778,0-29.79-7.461-38.734-19.048
	c-8.944,11.588-22.967,19.048-38.734,19.048s-29.78-7.461-38.734-19.048c-8.944,11.588-22.956,19.048-38.724,19.048
	c-8.516,0-16.53-2.173-23.51-6.008C0.031,260.995,0,258.508,0,256c0-7.784,0.345-15.485,1.024-23.082
	c1.87-20.929,6.259-41.138,12.863-60.312c3.145-0.627,6.395-0.961,9.728-0.961c15.768,0,29.78,7.471,38.724,19.048
	c8.955-11.577,22.967-19.048,38.734-19.048s29.79,7.471,38.734,19.048c8.944-11.577,22.956-19.048,38.734-19.048
	c15.768,0,29.78,7.471,38.724,19.048c8.955-11.577,22.967-19.048,38.734-19.048s29.78,7.471,38.734,19.048
	c8.944-11.577,22.956-19.048,38.724-19.048c15.778,0,29.79,7.471,38.734,19.048c8.944-11.577,22.967-19.048,38.734-19.048
	c15.767,0,29.78,7.471,38.734,19.048c8.944-11.577,22.956-19.048,38.724-19.048c3.333,0,6.583,0.334,9.728,0.961
	c6.604,19.174,10.992,39.382,12.863,60.312C511.655,240.515,512,248.215,512,256z"/>
<path style="fill:#4C8E37;" d="M512,256c0,2.508-0.031,4.995-0.104,7.481c-0.596,20.532-3.605,40.458-8.756,59.507
	c-4.66,1.463-9.613,2.257-14.754,2.257c-15.768,0-29.78-7.471-38.724-19.048c-8.955,11.577-22.967,19.048-38.734,19.048
	c-15.768,0-29.79-7.471-38.734-19.048c-8.944,11.577-22.956,19.048-38.734,19.048c-15.768,0-29.78-7.471-38.724-19.048
	c-8.955,11.577-22.967,19.048-38.734,19.048s-29.78-7.471-38.734-19.048c-8.944,11.577-22.956,19.048-38.724,19.048
	c-15.778,0-29.79-7.471-38.734-19.048c-8.944,11.577-22.967,19.048-38.734,19.048s-29.78-7.471-38.734-19.048
	c-8.944,11.577-22.956,19.048-38.724,19.048c-5.141,0-10.094-0.794-14.754-2.257C3.709,303.94,0.7,284.014,0.104,263.481
	C0.031,260.995,0,258.508,0,256c0-7.784,0.345-15.485,1.024-23.082c6.76-3.521,14.44-5.517,22.591-5.517
	c15.768,0,29.78,7.461,38.724,19.048c8.955-11.588,22.967-19.048,38.734-19.048s29.79,7.461,38.734,19.048
	c8.944-11.588,22.956-19.048,38.734-19.048c15.768,0,29.78,7.461,38.724,19.048c8.955-11.588,22.967-19.048,38.734-19.048
	s29.78,7.461,38.734,19.048c8.944-11.588,22.956-19.048,38.724-19.048c15.778,0,29.79,7.461,38.734,19.048
	c8.944-11.588,22.967-19.048,38.734-19.048c15.767,0,29.78,7.461,38.734,19.048c8.944-11.588,22.956-19.048,38.724-19.048
	c8.15,0,15.83,1.996,22.591,5.517C511.655,240.515,512,248.215,512,256z"/>
<path style="fill:#69AF54;" d="M509.983,288.162c-1.484,11.88-3.783,23.51-6.844,34.826c-5.454,20.187-13.322,39.382-23.28,57.26
	c-12.236-2.152-22.904-8.861-30.198-18.307c-8.955,11.577-22.967,19.048-38.734,19.048c-15.768,0-29.79-7.471-38.734-19.048
	c-8.944,11.577-22.956,19.048-38.734,19.048c-15.768,0-29.78-7.471-38.724-19.048c-8.955,11.577-22.967,19.048-38.734,19.048
	s-29.78-7.471-38.734-19.048c-8.944,11.577-22.956,19.048-38.724,19.048c-15.778,0-29.79-7.471-38.734-19.048
	c-8.944,11.577-22.967,19.048-38.734,19.048s-29.78-7.471-38.734-19.048c-7.293,9.446-17.962,16.154-30.208,18.307
	c-9.947-17.878-17.816-37.083-23.27-57.26c-3.062-11.316-5.36-22.946-6.844-34.826c6.52-3.218,13.845-5.016,21.598-5.016
	c15.768,0,29.78,7.461,38.724,19.048c8.955-11.588,22.967-19.048,38.734-19.048s29.79,7.461,38.734,19.048
	c8.944-11.588,22.956-19.048,38.734-19.048c15.768,0,29.78,7.461,38.724,19.048c8.955-11.588,22.967-19.048,38.734-19.048
	s29.78,7.461,38.734,19.048c8.944-11.588,22.956-19.048,38.724-19.048c15.778,0,29.79,7.461,38.734,19.048
	c8.944-11.588,22.967-19.048,38.734-19.048c15.767,0,29.78,7.461,38.734,19.048c8.944-11.588,22.956-19.048,38.724-19.048
	C496.138,283.146,503.463,284.944,509.983,288.162z"/>
<path style="fill:#427A2D;" d="M16.054,345.397C52.316,442.696,146.062,512,256,512s203.684-69.304,239.946-166.603H16.054z"/>
<path style="fill:#59737C;" d="M463.235,406.309C416.716,470.361,341.222,512,256,512c-58.023,0-111.532-19.299-154.467-51.848
	c-20.125-15.235-37.919-33.395-52.767-53.833C57.448,274.777,146.923,171.363,256,171.363c68.159,0,128.648,40.364,166.567,102.745
	C445.336,311.568,459.974,356.958,463.235,406.309z"/>
<path style="fill:#6D8793;" d="M463.235,406.309C416.716,470.361,341.222,512,256,512c-58.023,0-111.532-19.299-154.467-51.848
	c11.254-128.303,99.516-228.185,206.712-228.185c42.235,0,81.523,15.496,114.322,42.141
	C445.336,311.568,459.974,356.958,463.235,406.309z"/>
<path style="fill:#D8CD97;" d="M326.417,107.835l74.901-25.892c8.083-2.794,16.668,2.61,17.656,11.106
	c2.858,24.59-0.665,69.201-62.216,74.364"/>
<g>
	<path style="fill:#C1B57F;" d="M185.583,107.835l-74.901-25.892c-8.083-2.794-16.668,2.61-17.656,11.106
		c-2.858,24.59,0.665,69.201,62.216,74.364"/>
	<path style="fill:#C1B57F;" d="M356.801,236.952h-16.405v15.736h16.405c4.346,0,7.868-3.522,7.868-7.868l0,0
		C364.669,240.474,361.147,236.952,356.801,236.952z"/>
	<path style="fill:#C1B57F;" d="M155.199,236.952h16.405v15.736h-16.405c-4.346,0-7.868-3.522-7.868-7.868l0,0
		C147.331,240.474,150.853,236.952,155.199,236.952z"/>
</g>
<path style="fill:#D8CD97;" d="M358.013,183.16l-6.468,25.527l-11.149,44.001l-55.954,220.871c-0.125,0.512-0.272,1.014-0.428,1.515
	c-3.793,12.194-15.109,20.616-28.014,20.616s-24.221-8.422-28.014-20.616c-0.157-0.502-0.303-1.003-0.428-1.515l-55.954-220.871
	l-11.149-44.011l-6.468-25.516c-15.83-62.485,31.399-123.173,95.859-123.173h12.309C326.614,59.988,373.844,120.675,358.013,183.16z
	"/>
<g>
	<path style="fill:#C1B57F;" d="M256,495.689c-12.904,0-24.221-8.422-28.014-20.616c-0.157-0.502-0.303-1.003-0.428-1.515
		l-55.954-220.871l-11.149-44.011l-6.468-25.516c-15.83-62.485,31.399-123.173,95.859-123.173h2.111
		c-42.297,0-73.289,60.688-62.903,123.173l4.253,25.516l7.314,44.011l36.718,220.871c0.084,0.512,0.178,1.014,0.282,1.515
		C240.107,487.267,247.536,495.689,256,495.689z"/>
	<path style="fill:#C1B57F;" d="M351.545,208.687l-11.149,44.001c-9.561-2.664-16.593-11.463-16.593-21.87
		c0-10.25,6.907-19.268,16.802-21.922c1.933-0.522,3.918-0.784,5.904-0.784C348.244,208.112,349.926,208.311,351.545,208.687z"/>
	<path style="fill:#C1B57F;" d="M188.197,230.818c0,1.985-0.261,3.981-0.784,5.914c-2.111,7.868-8.234,13.845-15.809,15.956
		l-11.149-44.011c1.651-0.376,3.344-0.564,5.036-0.564C178.009,208.112,188.197,218.3,188.197,230.818z"/>
</g>
<g>
	<path style="fill:#0F0F0E;" d="M358.814,230.82c0,1.108-0.151,2.186-0.426,3.208c-1.41,5.242-6.189,9.094-11.875,9.094
		c-6.794,0-12.302-5.508-12.302-12.302c0-5.687,3.852-10.466,9.094-11.875c1.022-0.275,2.1-0.426,3.208-0.426
		C353.306,218.518,358.814,224.025,358.814,230.82z"/>
	<circle style="fill:#0F0F0E;" cx="165.491" cy="230.818" r="12.302"/>
</g>
<g>
	<path style="fill:#E6E6E6;" d="M358.814,230.82c0,1.108-0.151,2.186-0.426,3.208c-1.448,0.672-3.075,1.05-4.778,1.05
		c-6.274,0-11.355-5.081-11.355-11.355c0-1.703,0.378-3.331,1.05-4.778c1.022-0.275,2.1-0.426,3.208-0.426
		C353.306,218.518,358.814,224.025,358.814,230.82z"/>
	<path style="fill:#E6E6E6;" d="M177.789,230.82c0,1.108-0.152,2.186-0.426,3.208c-1.448,0.672-3.075,1.05-4.778,1.05
		c-6.274,0-11.355-5.081-11.355-11.355c0-1.703,0.378-3.331,1.05-4.778c1.022-0.275,2.1-0.426,3.208-0.426
		C172.283,218.518,177.789,224.025,177.789,230.82z"/>
</g>
<g>
	<path style="fill:#C1B57F;" d="M279.818,359.338h-47.638c-2.885,0-5.224-2.34-5.224-5.224l0,0c0-2.885,2.34-5.224,5.224-5.224
		h47.638c2.885,0,5.224,2.34,5.224,5.224l0,0C285.043,356.999,282.704,359.338,279.818,359.338z"/>
	<path style="fill:#C1B57F;" d="M279.818,326.945h-47.638c-2.885,0-5.224-2.34-5.224-5.224l0,0c0-2.885,2.34-5.224,5.224-5.224
		h47.638c2.885,0,5.224,2.34,5.224,5.224l0,0C285.043,324.607,282.704,326.945,279.818,326.945z"/>
	<path style="fill:#C1B57F;" d="M309.863,296.643H202.137c-2.885,0-5.224-2.34-5.224-5.224l0,0c0-2.885,2.34-5.224,5.224-5.224
		h107.727c2.885,0,5.224,2.34,5.224,5.224l0,0C315.088,294.305,312.749,296.643,309.863,296.643z"/>
</g>
<g>
	<path style="fill:#556F7C;" d="M284.014,475.073c-3.793,12.194-15.109,20.616-28.014,20.616s-24.221-8.422-28.014-20.616
		c2.341-13.354,13.991-23.5,28.014-23.5C270.022,451.574,281.673,461.719,284.014,475.073z"/>
	<path style="fill:#556F7C;" d="M354.256,130.994l43.875-21.365c4.707-2.293,9.99,1.9,8.794,6.997
		c-2.084,8.873-6.728,20.16-17.068,24.86c-11.303,5.138-25.794,1.557-35.159-1.898C350.828,138.161,350.548,132.8,354.256,130.994z"
		/>
	<path style="fill:#556F7C;" d="M157.744,130.994l-43.875-21.365c-4.707-2.293-9.99,1.9-8.794,6.997
		c2.084,8.873,6.728,20.16,17.068,24.86c11.303,5.138,25.794,1.557,35.159-1.898C161.172,138.161,161.452,132.8,157.744,130.994z"/>
</g>
<g>
</g>
<g>
</g>
<g>
</g>
<g>
</g>
<g>
</g>
<g>
</g>
<g>
</g>
<g>
</g>
<g>
</g>
<g>
</g>
<g>
</g>
<g>
</g>
<g>
</g>
<g>
</g>
<g>
</g>
</svg>
