<?xml version="1.0" encoding="iso-8859-1"?>
<!-- Generator: Adobe Illustrator 19.0.0, SVG Export Plug-In . SVG Version: 6.00 Build 0)  -->
<svg version="1.1" id="Capa_1" xmlns="http://www.w3.org/2000/svg" xmlns:xlink="http://www.w3.org/1999/xlink" x="0px" y="0px"
	 viewBox="0 0 512 512" style="enable-background:new 0 0 512 512;" xml:space="preserve">
<path style="fill:#63CBFF;" d="M512,256c0,67.291-25.966,128.522-68.42,174.216c-9.592,10.334-20.041,19.864-31.211,28.494
	C369.121,492.126,314.88,512,256,512c-34.137,0-66.706-6.677-96.486-18.808c-21.588-8.788-41.702-20.438-59.883-34.482
	c-11.18-8.641-21.619-18.171-31.222-28.505C32.193,391.22,7.983,340.94,1.651,285.226C0.564,275.634,0,265.885,0,256
	c0-10.501,0.627-20.846,1.87-31.013C17.168,98.22,125.116,0,256,0c140.664,0,254.84,113.455,255.99,253.848
	C512,254.568,512,255.279,512,256z"/>
<path style="fill:#394F59;" d="M312.717,493.192H159.514c-21.588-8.788-41.702-20.438-59.883-34.482
	c-11.18-8.641-21.619-18.171-31.222-28.505C32.193,391.22,7.983,340.94,1.651,285.226l46.613-71.69l41.315-63.551l197.914,304.41
	l2.8,4.315L312.717,493.192z"/>
<g>
	<path style="fill:#556F7C;" d="M189.816,458.71H99.631c-11.18-8.641-21.619-18.171-31.222-28.505
		C32.193,391.22,7.983,340.94,1.651,285.226c-0.972-8.558-1.526-17.241-1.62-26.028C0.01,258.132,0,257.066,0,256
		c0-10.501,0.627-20.846,1.87-31.013l26.499-45.902l46.09,79.83L189.816,458.71z"/>
	<path style="fill:#556F7C;" d="M512,256c0,67.291-25.966,128.522-68.42,174.216c-9.592,10.334-20.041,19.864-31.211,28.494H285.466
		l2.027-4.315l169.87-267.458l54.626,66.911C512,254.568,512,255.279,512,256z"/>
</g>
<path style="fill:#394F59;" d="M443.58,430.216C396.831,480.528,330.094,512,256,512s-140.842-31.483-187.591-81.795
	C88.168,301.819,164.655,206.127,256,206.127C347.335,206.127,423.821,301.829,443.58,430.216z"/>
<path style="fill:#E6E6E6;" d="M394.801,314.995l-4.19-2.967c-6.437-4.556-15.224,0.679-14.273,8.505l3.302,27.178
	c0.961,7.983-8.161,13.187-14.545,8.307l-36.707-28.108c-5.663-4.336-13.897-0.742-14.566,6.363l-2.654,28.369
	c-0.763,8.108-10.971,11.191-16.102,4.88l-33.155-40.897c-3.636-4.483-10.47-4.483-14.106,0l-33.165,40.897
	c-5.13,6.322-15.339,3.229-16.102-4.869l-2.654-28.379c-0.669-7.105-8.903-10.7-14.566-6.363l-36.707,28.108
	c-0.387,0.293-0.773,0.543-1.17,0.763c-6.269,3.49-14.284-1.567-13.375-9.07l3.302-27.188c0.951-7.826-7.837-13.061-14.263-8.505
	l-7.137,5.057c-7.701,5.444-17.586-3.009-13.396-11.452c2.915-5.862,6.144-11.546,9.686-17.011
	c14.932-23.082,19.717-51.346,12.957-77.991c-2.738-10.794-4.19-22.1-4.19-33.75c0-75.912,61.795-137.394,137.832-136.882
	c74.888,0.512,135.899,61.942,135.931,136.84c0,11.776-1.484,23.218-4.284,34.126c-6.771,26.405-1.964,54.533,12.884,77.406
	c3.166,4.89,6.102,9.947,8.777,15.151C412.491,311.933,402.512,320.46,394.801,314.995z"/>
<path style="fill:#F4B345;" d="M316.058,212.313l-17.418,8.662c-7.68,3.814-13.96,9.644-18.307,16.666
	c-4.357,7.022-6.781,15.235-6.781,23.824c0,8.547-5.371,16.374-13.531,18.913c-2.163,0.669-4.295,0.982-6.353,0.982
	c-1.39,0-2.748-0.146-4.065-0.418c-9.038-1.87-15.83-9.874-15.83-19.466c0-17.178-9.728-32.862-25.098-40.5l-17.418-8.662
	c-6.813-3.385-4.409-13.636,3.197-13.636h15.35c5.005,0,9.624-3.699,13.343-8.077c3.803-4.483,8.495-8.025,13.699-10.449
	c5.13-2.393,10.762-3.688,16.551-3.73h0.261c11.766,0,22.894,5.214,30.511,14.179c3.72,4.378,8.338,8.077,13.343,8.077h15.35
	C320.467,198.677,322.87,208.927,316.058,212.313z"/>
<g>
	<path style="fill:#CCCCCC;" d="M333.966,200.348c-12.523,0-22.711-10.188-22.711-22.711c0-10.25,6.908-19.267,16.799-21.927
		c1.936-0.519,3.924-0.783,5.911-0.783c12.523,0,22.711,10.188,22.711,22.711c0,1.987-0.263,3.975-0.783,5.908
		C353.233,193.44,344.217,200.348,333.966,200.348z"/>
	<path style="fill:#CCCCCC;" d="M173.842,200.348c-12.523,0-22.711-10.188-22.711-22.711c0-10.25,6.908-19.267,16.799-21.927
		c1.936-0.519,3.924-0.783,5.911-0.783c12.523,0,22.711,10.188,22.711,22.711c0,1.987-0.263,3.975-0.783,5.908
		C193.109,193.44,184.092,200.348,173.842,200.348z"/>
</g>
<g>
	<path style="fill:#0F0F0E;" d="M346.268,177.638c0,1.108-0.151,2.186-0.426,3.208c-1.41,5.242-6.189,9.094-11.875,9.094
		c-6.794,0-12.302-5.508-12.302-12.302c0-5.687,3.852-10.466,9.094-11.875c1.022-0.275,2.1-0.426,3.208-0.426
		C340.76,165.336,346.268,170.843,346.268,177.638z"/>
	<circle style="fill:#0F0F0E;" cx="173.84" cy="177.633" r="12.302"/>
</g>
<g>
	<path style="fill:#E6E6E6;" d="M346.268,177.638c0,1.108-0.151,2.186-0.426,3.208c-1.448,0.672-3.075,1.05-4.778,1.05
		c-6.274,0-11.355-5.081-11.355-11.355c0-1.703,0.378-3.331,1.05-4.778c1.022-0.275,2.1-0.426,3.208-0.426
		C340.76,165.336,346.268,170.843,346.268,177.638z"/>
	<path style="fill:#E6E6E6;" d="M186.143,177.638c0,1.108-0.152,2.186-0.426,3.208c-1.448,0.672-3.075,1.05-4.778,1.05
		c-6.274,0-11.355-5.081-11.355-11.355c0-1.703,0.378-3.331,1.05-4.778c1.022-0.275,2.1-0.426,3.208-0.426
		C180.636,165.336,186.143,170.843,186.143,177.638z"/>
</g>
<path style="fill:#CCCCCC;" d="M253.393,147.163c-37.472,0-72.368-6.962-101.624-18.949c-10.317-4.228-20.627,5.81-12.45,12.121
	c28.829,22.248,69.281,36.086,114.073,36.086s85.244-13.838,114.073-36.086c8.177-6.311-2.133-16.347-12.45-12.121
	C325.76,140.201,290.865,147.163,253.393,147.163z"/>
<path style="fill:#E59E37;" d="M249.602,280.942c-9.038-1.87-15.83-9.874-15.83-19.466c0-17.178-9.728-32.862-25.098-40.5
	l-17.418-8.662c-6.813-3.385-4.409-13.636,3.197-13.636h15.35c5.005,0,9.624-3.699,13.343-8.077
	c3.803-4.483,8.495-8.025,13.699-10.449c5.13-2.393,10.762-3.688,16.551-3.73C223.145,190.6,249.602,280.942,249.602,280.942z"/>
<path style="fill:#CCCCCC;" d="M152.552,225.98c14.221,56.863,0.867,105.514-9.112,130.8c-6.269,3.49-14.284-1.567-13.375-9.07
	l3.302-27.188c0.951-7.826-7.837-13.061-14.263-8.505l-7.137,5.057c-7.701,5.444-17.586-3.009-13.396-11.452
	c2.915-5.862,6.144-11.546,9.686-17.011c14.932-23.082,19.717-51.346,12.957-77.991c-2.738-10.794-4.19-22.1-4.19-33.75
	c0-75.912,61.795-137.394,137.832-136.882C192.258,39.988,131.654,142.388,152.552,225.98z"/>
<g>
	<polygon style="fill:#E6E6E6;" points="422.989,241.058 435.78,279.405 470.26,244.925 496.903,271.569 511.99,253.848 
		457.363,186.936 	"/>
	<polygon style="fill:#E6E6E6;" points="61.865,192.614 80.457,204.037 91.603,192.891 105.535,206.824 118.06,193.792 
		89.579,149.985 	"/>
	<path style="fill:#E6E6E6;" d="M74.459,258.915L49.81,248.623l-9.759,20.198l-23.333-23.333L0.031,259.197
		C0.01,258.132,0,257.066,0,256c0-10.501,0.627-20.846,1.87-31.013l26.499-45.902L74.459,258.915z"/>
</g>
<g>
</g>
<g>
</g>
<g>
</g>
<g>
</g>
<g>
</g>
<g>
</g>
<g>
</g>
<g>
</g>
<g>
</g>
<g>
</g>
<g>
</g>
<g>
</g>
<g>
</g>
<g>
</g>
<g>
</g>
</svg>
