<?xml version="1.0" encoding="iso-8859-1"?>
<!-- Generator: Adobe Illustrator 19.0.0, SVG Export Plug-In . SVG Version: 6.00 Build 0)  -->
<svg version="1.1" id="Capa_1" xmlns="http://www.w3.org/2000/svg" xmlns:xlink="http://www.w3.org/1999/xlink" x="0px" y="0px"
	 viewBox="0 0 512 512" style="enable-background:new 0 0 512 512;" xml:space="preserve">
<path style="fill:#63CBFF;" d="M512,256c0,17.021-1.661,33.656-4.838,49.748c-3.291,16.697-8.202,32.81-14.566,48.17
	c-6.447,15.579-14.399,30.386-23.677,44.231c-12.267,18.348-26.843,35.015-43.311,49.591C380.447,487.727,321.066,512,256,512
	c-41.179,0-80.081-9.718-114.542-27c-19.989-10.021-38.494-22.58-55.077-37.251c-16.468-14.587-31.044-31.263-43.321-49.601
	c-9.258-13.845-17.209-28.651-23.667-44.231c-6.363-15.36-11.274-31.472-14.566-48.18C1.661,289.646,0,273.021,0,256
	C0,114.615,114.615,0,256,0c78.535,0,148.814,35.37,195.772,91.042c17.993,21.326,32.569,45.652,42.872,72.098
	C505.846,191.927,512,223.253,512,256z"/>
<g>
	<path style="fill:#A1E4FF;" d="M197.485,53.947L197.485,53.947c0-6.636-5.38-12.016-12.016-12.016h-66.873
		c-6.636,0-12.016,5.38-12.016,12.016l0,0c0,6.636,5.38,12.016,12.016,12.016h8.36c6.636,0,12.016,5.38,12.016,12.016l0,0
		c0,6.636-5.38,12.016-12.016,12.016h-25.6c-6.636,0-12.016,5.38-12.016,12.016l0,0c0,6.636,5.38,12.016,12.016,12.016h66.873
		c6.636,0,12.016-5.38,12.016-12.016l0,0c0-6.636,5.38-12.016,12.016-12.016h25.6c6.636,0,12.016-5.38,12.016-12.016l0,0
		c0-6.636-5.38-12.016-12.016-12.016h-8.36C202.865,65.963,197.485,60.584,197.485,53.947z"/>
	<path style="fill:#A1E4FF;" d="M494.644,163.14h-40.647c-6.635,0-12.016-5.381-12.016-12.016c0-3.323-1.348-6.322-3.521-8.495
		c-2.173-2.173-5.183-3.521-8.495-3.521h-25.6c-6.635,0-12.016-5.381-12.016-12.016c0-3.323,1.348-6.322,3.521-8.495
		c2.173-2.173,5.183-3.521,8.495-3.521h8.359c6.646,0,12.016-5.381,12.016-12.016s5.381-12.016,12.016-12.016h15.015
		C469.765,112.368,484.342,136.694,494.644,163.14z"/>
</g>
<path style="fill:#228464;" d="M512,256c0,2.508-0.031,4.995-0.104,7.481c-0.596,20.532-3.605,40.458-8.756,59.507
	c-4.66,1.463-9.613,2.257-14.754,2.257c-15.768,0-29.78-7.471-38.724-19.048c-8.955,11.577-22.967,19.048-38.734,19.048
	c-15.768,0-29.79-7.471-38.734-19.048c-8.944,11.577-22.956,19.048-38.734,19.048c-15.768,0-29.78-7.471-38.724-19.048
	c-8.955,11.577-22.967,19.048-38.734,19.048s-29.78-7.471-38.734-19.048c-8.944,11.577-22.956,19.048-38.724,19.048
	c-15.778,0-29.79-7.471-38.734-19.048c-8.944,11.577-22.967,19.048-38.734,19.048s-29.78-7.471-38.734-19.048
	c-8.944,11.577-22.956,19.048-38.724,19.048c-5.141,0-10.094-0.794-14.754-2.257C3.709,303.94,0.7,284.014,0.104,263.481
	C0.031,260.995,0,258.508,0,256c0-7.784,0.345-15.485,1.024-23.082c6.76-3.521,14.44-5.517,22.591-5.517
	c15.768,0,29.78,7.461,38.724,19.048c8.955-11.588,22.967-19.048,38.734-19.048s29.79,7.461,38.734,19.048
	c8.944-11.588,22.956-19.048,38.734-19.048c15.768,0,29.78,7.461,38.724,19.048c8.955-11.588,22.967-19.048,38.734-19.048
	s29.78,7.461,38.734,19.048c8.944-11.588,22.956-19.048,38.724-19.048c15.778,0,29.79,7.461,38.734,19.048
	c8.944-11.588,22.967-19.048,38.734-19.048c15.767,0,29.78,7.461,38.734,19.048c8.944-11.588,22.956-19.048,38.724-19.048
	c8.15,0,15.83,1.996,22.591,5.517C511.655,240.515,512,248.215,512,256z"/>
<path style="fill:#34AD89;" d="M508.886,295.988C489.691,418.377,383.781,512,256,512c-116.12,0-214.173-77.312-245.509-183.265
	c-1.128-3.793-2.163-7.628-3.103-11.494c-1.724-6.98-3.145-14.064-4.274-21.253H508.886z"/>
<g>
	<path style="fill:#57CEA7;" d="M101.073,336.739H62.412c-3.174,0-5.747-2.573-5.747-5.747l0,0c0-3.174,2.573-5.747,5.747-5.747
		h38.661c3.174,0,5.747,2.573,5.747,5.747l0,0C106.82,334.167,104.247,336.739,101.073,336.739z"/>
	<path style="fill:#57CEA7;" d="M77.845,360.249H39.184c-3.174,0-5.747-2.573-5.747-5.747l0,0c0-3.174,2.573-5.747,5.747-5.747
		h38.661c3.174,0,5.747,2.573,5.747,5.747l0,0C83.592,357.677,81.019,360.249,77.845,360.249z"/>
	<path style="fill:#57CEA7;" d="M169.273,410.927h-38.661c-3.174,0-5.747-2.573-5.747-5.747l0,0c0-3.174,2.573-5.747,5.747-5.747
		h38.661c3.174,0,5.747,2.573,5.747,5.747l0,0C175.02,408.354,172.448,410.927,169.273,410.927z"/>
	<path style="fill:#57CEA7;" d="M214.727,450.112h-38.661c-3.174,0-5.747-2.573-5.747-5.747l0,0c0-3.174,2.573-5.747,5.747-5.747
		h38.661c3.174,0,5.747,2.573,5.747,5.747l0,0C220.473,447.538,217.901,450.112,214.727,450.112z"/>
	<path style="fill:#57CEA7;" d="M33.938,322.988c0,1.588-0.648,3.03-1.682,4.065c-1.034,1.034-2.476,1.682-4.065,1.682H10.491
		c-1.128-3.793-2.163-7.628-3.103-11.494h20.804C31.368,317.241,33.938,319.812,33.938,322.988z"/>
	<path style="fill:#57CEA7;" d="M484.31,335.694h-38.661c-3.174,0-5.747-2.573-5.747-5.747l0,0c0-3.174,2.573-5.747,5.747-5.747
		h38.661c3.174,0,5.747,2.573,5.747,5.747l0,0C490.057,333.122,487.485,335.694,484.31,335.694z"/>
	<path style="fill:#57CEA7;" d="M461.322,357.115h-38.661c-3.174,0-5.747-2.573-5.747-5.747l0,0c0-3.174,2.573-5.747,5.747-5.747
		h38.661c3.174,0,5.747,2.573,5.747,5.747l0,0C467.069,354.542,464.497,357.115,461.322,357.115z"/>
	<path style="fill:#57CEA7;" d="M379.82,385.327h-38.661c-3.174,0-5.747-2.573-5.747-5.747l0,0c0-3.174,2.573-5.747,5.747-5.747
		h38.661c3.174,0,5.747,2.573,5.747,5.747l0,0C385.567,382.754,382.995,385.327,379.82,385.327z"/>
	<path style="fill:#57CEA7;" d="M417.437,435.482h-38.661c-3.174,0-5.747-2.573-5.747-5.747l0,0c0-3.174,2.573-5.747,5.747-5.747
		h38.661c3.174,0,5.747,2.573,5.747,5.747l0,0C423.184,432.91,420.611,435.482,417.437,435.482z"/>
</g>
<path style="fill:#4B8437;" d="M425.608,447.739C380.447,487.727,321.066,512,256,512c-41.179,0-80.081-9.718-114.542-27
	c-19.989-10.021-38.494-22.58-55.077-37.251C103.131,321.306,172.711,226.503,256,226.503
	C339.278,226.503,408.858,321.306,425.608,447.739z"/>
<g>
	
		<ellipse transform="matrix(-0.4658 -0.8849 0.8849 -0.4658 157.5507 938.9102)" style="fill:#FFFFFF;" cx="362.183" cy="421.899" rx="24.555" ry="9.214"/>
	
		<ellipse transform="matrix(-0.4658 -0.8849 0.8849 -0.4658 188.0426 905.5168)" style="fill:#FFFFFF;" cx="367.349" cy="395.998" rx="24.555" ry="9.214"/>
	
		<ellipse transform="matrix(-0.4658 -0.8849 0.8849 -0.4658 215.3048 875.9814)" style="fill:#FFFFFF;" cx="372.065" cy="373.002" rx="24.555" ry="9.214"/>
	
		<ellipse transform="matrix(-0.4658 -0.8849 0.8849 -0.4658 239.8603 851.6208)" style="fill:#FFFFFF;" cx="376.989" cy="353.409" rx="24.555" ry="9.214"/>
</g>
<g>
	<path style="fill:#69AF54;" d="M366.892,313.69c0-20.737-16.87-37.608-37.607-37.608c-3.294,0-6.582,0.435-9.78,1.294
		c-6.166,1.658-11.632,4.808-16.051,8.996c-8.433,7.992-20.203,11.531-31.714,9.945c-10.39-1.432-20.932-1.42-31.321,0.034
		c-11.586,1.622-23.41-1.958-31.912-9.993c-6.736-6.367-15.817-10.276-25.796-10.276c-3.292,0-6.581,0.435-9.78,1.294
		c-16.385,4.406-27.828,19.339-27.828,36.313c0,8.081,2.572,15.57,6.926,21.708c-3.824,5.216-5.427,11.939-4.022,18.608
		l22.946,108.815c2.687,12.743,15.811,20.36,28.208,16.371l0,0c37.088-11.931,76.984-11.931,114.072,0l0,0
		c12.397,3.988,25.521-3.629,28.208-16.371l22.946-108.815c1.43-6.782-0.26-13.615-4.226-18.868
		c2.424-3.482,4.289-7.407,5.437-11.674C366.458,320.272,366.892,316.982,366.892,313.69z"/>
	<path style="fill:#69AF54;" d="M401.488,245.821c-1.521,5.659-4.001,10.867-7.208,15.484c5.262,6.976,7.495,16.046,5.605,25.049
		l-25.309,120.024l-5.152,24.433c-2.918,13.84-15.128,23.131-28.503,23.131c-2.947,0-5.961-0.452-8.948-1.411
		c-24.624-7.907-50.167-11.867-75.709-11.867c-11.716,0-23.432,0.836-35.052,2.508c-13.716,1.96-27.324,5.083-40.657,9.359
		c-16.457,5.303-33.887-4.81-37.45-21.719l-5.796-27.488v-0.014l-24.666-116.955c-1.863-8.852,0.26-17.773,5.345-24.693
		c-5.782-8.153-9.195-18.088-9.195-28.817c0-22.542,15.183-42.356,36.93-48.207c4.248-1.138,8.619-1.727,12.99-1.727
		c13.25,0,25.296,5.193,34.243,13.648c2.494,2.344,5.193,4.413,8.057,6.166c10.141,6.248,22.309,8.771,34.299,7.098
		c5.385-0.753,10.812-1.219,16.238-1.383c8.469-0.26,16.95,0.178,25.35,1.343c15.279,2.096,30.901-2.604,42.096-13.21
		c5.865-5.549,13.113-9.743,21.309-11.935c4.247-1.138,8.606-1.727,12.977-1.727c27.529,0,49.92,22.405,49.92,49.935
		C403.202,237.216,402.626,241.573,401.488,245.821z"/>
</g>
<g>
	<path style="fill:#4C8E37;" d="M353.285,262.209c-16.194,0-29.369-13.175-29.369-29.369c0-13.256,8.934-24.917,21.724-28.356
		c2.504-0.672,5.074-1.013,7.644-1.013c16.194,0,29.369,13.175,29.369,29.369c0,2.569-0.341,5.14-1.011,7.639
		C378.201,253.276,366.541,262.209,353.285,262.209z"/>
	<path style="fill:#4C8E37;" d="M158.711,262.209c-16.194,0-29.369-13.175-29.369-29.369c0-13.256,8.934-24.917,21.724-28.356
		c2.504-0.672,5.074-1.013,7.644-1.013c16.194,0,29.369,13.175,29.369,29.369c0,2.569-0.341,5.14-1.011,7.639
		C183.627,253.276,171.966,262.209,158.711,262.209z"/>
</g>
<g>
	<path style="fill:#0F0F0E;" d="M369.193,226.721c0,1.432-0.195,2.826-0.551,4.148c-1.823,6.779-8.003,11.759-15.358,11.759
		c-8.787,0-15.909-7.122-15.909-15.909c0-7.354,4.98-13.535,11.759-15.358c1.322-0.355,2.717-0.551,4.148-0.551
		C362.071,210.813,369.193,217.935,369.193,226.721z"/>
	<circle style="fill:#0F0F0E;" cx="158.71" cy="226.722" r="15.909"/>
</g>
<path style="fill:#E6E6E6;" d="M369.193,226.721c0,1.432-0.195,2.826-0.551,4.148c-1.872,0.868-3.977,1.358-6.18,1.358
	c-8.114,0-14.684-6.571-14.684-14.684c0-2.203,0.489-4.307,1.358-6.18c1.322-0.355,2.717-0.551,4.148-0.551
	C362.071,210.813,369.193,217.935,369.193,226.721z"/>
<g>
	
		<ellipse transform="matrix(-0.4658 0.8849 -0.8849 -0.4658 593.7075 485.368)" style="fill:#FFFFFF;" cx="150.347" cy="421.893" rx="24.555" ry="9.214"/>
	
		<ellipse transform="matrix(-0.2187 0.9758 -0.9758 -0.2187 619.014 372.6025)" style="fill:#FFFFFF;" cx="160.339" cy="434.119" rx="24.555" ry="9.214"/>
	
		<ellipse transform="matrix(-0.4658 0.8849 -0.8849 -0.4658 563.2065 451.9607)" style="fill:#FFFFFF;" cx="145.18" cy="395.983" rx="24.555" ry="9.214"/>
	
		<ellipse transform="matrix(-0.4658 0.8849 -0.8849 -0.4658 535.9763 422.4209)" style="fill:#FFFFFF;" cx="140.482" cy="372.993" rx="24.555" ry="9.214"/>
	
		<ellipse transform="matrix(-0.4658 0.8849 -0.8849 -0.4658 511.4155 398.0863)" style="fill:#FFFFFF;" cx="135.547" cy="353.412" rx="24.555" ry="9.214"/>
</g>
<path style="fill:#E6E6E6;" d="M174.619,226.721c0,1.432-0.195,2.826-0.551,4.148c-1.872,0.868-3.977,1.358-6.18,1.358
	c-8.114,0-14.684-6.571-14.684-14.684c0-2.203,0.489-4.307,1.358-6.18c1.322-0.355,2.717-0.551,4.148-0.551
	C167.497,210.813,174.619,217.935,174.619,226.721z"/>
<path style="fill:#5EA04A;" d="M221.211,443.173c-13.716,1.96-27.324,5.083-40.657,9.359c-16.457,5.303-33.887-4.81-37.45-21.719
	l-5.796-27.488v-0.014l-24.666-116.955c-1.863-8.852,0.26-17.773,5.345-24.693c0,0,18.376,30.859,90.523,24.693
	c0,0-27.255,47.604,8.701,143.197C219.005,434.32,220.321,438.856,221.211,443.173z"/>
<g>
	
		<ellipse transform="matrix(-0.1686 -0.9857 0.9857 -0.1686 -227.3547 676.423)" style="fill:#FFFFFF;" cx="171.596" cy="434.096" rx="24.555" ry="9.214"/>
	
		<ellipse transform="matrix(-0.2187 -0.9758 0.9758 -0.2187 5.6031 872.7554)" style="fill:#FFFFFF;" cx="352.202" cy="434.135" rx="24.555" ry="9.214"/>
	
		<ellipse transform="matrix(-0.1686 0.9857 -0.9857 -0.1686 826.2493 171.2413)" style="fill:#FFFFFF;" cx="340.906" cy="434.082" rx="24.555" ry="9.214"/>
	
		<ellipse transform="matrix(-0.1686 -0.9857 0.9857 -0.1686 -207.9615 703.9462)" style="fill:#FFFFFF;" cx="192.9" cy="439.678" rx="24.555" ry="9.214"/>
	
		<ellipse transform="matrix(-0.1686 -0.9857 0.9857 -0.1686 -174.916 719.2776)" style="fill:#FFFFFF;" cx="215.889" cy="433.408" rx="24.555" ry="9.214"/>
	<ellipse style="fill:#FFFFFF;" cx="244.109" cy="429.213" rx="9.214" ry="24.555"/>
	
		<ellipse transform="matrix(-0.1686 0.9857 -0.9857 -0.1686 806.8681 198.7605)" style="fill:#FFFFFF;" cx="319.609" cy="439.668" rx="24.555" ry="9.214"/>
	
		<ellipse transform="matrix(-0.1686 0.9857 -0.9857 -0.1686 773.8107 214.0911)" style="fill:#FFFFFF;" cx="296.615" cy="433.391" rx="24.555" ry="9.214"/>
	<ellipse style="fill:#FFFFFF;" cx="268.413" cy="429.213" rx="9.214" ry="24.555"/>
</g>
<g>
	<path style="fill:#569642;" d="M178.577,277.84c49.802-15.196,105.57-15.196,155.373,0c9.788,2.986,7.65,17.418-2.583,17.418
		H181.16C170.928,295.259,168.79,280.827,178.577,277.84z"/>
	<path style="fill:#569642;" d="M186.811,322.008c44.524-13.586,94.382-13.586,138.907,0c8.75,2.67,6.839,15.572-2.309,15.572
		H189.12C179.971,337.58,178.06,324.679,186.811,322.008z"/>
	<path style="fill:#569642;" d="M192.036,367.43c41.175-12.564,87.282-12.564,128.457,0c8.092,2.469,6.325,14.401-2.136,14.401
		H194.17C185.711,381.831,183.944,369.899,192.036,367.43z"/>
	<path style="fill:#569642;" d="M369.506,430.401l-0.083,0.411c-2.918,13.84-15.128,23.131-28.503,23.131
		c-2.947,0-5.961-0.452-8.948-1.411c-24.624-7.907-50.167-11.867-75.709-11.867c-17.019,0-34.039,1.754-50.798,5.276
		c-8.373,1.754-16.69,3.947-24.912,6.591c-16.457,5.303-33.887-4.81-37.45-21.719c-0.343-1.603-0.493-3.193-0.493-4.754
		c0-12.251,9.948-22.747,22.802-22.747h181.704C361.421,403.311,372.192,416.342,369.506,430.401z"/>
	<path style="fill:#569642;" d="M251.55,208.439c-5.235,13.155-14.881,23.459-24.159,30.928c-6.782,5.453-16.95,0.096-16.238-8.592
		c1.11-13.539-4.769-22.665-10.141-28.05c10.141,6.248,22.309,8.771,34.299,7.098C240.697,209.069,246.124,208.603,251.55,208.439z"
		/>
	<path style="fill:#569642;" d="M260.662,208.439c5.235,13.155,14.881,23.459,24.159,30.928c6.782,5.453,16.95,0.096,16.238-8.592
		c-1.11-13.539,4.769-22.665,10.141-28.05c-10.141,6.248-22.309,8.771-34.299,7.098C271.516,209.069,266.09,208.603,260.662,208.439
		z"/>
</g>
<g>
</g>
<g>
</g>
<g>
</g>
<g>
</g>
<g>
</g>
<g>
</g>
<g>
</g>
<g>
</g>
<g>
</g>
<g>
</g>
<g>
</g>
<g>
</g>
<g>
</g>
<g>
</g>
<g>
</g>
</svg>
