<?xml version="1.0" encoding="iso-8859-1"?>
<!-- Generator: Adobe Illustrator 19.0.0, SVG Export Plug-In . SVG Version: 6.00 Build 0)  -->
<svg version="1.1" id="Capa_1" xmlns="http://www.w3.org/2000/svg" xmlns:xlink="http://www.w3.org/1999/xlink" x="0px" y="0px"
	 viewBox="0 0 512 512" style="enable-background:new 0 0 512 512;" xml:space="preserve">
<path style="fill:#63CBFF;" d="M511.999,255.999c0,17.021-1.661,33.656-4.838,49.747c-3.291,16.697-8.202,32.81-14.566,48.17
	c-6.447,15.579-14.399,30.386-23.677,44.23C423.016,466.797,344.794,511.999,256,511.999c-41.179,0-80.081-9.718-114.541-27
	c-39.852-19.968-73.77-50.04-98.398-86.852c-9.258-13.845-17.209-28.651-23.667-44.23c-6.363-15.36-11.274-31.472-14.566-48.18
	c-3.166-16.091-4.827-32.716-4.827-49.737C0.001,114.615,114.615,0,256,0c78.534,0,148.814,35.37,195.772,91.042
	c17.993,21.326,32.569,45.651,42.872,72.098C505.845,191.926,511.999,223.252,511.999,255.999z"/>
<g>
	<path style="fill:#A1E4FF;" d="M197.485,53.947L197.485,53.947c0-6.636-5.38-12.016-12.016-12.016h-66.873
		c-6.636,0-12.016,5.38-12.016,12.016l0,0c0,6.636,5.38,12.016,12.016,12.016h8.36c6.636,0,12.016,5.38,12.016,12.016l0,0
		c0,6.636-5.38,12.016-12.016,12.016h-25.601c-6.636,0-12.016,5.38-12.016,12.016l0,0c0,6.636,5.38,12.016,12.016,12.016h66.873
		c6.636,0,12.016-5.38,12.016-12.016l0,0c0-6.636,5.38-12.016,12.016-12.016h25.6c6.636,0,12.016-5.38,12.016-12.016l0,0
		c0-6.636-5.38-12.016-12.016-12.016h-8.359C202.864,65.963,197.485,60.584,197.485,53.947z"/>
	<path style="fill:#A1E4FF;" d="M494.644,163.14h-40.646c-6.635,0-12.016-5.381-12.016-12.016c0-3.323-1.348-6.322-3.521-8.495
		s-5.183-3.521-8.495-3.521h-25.6c-6.635,0-12.016-5.381-12.016-12.016c0-3.323,1.348-6.322,3.521-8.495s5.183-3.521,8.495-3.521
		h8.359c6.646,0,12.016-5.381,12.016-12.016s5.381-12.016,12.016-12.016h15.015C469.765,112.368,484.341,136.693,494.644,163.14z"/>
</g>
<path style="fill:#228464;" d="M511.999,255.999c0,2.508-0.031,4.995-0.104,7.481c-0.596,20.532-3.605,40.458-8.756,59.507
	c-4.66,1.463-9.613,2.257-14.754,2.257c-15.767,0-29.78-7.471-38.724-19.048c-8.955,11.577-22.967,19.048-38.734,19.048
	c-15.767,0-29.79-7.471-38.734-19.048c-8.944,11.577-22.956,19.048-38.734,19.048c-15.767,0-29.78-7.471-38.724-19.048
	c-8.955,11.577-22.967,19.048-38.734,19.048s-29.78-7.471-38.734-19.048c-8.944,11.577-22.956,19.048-38.724,19.048
	c-15.778,0-29.79-7.471-38.734-19.048c-8.944,11.577-22.967,19.048-38.734,19.048s-29.78-7.471-38.734-19.048
	c-8.944,11.577-22.956,19.048-38.724,19.048c-5.141,0-10.094-0.794-14.754-2.257c-5.151-19.048-8.161-38.975-8.756-59.507
	C0.032,260.994,0,258.507,0,255.999c0-7.784,0.345-15.485,1.024-23.082c6.76-3.521,14.44-5.517,22.591-5.517
	c15.767,0,29.78,7.461,38.724,19.048c8.955-11.588,22.967-19.048,38.734-19.048s29.79,7.461,38.734,19.048
	c8.944-11.588,22.956-19.048,38.734-19.048c15.767,0,29.78,7.461,38.724,19.048c8.955-11.588,22.967-19.048,38.734-19.048
	s29.78,7.461,38.734,19.048c8.944-11.588,22.956-19.048,38.724-19.048c15.778,0,29.79,7.461,38.734,19.048
	c8.944-11.588,22.967-19.048,38.734-19.048c15.767,0,29.78,7.461,38.734,19.048c8.944-11.588,22.956-19.048,38.724-19.048
	c8.15,0,15.83,1.996,22.591,5.517C511.654,240.514,511.999,248.215,511.999,255.999z"/>
<path style="fill:#34AD89;" d="M508.886,295.988C489.691,418.376,383.779,511.999,256,511.999
	c-116.119,0-214.172-77.312-245.509-183.264c-1.128-3.793-2.163-7.628-3.103-11.494c-1.724-6.98-3.145-14.064-4.274-21.253H508.886z
	"/>
<g>
	<path style="fill:#57CEA7;" d="M101.073,336.739H62.412c-3.174,0-5.747-2.573-5.747-5.747l0,0c0-3.174,2.573-5.747,5.747-5.747
		h38.661c3.174,0,5.747,2.573,5.747,5.747l0,0C106.819,334.166,104.247,336.739,101.073,336.739z"/>
	<path style="fill:#57CEA7;" d="M77.845,360.249H39.184c-3.174,0-5.747-2.573-5.747-5.747l0,0c0-3.174,2.573-5.747,5.747-5.747
		h38.661c3.174,0,5.747,2.573,5.747,5.747l0,0C83.592,357.676,81.019,360.249,77.845,360.249z"/>
	<path style="fill:#57CEA7;" d="M169.274,410.926h-38.661c-3.174,0-5.747-2.573-5.747-5.747l0,0c0-3.174,2.573-5.747,5.747-5.747
		h38.661c3.174,0,5.747,2.573,5.747,5.747l0,0C175.021,408.354,172.447,410.926,169.274,410.926z"/>
	<path style="fill:#57CEA7;" d="M214.727,450.111h-38.661c-3.174,0-5.747-2.573-5.747-5.747l0,0c0-3.174,2.573-5.747,5.747-5.747
		h38.661c3.174,0,5.747,2.573,5.747,5.747l0,0C220.474,447.537,217.9,450.111,214.727,450.111z"/>
	<path style="fill:#57CEA7;" d="M33.939,322.988c0,1.588-0.648,3.03-1.682,4.065c-1.034,1.034-2.476,1.682-4.065,1.682H10.491
		c-1.128-3.793-2.163-7.628-3.103-11.494h20.804C31.368,317.241,33.939,319.811,33.939,322.988z"/>
	<path style="fill:#57CEA7;" d="M484.31,335.694h-38.661c-3.174,0-5.747-2.573-5.747-5.747l0,0c0-3.174,2.573-5.747,5.747-5.747
		h38.661c3.174,0,5.747,2.573,5.747,5.747l0,0C490.057,333.121,487.483,335.694,484.31,335.694z"/>
	<path style="fill:#57CEA7;" d="M461.322,357.114h-38.661c-3.174,0-5.747-2.573-5.747-5.747l0,0c0-3.174,2.573-5.747,5.747-5.747
		h38.661c3.174,0,5.747,2.573,5.747,5.747l0,0C467.069,354.541,464.495,357.114,461.322,357.114z"/>
	<path style="fill:#57CEA7;" d="M379.82,385.326h-38.661c-3.174,0-5.747-2.573-5.747-5.747l0,0c0-3.174,2.573-5.747,5.747-5.747
		h38.661c3.174,0,5.747,2.573,5.747,5.747l0,0C385.567,382.754,382.993,385.326,379.82,385.326z"/>
	<path style="fill:#57CEA7;" d="M417.436,435.481h-38.661c-3.174,0-5.747-2.573-5.747-5.747l0,0c0-3.174,2.573-5.747,5.747-5.747
		h38.661c3.174,0,5.747,2.573,5.747,5.747l0,0C423.183,432.909,420.61,435.481,417.436,435.481z"/>
</g>
<path style="fill:#755139;" d="M440.786,433.163C394.194,481.75,328.626,512,255.996,512s-138.198-30.25-184.779-78.827
	c4.796-40.427,16.52-71.784,26.843-92.797c9.916-20.156,18.526-30.804,18.526-30.804h278.82c0,0,8.61,10.647,18.516,30.804
	C424.245,361.389,435.979,392.746,440.786,433.163z"/>
<path style="fill:#603F2A;" d="M395.406,309.572H184.358h-59.252c-2.697-2.301-8.52,0-8.52,0h-0.01c0,0-35.955,44.419-45.369,123.59
	l0.01,0.01c24.764,25.819,54.878,46.467,88.576,60.134c0.175-36.394,5.031-66.906,11.348-91.306
	c5.864-22.651,26.393-38.406,49.79-38.406H353.37c19.111,0,36.833-5.914,51.461-16.029c1.202-0.826,2.372-1.682,3.542-2.581
	c1.912-1.463,3.762-2.999,5.548-4.608C404.016,320.22,395.406,309.572,395.406,309.572z"/>
<circle style="fill:#755139;" cx="373.069" cy="53.93" r="43.479"/>
<circle style="fill:#42281B;" cx="376.987" cy="64.042" r="24.841"/>
<circle style="fill:#603F2A;" cx="138.918" cy="53.93" r="43.479"/>
<circle style="fill:#42281B;" cx="135.01" cy="64.042" r="24.841"/>
<path style="fill:#755139;" d="M437.132,240.984c0,25.286-9.749,48.922-26.624,68.994c-10.198,12.121-22.977,22.935-37.794,32.047
	c-31.504,19.414-72.244,5.517-116.715,5.517h-0.731c-44.199,0.146-84.668,13.793-115.994-5.517
	c-14.817-9.112-27.596-19.926-37.783-32.047c-16.886-20.072-26.624-43.708-26.624-68.994c0-72.965,81.073-277.242,181.112-212.5
	c0.01,0.01,0.021,0.01,0.021,0.01C356.049-36.289,437.132,168.019,437.132,240.984z"/>
<path style="fill:#603F2A;" d="M255.269,347.543c-44.199,0.146-84.668,13.793-115.994-5.517
	c-14.817-9.112-27.596-19.926-37.783-32.047c-16.886-20.072-26.624-43.708-26.624-68.994c0-72.965,81.073-277.242,181.112-212.5
	c-1.108-0.366-48.483-15.799-85.661,60.614c-37.616,77.322-55.693,192.783,45.035,226.742
	C256.334,329.654,262.447,340.061,255.269,347.543z"/>
<path style="fill:#FFFFFF;" d="M296.501,259.414v94.538c0,13.018-10.54,23.536-23.536,23.536h-34.077
	c-12.996,0-23.536-10.518-23.536-23.536v-94.538l32.425,10.41l8.15,2.63l8.15-2.63L296.501,259.414z"/>
<polygon style="fill:#E6E6E6;" points="264.076,269.823 264.076,377.487 247.777,377.487 247.777,269.823 255.927,272.453 "/>
<path style="fill:#AD6332;" d="M254.955,209.136v53.509c0,9.07-2.664,17.46-7.189,24.304c-6.959,10.533-18.317,17.397-31.159,17.397
	c-21.18,0-38.348-18.672-38.348-41.702v-13.74c0-17.011,6.343-32.402,16.593-43.551c10.24-11.139,24.409-18.035,40.04-18.035
	c3.751,0,7.262,1.118,10.271,3.082C251.026,194.194,254.955,201.174,254.955,209.136z"/>
<path style="fill:#995528;" d="M247.777,286.918l-0.01,0.031c-6.959,10.533-18.317,17.397-31.159,17.397
	c-21.18,0-38.348-18.672-38.348-41.702v-13.74c0-17.011,6.343-32.402,16.593-43.551c10.24-11.139,24.409-18.035,40.04-18.035
	c3.751,0,7.262,1.118,10.271,3.082c-16.488,5.987-45.296,22.12-38.275,60.656C216.607,304.347,247.777,286.918,247.777,286.918z"/>
<path style="fill:#AD6332;" d="M293.304,304.345L293.304,304.345c-21.18,0-38.349-18.669-38.349-41.7v-53.514
	c0-12.048,8.982-21.814,20.061-21.814l0,0c31.28,0,56.636,27.573,56.636,61.585v13.743
	C331.653,285.676,314.483,304.345,293.304,304.345z"/>
<path style="fill:#0F0F0E;" d="M293.867,204.28c0,13.727-16.957,32.745-37.873,32.745s-37.873-19.019-37.873-32.745
	c0-13.727,16.957-16.963,37.873-16.963S293.867,190.553,293.867,204.28z"/>
<circle style="fill:#807272;" cx="275.089" cy="202.887" r="10.105"/>
<g>
	<path style="fill:#603F2A;" d="M324.015,178.74c-14.941,0-27.096-12.155-27.096-27.096c0-12.23,8.242-22.989,20.043-26.162
		c2.31-0.621,4.681-0.934,7.053-0.934c14.941,0,27.096,12.155,27.096,27.096c0,2.371-0.315,4.743-0.933,7.049
		C347.003,170.498,336.246,178.74,324.015,178.74z"/>
	<path style="fill:#603F2A;" d="M187.977,178.74c-14.941,0-27.096-12.155-27.096-27.096c0-12.23,8.242-22.989,20.043-26.162
		c2.31-0.621,4.681-0.934,7.053-0.934c14.941,0,27.096,12.155,27.096,27.096c0,2.371-0.314,4.743-0.933,7.049
		C210.965,170.498,200.207,178.74,187.977,178.74z"/>
</g>
<g>
	<path style="fill:#0F0F0E;" d="M338.693,151.223c0,1.321-0.181,2.608-0.508,3.827c-1.682,6.255-7.384,10.85-14.169,10.85
		c-8.106,0-14.678-6.571-14.678-14.678c0-6.786,4.595-12.487,10.85-14.169c1.219-0.327,2.507-0.508,3.827-0.508
		C332.122,136.546,338.693,143.116,338.693,151.223z"/>
	<circle style="fill:#0F0F0E;" cx="187.976" cy="151.217" r="14.681"/>
</g>
<g>
	<path style="fill:#E6E6E6;" d="M338.693,151.223c0,1.321-0.181,2.608-0.508,3.827c-1.727,0.801-3.67,1.253-5.702,1.253
		c-7.486,0-13.548-6.062-13.548-13.548c0-2.032,0.451-3.974,1.253-5.702c1.219-0.327,2.507-0.508,3.827-0.508
		C332.122,136.546,338.693,143.116,338.693,151.223z"/>
	<path style="fill:#E6E6E6;" d="M202.654,151.223c0,1.321-0.181,2.608-0.508,3.827c-1.727,0.801-3.67,1.253-5.702,1.253
		c-7.486,0-13.548-6.062-13.548-13.548c0-2.032,0.451-3.974,1.253-5.702c1.219-0.327,2.507-0.508,3.827-0.508
		C196.084,136.546,202.654,143.116,202.654,151.223z"/>
</g>
<g>
</g>
<g>
</g>
<g>
</g>
<g>
</g>
<g>
</g>
<g>
</g>
<g>
</g>
<g>
</g>
<g>
</g>
<g>
</g>
<g>
</g>
<g>
</g>
<g>
</g>
<g>
</g>
<g>
</g>
</svg>
