<?xml version="1.0" encoding="iso-8859-1"?>
<!-- Generator: Adobe Illustrator 19.0.0, SVG Export Plug-In . SVG Version: 6.00 Build 0)  -->
<svg version="1.1" id="Capa_1" xmlns="http://www.w3.org/2000/svg" xmlns:xlink="http://www.w3.org/1999/xlink" x="0px" y="0px"
	 viewBox="0 0 512 512" style="enable-background:new 0 0 512 512;" xml:space="preserve">
<path style="fill:#63CBFF;" d="M512,256c0,2.508-0.031,4.995-0.104,7.481c-0.24,8.338-0.878,16.572-1.912,24.68
	c-1.484,11.88-3.783,23.51-6.844,34.826c-5.454,20.187-13.322,39.382-23.28,57.26c-2.508,4.535-5.162,8.976-7.941,13.333
	C426.454,464.792,346.739,512,256,512c-90.749,0-170.475-47.219-215.928-118.439c-2.779-4.347-5.433-8.788-7.941-13.312
	c-9.947-17.878-17.816-37.083-23.27-57.26c-3.062-11.316-5.36-22.946-6.844-34.826c-1.034-8.108-1.672-16.342-1.912-24.68
	C0.031,260.995,0,258.508,0,256c0-7.784,0.345-15.485,1.024-23.082c1.87-20.929,6.259-41.138,12.863-60.312
	C48.483,72.161,143.809,0,256,0s207.517,72.161,242.113,172.607c6.604,19.174,10.992,39.382,12.863,60.312
	C511.655,240.515,512,248.215,512,256z"/>
<path style="fill:#427A2D;" d="M512,256c0,2.508-0.031,4.995-0.104,7.481c-6.98,3.835-14.994,6.008-23.51,6.008
	c-15.768,0-29.78-7.461-38.724-19.048c-8.955,11.588-22.967,19.048-38.734,19.048c-15.768,0-29.79-7.461-38.734-19.048
	c-8.944,11.588-22.956,19.048-38.734,19.048c-15.768,0-29.78-7.461-38.724-19.048C285.78,262.029,271.767,269.49,256,269.49
	s-29.78-7.461-38.734-19.048c-8.944,11.588-22.956,19.048-38.724,19.048c-15.778,0-29.79-7.461-38.734-19.048
	c-8.944,11.588-22.967,19.048-38.734,19.048s-29.78-7.461-38.734-19.048c-8.944,11.588-22.956,19.048-38.724,19.048
	c-8.516,0-16.53-2.173-23.51-6.008C0.031,260.995,0,258.508,0,256c0-7.784,0.345-15.485,1.024-23.082
	c1.87-20.929,6.259-41.138,12.863-60.312c3.145-0.627,6.395-0.961,9.728-0.961c15.768,0,29.78,7.471,38.724,19.048
	c8.955-11.577,22.967-19.048,38.734-19.048s29.79,7.471,38.734,19.048c8.944-11.577,22.956-19.048,38.734-19.048
	c15.768,0,29.78,7.471,38.724,19.048c8.955-11.577,22.967-19.048,38.734-19.048s29.78,7.471,38.734,19.048
	c8.944-11.577,22.956-19.048,38.724-19.048c15.778,0,29.79,7.471,38.734,19.048c8.944-11.577,22.967-19.048,38.734-19.048
	c15.767,0,29.78,7.471,38.734,19.048c8.944-11.577,22.956-19.048,38.724-19.048c3.333,0,6.583,0.334,9.728,0.961
	c6.604,19.174,10.992,39.382,12.863,60.312C511.655,240.515,512,248.215,512,256z"/>
<path style="fill:#4C8E37;" d="M512,256c0,2.508-0.031,4.995-0.104,7.481c-0.596,20.532-3.605,40.458-8.756,59.507
	c-4.66,1.463-9.613,2.257-14.754,2.257c-15.768,0-29.78-7.471-38.724-19.048c-8.955,11.577-22.967,19.048-38.734,19.048
	c-15.768,0-29.79-7.471-38.734-19.048c-8.944,11.577-22.956,19.048-38.734,19.048c-15.768,0-29.78-7.471-38.724-19.048
	c-8.955,11.577-22.967,19.048-38.734,19.048s-29.78-7.471-38.734-19.048c-8.944,11.577-22.956,19.048-38.724,19.048
	c-15.778,0-29.79-7.471-38.734-19.048c-8.944,11.577-22.967,19.048-38.734,19.048s-29.78-7.471-38.734-19.048
	c-8.944,11.577-22.956,19.048-38.724,19.048c-5.141,0-10.094-0.794-14.754-2.257C3.709,303.94,0.7,284.014,0.104,263.481
	C0.031,260.995,0,258.508,0,256c0-7.784,0.345-15.485,1.024-23.082c6.76-3.521,14.44-5.517,22.591-5.517
	c15.768,0,29.78,7.461,38.724,19.048c8.955-11.588,22.967-19.048,38.734-19.048s29.79,7.461,38.734,19.048
	c8.944-11.588,22.956-19.048,38.734-19.048c15.768,0,29.78,7.461,38.724,19.048c8.955-11.588,22.967-19.048,38.734-19.048
	s29.78,7.461,38.734,19.048c8.944-11.588,22.956-19.048,38.724-19.048c15.778,0,29.79,7.461,38.734,19.048
	c8.944-11.588,22.967-19.048,38.734-19.048c15.767,0,29.78,7.461,38.734,19.048c8.944-11.588,22.956-19.048,38.724-19.048
	c8.15,0,15.83,1.996,22.591,5.517C511.655,240.515,512,248.215,512,256z"/>
<path style="fill:#69AF54;" d="M509.983,288.162c-1.484,11.88-3.783,23.51-6.844,34.826c-5.454,20.187-13.322,39.382-23.28,57.26
	c-12.236-2.152-22.904-8.861-30.198-18.307c-8.955,11.577-22.967,19.048-38.734,19.048c-15.768,0-29.79-7.471-38.734-19.048
	c-8.944,11.577-22.956,19.048-38.734,19.048c-15.768,0-29.78-7.471-38.724-19.048c-8.955,11.577-22.967,19.048-38.734,19.048
	s-29.78-7.471-38.734-19.048c-8.944,11.577-22.956,19.048-38.724,19.048c-15.778,0-29.79-7.471-38.734-19.048
	c-8.944,11.577-22.967,19.048-38.734,19.048s-29.78-7.471-38.734-19.048c-7.293,9.446-17.962,16.154-30.208,18.307
	c-9.947-17.878-17.816-37.083-23.27-57.26c-3.062-11.316-5.36-22.946-6.844-34.826c6.52-3.218,13.845-5.016,21.598-5.016
	c15.768,0,29.78,7.461,38.724,19.048c8.955-11.588,22.967-19.048,38.734-19.048s29.79,7.461,38.734,19.048
	c8.944-11.588,22.956-19.048,38.734-19.048c15.768,0,29.78,7.461,38.724,19.048c8.955-11.588,22.967-19.048,38.734-19.048
	s29.78,7.461,38.734,19.048c8.944-11.588,22.956-19.048,38.724-19.048c15.778,0,29.79,7.461,38.734,19.048
	c8.944-11.588,22.967-19.048,38.734-19.048c15.767,0,29.78,7.461,38.734,19.048c8.944-11.588,22.956-19.048,38.724-19.048
	C496.138,283.146,503.463,284.944,509.983,288.162z"/>
<path style="fill:#427A2D;" d="M16.054,345.397C52.316,442.696,146.062,512,256,512s203.684-69.304,239.946-166.603H16.054z"/>
<path style="fill:#E59E37;" d="M440.79,433.162C394.198,481.75,328.631,512,256,512s-138.198-30.25-184.78-78.827
	c4.796-40.427,16.52-71.785,26.843-92.797c9.916-20.156,18.526-30.804,18.526-30.804H395.41c0,0,8.61,10.647,18.516,30.804
	C424.249,361.388,435.984,392.746,440.79,433.162z"/>
<path style="fill:#C9832B;" d="M395.41,309.572H184.362H125.11c-2.697-2.301-8.52,0-8.52,0h-0.01c0,0-35.955,44.419-45.369,123.591
	l0.01,0.01c24.764,25.819,54.878,46.467,88.576,60.134c0.174-36.394,5.031-66.906,11.348-91.306
	c5.864-22.651,26.393-38.406,49.79-38.406h132.44c19.111,0,36.833-5.914,51.461-16.029c1.202-0.826,2.372-1.682,3.542-2.581
	c1.912-1.463,3.762-2.999,5.548-4.608C404.02,320.219,395.41,309.572,395.41,309.572z"/>
<circle style="fill:#E59E37;" cx="373.07" cy="43.48" r="43.479"/>
<circle style="fill:#AD6B1E;" cx="376.989" cy="53.593" r="24.841"/>
<circle style="fill:#C9832B;" cx="138.919" cy="43.48" r="43.479"/>
<circle style="fill:#AD6B1E;" cx="135.001" cy="53.593" r="24.841"/>
<path style="fill:#E59E37;" d="M443.973,252.016c0,29.354-13.955,55.446-35.599,71.987c-1.163,0.892-2.337,1.75-3.545,2.574
	c-14.621,10.116-32.347,16.032-51.461,16.032H158.624c-19.114,0-36.84-5.916-51.461-16.032c-1.208-0.835-2.394-1.694-3.557-2.585
	c-21.643-16.551-35.587-42.632-35.587-71.976c0-29.354,13.978-55.446,35.621-71.998c-0.033-1.412-0.056-2.811-0.056-4.234
	c0-84.169,68.238-152.407,152.407-152.407c84.18,0,152.418,68.238,152.418,152.407c0,1.423-0.023,2.822-0.068,4.234
	C429.996,196.57,443.973,222.661,443.973,252.016z"/>
<path style="fill:#C9832B;" d="M144.636,175.784c0,1.423,0.023,2.822,0.045,4.234c-15.806,16.551-26.024,42.643-26.024,71.998
	c0,29.344,10.184,55.423,26.001,71.976c0.846,0.892,1.716,1.75,2.597,2.585c10.681,10.116,23.63,16.032,37.596,16.032h-26.227
	c-19.114,0-36.84-5.916-51.461-16.032c-1.208-0.835-2.394-1.694-3.557-2.585c-21.643-16.551-35.587-42.632-35.587-71.976
	c0-29.354,13.978-55.446,35.621-71.998c-0.033-1.412-0.056-2.811-0.056-4.234c0-83.683,67.459-151.627,150.973-152.395
	C193.715,24.451,144.636,92.271,144.636,175.784z"/>
<path style="fill:#E6E6E6;" d="M356.645,342.549c-1.087,0.042-2.173,0.063-3.271,0.063H158.626c-1.191,0-2.382-0.021-3.563-0.073
	c-28.181-1.202-45.641-31.378-32.768-56.205c0.272-0.512,0.554-1.024,0.836-1.526c15.914-28.212,40.552-50.845,70.259-64.24
	c10.627-4.796,17.481-15.276,17.45-26.937v-0.752c0-56.121,20.219-101.616,45.16-101.616c24.942,0,45.16,45.495,45.16,101.616v0.752
	c-0.042,11.619,6.75,22.11,17.335,26.875c29.696,13.364,54.335,35.955,70.269,64.125
	C403.069,309.938,385.693,341.525,356.645,342.549z"/>
<path style="fill:#FFFFFF;" d="M275.435,301.213v45.453c0,6.259-5.068,11.316-11.316,11.316h-16.384
	c-6.248,0-11.316-5.057-11.316-11.316v-45.453l15.59,5.005l3.918,1.264l3.918-1.264L275.435,301.213z"/>
<path style="fill:#CCCCCC;" d="M184.853,342.612h-26.227c-1.191,0-2.382-0.021-3.563-0.073
	c-28.181-1.202-45.641-31.378-32.768-56.205c0.272-0.512,0.554-1.024,0.836-1.526c4.43,15.632,11.943,29.153,21.525,39.184
	c0.846,0.888,1.714,1.745,2.602,2.581C157.936,336.697,170.883,342.612,184.853,342.612z"/>
<path style="fill:#0F0F0E;" d="M293.868,262.796c0,13.727-16.957,32.745-37.873,32.745s-37.873-19.019-37.873-32.745
	c0-13.726,16.957-16.963,37.873-16.963S293.868,249.069,293.868,262.796z"/>
<circle style="fill:#807272;" cx="275.08" cy="261.402" r="10.105"/>
<g>
	<path style="fill:#C9832B;" d="M334.463,220.539c-14.941,0-27.096-12.155-27.096-27.096c0-12.231,8.242-22.989,20.043-26.162
		c2.31-0.621,4.681-0.934,7.053-0.934c14.941,0,27.096,12.155,27.096,27.096c0,2.371-0.315,4.743-0.933,7.049
		C357.452,212.297,346.694,220.539,334.463,220.539z"/>
	<path style="fill:#C9832B;" d="M177.526,220.539c-14.941,0-27.096-12.155-27.096-27.096c0-12.231,8.242-22.989,20.043-26.162
		c2.31-0.621,4.681-0.934,7.053-0.934c14.941,0,27.096,12.155,27.096,27.096c0,2.371-0.315,4.743-0.933,7.049
		C200.514,212.297,189.756,220.539,177.526,220.539z"/>
</g>
<g>
	<path style="fill:#0F0F0E;" d="M349.141,187.797c0,1.321-0.181,2.608-0.508,3.827c-1.682,6.255-7.383,10.85-14.169,10.85
		c-8.106,0-14.678-6.571-14.678-14.678c0-6.786,4.595-12.487,10.85-14.169c1.219-0.327,2.507-0.508,3.827-0.508
		C342.57,173.12,349.141,179.691,349.141,187.797z"/>
	<circle style="fill:#0F0F0E;" cx="177.528" cy="187.799" r="14.681"/>
</g>
<g>
	<path style="fill:#E6E6E6;" d="M349.141,187.797c0,1.321-0.181,2.608-0.508,3.827c-1.727,0.801-3.67,1.253-5.702,1.253
		c-7.486,0-13.548-6.063-13.548-13.548c0-2.032,0.451-3.974,1.253-5.702c1.219-0.327,2.507-0.508,3.827-0.508
		C342.57,173.12,349.141,179.691,349.141,187.797z"/>
	<path style="fill:#E6E6E6;" d="M192.203,187.797c0,1.321-0.181,2.608-0.508,3.827c-1.727,0.801-3.67,1.253-5.702,1.253
		c-7.486,0-13.548-6.063-13.548-13.548c0-2.032,0.451-3.974,1.253-5.702c1.219-0.327,2.507-0.508,3.827-0.508
		C185.632,173.12,192.203,179.691,192.203,187.797z"/>
	<polygon style="fill:#E6E6E6;" points="259.845,306.218 259.845,357.982 252.008,357.982 252.008,306.218 255.927,307.482 	"/>
</g>
<g>
</g>
<g>
</g>
<g>
</g>
<g>
</g>
<g>
</g>
<g>
</g>
<g>
</g>
<g>
</g>
<g>
</g>
<g>
</g>
<g>
</g>
<g>
</g>
<g>
</g>
<g>
</g>
<g>
</g>
</svg>
