<?xml version="1.0" encoding="iso-8859-1"?>
<!-- Generator: Adobe Illustrator 19.0.0, SVG Export Plug-In . SVG Version: 6.00 Build 0)  -->
<svg version="1.1" id="Capa_1" xmlns="http://www.w3.org/2000/svg" xmlns:xlink="http://www.w3.org/1999/xlink" x="0px" y="0px"
	 viewBox="0 0 512 512" style="enable-background:new 0 0 512 512;" xml:space="preserve">
<path style="fill:#34AD89;" d="M512,256c0,1.327-0.01,2.644-0.031,3.971c-0.606,40.239-10.512,78.242-27.648,111.94
	C442.034,455.043,355.662,512,256,512c-99.683,0-186.055-56.968-228.331-140.121C10.533,338.192,0.637,300.21,0.031,259.971
	C0.01,258.654,0,257.327,0,256C0,114.615,114.615,0,256,0S512,114.615,512,256z"/>
<path style="fill:#E6E6E6;" d="M511.969,259.971c-0.606,40.239-10.512,78.242-27.648,111.94C442.034,455.043,355.662,512,256,512
	c-99.683,0-186.055-56.968-228.331-140.121C10.533,338.192,0.637,300.21,0.031,259.971L511.969,259.971L511.969,259.971z"/>
<path style="fill:#394F59;" d="M485.063,348.682c0,7.816-0.251,15.569-0.742,23.228C442.034,455.043,355.662,512,256,512
	c-56.884,0-109.432-18.547-151.928-49.946c-31.974-23.604-58.253-54.471-76.403-90.175c-0.491-7.649-0.742-15.391-0.742-23.197
	C26.927,189.868,129.484,61.127,256,61.127C382.506,61.127,485.063,189.868,485.063,348.682z"/>
<g>
	<path style="fill:#E6E6E6;" d="M361.054,464.614c-14.148,4.138-37.919-34.565-53.102-86.455c-2.884-9.853-5.245-19.477-7.074-28.62
		c-7.879-39.016-6.249-69.465,5.214-72.819c14.158-4.138,37.93,34.565,53.102,86.455
		C374.376,415.054,375.202,460.476,361.054,464.614z"/>
	<path style="fill:#E6E6E6;" d="M204.037,378.159c-15.182,51.89-38.954,90.593-53.102,86.455s-13.322-49.56,1.86-101.439
		c0.47-1.599,0.94-3.176,1.421-4.744c15.203-49.486,37.961-85.723,51.681-81.711C220.045,280.858,219.209,326.28,204.037,378.159z"
		/>
</g>
<g>
	<path style="fill:#CCCCCC;" d="M361.054,464.614c-14.148,4.138-37.919-34.565-53.102-86.455c-2.884-9.853-5.245-19.477-7.074-28.62
		l18.516-2.696C319.394,346.843,344.471,469.441,361.054,464.614z"/>
	<path style="fill:#CCCCCC;" d="M150.936,464.614c-14.148-4.138-13.322-49.56,1.86-101.439c0.47-1.599,0.94-3.176,1.421-4.744
		l24.461-6.019C178.678,352.413,142.472,451.793,150.936,464.614z"/>
</g>
<path style="fill:#556F7C;" d="M363.412,269.917c-25.527-6.256-51.427-9.75-77.699-10.482c-9.997-0.279-19.383,3.322-26.539,9.566
	c-7.157-6.243-16.543-9.845-26.539-9.566c-26.272,0.733-52.172,4.228-77.699,10.482c-17.376,4.258-29.584,19.963-29.54,37.852
	c0.03,12.364,1.67,24.511,4.916,36.442c4.698,17.261,20.633,29.169,38.515,28.671c26.272-0.732,52.172-4.227,77.699-10.482
	c4.629-1.135,8.886-3.088,12.647-5.672c3.762,2.584,8.019,4.537,12.647,5.672c25.527,6.256,51.427,9.75,77.699,10.482
	c17.882,0.498,33.817-11.409,38.515-28.671c3.248-11.931,4.886-24.078,4.917-36.442C392.997,289.88,380.788,274.175,363.412,269.917
	z"/>
<g>
	<path style="fill:#2E4249;" d="M339.065,254.195c-13.828,0-25.078-11.249-25.078-25.078c0-11.319,7.628-21.275,18.55-24.213
		c2.138-0.574,4.332-0.864,6.527-0.864c13.828,0,25.078,11.249,25.078,25.078c0,2.194-0.29,4.389-0.864,6.523
		C360.34,246.568,350.384,254.195,339.065,254.195z"/>
	<path style="fill:#2E4249;" d="M172.921,254.195c-13.828,0-25.078-11.249-25.078-25.078c0-11.319,7.628-21.275,18.55-24.213
		c2.138-0.574,4.332-0.864,6.527-0.864c13.828,0,25.078,11.249,25.078,25.078c0,2.194-0.29,4.389-0.864,6.523
		C194.197,246.568,184.241,254.195,172.921,254.195z"/>
</g>
<g>
	<path style="fill:#0F0F0E;" d="M352.649,223.893c0,1.223-0.167,2.414-0.47,3.542c-1.557,5.789-6.834,10.041-13.113,10.041
		c-7.502,0-13.584-6.081-13.584-13.584c0-6.28,4.253-11.557,10.041-13.113c1.128-0.303,2.32-0.47,3.542-0.47
		C346.568,210.31,352.649,216.391,352.649,223.893z"/>
	<circle style="fill:#0F0F0E;" cx="172.92" cy="223.89" r="13.584"/>
</g>
<g>
	<path style="fill:#E6E6E6;" d="M352.649,223.893c0,1.223-0.167,2.414-0.47,3.542c-1.599,0.742-3.396,1.16-5.277,1.16
		c-6.928,0-12.539-5.611-12.539-12.539c0-1.881,0.418-3.678,1.16-5.277c1.128-0.303,2.32-0.47,3.542-0.47
		C346.568,210.31,352.649,216.391,352.649,223.893z"/>
	<path style="fill:#E6E6E6;" d="M186.505,223.893c0,1.223-0.167,2.414-0.47,3.542c-1.599,0.742-3.396,1.16-5.277,1.16
		c-6.928,0-12.539-5.611-12.539-12.539c0-1.881,0.418-3.678,1.16-5.277c1.128-0.303,2.32-0.47,3.542-0.47
		C180.424,210.31,186.505,216.391,186.505,223.893z"/>
</g>
<path style="fill:#0F0F0E;" d="M285.418,259.971c0,10.663-13.173,25.438-29.422,25.438c-16.249,0-29.422-14.775-29.422-25.438
	c0-10.663,13.173-13.178,29.422-13.178C272.245,246.792,285.418,249.307,285.418,259.971z"/>
<circle style="fill:#807272;" cx="270.827" cy="258.894" r="7.85"/>
<g>
	<path style="fill:#2E4249;" d="M104.072,462.054c-31.974-23.604-58.253-54.471-76.403-90.175
		c-0.491-7.649-0.742-15.391-0.742-23.197C26.927,189.868,129.484,61.127,256,61.127C256,61.127,73.164,136.537,104.072,462.054z"/>
	<circle style="fill:#2E4249;" cx="355.495" cy="308.527" r="6.617"/>
	<circle style="fill:#2E4249;" cx="361.064" cy="330.125" r="6.617"/>
	<circle style="fill:#2E4249;" cx="338.401" cy="324.984" r="6.617"/>
	<circle style="fill:#2E4249;" cx="162.858" cy="308.527" r="6.617"/>
	<circle style="fill:#2E4249;" cx="157.288" cy="330.125" r="6.617"/>
	<circle style="fill:#2E4249;" cx="179.952" cy="324.984" r="6.617"/>
</g>
<g>
</g>
<g>
</g>
<g>
</g>
<g>
</g>
<g>
</g>
<g>
</g>
<g>
</g>
<g>
</g>
<g>
</g>
<g>
</g>
<g>
</g>
<g>
</g>
<g>
</g>
<g>
</g>
<g>
</g>
</svg>
