<?xml version="1.0" encoding="iso-8859-1"?>
<!-- Generator: Adobe Illustrator 19.0.0, SVG Export Plug-In . SVG Version: 6.00 Build 0)  -->
<svg version="1.1" id="Capa_1" xmlns="http://www.w3.org/2000/svg" xmlns:xlink="http://www.w3.org/1999/xlink" x="0px" y="0px"
	 viewBox="0 0 512 512" style="enable-background:new 0 0 512 512;" xml:space="preserve">
<circle style="fill:#63CBFF;" cx="256" cy="256" r="256"/>
<g>
	<path style="fill:#427A2D;" d="M512,255.999c0,18.233-1.912,36.028-5.538,53.185h-77.73c-8.579,0-12.873-10.365-6.802-16.436
		l29.257-29.257c1.954-1.964,2.832-4.378,2.832-6.74c0-4.953-3.835-9.697-9.644-9.697c-8.579,0-12.873-10.376-6.802-16.436
		l22.695-22.695c6.06-6.071,1.766-16.447-6.813-16.447h-1.641c-8.579,0-12.873-10.365-6.813-16.436l37.825-37.815
		c17.095,32.569,27.376,69.277,28.954,108.231C511.927,248.956,512,252.467,512,255.999z"/>
	<path style="fill:#427A2D;" d="M83.268,309.184H5.538C1.912,292.027,0,274.232,0,255.999c0-3.532,0.073-7.043,0.219-10.543
		c1.578-38.954,11.86-75.661,28.954-108.231l37.825,37.815c6.06,6.071,1.766,16.436-6.813,16.436h-1.64
		c-8.579,0-12.873,10.376-6.813,16.447l22.695,22.695c1.964,1.964,2.842,4.378,2.842,6.74c0,4.953-3.845,9.697-9.644,9.697
		c-8.579,0-12.873,10.365-6.813,16.436l29.257,29.257C96.141,298.819,91.847,309.184,83.268,309.184z"/>
</g>
<path style="fill:#4C8E37;" d="M489.556,360.959c-12.184,27.094-28.965,51.681-49.34,72.777H71.784
	c-5.904-6.102-11.504-12.507-16.771-19.174v-28.891h-19.79c-4.692-7.973-8.965-16.217-12.779-24.712l20.982-20.992
	c1.964-1.964,2.842-4.368,2.842-6.729c0-4.953-3.845-9.707-9.655-9.707c-8.579,0-12.873-10.376-6.802-16.436l22.695-22.695
	c6.06-6.071,1.766-16.436-6.813-16.436h-1.64c-8.579,0-12.873-10.376-6.813-16.436l54.439-54.439c3.762-3.762,9.853-3.762,13.615,0
	l54.439,54.439c6.071,6.06,1.766,16.436-6.813,16.436h-1.641c-8.579,0-12.873,10.365-6.802,16.436l22.695,22.695
	c1.954,1.954,2.832,4.368,2.832,6.729c0,4.953-3.835,9.707-9.644,9.707c-8.579,0-12.873,10.376-6.813,16.436l23.301,23.301
	l23.301-23.301c6.071-6.06,1.776-16.436-6.802-16.436s-12.873-10.376-6.813-16.436l22.695-22.695
	c6.071-6.071,1.766-16.436-6.813-16.436h-1.64c-8.579,0-12.873-10.376-6.802-16.436l54.429-54.439c3.762-3.762,9.864-3.762,13.625,0
	l54.429,54.439c6.071,6.06,1.776,16.436-6.802,16.436h-1.64c-8.579,0-12.884,10.365-6.813,16.436l22.695,22.695
	c1.954,1.954,2.832,4.368,2.832,6.729c0,4.953-3.835,9.707-9.644,9.707c-8.579,0-12.873,10.376-6.802,16.436l24.085,24.085
	l24.085-24.085c1.954-1.954,2.832-4.368,2.832-6.729c0-4.953-3.835-9.707-9.644-9.707c-8.579,0-12.873-10.376-6.813-16.436
	l22.695-22.695c6.071-6.071,1.776-16.436-6.802-16.436h-1.641c-8.579,0-12.884-10.376-6.813-16.436l54.439-54.439
	c3.762-3.762,9.853-3.762,13.615,0l54.439,54.439c6.06,6.06,1.766,16.436-6.813,16.436h-1.641c-8.579,0-12.873,10.365-6.813,16.436
	l22.695,22.695c1.964,1.964,2.842,4.378,2.842,6.74c0,4.953-3.845,9.697-9.644,9.697c-8.579,0-12.884,10.376-6.813,16.436
	L489.556,360.959z"/>
<path style="fill:#69AF54;" d="M512,255.999c0,74.041-31.431,140.737-81.69,187.476c-9.07,8.432-18.745,16.227-28.965,23.28
	c-41.284,28.536-91.366,45.244-145.345,45.244s-104.061-16.708-145.345-45.244c-10.219-7.053-19.895-14.848-28.965-23.28
	C31.431,396.736,0,330.04,0,255.999c0-3.532,0.073-7.043,0.219-10.543l12.319-12.319c3.751-3.762,9.853-3.762,13.615,0
	l54.429,54.439c6.071,6.06,1.776,16.436-6.802,16.436h-1.64c-8.579,0-12.873,10.365-6.813,16.436l22.695,22.695
	c1.964,1.964,2.842,4.368,2.842,6.729c0,4.953-3.845,9.707-9.655,9.707c-8.579,0-12.873,10.376-6.802,16.436l24.085,24.085
	l24.085-24.085c1.954-1.954,2.832-4.368,2.832-6.729c0-4.953-3.835-9.707-9.644-9.707c-8.579,0-12.873-10.376-6.813-16.436
	l22.695-22.695c6.071-6.071,1.776-16.436-6.802-16.436h-1.64c-8.579,0-12.873-10.376-6.813-16.436l54.439-54.439
	c3.762-3.762,9.853-3.762,13.615,0l54.439,54.439c6.06,6.06,1.766,16.436-6.813,16.436h-1.641c-8.579,0-12.873,10.365-6.813,16.436
	l22.695,22.695c1.964,1.964,2.842,4.378,2.842,6.74c0,4.953-3.845,9.697-9.644,9.697c-8.579,0-12.884,10.376-6.813,16.436
	L256,399.317l23.301-23.301c1.964-1.964,2.842-4.368,2.842-6.729c0-4.953-3.845-9.707-9.655-9.707
	c-8.579,0-12.873-10.376-6.802-16.436l22.695-22.695c6.06-6.071,1.766-16.436-6.813-16.436h-1.641
	c-8.579,0-12.873-10.376-6.813-16.436l54.439-54.439c3.762-3.762,9.853-3.762,13.615,0l54.439,54.439
	c6.06,6.06,1.766,16.436-6.813,16.436h-1.64c-8.579,0-12.873,10.365-6.802,16.436l22.695,22.695
	c1.954,1.954,2.832,4.368,2.832,6.729c0,4.953-3.835,9.707-9.644,9.707c-8.579,0-12.873,10.376-6.813,16.436l24.085,24.085
	l24.085-24.085c1.964-1.964,2.842-4.378,2.842-6.74c0-4.953-3.845-9.697-9.644-9.697c-8.579,0-12.884-10.376-6.813-16.436
	l22.695-22.695c6.06-6.071,1.766-16.436-6.813-16.436h-1.641c-8.579,0-12.873-10.376-6.802-16.436l54.429-54.439
	c3.762-3.762,9.864-3.762,13.615,0l12.319,12.319C511.927,248.956,512,252.467,512,255.999z"/>
<g>
	<path style="fill:#BC5410;" d="M457.731,413.632c-46.864,59.883-119.798,98.367-201.728,98.367s-154.864-38.484-201.728-98.367
		c7.199-28.003,20.929-53.708,39.612-75.191c31.932-36.728,78.346-61.158,131.427-63.843c20.459-1.034,40.918-1.034,61.377,0
		c53.081,2.685,99.495,27.115,131.427,63.843C436.802,359.924,450.532,385.629,457.731,413.632z"/>
	<circle style="fill:#BC5410;" cx="413.78" cy="82.829" r="64.784"/>
</g>
<circle style="fill:#91420E;" cx="409.161" cy="87.448" r="37.012"/>
<circle style="fill:#A5490C;" cx="98.22" cy="82.829" r="64.784"/>
<circle style="fill:#91420E;" cx="102.839" cy="87.448" r="37.012"/>
<path style="fill:#A5490C;" d="M418.119,338.441c-31.932-36.728-78.346-61.158-131.427-63.843
	c-11.274-0.575-22.549-0.815-33.813-0.752c0.209-0.01,0.408-0.01,0.616-0.021c-0.742,0.01-1.494,0.021-2.236,0.021
	c-1.327,0.01-2.654,0.021-3.981,0.042c-1.264,0.021-2.529,0.052-3.793,0.073c-1.191,0.021-2.382,0.042-3.574,0.073
	c-1.317,0.042-2.644,0.084-3.96,0.125c-1.118,0.042-2.247,0.073-3.365,0.115c-2.424,0.094-4.848,0.199-7.272,0.324
	c-84.156,4.253-151.531,63.164-171.039,139.034c18.453,23.583,40.96,43.844,66.456,59.747c-0.721-13.866-0.397-27.512,0.867-40.761
	c3.371-35.248,34.523-60.942,69.499-58.533c1.888,0.13,3.617,1.113,4.686,2.674l14.286,20.883c2.911,4.256,9.25,4.067,11.903-0.354
	l6.432-10.72c2.456-4.092,8.432-3.951,10.691,0.252l16.031,29.818c3.046,5.664,11.458,4.655,13.077-1.569l7.119-27.379
	c1.196-4.602,6.939-6.164,10.302-2.801l6.399,6.399c3.264,3.264,8.729,2.578,11.085-1.392l7.278-12.263
	c0.994-1.674,2.721-2.77,4.657-2.971c16.035-1.653,32.069-3.973,48.104-6.975C384.442,363.707,403.47,353.279,418.119,338.441z"/>
<path style="fill:#BC5410;" d="M284.954,48.85c-19.302-0.976-38.606-0.976-57.908,0C121.787,54.174,44.33,150.122,63.048,253.839
	c1.003,5.558,2.172,11.116,3.508,16.673c9.611,40.004,41.861,70.799,82.3,78.368c71.43,13.369,142.859,13.369,214.29,0
	c40.44-7.569,72.689-38.364,82.3-78.368c1.335-5.558,2.505-11.116,3.508-16.673C467.67,150.122,390.213,54.174,284.954,48.85z"/>
<path style="fill:#A5490C;" d="M256,358.914c-35.715,0-71.429-3.344-107.144-10.031c-40.438-7.565-72.694-38.358-82.296-78.367
	c-1.337-5.559-2.508-11.118-3.511-16.677C44.335,150.123,121.783,54.18,227.046,48.851c8.861-0.439,17.721-0.69,26.593-0.721
	c-5.527,0.052-11.055,0.303-16.572,0.721c-68.827,5.329-119.474,101.272-107.238,204.988c0.658,5.559,1.421,11.118,2.299,16.677
	c6.28,40.009,27.366,70.802,53.812,78.367C209.293,355.57,232.647,358.914,256,358.914z"/>
<path style="fill:#E6E6E6;" d="M303.483,359.117c-31.655,4.992-63.31,4.992-94.966,0c-19.669-3.102-35.52-19.763-38.561-41.374
	c-1.134-8.056-1.134-16.111,0-24.167c3.041-21.61,18.892-38.271,38.561-41.374c31.65-4.991,63.301-4.993,94.951-0.002
	c20.089,3.167,35.95,20.499,38.742,42.62c0.964,7.641,0.909,15.282-0.166,22.923C339.004,339.353,323.152,356.014,303.483,359.117z"
	/>
<path style="fill:#CCCCCC;" d="M229.449,359.116c8.296,2.33,16.593,3.584,24.889,3.73c-15.276-0.084-30.553-1.327-45.819-3.73
	c-19.675-3.103-35.527-19.769-38.567-41.378c-1.128-8.056-1.128-16.112,0-24.168c3.041-21.608,18.892-38.275,38.567-41.367
	c15.276-2.414,30.553-3.657,45.829-3.741c-8.296,0.146-16.603,1.4-24.9,3.741c-11.003,3.093-19.863,19.759-21.567,41.367
	c-0.627,8.056-0.627,16.112,0,24.168C209.586,339.346,218.446,356.012,229.449,359.116z"/>
<path style="fill:#0F0F0E;" d="M291.246,270.638c0,12.774-15.78,30.473-35.245,30.473c-19.465,0-35.245-17.7-35.245-30.473
	c0-12.774,15.78-15.786,35.245-15.786S291.246,257.863,291.246,270.638z"/>
<circle style="fill:#807272;" cx="273.763" cy="269.343" r="9.404"/>
<g>
	<path style="fill:#91420E;" d="M339.071,256.281c-13.828,0-25.078-11.249-25.078-25.078c0-11.319,7.628-21.275,18.55-24.213
		c2.138-0.574,4.332-0.864,6.527-0.864c13.828,0,25.078,11.249,25.078,25.078c0,2.194-0.29,4.389-0.864,6.523
		C360.348,248.653,350.391,256.281,339.071,256.281z"/>
	<path style="fill:#91420E;" d="M172.929,256.281c-13.828,0-25.078-11.249-25.078-25.078c0-11.319,7.628-21.275,18.55-24.213
		c2.138-0.574,4.332-0.864,6.527-0.864c13.828,0,25.078,11.249,25.078,25.078c0,2.194-0.29,4.389-0.864,6.523
		C194.204,248.653,184.247,256.281,172.929,256.281z"/>
</g>
<g>
	<path style="fill:#0F0F0E;" d="M352.655,225.979c0,1.223-0.167,2.414-0.47,3.542c-1.557,5.789-6.834,10.041-13.113,10.041
		c-7.502,0-13.584-6.081-13.584-13.584c0-6.28,4.253-11.557,10.041-13.113c1.128-0.303,2.32-0.47,3.542-0.47
		C346.574,212.395,352.655,218.477,352.655,225.979z"/>
	<circle style="fill:#0F0F0E;" cx="172.931" cy="225.98" r="13.584"/>
</g>
<g>
	<path style="fill:#E6E6E6;" d="M352.655,225.979c0,1.223-0.167,2.414-0.47,3.542c-1.599,0.742-3.396,1.16-5.277,1.16
		c-6.928,0-12.539-5.611-12.539-12.539c0-1.881,0.418-3.678,1.16-5.277c1.128-0.303,2.32-0.47,3.542-0.47
		C346.574,212.395,352.655,218.477,352.655,225.979z"/>
	<path style="fill:#E6E6E6;" d="M186.512,225.979c0,1.223-0.167,2.414-0.47,3.542c-1.599,0.742-3.396,1.16-5.277,1.16
		c-6.928,0-12.539-5.611-12.539-12.539c0-1.881,0.418-3.678,1.16-5.277c1.128-0.303,2.32-0.47,3.542-0.47
		C180.431,212.395,186.512,218.477,186.512,225.979z"/>
</g>
<g>
	<path style="fill:#BC5410;" d="M99.541,379.98c2.834-4.355,9.692-2.907,10.326,2.251c1.17,9.539-8.215,22.913-19.569,27.238
		C78.516,413.957,92.157,391.328,99.541,379.98z"/>
	<path style="fill:#BC5410;" d="M102.938,413.358c1.875-4.846,8.885-4.843,10.568,0.072c3.113,9.093-3.312,24.115-13.529,30.689
		C89.373,450.942,98.053,425.985,102.938,413.358z"/>
</g>
<g>
</g>
<g>
</g>
<g>
</g>
<g>
</g>
<g>
</g>
<g>
</g>
<g>
</g>
<g>
</g>
<g>
</g>
<g>
</g>
<g>
</g>
<g>
</g>
<g>
</g>
<g>
</g>
<g>
</g>
</svg>
