<?xml version="1.0" encoding="iso-8859-1"?>
<!-- Generator: Adobe Illustrator 19.0.0, SVG Export Plug-In . SVG Version: 6.00 Build 0)  -->
<svg version="1.1" id="Capa_1" xmlns="http://www.w3.org/2000/svg" xmlns:xlink="http://www.w3.org/1999/xlink" x="0px" y="0px"
	 viewBox="0 0 512 512" style="enable-background:new 0 0 512 512;" xml:space="preserve">
<path style="fill:#63CBFF;" d="M512,256c0,2.508-0.031,4.995-0.104,7.481c-0.24,8.338-0.878,16.572-1.912,24.68
	c-1.484,11.88-3.783,23.51-6.844,34.826c-5.454,20.187-13.322,39.382-23.28,57.26c-2.508,4.535-5.162,8.976-7.941,13.333
	C426.454,464.792,346.739,512,256,512c-90.749,0-170.475-47.219-215.928-118.439c-2.779-4.347-5.433-8.788-7.941-13.312
	c-9.947-17.878-17.816-37.083-23.27-57.26c-3.062-11.316-5.36-22.946-6.844-34.826c-1.034-8.108-1.672-16.342-1.912-24.68
	C0.031,260.995,0,258.508,0,256c0-7.784,0.345-15.485,1.024-23.082c1.87-20.929,6.259-41.138,12.863-60.312
	C48.483,72.161,143.809,0,256,0s207.517,72.161,242.113,172.607c6.604,19.174,10.992,39.382,12.863,60.312
	C511.655,240.515,512,248.215,512,256z"/>
<path style="fill:#427A2D;" d="M512,256c0,2.508-0.031,4.995-0.104,7.481c-6.98,3.835-14.994,6.008-23.51,6.008
	c-15.768,0-29.78-7.461-38.724-19.048c-8.955,11.588-22.967,19.048-38.734,19.048c-15.768,0-29.79-7.461-38.734-19.048
	c-8.944,11.588-22.956,19.048-38.734,19.048c-15.768,0-29.78-7.461-38.724-19.048C285.78,262.029,271.767,269.49,256,269.49
	s-29.78-7.461-38.734-19.048c-8.944,11.588-22.956,19.048-38.724,19.048c-15.778,0-29.79-7.461-38.734-19.048
	c-8.944,11.588-22.967,19.048-38.734,19.048s-29.78-7.461-38.734-19.048c-8.944,11.588-22.956,19.048-38.724,19.048
	c-8.516,0-16.53-2.173-23.51-6.008C0.031,260.995,0,258.508,0,256c0-7.784,0.345-15.485,1.024-23.082
	c1.87-20.929,6.259-41.138,12.863-60.312c3.145-0.627,6.395-0.961,9.728-0.961c15.768,0,29.78,7.471,38.724,19.048
	c8.955-11.577,22.967-19.048,38.734-19.048s29.79,7.471,38.734,19.048c8.944-11.577,22.956-19.048,38.734-19.048
	c15.768,0,29.78,7.471,38.724,19.048c8.955-11.577,22.967-19.048,38.734-19.048s29.78,7.471,38.734,19.048
	c8.944-11.577,22.956-19.048,38.724-19.048c15.778,0,29.79,7.471,38.734,19.048c8.944-11.577,22.967-19.048,38.734-19.048
	c15.767,0,29.78,7.471,38.734,19.048c8.944-11.577,22.956-19.048,38.724-19.048c3.333,0,6.583,0.334,9.728,0.961
	c6.604,19.174,10.992,39.382,12.863,60.312C511.655,240.515,512,248.215,512,256z"/>
<path style="fill:#4C8E37;" d="M512,256c0,2.508-0.031,4.995-0.104,7.481c-0.596,20.532-3.605,40.458-8.756,59.507
	c-4.66,1.463-9.613,2.257-14.754,2.257c-15.768,0-29.78-7.471-38.724-19.048c-8.955,11.577-22.967,19.048-38.734,19.048
	c-15.768,0-29.79-7.471-38.734-19.048c-8.944,11.577-22.956,19.048-38.734,19.048c-15.768,0-29.78-7.471-38.724-19.048
	c-8.955,11.577-22.967,19.048-38.734,19.048s-29.78-7.471-38.734-19.048c-8.944,11.577-22.956,19.048-38.724,19.048
	c-15.778,0-29.79-7.471-38.734-19.048c-8.944,11.577-22.967,19.048-38.734,19.048s-29.78-7.471-38.734-19.048
	c-8.944,11.577-22.956,19.048-38.724,19.048c-5.141,0-10.094-0.794-14.754-2.257C3.709,303.94,0.7,284.014,0.104,263.481
	C0.031,260.995,0,258.508,0,256c0-7.784,0.345-15.485,1.024-23.082c6.76-3.521,14.44-5.517,22.591-5.517
	c15.768,0,29.78,7.461,38.724,19.048c8.955-11.588,22.967-19.048,38.734-19.048s29.79,7.461,38.734,19.048
	c8.944-11.588,22.956-19.048,38.734-19.048c15.768,0,29.78,7.461,38.724,19.048c8.955-11.588,22.967-19.048,38.734-19.048
	s29.78,7.461,38.734,19.048c8.944-11.588,22.956-19.048,38.724-19.048c15.778,0,29.79,7.461,38.734,19.048
	c8.944-11.588,22.967-19.048,38.734-19.048c15.767,0,29.78,7.461,38.734,19.048c8.944-11.588,22.956-19.048,38.724-19.048
	c8.15,0,15.83,1.996,22.591,5.517C511.655,240.515,512,248.215,512,256z"/>
<path style="fill:#69AF54;" d="M509.983,288.162c-1.484,11.88-3.783,23.51-6.844,34.826c-5.454,20.187-13.322,39.382-23.28,57.26
	c-12.236-2.152-22.904-8.861-30.198-18.307c-8.955,11.577-22.967,19.048-38.734,19.048c-15.768,0-29.79-7.471-38.734-19.048
	c-8.944,11.577-22.956,19.048-38.734,19.048c-15.768,0-29.78-7.471-38.724-19.048c-8.955,11.577-22.967,19.048-38.734,19.048
	s-29.78-7.471-38.734-19.048c-8.944,11.577-22.956,19.048-38.724,19.048c-15.778,0-29.79-7.471-38.734-19.048
	c-8.944,11.577-22.967,19.048-38.734,19.048s-29.78-7.471-38.734-19.048c-7.293,9.446-17.962,16.154-30.208,18.307
	c-9.947-17.878-17.816-37.083-23.27-57.26c-3.062-11.316-5.36-22.946-6.844-34.826c6.52-3.218,13.845-5.016,21.598-5.016
	c15.768,0,29.78,7.461,38.724,19.048c8.955-11.588,22.967-19.048,38.734-19.048s29.79,7.461,38.734,19.048
	c8.944-11.588,22.956-19.048,38.734-19.048c15.768,0,29.78,7.461,38.724,19.048c8.955-11.588,22.967-19.048,38.734-19.048
	s29.78,7.461,38.734,19.048c8.944-11.588,22.956-19.048,38.724-19.048c15.778,0,29.79,7.461,38.734,19.048
	c8.944-11.588,22.967-19.048,38.734-19.048c15.767,0,29.78,7.461,38.734,19.048c8.944-11.588,22.956-19.048,38.724-19.048
	C496.138,283.146,503.463,284.944,509.983,288.162z"/>
<path style="fill:#427A2D;" d="M16.054,345.397C52.316,442.696,146.062,512,256,512s203.684-69.304,239.946-166.603H16.054z"/>
<path style="fill:#F4B345;" d="M410.436,460.184C367.512,492.711,314.013,512,256,512s-111.522-19.299-154.446-51.827l0.157-0.94
	l4.618-28.578l0.606-3.741l3.762-23.364c0.846-5.214,1.923-10.334,3.239-15.37c0.094-0.376,0.188-0.742,0.293-1.118
	c1.724-6.426,3.814-12.695,6.269-18.766c12.528-31.117,34.231-57.187,61.889-74.146c7.879-4.838,16.238-8.923,25.004-12.184
	c0.585-0.219,1.16-0.428,1.745-0.627c15.203-5.434,31.023-8.15,46.853-8.15c12.831,0,25.652,1.787,38.149,5.35
	c3.521,1.003,7.001,2.142,10.459,3.427h0.01c25.684,9.54,47.877,26.237,64.679,47.731c9.07,11.598,16.572,24.586,22.204,38.599
	c2.456,6.071,4.545,12.34,6.269,18.766c0.105,0.376,0.199,0.742,0.293,1.118c1.317,5.036,2.393,10.156,3.239,15.37l3.762,23.364
	l0.606,3.741l4.618,28.578L410.436,460.184z"/>
<g>
	<path style="fill:#D38A2A;" d="M369.288,329.697c-72.923,39.528-147.769,18.536-147.769,18.536l-39.131-54.084l-7.596-10.491
		c0,0,13.678-1.118,34.346-2.32c22.821-1.327,54.147-2.727,85.002-2.8c3.521,1.003,7.001,2.142,10.459,3.427h0.01
		C330.292,291.506,352.486,308.203,369.288,329.697z"/>
	<path style="fill:#D38A2A;" d="M255.986,273.19c-12.267,0-24.534,2.926-36.268,8.777c-34.011,16.927-59.799,56.362-69.538,105.096
		c-1.087,5.392-1.964,10.888-2.633,16.488l-3.26,27.105l-5.601,46.383l-0.742,6.175c-12.8-6.666-24.963-14.378-36.383-23.04
		l4.765-29.518l4.368-27.105c0.909-5.601,2.079-11.097,3.532-16.488c13.051-48.734,47.606-88.169,93.163-105.096
		C223.124,276.115,239.55,273.19,255.986,273.19z"/>
	<path style="fill:#D38A2A;" d="M237.889,330.818c0,0-11.146,37.616-22.988,37.616c-11.842,0-3.483-32.74-16.021-32.74
		c-12.539,0-43.734,15.497-48.7,51.368c-4.964,35.871-9.815-31.166-9.815-31.166l50.851-65.481"/>
</g>
<circle style="fill:#E59E37;" cx="373.624" cy="65.264" r="43.687"/>
<circle style="fill:#C9832B;" cx="377.563" cy="75.421" r="24.959"/>
<circle style="fill:#E59E37;" cx="138.355" cy="65.264" r="43.687"/>
<circle style="fill:#C9832B;" cx="134.426" cy="75.421" r="24.959"/>
<path style="fill:#F4B345;" d="M406.152,287.595c-5.797,7.26-13.284,12.921-22.031,16.12l-111.853,41.009
	c-10.573,3.868-21.974,3.868-32.546,0l-111.865-41.009c-8.735-3.198-16.234-8.86-22.031-16.12
	c-4.924-6.16-8.61-13.477-10.789-21.429c-2.156-7.827-2.836-16.278-1.77-24.82c0.079-0.579,0.159-1.18,0.238-1.782l0.283-1.871
	c0-0.045,0.011-0.091,0.023-0.125l1.157-7.612l1.032-6.783l2.745-18.014l3.891-25.558l4.481-29.427
	c0.918-6.08,2.133-12.048,3.618-17.901c13.375-52.909,48.78-95.722,95.461-114.1c13.579-5.354,27.669-8.451,41.848-9.28
	c2.644-0.17,5.286-0.25,7.941-0.25s5.298,0.079,7.941,0.25c14.18,0.829,28.27,3.925,41.86,9.28h0.011
	c46.681,18.378,82.075,61.19,95.439,114.1c1.497,5.854,2.7,11.821,3.63,17.901l4.469,29.427l3.891,25.535l2.756,18.026l1.032,6.795
	l1.452,9.609C421.194,257.396,416.271,274.923,406.152,287.595z"/>
<path style="fill:#E59E37;" d="M244.037,344.723c3.641,1.815,7.414,2.779,11.205,2.892c-5.251-0.079-10.481-1.044-15.521-2.892
	l-111.863-41.009c-8.741-3.199-16.235-8.86-22.029-16.12c-10.109-12.66-15.038-30.199-12.321-48.031l1.459-9.609l7.675-50.357
	l4.476-29.426c0.926-6.08,2.133-12.048,3.621-17.901c13.368-52.909,48.775-95.722,95.457-114.1
	c16.114-6.353,32.952-9.529,49.79-9.529c-12.372,0-24.734,3.176-36.574,9.529c-34.3,18.378-60.312,61.19-70.129,114.1
	c-1.096,5.854-1.981,11.821-2.655,17.901l-3.289,29.426l-5.642,50.357l-1.066,9.609c-2.002,17.833,1.62,35.371,9.053,48.031
	c4.255,7.26,9.757,12.921,16.174,16.12L244.037,344.723z"/>
<path style="fill:#C9832B;" d="M350.135,246.187c-7.809-7.298-14.615-12.656-20.363-17.115
	c12.218-0.443,28.216-14.126,31.354-25.795c0.622-2.317,0.937-4.7,0.937-7.082c0-1.539-0.135-3.046-0.381-4.515
	c20.27,8.368,38.56,19.015,54.305,31.48l-11.118-72.988c-23.244-17.765-43.38,23.29-75.484,14.713h-0.023
	c-20.022-5.355-40.782-8.451-61.678-9.28c-3.891-0.17-7.782-0.25-11.696-0.25c-3.913,0-7.804,0.079-11.707,0.25
	c-20.884,0.829-41.656,3.925-61.655,9.28c-32.126,8.577-52.251-32.49-75.506-14.713l-11.118,73
	c15.74-12.468,34.029-23.109,54.297-31.477c-0.247,1.47-0.376,2.974-0.376,4.501c0,14.809,17.403,32.402,32.285,32.876
	c-5.749,4.46-12.557,9.819-20.365,17.116c-5.384,5.032-8.822,11.006-10.87,17.356c-9.305,28.852,12.171,58.527,42.456,59.879
	l11.579,0.517l47.775-152.669c1.068-0.013,2.135-0.033,3.206-0.033s2.137,0.021,3.206,0.033l47.776,152.669l11.579-0.517
	c30.285-1.352,51.761-31.026,42.456-59.879C358.957,257.193,355.519,251.22,350.135,246.187z"/>
<g>
	<path style="fill:#0F0F0E;" d="M349.584,196.195c0,1.327-0.182,2.621-0.511,3.845c-1.691,6.285-7.419,10.901-14.237,10.901
		c-8.145,0-14.748-6.603-14.748-14.748c0-6.818,4.617-12.547,10.901-14.237c1.226-0.329,2.518-0.511,3.845-0.511
		C342.983,181.448,349.584,188.05,349.584,196.195z"/>
	<circle style="fill:#0F0F0E;" cx="177.152" cy="196.19" r="14.744"/>
</g>
<g>
	<path style="fill:#E6E6E6;" d="M349.584,196.195c0,1.327-0.182,2.621-0.511,3.845c-1.736,0.806-3.686,1.259-5.729,1.259
		c-7.521,0-13.613-6.092-13.613-13.613c0-2.042,0.453-3.994,1.259-5.729c1.226-0.329,2.518-0.511,3.845-0.511
		C342.983,181.448,349.584,188.05,349.584,196.195z"/>
	<path style="fill:#E6E6E6;" d="M191.898,196.195c0,1.327-0.182,2.621-0.511,3.845c-1.736,0.806-3.686,1.259-5.729,1.259
		c-7.521,0-13.613-6.092-13.613-13.613c0-2.042,0.453-3.994,1.259-5.729c1.226-0.329,2.518-0.511,3.845-0.511
		C185.295,181.448,191.898,188.05,191.898,196.195z"/>
</g>
<path style="fill:#C9832B;" d="M209.192,309.032c0-16.963,20.954-94.684,46.802-94.684s46.802,77.722,46.802,94.684
	s-20.954,20.963-46.802,20.963S209.192,325.995,209.192,309.032z"/>
<path style="fill:#E59E37;" d="M344.122,279.936c-0.885,24.152-20.499,43.901-44.651,44.945
	c-18.854,0.806-35.359-9.552-43.471-25.014c-7.816,14.895-23.426,25.059-41.418,25.059c-3.279,0-6.477-0.341-9.574-0.986
	c-21.225-4.413-37.174-23.222-37.174-45.762c0-8.883,2.473-17.186,6.783-24.254c3.392-5.582,7.93-10.403,13.284-14.124
	c16.449-11.457,29.937-26.726,38.026-45.071c8.133-18.457,18.616-33.704,30.062-33.704c11.424,0,21.883,15.168,30.005,33.567
	c7.963,18.026,20.714,33.703,37.164,44.571C336.261,247.833,344.746,262.909,344.122,279.936z"/>
<path style="fill:#D38A2A;" d="M205.009,323.939c-21.225-4.413-37.174-23.222-37.174-45.762c0-25.819,20.93-46.75,46.749-46.75
	c2.462,0,4.878,0.193,7.238,0.567l3.926,2.847C225.746,234.842,169.91,258.007,205.009,323.939z"/>
<path style="fill:#0F0F0E;" d="M287.936,266.075c0,11.577-14.302,27.618-31.943,27.618s-31.943-16.04-31.943-27.618
	s14.302-14.307,31.943-14.307S287.936,254.497,287.936,266.075z"/>
<circle style="fill:#807272;" cx="272.091" cy="264.903" r="8.523"/>
<path style="fill:#D38A2A;" d="M255.99,161.027l-30.244,73.817l-51.128,19.081c3.392-5.582,7.93-10.403,13.284-14.124
	c16.449-11.457,29.937-26.726,38.026-45.071C234.061,176.274,244.543,161.027,255.99,161.027z"/>
<g>
	<path style="fill:#C9832B;" d="M263.93,8.891v109.108c0,4.391-3.551,7.941-7.941,7.941c-4.379,0-7.941-3.551-7.941-7.941V8.891
		c2.644-0.17,5.286-0.25,7.941-0.25C258.644,8.641,261.287,8.721,263.93,8.891z"/>
	<circle style="fill:#C9832B;" cx="284.359" cy="63.547" r="8.509"/>
	<circle style="fill:#C9832B;" cx="377.386" cy="211.947" r="8.509"/>
	<circle style="fill:#C9832B;" cx="386.832" cy="234.841" r="8.509"/>
	<circle style="fill:#C9832B;" cx="380.782" cy="262.823" r="8.509"/>
	<circle style="fill:#C9832B;" cx="373.729" cy="379.58" r="7.837"/>
	<circle style="fill:#C9832B;" cx="380.343" cy="452.723" r="7.837"/>
	<circle style="fill:#C9832B;" cx="306.479" cy="85.096" r="8.509"/>
	<circle style="fill:#C9832B;" cx="315.277" cy="50.79" r="14.47"/>
	<circle style="fill:#C9832B;" cx="358.097" cy="240.034" r="14.47"/>
	<circle style="fill:#C9832B;" cx="336.374" cy="389.757" r="19.329"/>
	<circle style="fill:#C9832B;" cx="339.414" cy="445.409" r="19.329"/>
	<circle style="fill:#C9832B;" cx="356.31" cy="349.623" r="13.328"/>
	<circle style="fill:#C9832B;" cx="377.03" cy="413.717" r="13.328"/>
	<circle style="fill:#C9832B;" cx="292.133" cy="418.241" r="13.328"/>
	<circle style="fill:#C9832B;" cx="227.621" cy="63.547" r="8.509"/>
	<circle style="fill:#C9832B;" cx="134.593" cy="211.947" r="8.509"/>
	<circle style="fill:#C9832B;" cx="125.147" cy="234.841" r="8.509"/>
	<circle style="fill:#C9832B;" cx="131.197" cy="262.823" r="8.509"/>
	<circle style="fill:#C9832B;" cx="205.5" cy="85.096" r="8.509"/>
	<circle style="fill:#C9832B;" cx="196.702" cy="50.79" r="14.47"/>
	<circle style="fill:#C9832B;" cx="153.882" cy="240.034" r="14.47"/>
	<circle style="fill:#C9832B;" cx="155.669" cy="349.623" r="13.328"/>
	<circle style="fill:#C9832B;" cx="138.25" cy="379.58" r="7.837"/>
	<circle style="fill:#C9832B;" cx="131.636" cy="452.723" r="7.837"/>
	<circle style="fill:#C9832B;" cx="175.606" cy="389.757" r="19.329"/>
	<circle style="fill:#C9832B;" cx="172.565" cy="445.409" r="19.329"/>
	<circle style="fill:#C9832B;" cx="134.949" cy="413.717" r="13.328"/>
	<circle style="fill:#C9832B;" cx="219.847" cy="418.241" r="13.328"/>
</g>
<g>
</g>
<g>
</g>
<g>
</g>
<g>
</g>
<g>
</g>
<g>
</g>
<g>
</g>
<g>
</g>
<g>
</g>
<g>
</g>
<g>
</g>
<g>
</g>
<g>
</g>
<g>
</g>
<g>
</g>
</svg>
