<?xml version="1.0" encoding="iso-8859-1"?>
<!-- Generator: Adobe Illustrator 19.0.0, SVG Export Plug-In . SVG Version: 6.00 Build 0)  -->
<svg version="1.1" id="Capa_1" xmlns="http://www.w3.org/2000/svg" xmlns:xlink="http://www.w3.org/1999/xlink" x="0px" y="0px"
	 viewBox="0 0 512 512" style="enable-background:new 0 0 512 512;" xml:space="preserve">
<path style="fill:#63CBFF;" d="M512,256c0,55.714-17.795,107.28-48.023,149.305C417.51,469.922,341.671,512,256,512
	c-38.943,0-75.86-8.694-108.899-24.252c-39.654-18.662-73.728-47.198-99.077-82.442C17.795,363.28,0,311.714,0,256
	C0,114.615,114.615,0,256,0S512,114.615,512,256z"/>
<path style="fill:#4C8E37;" d="M512,256c0,2.508-0.031,4.995-0.104,7.481c-0.596,20.532-3.605,40.458-8.756,59.507
	c-4.66,1.463-9.613,2.257-14.754,2.257c-15.768,0-29.78-7.471-38.724-19.048c-8.955,11.577-22.967,19.048-38.734,19.048
	c-15.768,0-29.79-7.471-38.734-19.048c-8.944,11.577-22.956,19.048-38.734,19.048c-15.768,0-29.78-7.471-38.724-19.048
	c-8.955,11.577-22.967,19.048-38.734,19.048s-29.78-7.471-38.734-19.048c-8.944,11.577-22.956,19.048-38.724,19.048
	c-15.778,0-29.79-7.471-38.734-19.048c-8.944,11.577-22.967,19.048-38.734,19.048s-29.78-7.471-38.734-19.048
	c-8.944,11.577-22.956,19.048-38.724,19.048c-5.141,0-10.094-0.794-14.754-2.257C3.709,303.94,0.7,284.014,0.104,263.481
	C0.031,260.995,0,258.508,0,256c0-7.784,0.345-15.485,1.024-23.082c6.76-3.521,14.44-5.517,22.591-5.517
	c15.768,0,29.78,7.461,38.724,19.048c8.955-11.588,22.967-19.048,38.734-19.048s29.79,7.461,38.734,19.048
	c8.944-11.588,22.956-19.048,38.734-19.048c15.768,0,29.78,7.461,38.724,19.048c8.955-11.588,22.967-19.048,38.734-19.048
	s29.78,7.461,38.734,19.048c8.944-11.588,22.956-19.048,38.724-19.048c15.778,0,29.79,7.461,38.734,19.048
	c8.944-11.588,22.967-19.048,38.734-19.048c15.767,0,29.78,7.461,38.734,19.048c8.944-11.588,22.956-19.048,38.724-19.048
	c8.15,0,15.83,1.996,22.591,5.517C511.655,240.515,512,248.215,512,256z"/>
<path style="fill:#69AF54;" d="M509.983,288.162c-1.484,11.88-3.783,23.51-6.844,34.826c-5.454,20.187-13.322,39.382-23.28,57.26
	c-12.236-2.152-22.904-8.861-30.198-18.307c-8.955,11.577-22.967,19.048-38.734,19.048c-15.768,0-29.79-7.471-38.734-19.048
	c-8.944,11.577-22.956,19.048-38.734,19.048c-15.768,0-29.78-7.471-38.724-19.048c-8.955,11.577-22.967,19.048-38.734,19.048
	s-29.78-7.471-38.734-19.048c-8.944,11.577-22.956,19.048-38.724,19.048c-15.778,0-29.79-7.471-38.734-19.048
	c-8.944,11.577-22.967,19.048-38.734,19.048s-29.78-7.471-38.734-19.048c-7.293,9.446-17.962,16.154-30.208,18.307
	c-9.947-17.878-17.816-37.083-23.27-57.26c-3.062-11.316-5.36-22.946-6.844-34.826c6.52-3.218,13.845-5.016,21.598-5.016
	c15.768,0,29.78,7.461,38.724,19.048c8.955-11.588,22.967-19.048,38.734-19.048s29.79,7.461,38.734,19.048
	c8.944-11.588,22.956-19.048,38.734-19.048c15.768,0,29.78,7.461,38.724,19.048c8.955-11.588,22.967-19.048,38.734-19.048
	s29.78,7.461,38.734,19.048c8.944-11.588,22.956-19.048,38.724-19.048c15.778,0,29.79,7.461,38.734,19.048
	c8.944-11.588,22.967-19.048,38.734-19.048c15.767,0,29.78,7.461,38.734,19.048c8.944-11.588,22.956-19.048,38.724-19.048
	C496.138,283.146,503.463,284.944,509.983,288.162z"/>
<path style="fill:#A3460A;" d="M508.876,295.988c-7.805,49.737-29.926,94.73-62.025,130.612c-2.894,3.239-5.862,6.395-8.923,9.477
	c-8.568,8.673-17.763,16.739-27.502,24.106c-5.966,4.514-12.131,8.777-18.484,12.769c-4.472,2.811-9.028,5.475-13.678,8.004
	C341.932,500.757,300.283,512,255.99,512c-27.93,0-54.805-4.472-79.966-12.737c-11.452-3.762-22.559-8.317-33.249-13.605
	c-2.936-1.452-5.841-2.957-8.704-4.514c-0.115-0.063-0.219-0.125-0.334-0.188c-10.909-5.925-21.337-12.622-31.201-20.031
	c-1.672-1.254-3.323-2.518-4.953-3.814c-23.301-18.38-43.332-40.72-59.058-66.017c-0.23-0.355-0.449-0.711-0.669-1.066
	c-4.775-7.743-9.153-15.767-13.082-24.033c-6.478-13.594-11.797-27.846-15.809-42.632c-2.445-8.934-4.409-18.077-5.862-27.376
	L508.876,295.988L508.876,295.988z"/>
<g>
	<path style="fill:#823603;" d="M448.958,345.831L448.958,345.831c0-6.636-5.38-12.016-12.016-12.016h-66.873
		c-6.636,0-12.016,5.38-12.016,12.016l0,0c0,6.636,5.38,12.016,12.016,12.016h8.359c6.636,0,12.016,5.38,12.016,12.016l0,0
		c0,6.636-5.38,12.016-12.016,12.016h-25.6c-6.636,0-12.016,5.38-12.016,12.016l0,0c0,6.636,5.38,12.016,12.016,12.016h66.873
		c6.636,0,12.016-5.38,12.016-12.016l0,0c0-6.636,5.38-12.016,12.016-12.016h25.6c6.636,0,12.016-5.38,12.016-12.016l0,0
		c0-6.636-5.38-12.016-12.016-12.016h-8.359C454.338,357.847,448.958,352.467,448.958,345.831z"/>
	<path style="fill:#823603;" d="M158.134,373.677L158.134,373.677c0-6.636,5.38-12.016,12.016-12.016h66.873
		c6.636,0,12.016,5.38,12.016,12.016l0,0c0,6.636-5.38,12.016-12.016,12.016h-8.36c-6.636,0-12.016,5.38-12.016,12.016l0,0
		c0,6.636,5.38,12.016,12.016,12.016h25.6c6.636,0,12.016,5.38,12.016,12.016l0,0c0,6.636-5.38,12.016-12.016,12.016H187.39
		c-6.636,0-12.016-5.38-12.016-12.016l0,0c0-6.636-5.38-12.016-12.016-12.016h-25.6c-6.636,0-12.016-5.38-12.016-12.016l0,0
		c0-6.636,5.38-12.016,12.016-12.016h8.36C152.754,385.694,158.134,380.314,158.134,373.677z"/>
	<path style="fill:#823603;" d="M90.906,359.414c0,6.646-5.381,12.016-12.016,12.016h-25.6c-3.323,0-6.322,1.348-8.495,3.521
		c-2.173,2.173-3.521,5.172-3.521,8.495c0,2.905-1.034,5.58-2.748,7.649c-0.23-0.355-0.449-0.711-0.669-1.066
		c-4.775-7.743-9.153-15.767-13.082-24.033c-6.478-13.594-11.797-27.846-15.809-42.632h37.533c6.635,0,12.016,5.381,12.016,12.016
		c0,6.646,5.381,12.016,12.016,12.016h8.359c3.323,0,6.322,1.348,8.495,3.521S90.906,356.091,90.906,359.414z"/>
</g>
<path style="fill:#EA9154;" d="M447.613,50.865l-5.891,22.876l-11.198,43.454c-2.131,8.304-6.811,15.72-13.36,21.237l-74.092,62.319
	l-8.638,7.27l-22.719-13.318l11.949-65.327c7.26-39.673,33.05-73.496,69.411-90.982l24.799-11.929
	C434.139,18.64,452.105,33.399,447.613,50.865z"/>
<path style="fill:#844921;" d="M441.722,73.741l-11.198,43.454c-2.131,8.304-6.811,15.72-13.36,21.237l-74.092,62.319l-5.243-3.071
	l9.276-50.714c5.64-30.815,25.665-57.065,53.89-70.645l19.262-9.265C428.676,63.003,437.7,66.763,441.722,73.741z"/>
<path style="fill:#D17E47;" d="M64.379,50.865l5.891,22.876l11.198,43.454c2.131,8.304,6.811,15.72,13.36,21.237l74.092,62.319
	l8.638,7.27l22.719-13.318l-11.949-65.327c-7.26-39.673-33.05-73.496-69.412-90.982L94.118,26.464
	C77.854,18.64,59.888,33.399,64.379,50.865z"/>
<path style="fill:#844921;" d="M70.27,73.741l11.198,43.454c2.131,8.304,6.811,15.72,13.36,21.237l74.092,62.319l5.243-3.071
	l-9.276-50.714c-5.64-30.815-25.665-57.065-53.89-70.645l-19.262-9.265C83.317,63.003,74.292,66.763,70.27,73.741z"/>
<path style="fill:#EA9154;" d="M378.263,480.956C341.932,500.757,300.283,512,255.99,512c-40.647,0-79.078-9.467-113.215-26.342
	c-2.936-1.452-5.841-2.957-8.704-4.514c-0.115-0.063-0.219-0.125-0.334-0.188c17.607-52.872,54.763-110.696,99.558-125.983
	c7.377-2.529,14.963-3.887,22.706-3.887c35.422,0,67.636,28.62,91.491,65.515h0.01C360.5,436.694,371.033,459.243,378.263,480.956z"
	/>
<path style="fill:#D17E47;" d="M347.491,416.601c-52.872-8.119-89.192-7.084-114.113-2.163
	c-24.022,4.733-43.092,22.883-49.298,46.571c-3.385,12.925-6.113,25.903-8.056,38.254c-11.452-3.762-22.559-8.317-33.249-13.605
	c-2.936-1.452-5.841-2.957-8.704-4.514c-0.115-0.063-0.219-0.125-0.334-0.188c17.607-52.861,54.753-110.676,99.547-125.983h0.01
	c0.157-0.052,0.324-0.104,0.481-0.157c0.731-0.24,1.452-0.481,2.173-0.7c0.46-0.136,0.92-0.261,1.379-0.387
	c0.46-0.136,0.92-0.272,1.39-0.387c0.648-0.178,1.306-0.324,1.954-0.481c0.282-0.063,0.564-0.136,0.846-0.199
	c0.773-0.167,1.546-0.313,2.33-0.46c0.167-0.031,0.345-0.063,0.522-0.094c0.815-0.146,1.651-0.272,2.476-0.387
	c0.136-0.021,0.261-0.042,0.397-0.063c0.836-0.104,1.661-0.199,2.497-0.272c0.136-0.01,0.272-0.031,0.408-0.052
	c0.836-0.073,1.672-0.115,2.497-0.157c0.146-0.01,0.282-0.031,0.428-0.031c0.972-0.042,1.943-0.063,2.926-0.063
	C291.422,351.086,323.636,379.705,347.491,416.601z"/>
<path style="fill:#EA9154;" d="M381.529,295.282c0,21.089-6.754,40.795-18.452,57.544c-7.061,10.101-15.921,19.126-26.187,26.72
	c-21.835,16.193-50.068,25.94-80.893,25.94s-59.058-9.747-80.893-25.94c-10.267-7.593-19.126-16.619-26.187-26.72
	c-11.698-16.749-18.452-36.454-18.452-57.544c0-60.856,56.196-177.221,125.532-177.221S381.529,234.426,381.529,295.282z"/>
<path style="fill:#D17E47;" d="M255.997,405.485c-30.824,0-59.058-9.747-80.893-25.94c-10.267-7.593-19.126-16.619-26.187-26.72
	c-11.698-16.749-18.452-36.454-18.452-57.544c0-60.856,56.196-177.221,125.532-177.221c-43.445,0-78.658,116.365-78.658,177.221
	c0,21.089,4.235,40.795,11.557,57.544c4.436,10.101,9.983,19.126,16.417,26.72C218.987,395.739,236.681,405.485,255.997,405.485z"/>
<path style="fill:#F4A571;" d="M284.896,289.402c5.519,37.049,0.032,82.968-11.246,94.594c-5.554,5.725-11.489,8.82-17.653,8.82
	c-6.164,0-12.099-3.095-17.652-8.82c-11.279-11.626-16.765-57.544-11.246-94.594c7.721-51.829,17.834-90.935,28.899-90.935
	C267.061,198.467,277.175,237.573,284.896,289.402z"/>
<path style="fill:#BC7647;" d="M292.821,405.607c-9.581,3.113-19.694,5.043-30.186,5.605c-2.201,0.131-4.413,0.188-6.635,0.188
	s-4.435-0.057-6.635-0.188c-10.492-0.561-20.617-2.492-30.197-5.605c-23.528-7.637-34.976-37.81-23.462-62.16
	c16.104-34.048,37.21-59.754,60.294-59.754s44.178,25.706,60.282,59.754C327.797,367.798,316.349,397.97,292.821,405.607z"/>
<path style="fill:#AF6C3E;" d="M216.012,347.251c-6.302,21.397-2.222,47.016,8.169,59.84c-1.69-0.447-3.356-0.951-5.012-1.484
	c-23.528-7.637-34.976-37.81-23.462-62.16c15.938-33.688,36.766-59.221,59.572-59.74
	C240.251,284.543,226.526,311.603,216.012,347.251z"/>
<g>
	<path style="fill:#D17E47;" d="M317.223,288.819c-12.512,0-22.689-10.178-22.689-22.689c0-10.241,6.902-19.249,16.783-21.907
		c1.934-0.519,3.92-0.783,5.906-0.783c12.512,0,22.689,10.178,22.689,22.689c0,1.985-0.263,3.971-0.782,5.902
		C336.472,281.918,327.464,288.819,317.223,288.819z"/>
	<path style="fill:#D17E47;" d="M194.771,288.819c-12.512,0-22.689-10.178-22.689-22.689c0-10.241,6.902-19.249,16.783-21.907
		c1.934-0.519,3.92-0.783,5.906-0.783c12.512,0,22.689,10.178,22.689,22.689c0,1.985-0.263,3.971-0.782,5.902
		C214.02,281.918,205.012,288.819,194.771,288.819z"/>
</g>
<g>
	<path style="fill:#0F0F0E;" d="M329.513,261.403c0,1.107-0.151,2.184-0.425,3.205c-1.409,5.237-6.183,9.085-11.865,9.085
		c-6.788,0-12.29-5.502-12.29-12.29c0-5.682,3.847-10.456,9.085-11.865c1.021-0.274,2.099-0.425,3.205-0.425
		C324.01,249.113,329.513,254.616,329.513,261.403z"/>
	<circle style="fill:#0F0F0E;" cx="194.769" cy="261.402" r="12.29"/>
</g>
<g>
	<path style="fill:#E6E6E6;" d="M329.513,261.403c0,1.107-0.151,2.184-0.425,3.205c-1.446,0.671-3.072,1.049-4.774,1.049
		c-6.268,0-11.344-5.077-11.344-11.344c0-1.702,0.378-3.328,1.049-4.774c1.021-0.274,2.099-0.425,3.205-0.425
		C324.01,249.113,329.513,254.616,329.513,261.403z"/>
	<path style="fill:#E6E6E6;" d="M207.061,261.403c0,1.107-0.152,2.184-0.425,3.205c-1.446,0.671-3.073,1.049-4.774,1.049
		c-6.268,0-11.344-5.077-11.344-11.344c0-1.702,0.378-3.328,1.049-4.774c1.021-0.274,2.099-0.425,3.205-0.425
		C201.559,249.113,207.061,254.616,207.061,261.403z"/>
</g>
<path style="fill:#D17E47;" d="M179.52,448.392c0.036-0.178,0.225-0.887,0.674-1.986L179.52,448.392z"/>
<path style="fill:#844921;" d="M286.88,313.65c0,11.192-13.826,26.699-30.881,26.699s-30.881-15.507-30.881-26.699
	s13.826-13.831,30.881-13.831S286.88,302.458,286.88,313.65z"/>
<circle style="fill:#BC7647;" cx="271.569" cy="312.519" r="8.239"/>
<g>
</g>
<g>
</g>
<g>
</g>
<g>
</g>
<g>
</g>
<g>
</g>
<g>
</g>
<g>
</g>
<g>
</g>
<g>
</g>
<g>
</g>
<g>
</g>
<g>
</g>
<g>
</g>
<g>
</g>
</svg>
