<?xml version="1.0" encoding="iso-8859-1"?>
<!-- Generator: Adobe Illustrator 19.0.0, SVG Export Plug-In . SVG Version: 6.00 Build 0)  -->
<svg version="1.1" id="Capa_1" xmlns="http://www.w3.org/2000/svg" xmlns:xlink="http://www.w3.org/1999/xlink" x="0px" y="0px"
	 viewBox="0 0 512 512" style="enable-background:new 0 0 512 512;" xml:space="preserve">
<path style="fill:#63CBFF;" d="M0,256C0,397.385,114.615,512,256,512S511.999,397.385,511.999,256S397.385,0.001,256,0.001
	c-118.387,0-217.997,80.352-247.275,189.502c-3.02,11.233-5.287,22.779-6.75,34.565C0.669,234.528,0,245.186,0,256z"/>
<path style="fill:#F2BC24;" d="M399.077,149.703c0,34.67,28.108,62.767,62.767,62.767c16.614,0,31.713-6.447,42.956-16.99
	c-0.261-1.128-0.543-2.257-0.836-3.385c-10.031-39.006-29.006-74.417-54.638-103.904
	C420.665,93.989,399.077,119.328,399.077,149.703z"/>
<g>
	<path style="fill:#BC5410;" d="M50.504,221.452c0,0-18.111,8.359-18.111,29.257s17.415,14.629,11.842,52.942H22.64
		c0,0,18.111-13.932,6.269-32.74c-11.842-18.808,5.903-42.019,5.903-42.019"/>
	<path style="fill:#BC5410;" d="M12.064,224.942c0,0-3.38,7.08,14.228,24.689l4.01-3.275c0,0-13.525-11.647-15.122-20.801"/>
</g>
<path style="fill:#4C8E37;" d="M1.975,224.068c8.913,3.009,20.365,4.827,32.841,4.827c28.505,0,51.607-9.467,51.607-21.149
	c0-11.671-23.103-21.138-51.607-21.138c-9.519,0-18.442,1.055-26.091,2.894C5.706,200.736,3.438,212.282,1.975,224.068z"/>
<path style="fill:#DB7F45;" d="M508.875,295.988C489.68,418.377,383.77,512,255.989,512S22.298,418.377,3.104,295.988H508.875z"/>
<g>
	<path style="fill:#C46837;" d="M148.376,353.98c0,6.635-5.381,12.016-12.016,12.016h-25.6c-3.323,0-6.322,1.348-8.495,3.521
		c-2.173,2.173-3.521,5.172-3.521,8.495c0,6.635-5.381,12.016-12.016,12.016h-48.87c-4.775-7.743-9.153-15.767-13.082-24.033h20.678
		c3.323,0,6.322-1.348,8.495-3.521s3.521-5.172,3.521-8.495c0-6.635-5.381-12.016-12.016-12.016h-8.359
		c-3.323,0-6.322-1.348-8.495-3.521c-2.173-2.173-3.521-5.172-3.521-8.495c0-6.635,5.381-12.016,12.016-12.016h66.873
		c6.635,0,12.016,5.381,12.016,12.016s5.381,12.016,12.016,12.016h8.359c3.323,0,6.322,1.348,8.495,3.521
		C147.028,347.659,148.376,350.657,148.376,353.98z"/>
	<path style="fill:#C46837;" d="M448.959,345.831L448.959,345.831c0-6.636-5.38-12.016-12.016-12.016h-66.873
		c-6.636,0-12.016,5.38-12.016,12.016l0,0c0,6.636,5.38,12.016,12.016,12.016h8.359c6.636,0,12.016,5.38,12.016,12.016l0,0
		c0,6.636-5.38,12.016-12.016,12.016h-25.6c-6.636,0-12.016,5.38-12.016,12.016l0,0c0,6.636,5.38,12.016,12.016,12.016h66.873
		c6.636,0,12.016-5.38,12.016-12.016l0,0c0-6.636,5.38-12.016,12.016-12.016h25.6c6.636,0,12.016-5.38,12.016-12.016l0,0
		c0-6.636-5.38-12.016-12.016-12.016h-8.359C454.338,357.847,448.959,352.467,448.959,345.831z"/>
	<path style="fill:#C46837;" d="M198.186,451.364c0,6.635-5.381,12.016-12.016,12.016h-25.6c-3.312,0-6.322,1.348-8.495,3.521
		s-3.521,5.172-3.521,8.495c0,4.347-2.309,8.161-5.778,10.261c-14.211-7.011-27.669-15.308-40.239-24.733
		c0.428-0.324,0.836-0.679,1.223-1.066c2.173-2.173,3.521-5.172,3.521-8.495c0-6.635-5.381-12.016-12.016-12.016h-8.359
		c-3.312,0-6.322-1.348-8.495-3.521c-2.173-2.173-3.521-5.172-3.521-8.495c0-6.635,5.381-12.016,12.016-12.016h66.873
		c6.635,0,12.016,5.381,12.016,12.016s5.381,12.016,12.016,12.016h8.359c3.312,0,6.322,1.348,8.495,3.521
		C196.838,445.043,198.186,448.042,198.186,451.364z"/>
	<path style="fill:#C46837;" d="M446.85,426.6c-15.997,17.899-34.482,33.531-54.909,46.352c-3.511-2.09-5.851-5.925-5.851-10.303
		c0-3.323,1.348-6.322,3.521-8.495c2.173-2.173,5.172-3.521,8.495-3.521h8.359c6.635,0,12.016-5.381,12.016-12.016
		c0-6.635,5.381-12.016,12.016-12.016H446.85z"/>
</g>
<path style="fill:#E2BA58;" d="M410.435,460.183C367.511,492.711,314.012,512,256,512s-111.522-19.299-154.446-51.827l0.157-0.94
	l4.618-28.578l0.606-3.741l3.762-23.364c0.846-5.214,1.923-10.334,3.239-15.37c0.094-0.376,0.188-0.742,0.293-1.118
	c1.275-4.765,2.759-9.456,4.441-14.033c0.585-1.588,1.191-3.166,1.829-4.733c16.091-39.978,47.344-71.638,86.894-86.329
	c15.736-5.851,32.162-8.777,48.598-8.777s32.872,2.926,48.609,8.777h0.01c35.913,13.343,64.993,40.678,82.077,75.536
	c1.724,3.521,3.333,7.126,4.807,10.794c2.456,6.071,4.545,12.34,6.269,18.766c0.104,0.376,0.199,0.742,0.293,1.118
	c1.317,5.036,2.393,10.156,3.239,15.37l3.762,23.364l0.606,3.741l4.618,28.578L410.435,460.183z"/>
<path style="fill:#CEA64E;" d="M304.608,281.966h-0.01c-15.736-5.851-32.172-8.777-48.609-8.777l0,0l0,0l0,0
	c-16.436,0-32.862,2.926-48.598,8.777c-33.767,12.543-75.914,30.625-62.303,44.779c-14.189,17.25-24.827,37.786-30.86,60.317
	c-1.452,5.392-2.623,10.888-3.532,16.488l-4.368,27.105l-4.765,29.518c11.421,8.662,23.583,16.374,36.383,23.04l0.742-6.175
	l5.066-41.985c1.151-9.548,8.616-17.119,18.149-18.39c0.122-0.017,0.244-0.032,0.366-0.049c7.551-1.003,15.048,2.155,19.623,8.245
	c9.301,12.381,26.054,34.298,41.36,52.315c3.783,4.462,10.679,4.378,14.461-0.073c4.232-4.995,8.296-10.439,12.152-16.123
	c1.17-1.724,2.32-3.459,3.448-5.214c15.141-23.583,26.802-50.061,32.956-65.275c2.393-5.904,10.031-7.44,14.535-2.936l16.687-18.453
	c4.618,4.629,12.434,3.312,15.276-2.581c5.778-12.016,9.038,11.295,10.48,0c0.679-5.36,7.858-6.614,10.271-1.787l2.121,4.242
	c4.451,8.902,16.791,9.937,22.612,1.86c3.166-4.399,5.966-8.861,8.432-13.333C369.601,322.644,340.521,295.309,304.608,281.966z
	 M149.725,389.466c0.152-0.802,0.298-1.607,0.459-2.404c3.509-17.558,9.11-33.9,16.421-48.427
	C185.391,353.485,168.163,382.751,149.725,389.466z"/>
<path style="fill:#BC5410;" d="M434.688,165.314c13.166,25.788,32.193,75.17,24.001,134.3c-1.149,8.276-12.445,9.864-15.935,2.278
	l-3.605-7.858c-2.027-4.43-8.6-3.166-8.882,1.693c-1.118,19.884-6.52,50.197-26.467,77.876c-5.82,8.077-18.16,7.043-22.612-1.86
	l-2.121-4.242c-2.414-4.827-9.592-3.574-10.271,1.787c-1.442,11.295-4.702,23.113-10.48,35.129
	c-2.842,5.893-10.658,7.21-15.276,2.581l-16.687-16.677c-4.504-4.504-12.142-2.967-14.535,2.936
	c-6.154,15.214-17.815,41.691-32.956,65.275c-1.128,1.755-2.278,3.49-3.448,5.214c-3.856,5.684-7.92,11.128-12.152,16.123
	c-3.783,4.451-10.679,4.535-14.461,0.073c-22.716-26.739-40.479-66.549-48.619-86.674c-2.393-5.904-10.031-7.461-14.545-2.947
	l-16.677,16.677c-4.629,4.629-12.445,3.312-15.276-2.581c-5.789-12.016-9.049-23.824-10.491-35.129
	c-0.679-5.35-7.847-6.614-10.271-1.776l-2.111,4.232c-4.451,8.902-16.791,9.937-22.612,1.86
	c-19.958-27.679-25.36-57.992-26.478-77.876c-0.272-4.859-6.855-6.113-8.882-1.693l-3.605,7.858
	c-3.479,7.586-14.785,5.998-15.924-2.278c-8.202-59.131,10.825-108.512,24.001-134.3c3.668-7.178-2.988-15.276-10.752-13.103
	l-9.895,2.769c-8.119,2.267-14.827-6.614-10.386-13.782c20.261-32.643,43.332-56.863,58.828-71.22
	c4.66-4.326,0.784-12.048-5.465-10.909l-7.252,1.327c-8.265,1.505-13.646-8.422-7.889-14.545
	C115.2,13.292,156.003,2.707,190.109,0.481C226.973-1.922,256,5.455,256,5.455s107.635-27.334,171.488,40.396
	c5.768,6.123,0.387,16.05-7.879,14.545l-7.252-1.327c-6.259-1.139-10.125,6.583-5.465,10.909
	c15.485,14.346,38.536,38.546,58.786,71.168c4.462,7.189-2.205,16.112-10.344,13.834l-9.895-2.769
	C437.665,150.037,431.009,158.135,434.688,165.314z"/>
<g>
	<path style="fill:#A3460A;" d="M253.91,338.829c0,0,8.359,29.257,18.808,29.257c10.449,0,6.792-29.257,21.943-32.914
		c15.151-3.657,22.465,35.526,38.139,31.347c15.673-4.18-5.841-57.563,10.924-68.488"/>
	<path style="fill:#A3460A;" d="M278.862,458.532c-1.128,1.755-2.278,3.49-3.448,5.214c-3.856,5.684-7.92,11.128-12.152,16.123
		c-3.783,4.451-10.679,4.535-14.461,0.073c-22.716-26.739-40.479-66.549-48.619-86.674c-2.393-5.904-10.031-7.461-14.545-2.947
		l-16.677,16.677c-4.629,4.629-12.445,3.312-15.276-2.581c-5.789-12.016-9.049-23.824-10.491-35.129
		c-0.679-5.35-7.847-6.614-10.271-1.776l-2.111,4.232c-4.451,8.902-16.791,9.937-22.612,1.86
		c-19.958-27.679-25.36-57.992-26.478-77.876c-0.272-4.859-6.855-6.113-8.882-1.693l-3.605,7.858
		c-3.479,7.586-14.785,5.998-15.924-2.278c-8.203-59.135,10.827-108.519,24.003-134.306c3.665-7.174-2.997-15.269-10.754-13.098
		l-9.895,2.769c-8.119,2.267-14.827-6.614-10.386-13.782c20.261-32.643,43.332-56.863,58.828-71.22
		c4.66-4.326,0.784-12.048-5.465-10.909l-7.252,1.327c-8.265,1.505-13.646-8.422-7.889-14.545
		C115.2,13.292,156.003,2.707,190.109,0.481c22.403,0.251,39.215,6.301,50.259,12.1c5.256,2.769,3.688,10.637-2.226,11.191
		c-17.209,1.609-42.747,7.147-57.49,25.192c-3.542,4.336,0.199,10.762,5.726,9.895l17.711-2.779
		c3.918-0.616,5.747,4.671,2.278,6.604c-16.07,8.965-38.672,23.698-56.435,43.645c-5.245,5.893,1.682,14.608,8.652,10.909
		c10.376-5.486,23.071-10.7,37.345-13.49c8.464-1.651,15.214,6.875,11.713,14.764c-5.956,13.458-10.146,32.245,3.427,45.819
		c0,0-5.363,51.999-17.504,104.667c-7.078,30.706-18.964,61.151-22.224,83.837c-1.37,9.532,7.59,17.291,16.857,14.672l18.237-5.153
		c7.159-2.023,14.595,2.175,16.561,9.35l13.116,47.872c1.634,5.966,9.548,7.205,12.928,2.023l0,0
		c3.054-4.683,10.055-4.228,12.476,0.813L278.862,458.532z"/>
</g>
<path style="fill:#E2BA58;" d="M379.298,301.098c-4.754,5.632-10.909,10.021-18.087,12.497l-65.055,22.517l-26.791,9.268
	c-8.694,2.988-18.045,2.988-26.728,0l-26.791-9.268l-65.066-22.517c-7.178-2.476-13.333-6.865-18.087-12.497
	c-8.307-9.812-12.351-23.395-10.125-37.219l1.202-7.45l6.301-39.016l3.678-22.81c0.763-4.712,1.755-9.341,2.978-13.876
	c1.327-4.942,2.905-9.78,4.744-14.472c6.248-16.018,24.148-24.116,40.385-18.495l60.782,21.034c8.683,2.988,18.035,2.988,26.728,0
	l60.771-21.034c16.238-5.622,34.137,2.476,40.385,18.484c1.839,4.702,3.427,9.529,4.754,14.482
	c1.223,4.535,2.205,9.164,2.968,13.876l3.678,22.81l6.301,39.016l1.202,7.45C391.648,277.703,387.615,291.286,379.298,301.098z"/>
<g>
	<path style="fill:#CEA64E;" d="M297.785,324.535c0,4.012-0.564,7.899-1.63,11.577l-26.791,9.268
		c-8.694,2.988-18.045,2.988-26.728,0l-26.791-9.268c-1.066-3.678-1.63-7.565-1.63-11.577c0-23.071,18.714-41.785,41.785-41.785
		S297.785,301.464,297.785,324.535z"/>
	<path style="fill:#CEA64E;" d="M256,347.617c-4.514,0-9.028-0.742-13.364-2.236l-91.857-31.786
		c-7.178-2.476-13.333-6.865-18.087-12.497c-8.307-9.812-12.351-23.395-10.125-37.219l1.202-7.45l6.301-39.016l3.678-22.81
		c0.763-4.712,1.755-9.341,2.978-13.876c1.327-4.953,2.905-9.78,4.744-14.482c6.207-15.903,23.907-23.991,40.051-18.589
		c-6.823,2.894-12.601,9.446-15.402,18.589c-1.442,4.702-2.685,9.529-3.72,14.482c-0.961,4.535-1.735,9.164-2.341,13.876
		l-2.884,22.81l-4.942,39.016l-0.94,7.45c-1.745,13.824,1.421,27.408,7.941,37.219c3.73,5.632,8.558,10.021,14.2,12.497
		l72.077,31.786C248.915,346.875,252.458,347.617,256,347.617z"/>
</g>
<path style="fill:#E6E6E6;" d="M337.199,304.557c0,23.782-19.278,43.06-43.06,43.06c-16.572,0-30.939-9.362-38.139-23.082
	c-7.199,13.719-21.577,23.082-38.149,23.082c-3.02,0-5.966-0.313-8.819-0.909c-19.55-4.065-34.241-21.389-34.241-42.151
	c0-23.782,19.278-43.06,43.06-43.06c2.267,0,4.493,0.178,6.666,0.522c13.709,2.121,25.266,10.721,31.483,22.559
	c7.199-13.719,21.567-23.082,38.139-23.082C317.92,261.496,337.199,280.775,337.199,304.557z"/>
<path style="fill:#CEA64E;" d="M212.889,268.19c0-15.624,19.3-87.212,43.108-87.212s43.108,71.589,43.108,87.212
	c0,15.623-19.3,19.308-43.108,19.308S212.889,283.814,212.889,268.19z"/>
<path style="fill:#CCCCCC;" d="M209.032,346.708c-19.55-4.065-34.241-21.389-34.241-42.151c0-23.782,19.278-43.06,43.06-43.06
	c2.267,0,4.493,0.178,6.666,0.522l3.615,2.623C228.132,264.642,176.703,285.978,209.032,346.708z"/>
<path style="fill:#0F0F0E;" d="M299.106,268.19c0,15.624-19.3,37.272-43.108,37.272s-43.108-21.648-43.108-37.272
	s19.3-19.308,43.108-19.308S299.106,252.566,299.106,268.19z"/>
<circle style="fill:#807272;" cx="277.723" cy="266.605" r="11.504"/>
<g>
	<path style="fill:#CEA64E;" d="M328.619,248.896c-13.828,0-25.077-11.249-25.077-25.077c0-11.319,7.628-21.275,18.55-24.213
		c2.138-0.574,4.332-0.864,6.527-0.864c13.828,0,25.078,11.249,25.078,25.077c0,2.194-0.29,4.389-0.864,6.523
		C349.894,241.268,339.937,248.896,328.619,248.896z"/>
	<path style="fill:#CEA64E;" d="M183.375,248.896c-13.828,0-25.077-11.249-25.077-25.077c0-11.319,7.628-21.275,18.55-24.213
		c2.138-0.574,4.332-0.864,6.527-0.864c13.828,0,25.077,11.249,25.077,25.077c0,2.194-0.29,4.389-0.864,6.523
		C204.651,241.268,194.694,248.896,183.375,248.896z"/>
</g>
<g>
	<path style="fill:#0F0F0E;" d="M342.203,218.594c0,1.223-0.167,2.414-0.47,3.542c-1.557,5.789-6.834,10.041-13.113,10.041
		c-7.502,0-13.584-6.081-13.584-13.584c0-6.28,4.253-11.557,10.041-13.113c1.128-0.303,2.32-0.47,3.542-0.47
		C336.121,205.01,342.203,211.092,342.203,218.594z"/>
	<circle style="fill:#0F0F0E;" cx="183.38" cy="218.592" r="13.584"/>
</g>
<g>
	<path style="fill:#E6E6E6;" d="M342.203,218.594c0,1.223-0.167,2.414-0.47,3.542c-1.599,0.742-3.396,1.16-5.277,1.16
		c-6.928,0-12.539-5.611-12.539-12.539c0-1.881,0.418-3.678,1.16-5.277c1.128-0.303,2.32-0.47,3.542-0.47
		C336.121,205.01,342.203,211.092,342.203,218.594z"/>
	<path style="fill:#E6E6E6;" d="M196.959,218.594c0,1.223-0.167,2.414-0.47,3.542c-1.599,0.742-3.396,1.16-5.277,1.16
		c-6.928,0-12.539-5.611-12.539-12.539c0-1.881,0.418-3.678,1.16-5.277c1.128-0.303,2.32-0.47,3.542-0.47
		C190.878,205.01,196.959,211.092,196.959,218.594z"/>
</g>
<g>
	<path style="fill:#A3460A;" d="M278.349,79.504c-4.789-5.924,1.231-14.411,8.35-11.7c12.536,4.775,28.939,14.051,40.354,31.744
		C344.554,126.675,300.499,106.901,278.349,79.504z"/>
	<path style="fill:#A3460A;" d="M333.236,82.273c-3.418-4.228,0.879-10.284,5.958-8.349c8.945,3.407,20.651,10.027,28.796,22.652
		C380.479,115.934,349.042,101.824,333.236,82.273z"/>
</g>
<path style="fill:#CEA64E;" d="M192.146,58.442c-8.84,2.1-21.588,5.778-34.722,11.849c-19.351,8.944-39.539,23.071-49.319,44.91
	c-1.557,3.459-2.842,7.116-3.824,10.982c-24.158-9.404-41.284-32.893-41.284-60.385c0-35.777,29.006-64.784,64.784-64.784
	C161.071,1.014,188.5,26.123,192.146,58.442z"/>
<path style="fill:#91420E;" d="M157.424,70.291c-19.351,8.944-39.539,23.071-49.319,44.91C94.522,109.715,84.94,96.413,84.94,80.865
	c0-20.438,16.562-37.01,37.01-37.01C138.71,43.855,152.879,55.004,157.424,70.291z"/>
<path style="fill:#E2BA58;" d="M319.85,58.442c8.84,2.1,21.588,5.778,34.722,11.849c19.351,8.944,39.539,23.071,49.319,44.91
	c1.557,3.459,2.842,7.116,3.824,10.982c24.158-9.404,41.284-32.893,41.284-60.385c0-35.777-29.006-64.784-64.784-64.784
	C350.925,1.014,323.497,26.123,319.85,58.442z"/>
<path style="fill:#91420E;" d="M354.572,70.291c19.351,8.944,39.539,23.071,49.319,44.91c13.584-5.486,23.165-18.787,23.165-34.335
	c0-20.438-16.562-37.01-37.01-37.01C373.286,43.855,359.117,55.004,354.572,70.291z"/>
<g>
</g>
<g>
</g>
<g>
</g>
<g>
</g>
<g>
</g>
<g>
</g>
<g>
</g>
<g>
</g>
<g>
</g>
<g>
</g>
<g>
</g>
<g>
</g>
<g>
</g>
<g>
</g>
<g>
</g>
</svg>
