<?xml version="1.0" encoding="iso-8859-1"?>
<!-- Generator: Adobe Illustrator 19.0.0, SVG Export Plug-In . SVG Version: 6.00 Build 0)  -->
<svg version="1.1" id="Capa_1" xmlns="http://www.w3.org/2000/svg" xmlns:xlink="http://www.w3.org/1999/xlink" x="0px" y="0px"
	 viewBox="0 0 512 512" style="enable-background:new 0 0 512 512;" xml:space="preserve">
<path style="fill:#63CBFF;" d="M512,256c0,17.021-1.661,33.656-4.838,49.747c-3.291,16.697-8.202,32.81-14.566,48.17
	c-6.28,15.161-13.981,29.602-22.946,43.123c-0.24,0.376-0.481,0.742-0.731,1.108c-45.902,68.649-124.123,113.851-212.918,113.851
	c-41.179,0-80.08-9.717-114.541-27c-39.852-19.968-73.769-50.04-98.397-86.851c-0.24-0.366-0.491-0.731-0.731-1.108
	c-8.944-13.521-16.645-27.961-22.935-43.123c-6.363-15.36-11.274-31.472-14.566-48.18C1.665,289.646,0.003,273.021,0.003,256
	c0-141.384,114.614-255.998,255.998-255.998c78.534,0,148.813,35.37,195.771,91.041c17.993,21.326,32.569,45.651,42.872,72.098
	C505.846,191.927,512,223.253,512,256z"/>
<g>
	<path style="fill:#A1E4FF;" d="M158.957,128.403L158.957,128.403c0-6.636-5.38-12.016-12.016-12.016H80.068
		c-6.636,0-12.016,5.38-12.016,12.016l0,0c0,6.636,5.38,12.016,12.016,12.016h8.36c6.636,0,12.016,5.38,12.016,12.016l0,0
		c0,6.636-5.38,12.016-12.016,12.016h-25.6c-6.636,0-12.016,5.38-12.016,12.016l0,0c0,6.636,5.38,12.016,12.016,12.016h66.873
		c6.636,0,12.016-5.38,12.016-12.016l0,0c0-6.636,5.38-12.016,12.016-12.016h25.6c6.636,0,12.016-5.38,12.016-12.016l0,0
		c0-6.636-5.38-12.016-12.016-12.016h-8.36C164.336,140.419,158.957,135.039,158.957,128.403z"/>
	<path style="fill:#A1E4FF;" d="M406.626,82.892L406.626,82.892c0-6.636-5.38-12.016-12.016-12.016h-66.873
		c-6.636,0-12.016,5.38-12.016,12.016l0,0c0,6.636,5.38,12.016,12.016,12.016h8.36c6.636,0,12.016,5.38,12.016,12.016l0,0
		c0,6.636-5.38,12.016-12.016,12.016h-25.6c-6.636,0-12.016,5.38-12.016,12.016l0,0c0,6.636,5.38,12.016,12.016,12.016h66.873
		c6.636,0,12.016-5.38,12.016-12.016l0,0c0-6.636,5.38-12.016,12.016-12.016h25.6c6.636,0,12.016-5.38,12.016-12.016l0,0
		c0-6.636-5.38-12.016-12.016-12.016h-8.36C412.006,94.908,406.626,89.528,406.626,82.892z"/>
	<path style="fill:#A1E4FF;" d="M443.031,209.554L443.031,209.554c0-6.636-5.38-12.016-12.016-12.016h-66.873
		c-6.636,0-12.016,5.38-12.016,12.016l0,0c0,6.636,5.38,12.016,12.016,12.016h8.36c6.636,0,12.016,5.38,12.016,12.016l0,0
		c0,6.636-5.38,12.016-12.016,12.016h-25.6c-6.636,0-12.016,5.38-12.016,12.016l0,0c0,6.636,5.38,12.016,12.016,12.016h66.873
		c6.636,0,12.016-5.38,12.016-12.016l0,0c0-6.636,5.38-12.016,12.016-12.016h25.6c6.636,0,12.016-5.38,12.016-12.016l0,0
		c0-6.636-5.38-12.016-12.016-12.016h-8.36C448.411,221.57,443.031,216.19,443.031,209.554z"/>
</g>
<path style="fill:#228464;" d="M511.997,256c0,2.508-0.031,4.995-0.104,7.481c-0.596,20.532-3.605,40.458-8.756,59.507
	c-4.66,1.463-9.613,2.257-14.754,2.257c-15.767,0-29.779-7.471-38.724-19.048c-8.955,11.577-22.967,19.048-38.734,19.048
	c-15.767,0-29.79-7.471-38.734-19.048c-8.944,11.577-22.956,19.048-38.734,19.048c-15.767,0-29.779-7.471-38.724-19.048
	c-8.955,11.577-22.967,19.048-38.734,19.048s-29.779-7.471-38.734-19.048c-8.944,11.577-22.956,19.048-38.724,19.048
	c-15.778,0-29.79-7.471-38.734-19.048c-8.944,11.577-22.967,19.048-38.734,19.048s-29.779-7.471-38.734-19.048
	c-8.944,11.577-22.956,19.048-38.724,19.048c-5.141,0-10.094-0.794-14.754-2.257C3.709,303.94,0.7,284.014,0.104,263.481
	C0.031,260.995,0,258.508,0,256c0-7.784,0.345-15.485,1.024-23.082c6.76-3.521,14.44-5.517,22.591-5.517
	c15.767,0,29.779,7.461,38.724,19.048c8.955-11.588,22.967-19.048,38.734-19.048s29.79,7.461,38.734,19.048
	c8.944-11.588,22.956-19.048,38.734-19.048c15.767,0,29.779,7.461,38.724,19.048c8.955-11.588,22.967-19.048,38.734-19.048
	s29.779,7.461,38.734,19.048c8.944-11.588,22.956-19.048,38.724-19.048c15.778,0,29.79,7.461,38.734,19.048
	c8.944-11.588,22.967-19.048,38.734-19.048c15.767,0,29.779,7.461,38.734,19.048c8.944-11.588,22.956-19.048,38.724-19.048
	c8.15,0,15.83,1.996,22.591,5.517C511.652,240.515,511.997,248.216,511.997,256z"/>
<path style="fill:#34AD89;" d="M508.883,295.988c-19.195,122.388-125.105,216.01-252.885,216.01
	c-116.119,0-214.171-77.312-245.508-183.264c-1.128-3.793-2.163-7.628-3.103-11.494c-1.724-6.98-3.145-14.064-4.274-21.253H508.883z
	"/>
<g>
	<path style="fill:#57CEA7;" d="M101.072,336.739H62.411c-3.174,0-5.747-2.573-5.747-5.747l0,0c0-3.174,2.573-5.747,5.747-5.747
		h38.661c3.174,0,5.747,2.573,5.747,5.747l0,0C106.819,334.165,104.247,336.739,101.072,336.739z"/>
	<path style="fill:#57CEA7;" d="M77.844,360.249H39.183c-3.174,0-5.747-2.573-5.747-5.747l0,0c0-3.174,2.573-5.747,5.747-5.747
		h38.661c3.174,0,5.747,2.573,5.747,5.747l0,0C83.591,357.675,81.019,360.249,77.844,360.249z"/>
	<path style="fill:#57CEA7;" d="M169.272,410.926h-38.661c-3.174,0-5.747-2.573-5.747-5.747l0,0c0-3.174,2.573-5.747,5.747-5.747
		h38.661c3.174,0,5.747,2.573,5.747,5.747l0,0C175.019,408.353,172.447,410.926,169.272,410.926z"/>
	<path style="fill:#57CEA7;" d="M214.725,450.11h-38.661c-3.174,0-5.747-2.573-5.747-5.747l0,0c0-3.174,2.573-5.747,5.747-5.747
		h38.661c3.174,0,5.747,2.573,5.747,5.747l0,0C220.472,447.537,217.9,450.11,214.725,450.11z"/>
	<path style="fill:#57CEA7;" d="M484.307,335.694h-38.661c-3.174,0-5.747-2.573-5.747-5.747l0,0c0-3.174,2.573-5.747,5.747-5.747
		h38.661c3.174,0,5.747,2.573,5.747,5.747l0,0C490.054,333.12,487.482,335.694,484.307,335.694z"/>
	<path style="fill:#57CEA7;" d="M461.32,357.114h-38.661c-3.174,0-5.747-2.573-5.747-5.747l0,0c0-3.174,2.573-5.747,5.747-5.747
		h38.661c3.174,0,5.747,2.573,5.747,5.747l0,0C467.067,354.541,464.494,357.114,461.32,357.114z"/>
	<path style="fill:#57CEA7;" d="M379.818,385.326h-38.661c-3.174,0-5.747-2.573-5.747-5.747l0,0c0-3.174,2.573-5.747,5.747-5.747
		h38.661c3.174,0,5.747,2.573,5.747,5.747l0,0C385.565,382.753,382.993,385.326,379.818,385.326z"/>
	<path style="fill:#57CEA7;" d="M417.434,435.481h-38.661c-3.174,0-5.747-2.573-5.747-5.747l0,0c0-3.174,2.573-5.747,5.747-5.747
		h38.661c3.174,0,5.747,2.573,5.747,5.747l0,0C423.181,432.907,420.609,435.481,417.434,435.481z"/>
</g>
<path style="fill:#603F2A;" d="M469.647,397.039c-0.24,0.376-0.481,0.742-0.731,1.108
	c-45.902,68.649-124.123,113.851-212.918,113.851c-41.179,0-80.08-9.717-114.541-27c-6.562-3.291-12.967-6.844-19.184-10.679
	c-31.587-19.372-58.639-45.421-79.213-76.173c-0.24-0.366-0.491-0.731-0.731-1.108c47.814-66.277,125.7-109.411,213.659-109.411
	c56.978,0,109.735,18.098,152.826,48.88C432.24,353.227,452.804,373.697,469.647,397.039z"/>
<path style="fill:#755139;" d="M469.647,397.039c-0.24,0.376-0.481,0.742-0.731,1.108
	c-45.902,68.649-124.123,113.851-212.918,113.851c-41.179,0-80.08-9.717-114.541-27c-6.562-3.291-12.967-6.844-19.184-10.679
	c34.889-67.845,98.847-120.037,179.262-137.205c36.519-7.784,72.881-7.596,107.279-0.606
	C432.24,353.227,452.804,373.697,469.647,397.039z"/>
<path style="fill:#995325;" d="M313.781,224.915v168.98c0,31.911-25.872,57.783-57.793,57.783c-9.947,0-19.31-2.518-27.481-6.949
	c-4.932-2.664-9.435-6.039-13.375-9.979c-10.459-10.449-16.927-24.9-16.927-40.855v-168.99c18.568-3.396,37.909-5.193,57.783-5.193
	c8.464,0,16.823,0.324,25.077,0.961C292.194,221.54,303.113,222.95,313.781,224.915z"/>
<path style="fill:#AD6332;" d="M313.781,363.394v30.5c0,31.911-25.872,57.783-57.793,57.783c-9.947,0-19.31-2.518-27.481-6.949
	v-23.562c0-31.921,37.177-57.793,83.027-57.793C312.287,363.373,313.039,363.384,313.781,363.394z"/>
<path style="fill:#3073BF;" d="M395.481,198.991c0,64.637-62.453,117.028-139.493,117.028s-139.493-52.391-139.493-117.028
	c0-25.401,9.644-48.911,26.039-68.096c3.877-4.535,7.283-9.414,10.167-14.555c2.226-3.929,4.138-8.025,5.726-12.225
	c3.145-8.349,5.036-17.168,5.496-26.185c0.073-1.452,0.115-2.915,0.115-4.378c0-34.022,27.575-61.596,61.596-61.596h60.708
	c34.022,0,61.596,27.575,61.596,61.596c0,1.463,0.042,2.905,0.115,4.357v0.01c0.69,13.573,4.608,26.676,11.222,38.421
	c0,0,0,0,0,0.01c2.884,5.13,6.29,10.01,10.167,14.545C385.837,150.078,395.481,173.588,395.481,198.991z"/>
<path style="fill:#266AAA;" d="M255.988,316.019c-77.04,0-139.493-52.391-139.493-117.028c0-25.401,9.644-48.911,26.039-68.096
	c3.877-4.535,7.283-9.414,10.167-14.555c2.226-3.929,4.138-8.025,5.726-12.225c3.145-8.349,5.036-17.168,5.496-26.185
	c0.073-1.452,0.115-2.915,0.115-4.378c0-34.022,27.575-61.596,61.596-61.596h9.383c-23.51,0-42.569,27.575-42.569,61.596
	c0,1.463-0.031,2.926-0.073,4.378c-0.324,9.017-1.63,17.836-3.803,26.185c-1.097,4.2-2.414,8.296-3.96,12.225
	c-1.985,5.141-4.347,10.021-7.022,14.555c-11.327,19.184-17.993,42.694-17.993,68.096
	C159.597,263.628,202.751,316.019,255.988,316.019z"/>
<path style="fill:#4E9DB7;" d="M359.276,116.34c0,0,0,0,0,0.01c-0.167,1.599-14.984,137.842-103.288,137.842
	c-53.07,0-79.6-49.225-92.348-88.847c-8.599-26.687-10.94-49.005-10.94-49.005c2.226-3.929,4.138-8.025,5.726-12.225
	c3.145-8.349,5.036-17.168,5.496-26.185c0.073-1.452,0.115-2.915,0.115-4.378c0-34.022,27.575-61.596,61.596-61.596h60.708
	c34.022,0,61.596,27.575,61.596,61.596c0,1.463,0.042,2.905,0.115,4.357v0.01C348.743,91.492,352.661,104.595,359.276,116.34z"/>
<g>
	<path style="fill:#3F91A5;" d="M235.017,11.955c-23.51,0-42.569,27.575-42.569,61.596c0,1.463-0.031,2.926-0.073,4.378
		c-0.324,9.017-1.63,17.836-3.803,26.185c-1.097,4.2-2.414,8.296-3.96,12.225c-1.985,5.141-4.347,10.021-7.022,14.555
		c-6.113,10.355-10.867,21.964-13.949,34.45c-8.599-26.687-10.94-49.005-10.94-49.005c2.226-3.929,4.138-8.025,5.726-12.225
		c3.145-8.349,5.036-17.168,5.496-26.185c0.073-1.452,0.115-2.915,0.115-4.378c0-34.022,27.575-61.596,61.596-61.596
		C225.634,11.955,235.017,11.955,235.017,11.955z"/>
	<path style="fill:#3F91A5;" d="M359.28,116.349c-4.827,7.931-13.552,2.591-23.186,2.591c-14.952,0-27.125-1.724-27.125-16.687
		c0-12.236,8.255-23.009,20.072-26.185c2.309-0.627,4.681-0.94,7.053-0.94c4.294,0,8.349,1.003,11.964,2.779v0.01
		C348.747,91.491,352.666,104.605,359.28,116.349z"/>
	<path style="fill:#3F91A5;" d="M203.016,102.254c0,2.382-0.313,4.754-0.93,7.063c-3.187,11.818-13.949,9.623-26.195,9.623
		c-9.812,0-18.421,5.214-23.186-2.602c2.226-3.929,4.138-8.025,5.726-12.225c3.145-8.349,5.036-17.168,5.496-26.185
		c1.546-0.784,3.187-1.4,4.901-1.86c2.309-0.627,4.681-0.94,7.063-0.94C190.843,75.128,203.016,87.301,203.016,102.254z"/>
</g>
<g>
	<path style="fill:#0F0F0E;" d="M350.791,96.606c0,1.323-0.181,2.611-0.509,3.832c-1.684,6.262-7.393,10.863-14.185,10.863
		c-8.116,0-14.694-6.579-14.694-14.694c0-6.794,4.601-12.502,10.863-14.185c1.22-0.328,2.51-0.509,3.832-0.509
		C344.212,81.912,350.791,88.49,350.791,96.606z"/>
	<circle style="fill:#0F0F0E;" cx="175.887" cy="96.61" r="14.691"/>
</g>
<g>
	<path style="fill:#E6E6E6;" d="M350.791,96.606c0,1.323-0.181,2.611-0.509,3.832c-1.729,0.802-3.674,1.255-5.708,1.255
		c-7.494,0-13.564-6.07-13.564-13.564c0-2.034,0.452-3.979,1.255-5.708c1.22-0.328,2.51-0.509,3.832-0.509
		C344.212,81.912,350.791,88.49,350.791,96.606z"/>
	<path style="fill:#E6E6E6;" d="M190.581,96.606c0,1.323-0.181,2.611-0.509,3.832c-1.729,0.802-3.674,1.255-5.708,1.255
		c-7.494,0-13.564-6.07-13.564-13.564c0-2.034,0.452-3.979,1.255-5.708c1.22-0.328,2.51-0.509,3.832-0.509
		C184.002,81.912,190.581,88.49,190.581,96.606z"/>
</g>
<path style="fill:#D8A322;" d="M304.943,262.195h-97.911c-10.542,0-19.088-8.546-19.088-19.088v-33.986H324.03v33.986
	C324.03,253.649,315.485,262.195,304.943,262.195z"/>
<path style="fill:#EFBA29;" d="M340.658,209.121h-11.426c-14.56,0-28.098-6.879-37.255-18.197
	c-8.481-10.483-21.455-17.185-35.989-17.185s-27.502,6.702-35.983,17.185c-9.157,11.318-22.696,18.197-37.255,18.197h-11.816
	c-3.565,0-6.791,1.443-9.131,3.784s-3.797,5.58-3.797,9.145c0,7.145,5.797,12.928,12.928,12.928h41.261h87.585h41.261
	c3.579,0,6.804-1.443,9.145-3.784c2.349-2.348,3.793-5.601,3.784-9.18C353.95,214.825,347.847,209.121,340.658,209.121z"/>
<g>
</g>
<g>
</g>
<g>
</g>
<g>
</g>
<g>
</g>
<g>
</g>
<g>
</g>
<g>
</g>
<g>
</g>
<g>
</g>
<g>
</g>
<g>
</g>
<g>
</g>
<g>
</g>
<g>
</g>
</svg>
