<?xml version="1.0" encoding="iso-8859-1"?>
<!-- Generator: Adobe Illustrator 19.0.0, SVG Export Plug-In . SVG Version: 6.00 Build 0)  -->
<svg version="1.1" id="Capa_1" xmlns="http://www.w3.org/2000/svg" xmlns:xlink="http://www.w3.org/1999/xlink" x="0px" y="0px"
	 viewBox="0 0 512 512" style="enable-background:new 0 0 512 512;" xml:space="preserve">
<path style="fill:#427A2D;" d="M512,256c0,13.605-1.066,26.958-3.114,39.988C489.691,418.377,383.781,512,256,512
	S22.309,418.377,3.114,295.988C1.066,282.958,0,269.605,0,256c0-34.126,6.677-66.706,18.808-96.486
	c4.754-11.682,10.355-22.946,16.718-33.698c5.966-10.083,12.601-19.717,19.853-28.85c5.256-6.625,10.836-12.988,16.718-19.048
	c9.07-9.373,18.85-18.045,29.257-25.945c10.533-8.004,21.713-15.203,33.437-21.514c4.786-2.581,9.665-5.016,14.629-7.283
	c10.762-4.942,21.932-9.153,33.437-12.57c10.522-3.135,21.337-5.611,32.392-7.377c5.517-0.888,11.086-1.588,16.718-2.111
	C239.877,0.376,247.892,0,256,0c1.4,0,2.79,0.01,4.18,0.042c16.081,0.251,31.796,1.985,47.02,5.078
	c5.287,1.076,10.512,2.309,15.673,3.709c11.483,3.093,22.653,6.969,33.437,11.577c3.521,1.494,7.011,3.072,10.449,4.733
	c5.695,2.727,11.264,5.674,16.718,8.808c11.766,6.771,22.946,14.451,33.437,22.946c5.789,4.681,11.368,9.603,16.718,14.764
	c5.465,5.266,10.689,10.773,15.673,16.499c12.936,14.879,24.179,31.284,33.437,48.891C501.426,172.586,512,213.065,512,256z"/>
<path style="fill:#69AF54;" d="M508.886,295.988c-4.399,28.097-13.385,54.669-26.143,78.952
	c-9.258,17.607-20.501,34.001-33.437,48.891c-4.984,5.736-10.209,11.243-15.673,16.509c-5.35,5.162-10.93,10.094-16.718,14.775
	c-10.491,8.485-21.671,16.165-33.437,22.936c-5.454,3.135-11.024,6.081-16.718,8.808c-3.438,1.661-6.917,3.239-10.449,4.733
	c-10.783,4.598-21.943,8.485-33.437,11.577c-5.162,1.4-10.386,2.633-15.673,3.709c-15.224,3.093-30.939,4.827-47.02,5.078
	C258.79,511.99,257.4,512,256,512c-8.108,0-16.123-0.376-24.033-1.108c-5.632-0.533-11.201-1.233-16.718-2.121
	c-11.055-1.766-21.859-4.242-32.392-7.377c-11.504-3.417-22.664-7.628-33.437-12.57c-4.963-2.278-9.843-4.702-14.629-7.283
	c-11.724-6.311-22.904-13.51-33.437-21.514c-10.407-7.899-20.187-16.583-29.257-25.945c-5.883-6.071-11.463-12.434-16.718-19.059
	c-7.252-9.122-13.887-18.766-19.853-28.839c-6.363-10.762-11.964-22.026-16.718-33.719c-7.293-17.899-12.612-36.822-15.694-56.477
	L508.886,295.988L508.886,295.988z"/>
<g>
	<path style="fill:#4C8E37;" d="M482.743,137.049v237.892c-9.258,17.607-20.501,34.001-33.437,48.891V88.158
		C462.242,103.037,473.485,119.442,482.743,137.049z"/>
	<path style="fill:#4C8E37;" d="M356.31,20.407v471.186c-10.783,4.598-21.943,8.485-33.437,11.577V8.829
		C334.357,11.922,345.527,15.799,356.31,20.407z"/>
	<path style="fill:#4C8E37;" d="M134.792,30.459v451.082c-11.724-6.311-22.904-13.51-33.437-21.514V51.973
		C111.888,43.969,123.068,36.77,134.792,30.459z"/>
	<path style="fill:#4C8E37;" d="M182.857,10.606v490.789c-11.504-3.417-22.664-7.628-33.437-12.57V23.176
		C160.183,18.233,171.353,14.023,182.857,10.606z"/>
	<path style="fill:#4C8E37;" d="M433.633,71.659v368.682c-5.35,5.162-10.93,10.094-16.718,14.775V56.895
		C422.703,61.576,428.283,66.497,433.633,71.659z"/>
	<path style="fill:#4C8E37;" d="M35.527,125.816v260.368c-6.363-10.762-11.964-22.026-16.718-33.719V159.514
		C23.562,147.832,29.163,136.568,35.527,125.816z"/>
	<path style="fill:#4C8E37;" d="M72.098,77.918v356.164c-5.883-6.071-11.463-12.434-16.718-19.059V96.967
		C60.635,90.342,66.215,83.978,72.098,77.918z"/>
	<path style="fill:#4C8E37;" d="M383.478,33.949v444.102c-5.454,3.135-11.024,6.081-16.718,8.809V25.14
		C372.454,27.867,378.023,30.814,383.478,33.949z"/>
	<path style="fill:#4C8E37;" d="M231.967,1.118v509.774c-5.632-0.533-11.201-1.233-16.718-2.121V3.229
		C220.766,2.341,226.335,1.64,231.967,1.118z"/>
	<path style="fill:#4C8E37;" d="M307.2,5.12v501.76c-15.224,3.093-30.939,4.827-47.02,5.078V0.042
		C276.261,0.293,291.976,2.027,307.2,5.12z"/>
</g>
<path style="fill:#E6E6E6;" d="M329.651,88.054L471.525,39.01c15.311-5.292,31.572,4.943,33.442,21.036
	c5.413,46.576-1.258,131.077-117.847,140.856"/>
<path style="fill:#556F7C;" d="M382.382,131.92l83.106-40.469c8.916-4.342,18.923,3.598,16.656,13.252
	c-3.946,16.807-12.744,38.186-32.331,47.089c-21.408,9.731-48.858,2.949-66.596-3.593
	C375.887,145.495,375.358,135.34,382.382,131.92z"/>
<path style="fill:#CCCCCC;" d="M182.343,88.054L40.469,39.01C25.158,33.718,8.897,43.955,7.028,60.046
	c-5.413,46.576,1.258,131.077,117.847,140.856"/>
<path style="fill:#556F7C;" d="M129.611,131.92L46.505,91.452c-8.916-4.342-18.923,3.598-16.656,13.252
	c3.946,16.807,12.744,38.186,32.331,47.089c21.408,9.731,48.858,2.949,66.596-3.593C136.105,145.495,136.636,135.34,129.611,131.92z
	"/>
<path style="fill:#E6E6E6;" d="M414.177,457.3C370.636,491.562,315.705,512,256,512c-29.309,0-57.459-4.921-83.675-13.991
	c-4.451-1.536-8.85-3.197-13.187-4.974c-22.173-9.059-42.778-21.149-61.325-35.746c2.988-33.802,15.935-65.348,36.854-86.277
	l39.717-39.748l15.235-15.245l35.412-35.432c18.463-18.474,43.468-18.474,61.931,0l90.352,90.425
	C398.231,391.941,411.188,423.487,414.177,457.3z"/>
<path style="fill:#CCCCCC;" d="M159.138,493.035c-22.173-9.059-42.778-21.149-61.325-35.746
	c2.988-33.802,15.935-65.348,36.854-86.277l39.717-39.748l15.235-15.245c8.505,11.87,19.143,23.562,32.246,35.004
	C221.863,351.023,156.588,394.334,159.138,493.035z"/>
<g>
	<path style="fill:#556F7C;" d="M172.325,498.009c-4.451-1.536-8.85-3.197-13.187-4.974c-22.173-9.059-42.778-21.149-61.325-35.746
		c2.988-33.802,15.935-65.348,36.854-86.277l39.717-39.748c6.384,14.064,12.967,31.64,17.095,51.022
		C199.158,418.241,198.405,460.434,172.325,498.009z"/>
	<path style="fill:#556F7C;" d="M339.665,498.009c27.209-9.404,52.339-23.27,74.512-40.72
		c-2.988-33.802-15.935-65.348-36.854-86.277l-39.717-39.748C319.384,371.44,299.53,440.184,339.665,498.009z"/>
</g>
<path style="fill:#E6E6E6;" d="M377.323,318.579L286.96,384.23c-18.463,13.417-43.468,13.417-61.931,0l-22.1-16.06l-68.253-49.591
	c-31.922-23.186-45.275-64.293-33.081-101.804l31.922-98.252l2.591-7.973c7.053-21.713,27.282-36.404,50.103-36.404h139.577
	c22.821,0,43.039,14.691,50.092,36.404l2.591,7.983l31.922,98.241C422.588,254.286,409.234,295.393,377.323,318.579z"/>
<path style="fill:#394F59;" d="M159.138,493.035c-22.173-9.059-42.778-21.149-61.325-35.746
	c2.988-33.802,15.935-65.348,36.854-86.277l39.717-39.748c6.384,14.064,12.967,31.64,17.095,51.022
	C174.832,405.347,157.811,441.699,159.138,493.035z"/>
<path style="fill:#CCCCCC;" d="M221.863,351.023c0,0-8.338,5.528-18.934,17.147l-68.253-49.591
	c-31.922-23.186-45.275-64.293-33.081-101.804l31.922-98.252l2.591-7.973c7.053-21.713,27.282-36.404,50.103-36.404h52.37
	c-31.347,0-48.755,33.761-67.563,94.365S155.69,293.198,221.863,351.023z"/>
<path style="fill:#556F7C;" d="M378.472,118.533c-36.394,20.616-75.003-4.357-122.472-4.357c-25.349,0-48.17,7.126-69.475,10.627
	c-18.599,3.051-36.049,3.333-53.008-6.28l2.591-7.973c7.053-21.713,27.282-36.404,50.103-36.404h139.577
	c22.821,0,43.039,14.691,50.092,36.404L378.472,118.533z"/>
<path style="fill:#394F59;" d="M316.761,342.298l-0.491,0.961c-3.375,6.531-7.983,12.173-13.458,16.708
	c-3.176,2.623-6.656,4.88-10.355,6.708c-7.272,3.615-15.391,5.59-23.813,5.59h-25.297c-8.411,0-16.541-1.975-23.813-5.59
	c-3.688-1.829-7.168-4.075-10.344-6.708c-5.475-4.524-10.094-10.167-13.469-16.708l-0.491-0.961
	c-7.565-14.649-5.475-32.434,5.277-44.941l24.471-28.442c16.332-18.975,45.714-18.975,62.036,0l24.472,28.442
	C322.247,309.864,324.326,327.649,316.761,342.298z"/>
<g>
	<path style="fill:#556F7C;" d="M337.618,296.803c-25.167,0-45.642-37.282-45.642-62.449c0-20.601,13.884-38.723,33.762-44.069
		c3.891-1.045,7.886-1.574,11.88-1.574c25.167,0,45.642,20.475,45.642,45.642c0,3.994-0.53,7.988-1.573,11.872
		C376.34,266.114,358.218,296.803,337.618,296.803z"/>
	<path style="fill:#556F7C;" d="M220.014,234.35c0,4.002-0.522,7.993-1.567,11.88c-5.068,18.84-21.598,47.365-40.835,50.322
		c-1.076,0.167-2.152,0.251-3.239,0.251c-25.161,0-45.641-37.282-45.641-62.454c0-20.595,13.887-38.713,33.761-44.063
		c0.993-0.261,1.985-0.502,2.978-0.7c2.947-0.585,5.925-0.878,8.903-0.878C199.544,188.709,220.014,209.189,220.014,234.35z"/>
</g>
<path style="fill:#0F0F0E;" d="M356.233,236.431c0,1.675-0.229,3.308-0.645,4.855c-2.134,7.933-9.364,13.76-17.97,13.76
	c-10.281,0-18.615-8.334-18.615-18.615c0-8.606,5.828-15.838,13.76-17.97c1.546-0.415,3.179-0.645,4.855-0.645
	C347.899,217.815,356.233,226.149,356.233,236.431z"/>
<path style="fill:#394F59;" d="M177.612,296.552c-1.076,0.167-2.152,0.251-3.239,0.251c-25.161,0-45.641-37.282-45.641-62.454
	c0-20.595,13.887-38.713,33.761-44.063c0.993-0.261,1.985-0.502,2.978-0.7C157.853,225.081,159.295,261.371,177.612,296.552z"/>
<circle style="fill:#0F0F0E;" cx="174.373" cy="236.429" r="18.615"/>
<g>
	<path style="fill:#E6E6E6;" d="M356.233,236.431c0,1.675-0.229,3.308-0.645,4.855c-2.191,1.017-4.654,1.589-7.232,1.589
		c-9.494,0-17.183-7.689-17.183-17.183c0-2.578,0.573-5.041,1.589-7.231c1.546-0.415,3.179-0.645,4.855-0.645
		C347.899,217.815,356.233,226.149,356.233,236.431z"/>
	<path style="fill:#E6E6E6;" d="M192.991,236.431c0,1.675-0.229,3.308-0.645,4.855c-2.191,1.017-4.654,1.589-7.231,1.589
		c-9.494,0-17.183-7.689-17.183-17.183c0-2.578,0.573-5.041,1.589-7.231c1.546-0.415,3.179-0.645,4.855-0.645
		C184.658,217.815,192.991,226.149,192.991,236.431z"/>
</g>
<path style="fill:#0F0F0E;" d="M285.418,291.32c0,10.663-13.173,25.438-29.422,25.438c-16.249,0-29.422-14.775-29.422-25.438
	c0-10.663,13.173-13.178,29.422-13.178C272.245,278.141,285.418,280.656,285.418,291.32z"/>
<circle style="fill:#807272;" cx="270.827" cy="290.241" r="7.85"/>
<path style="fill:#394F59;" d="M238.582,74.146c-22.737,0-38.149,17.763-52.057,50.657c-18.599,3.051-36.049,3.333-53.008-6.28
	l2.591-7.973c7.053-21.713,27.282-36.404,50.103-36.404C186.211,74.146,238.582,74.146,238.582,74.146z"/>
<path style="fill:#293C44;" d="M302.811,359.967c-3.176,2.623-6.656,4.88-10.355,6.708c-7.272,3.615-15.391,5.59-23.813,5.59
	h-25.297c-8.411,0-16.541-1.975-23.813-5.59c-3.688-1.829-7.168-4.075-10.344-6.708
	C235.938,341.494,276.083,341.504,302.811,359.967z"/>
<g>
</g>
<g>
</g>
<g>
</g>
<g>
</g>
<g>
</g>
<g>
</g>
<g>
</g>
<g>
</g>
<g>
</g>
<g>
</g>
<g>
</g>
<g>
</g>
<g>
</g>
<g>
</g>
<g>
</g>
</svg>
