<?xml version="1.0" encoding="iso-8859-1"?>
<!-- Generator: Adobe Illustrator 19.0.0, SVG Export Plug-In . SVG Version: 6.00 Build 0)  -->
<svg version="1.1" id="Capa_1" xmlns="http://www.w3.org/2000/svg" xmlns:xlink="http://www.w3.org/1999/xlink" x="0px" y="0px"
	 viewBox="0 0 512 512" style="enable-background:new 0 0 512 512;" xml:space="preserve">
<path style="fill:#63CBFF;" d="M512,256c0,55.714-17.795,107.28-48.023,149.305C417.51,469.922,341.671,512,256,512
	c-38.943,0-75.86-8.694-108.899-24.252c-39.654-18.662-73.728-47.198-99.077-82.442C17.795,363.28,0,311.714,0,256
	C0,114.615,114.615,0,256,0S512,114.615,512,256z"/>
<path style="fill:#4C8E37;" d="M512,256c0,2.508-0.031,4.995-0.104,7.481c-0.596,20.532-3.605,40.458-8.756,59.507
	c-4.66,1.463-9.613,2.257-14.754,2.257c-15.768,0-29.78-7.471-38.724-19.048c-8.955,11.577-22.967,19.048-38.734,19.048
	c-15.768,0-29.79-7.471-38.734-19.048c-8.944,11.577-22.956,19.048-38.734,19.048c-15.768,0-29.78-7.471-38.724-19.048
	c-8.955,11.577-22.967,19.048-38.734,19.048s-29.78-7.471-38.734-19.048c-8.944,11.577-22.956,19.048-38.724,19.048
	c-15.778,0-29.79-7.471-38.734-19.048c-8.944,11.577-22.967,19.048-38.734,19.048s-29.78-7.471-38.734-19.048
	c-8.944,11.577-22.956,19.048-38.724,19.048c-5.141,0-10.094-0.794-14.754-2.257C3.709,303.94,0.7,284.014,0.104,263.481
	C0.031,260.995,0,258.508,0,256c0-7.784,0.345-15.485,1.024-23.082c6.76-3.521,14.44-5.517,22.591-5.517
	c15.768,0,29.78,7.461,38.724,19.048c8.955-11.588,22.967-19.048,38.734-19.048s29.79,7.461,38.734,19.048
	c8.944-11.588,22.956-19.048,38.734-19.048c15.768,0,29.78,7.461,38.724,19.048c8.955-11.588,22.967-19.048,38.734-19.048
	s29.78,7.461,38.734,19.048c8.944-11.588,22.956-19.048,38.724-19.048c15.778,0,29.79,7.461,38.734,19.048
	c8.944-11.588,22.967-19.048,38.734-19.048c15.767,0,29.78,7.461,38.734,19.048c8.944-11.588,22.956-19.048,38.724-19.048
	c8.15,0,15.83,1.996,22.591,5.517C511.655,240.515,512,248.215,512,256z"/>
<path style="fill:#69AF54;" d="M509.983,288.162c-1.484,11.88-3.783,23.51-6.844,34.826c-5.454,20.187-13.322,39.382-23.28,57.26
	c-12.236-2.152-22.904-8.861-30.198-18.307c-8.955,11.577-22.967,19.048-38.734,19.048c-15.768,0-29.79-7.471-38.734-19.048
	c-8.944,11.577-22.956,19.048-38.734,19.048c-15.768,0-29.78-7.471-38.724-19.048c-8.955,11.577-22.967,19.048-38.734,19.048
	s-29.78-7.471-38.734-19.048c-8.944,11.577-22.956,19.048-38.724,19.048c-15.778,0-29.79-7.471-38.734-19.048
	c-8.944,11.577-22.967,19.048-38.734,19.048s-29.78-7.471-38.734-19.048c-7.293,9.446-17.962,16.154-30.208,18.307
	c-9.947-17.878-17.816-37.083-23.27-57.26c-3.062-11.316-5.36-22.946-6.844-34.826c6.52-3.218,13.845-5.016,21.598-5.016
	c15.768,0,29.78,7.461,38.724,19.048c8.955-11.588,22.967-19.048,38.734-19.048s29.79,7.461,38.734,19.048
	c8.944-11.588,22.956-19.048,38.734-19.048c15.768,0,29.78,7.461,38.724,19.048c8.955-11.588,22.967-19.048,38.734-19.048
	s29.78,7.461,38.734,19.048c8.944-11.588,22.956-19.048,38.724-19.048c15.778,0,29.79,7.461,38.734,19.048
	c8.944-11.588,22.967-19.048,38.734-19.048c15.767,0,29.78,7.461,38.734,19.048c8.944-11.588,22.956-19.048,38.724-19.048
	C496.138,283.146,503.463,284.944,509.983,288.162z"/>
<path style="fill:#DB7F45;" d="M508.876,295.988c-7.805,49.737-29.926,94.73-62.025,130.612c-2.894,3.239-5.862,6.395-8.923,9.477
	c-8.568,8.673-17.763,16.739-27.502,24.106c-5.966,4.514-12.131,8.777-18.484,12.769C352.549,497.695,305.946,512,255.99,512
	c-40.647,0-79.078-9.467-113.215-26.342c-2.936-1.452-5.841-2.957-8.704-4.514c-11.034-5.977-21.567-12.737-31.535-20.219
	c-1.672-1.254-3.323-2.518-4.953-3.814c-23.301-18.38-43.332-40.72-59.058-66.017c-0.23-0.355-0.449-0.711-0.669-1.066
	c-4.775-7.743-9.153-15.767-13.082-24.033c-6.478-13.594-11.797-27.846-15.809-42.632c-2.445-8.934-4.409-18.077-5.862-27.376
	L508.876,295.988L508.876,295.988z"/>
<g>
	<path style="fill:#C46837;" d="M448.958,345.831L448.958,345.831c0-6.636-5.38-12.016-12.016-12.016h-66.873
		c-6.636,0-12.016,5.38-12.016,12.016l0,0c0,6.636,5.38,12.016,12.016,12.016h8.359c6.636,0,12.016,5.38,12.016,12.016l0,0
		c0,6.636-5.38,12.016-12.016,12.016h-25.6c-6.636,0-12.016,5.38-12.016,12.016l0,0c0,6.636,5.38,12.016,12.016,12.016h66.873
		c6.636,0,12.016-5.38,12.016-12.016l0,0c0-6.636,5.38-12.016,12.016-12.016h25.6c6.636,0,12.016-5.38,12.016-12.016l0,0
		c0-6.636-5.38-12.016-12.016-12.016h-8.359C454.338,357.847,448.958,352.467,448.958,345.831z"/>
	<path style="fill:#C46837;" d="M158.134,373.677L158.134,373.677c0-6.636,5.38-12.016,12.016-12.016h66.873
		c6.636,0,12.016,5.38,12.016,12.016l0,0c0,6.636-5.38,12.016-12.016,12.016h-8.36c-6.636,0-12.016,5.38-12.016,12.016l0,0
		c0,6.636,5.38,12.016,12.016,12.016h25.6c6.636,0,12.016,5.38,12.016,12.016l0,0c0,6.636-5.38,12.016-12.016,12.016H187.39
		c-6.636,0-12.016-5.38-12.016-12.016l0,0c0-6.636-5.38-12.016-12.016-12.016h-25.6c-6.636,0-12.016-5.38-12.016-12.016l0,0
		c0-6.636,5.38-12.016,12.016-12.016h8.36C152.754,385.694,158.134,380.314,158.134,373.677z"/>
	<path style="fill:#C46837;" d="M90.906,359.414c0,6.646-5.381,12.016-12.016,12.016h-25.6c-3.323,0-6.322,1.348-8.495,3.521
		c-2.173,2.173-3.521,5.172-3.521,8.495c0,2.905-1.034,5.58-2.748,7.649c-0.23-0.355-0.449-0.711-0.669-1.066
		c-4.775-7.743-9.153-15.767-13.082-24.033c-6.478-13.594-11.797-27.846-15.809-42.632h37.533c6.635,0,12.016,5.381,12.016,12.016
		c0,6.646,5.381,12.016,12.016,12.016h8.359c3.323,0,6.322,1.348,8.495,3.521S90.906,356.091,90.906,359.414z"/>
</g>
<path style="fill:#0F0F0E;" d="M382.579,478.563C345.255,499.848,302.049,512,256,512s-89.255-12.152-126.579-33.437
	c37.324-21.285,80.53-33.437,126.579-33.437S345.255,457.279,382.579,478.563z"/>
<path style="fill:#E6E6E6;" d="M361.535,140.298v57.469c-24.66,0-45.516,16.269-52.422,38.661
	c-1.588,5.12-2.435,10.553-2.435,16.196v254.359C290.294,510.276,273.356,512,256,512s-34.294-1.724-50.678-5.016V252.625
	c0-15.151-6.144-28.86-16.071-38.787s-23.636-16.071-38.787-16.071v-57.469H361.535z"/>
<path style="fill:#CCCCCC;" d="M361.535,140.298v57.469c-24.66,0-45.516,16.269-52.422,38.661h-34.983
	c-23.865,0-43.207,19.341-43.207,43.207v231.152c-8.662-0.846-17.209-2.121-25.6-3.803V252.625c0-15.151-6.144-28.86-16.071-38.787
	s-23.636-16.071-38.787-16.071v-57.469H361.535z"/>
<g>
	<path style="fill:#E6E6E6;" d="M382.748,39.84v92.097H129.883V39.84c0-0.648,0.021-1.296,0.073-1.944
		c0.993-15.747,14.075-28.212,30.083-28.212h192.554c16.008,0,29.09,12.466,30.083,28.212
		C382.727,38.545,382.748,39.192,382.748,39.84z"/>
	<path style="fill:#E6E6E6;" d="M412.005,152.313c0,17.45-7.074,33.259-18.516,44.701c-11.442,11.442-27.251,18.516-44.701,18.516
		H163.205c-34.92,0-63.216-28.306-63.216-63.216c0-17.45,7.074-33.259,18.516-44.701c3.427-3.427,7.241-6.457,11.379-9.028
		c9.676-6.019,21.086-9.488,33.322-9.488h185.584c12.497,0,24.148,3.626,33.959,9.885
		C400.334,110.214,412.005,129.9,412.005,152.313z"/>
</g>
<path style="fill:#CCCCCC;" d="M382.748,56.517v45.61c-4.942,3.835-11.128,6.081-17.721,6.081
	c-15.924,0-28.891-12.957-28.891-28.891c0-13.04,8.788-24.513,21.379-27.899c2.456-0.658,4.984-0.993,7.513-0.993
	C371.693,50.425,377.848,52.692,382.748,56.517z"/>
<path style="fill:#0F0F0E;" d="M380.682,79.318c0,1.409-0.192,2.782-0.541,4.081c-1.794,6.67-7.873,11.57-15.109,11.57
	c-8.644,0-15.652-7.007-15.652-15.652c0-7.236,4.9-13.315,11.57-15.109c1.3-0.349,2.673-0.542,4.081-0.542
	C373.676,63.667,380.682,70.674,380.682,79.318z"/>
<path style="fill:#CCCCCC;" d="M194.677,37.896c-1.651,8.223-0.982,18.463,4.169,30.992c3.469,8.432,4.305,14.911,3.396,20.208
	c-2.915,17.335-24.346,22.277-33.113,42.841c-2.288,5.381-3.72,11.828-3.72,19.853c0,48.065,38.661,63.739,38.661,63.739h-40.866
	c-34.92,0-63.216-28.306-63.216-63.216c0-17.45,7.074-33.259,18.516-44.701c3.427-3.427,7.241-6.457,11.379-9.028V68.888h-7.293
	c-8.558,0-15.496-6.938-15.496-15.496c0-4.274,1.735-8.15,4.535-10.961c2.811-2.8,6.677-4.535,10.961-4.535h7.367
	c0.993-15.747,14.075-28.212,30.083-28.212h56.571C216.609,9.684,198.71,17.751,194.677,37.896z"/>
<g>
	<path style="fill:#E6E6E6;" d="M404.89,53.393c0,4.274-1.735,8.15-4.535,10.961c-2.811,2.8-6.677,4.535-10.961,4.535H268.86
		c-8.558,0-15.496-6.938-15.496-15.496c0-4.274,1.735-8.15,4.535-10.961c2.811-2.8,6.677-4.535,10.961-4.535h120.534
		C397.951,37.896,404.89,44.836,404.89,53.393z"/>
	<path style="fill:#E6E6E6;" d="M380.682,79.318c0,1.409-0.192,2.782-0.541,4.081c-1.842,0.855-3.913,1.336-6.08,1.336
		c-7.982,0-14.447-6.465-14.447-14.447c0-2.167,0.482-4.238,1.336-6.08c1.3-0.349,2.673-0.542,4.081-0.542
		C373.676,63.667,380.682,70.674,380.682,79.318z"/>
</g>
<path style="fill:#CCCCCC;" d="M175.848,79.317c0,2.529-0.334,5.057-0.993,7.513c-3.385,12.591-14.858,21.379-27.899,21.379
	c-6.384,0-12.288-2.079-17.074-5.601V56.005c2.811-2.058,6.029-3.636,9.55-4.587c2.466-0.658,4.995-0.993,7.523-0.993
	C162.891,50.425,175.848,63.382,175.848,79.317z"/>
<circle style="fill:#0F0F0E;" cx="146.954" cy="79.318" r="15.652"/>
<path style="fill:#E6E6E6;" d="M162.609,79.318c0,1.409-0.192,2.782-0.542,4.081c-1.842,0.855-3.913,1.336-6.08,1.336
	c-7.982,0-14.447-6.465-14.447-14.447c0-2.167,0.482-4.238,1.336-6.08c1.3-0.349,2.673-0.542,4.081-0.542
	C155.602,63.667,162.609,70.674,162.609,79.318z"/>
<path style="fill:#E84123;" d="M291.518,142.386c0,4.023-0.669,7.889-1.902,11.494h-67.25c-1.233-3.605-1.902-7.471-1.902-11.494
	c0-2.884,0.345-5.674,0.993-8.359c3.762-15.59,17.795-27.167,34.534-27.167s30.783,11.577,34.534,27.167
	C291.173,136.713,291.518,139.502,291.518,142.386z"/>
<path style="fill:#D32F1A;" d="M289.148,174.778h-66.314c-10.542,0-19.088-8.546-19.088-19.088v-21.663h104.49v21.663
	C308.237,166.233,299.69,174.778,289.148,174.778z"/>
<path style="fill:#E84123;" d="M331.224,143.954c0,2.738-1.108,5.224-2.905,7.022c-1.797,1.797-4.274,2.905-7.022,2.905H190.686
	c-5.475,0-9.927-4.441-9.927-9.927c0-2.738,1.118-5.224,2.915-7.022s4.274-2.905,7.011-2.905h130.612
	C326.783,134.027,331.224,138.468,331.224,143.954z"/>
<path style="fill:#CCCCCC;" d="M190.309,53.393c0,4.274-1.735,8.15-4.535,10.961c-2.811,2.8-6.677,4.535-10.961,4.535H122.59
	c-8.558,0-15.496-6.938-15.496-15.496c0-4.274,1.735-8.15,4.535-10.961c2.811-2.8,6.677-4.535,10.961-4.535h52.224
	C183.371,37.896,190.309,44.836,190.309,53.393z"/>
<g>
</g>
<g>
</g>
<g>
</g>
<g>
</g>
<g>
</g>
<g>
</g>
<g>
</g>
<g>
</g>
<g>
</g>
<g>
</g>
<g>
</g>
<g>
</g>
<g>
</g>
<g>
</g>
<g>
</g>
</svg>
