<?xml version="1.0" encoding="iso-8859-1"?>
<!-- Generator: Adobe Illustrator 19.0.0, SVG Export Plug-In . SVG Version: 6.00 Build 0)  -->
<svg version="1.1" id="Capa_1" xmlns="http://www.w3.org/2000/svg" xmlns:xlink="http://www.w3.org/1999/xlink" x="0px" y="0px"
	 viewBox="0 0 512 512" style="enable-background:new 0 0 512 512;" xml:space="preserve">
<path style="fill:#095972;" d="M512,256c0,63.519-23.134,121.647-61.45,166.39C403.602,477.236,333.866,512,256,512
	s-147.613-34.764-194.56-89.621C23.134,377.637,0,319.509,0,256c0-30.532,5.339-59.81,15.151-86.967
	c11.285-31.242,28.473-59.664,50.218-83.905C112.243,32.872,180.276,0,256,0C397.385,0,512,114.615,512,256z"/>
<g>
	<path style="fill:#F9E7AE;" d="M454.239,238.513l-11.154-2.82c-4.174-1.055-7.434-4.314-8.49-8.49l-2.82-11.154
		c-0.728-2.879-4.818-2.879-5.545,0l-2.82,11.154c-1.055,4.174-4.314,7.434-8.49,8.49l-11.154,2.82
		c-2.879,0.728-2.879,4.818,0,5.545l11.154,2.82c4.174,1.055,7.434,4.314,8.49,8.49l2.82,11.154c0.728,2.879,4.818,2.879,5.545,0
		l2.82-11.154c1.055-4.174,4.314-7.434,8.49-8.49l11.154-2.82C457.118,243.331,457.118,239.24,454.239,238.513z"/>
	<path style="fill:#F9E7AE;" d="M319.399,34.985l-11.154-2.82c-4.174-1.055-7.434-4.314-8.49-8.49l-2.82-11.154
		c-0.728-2.879-4.818-2.879-5.545,0l-2.82,11.154c-1.055,4.174-4.314,7.434-8.49,8.49l-11.154,2.82
		c-2.879,0.727-2.879,4.818,0,5.545l11.154,2.82c4.174,1.055,7.434,4.314,8.49,8.49l2.82,11.154c0.728,2.879,4.818,2.879,5.545,0
		l2.82-11.154c1.055-4.174,4.314-7.434,8.49-8.49l11.154-2.82C322.278,39.803,322.278,35.713,319.399,34.985z"/>
	<path style="fill:#F9E7AE;" d="M499.16,298.072l-11.154-2.82c-4.174-1.055-7.434-4.314-8.49-8.49l-2.82-11.154
		c-0.728-2.879-4.818-2.879-5.545,0l-2.82,11.154c-1.055,4.174-4.314,7.434-8.49,8.49l-11.154,2.82
		c-2.879,0.728-2.879,4.818,0,5.545l11.154,2.82c4.174,1.055,7.434,4.314,8.49,8.49l2.82,11.154c0.728,2.879,4.818,2.879,5.545,0
		l2.82-11.154c1.055-4.174,4.314-7.434,8.49-8.49l11.154-2.82C502.039,302.89,502.039,298.799,499.16,298.072z"/>
	<path style="fill:#F9E7AE;" d="M73.157,290.627l-11.154-2.82c-4.174-1.055-7.434-4.314-8.49-8.49l-2.82-11.154
		c-0.727-2.879-4.818-2.879-5.545,0l-2.82,11.154c-1.055,4.174-4.314,7.434-8.49,8.49l-11.154,2.82
		c-2.879,0.728-2.879,4.818,0,5.545l11.154,2.82c4.174,1.055,7.434,4.314,8.49,8.49l2.82,11.154c0.727,2.879,4.818,2.879,5.545,0
		l2.82-11.154c1.055-4.174,4.314-7.434,8.49-8.49l11.154-2.82C76.036,295.445,76.036,291.355,73.157,290.627z"/>
</g>
<path style="fill:#F4D558;" d="M114.939,139.254c0,30.009-24.325,54.335-54.335,54.335c-19.017,0-35.746-9.759-45.453-24.555
	c11.285-31.242,28.473-59.664,50.218-83.905C93.142,87.542,114.939,110.853,114.939,139.254z"/>
<g>
	<path style="fill:#755139;" d="M450.55,422.39C403.602,477.236,333.866,512,256,512c-44.753,0-86.831-11.483-123.434-31.671
		c-27.084-14.932-51.169-34.628-71.126-57.95c14.388-39.832,34.45-74.7,58.629-102.348c9.383-10.731,19.383-20.376,29.915-28.808
		c31.431-25.14,67.563-39.455,106.015-39.455c51.399,0,98.67,25.579,136.056,68.42C416.172,347.815,436.182,382.631,450.55,422.39z"
		/>
	<path style="fill:#755139;" d="M426.203,217.924c0,38.39-12.706,73.801-34.147,102.264
		c-31.284,41.566-81.178,68.326-137.289,67.929c-27.512-0.188-53.499-6.99-76.466-18.881
		c-22.904-11.849-42.809-28.756-58.232-49.204c-21.88-29.017-34.712-65.17-34.262-104.124
		c0.481-42.088,16.248-80.509,42.005-109.965c15.548-17.784,21.786-41.88,16.394-64.867c-2.194-9.373-5.089-18.098-7.711-25.109
		c-2.894-7.701,4.483-15.318,12.288-12.685c14.952,5.057,33.938,17.251,38.442,46.686c0.878,5.736,6.75,9.31,12.225,7.377
		c17.418-6.134,36.133-9.529,55.63-9.624c0.313-0.01,0.616-0.01,0.92-0.01c19.822,0,38.849,3.406,56.55,9.634
		c5.465,1.933,11.337-1.64,12.215-7.377c4.504-29.435,23.489-41.629,38.452-46.686c7.795-2.633,15.182,4.984,12.288,12.685
		c-2.633,7.011-5.517,15.736-7.722,25.109c-5.381,22.946,0.773,47.031,16.3,64.763C410.311,135.774,426.203,174.989,426.203,217.924
		z"/>
</g>
<path style="fill:#603F2A;" d="M242.88,404.256c-30.187-5.425-53.769-18.574-67.504-27.94c-3.44-2.346-1.348-7.721,2.77-7.104
	l0.155,0.023c12.225,1.851,22.783,2.132,31.447,1.676c8.381-0.441,10.851-11.657,3.448-15.612
	c-28.719-15.343-49.723-36.94-63.212-64.077c-12.267-24.659-18.327-53.905-18.327-87.185c0-2.113,0.061-4.223,0.18-6.332
	c2.467-43.744,34.787-80.411,78.01-87.58c0.47-0.078,0.94-0.154,1.412-0.227c4.717-0.732,4.673-7.542-0.053-8.205
	c-6.112-0.858-12.758-1.499-19.5-1.647c-6.149-0.135-9.159-7.567-4.824-11.931c24.043-24.207,50.672-39.861,68.199-40.395
	c-19.498,0.094-38.212,3.49-55.63,9.624c-5.475,1.933-11.348-1.64-12.225-7.377c-4.503-29.435-23.489-41.629-38.442-46.686
	c-7.805-2.633-15.182,4.984-12.288,12.685c2.623,7.011,5.517,15.736,7.711,25.109c5.392,22.988-0.846,47.083-16.394,64.867
	c-25.757,29.456-41.524,67.877-42.005,109.965c-0.449,38.954,12.382,75.107,34.262,104.124
	C95.89,347.68,75.828,382.549,61.44,422.38c19.958,23.322,44.042,43.018,71.126,57.95c40.718,4.258,70.506,2.067,90.605-1.433
	c7.95-1.383,8.386-12.706,0.557-14.657c-20.915-5.211-36.401-13.076-47.423-20.584c-8.118-5.531-3.634-18.201,6.162-17.472
	c27.367,2.038,47.413-1.184,61.411-5.555C252.318,417.992,251.582,405.821,242.88,404.256z"/>
<path style="fill:#E0CC79;" d="M325.967,119.406c-24.561-0.266-46.595,10.539-61.446,27.728c-4.501,5.211-12.546,5.211-17.048,0
	c-14.851-17.19-36.885-27.995-61.446-27.728c-44.878,0.487-80.164,38.755-79.102,83.623c1.909,80.692,67.92,145.519,149.071,145.519
	l0,0c81.152,0,147.162-64.827,149.071-145.519C406.131,158.16,370.846,119.893,325.967,119.406z"/>
<path style="fill:#F7E28A;" d="M255.997,332.874c-35.083,0-68.216-13.506-93.294-38.031c-25.038-24.487-39.282-57.225-40.109-92.185
	c-0.42-17.772,6.413-35.287,18.745-48.055c11.986-12.407,27.917-19.342,44.857-19.526l0.717-0.003
	c18.701,0,36.451,8.13,48.699,22.306c5.125,5.932,12.554,9.335,20.384,9.335c7.829,0,15.26-3.403,20.385-9.336
	c12.247-14.175,29.997-22.305,48.697-22.305l0.718,0.003c16.941,0.184,32.871,7.119,44.857,19.527
	c12.334,12.767,19.167,30.282,18.744,48.054c-0.827,34.96-15.072,67.698-40.109,92.185
	C324.212,319.368,291.08,332.874,255.997,332.874z"/>
<path style="fill:#E0CC79;" d="M331.52,267.288c-22.904,0-41.537-18.634-41.537-41.537c0-18.748,12.635-35.239,30.725-40.104
	c3.541-0.951,7.176-1.432,10.812-1.432c22.904,0,41.537,18.634,41.537,41.537c0,3.634-0.482,7.269-1.43,10.804
	C366.759,254.653,350.269,267.288,331.52,267.288z"/>
<path style="fill:#0F0F0E;" d="M354.02,222.322c0,2.025-0.277,3.998-0.778,5.867c-2.579,9.588-11.318,16.632-21.72,16.632
	c-12.426,0-22.499-10.073-22.499-22.499c0-10.402,7.044-19.141,16.632-21.72c1.869-0.502,3.842-0.778,5.867-0.778
	C343.947,199.823,354.02,209.896,354.02,222.322z"/>
<path style="fill:#E6E6E6;" d="M354.02,222.322c0,2.025-0.277,3.998-0.778,5.867c-2.648,1.229-5.625,1.921-8.74,1.921
	c-11.474,0-20.768-9.293-20.768-20.768c0-3.115,0.693-6.092,1.922-8.74c1.869-0.502,3.842-0.778,5.867-0.778
	C343.947,199.823,354.02,209.896,354.02,222.322z"/>
<path style="fill:#E0CC79;" d="M181.264,267.288c-22.904,0-41.537-18.634-41.537-41.537c0-18.748,12.635-35.239,30.725-40.104
	c3.541-0.951,7.176-1.432,10.812-1.432c22.904,0,41.537,18.634,41.537,41.537c0,3.634-0.482,7.269-1.43,10.804
	C216.503,254.653,200.011,267.288,181.264,267.288z"/>
<path style="fill:#0F0F0E;" d="M203.762,222.322c0,2.025-0.277,3.998-0.778,5.867c-2.579,9.588-11.318,16.632-21.72,16.632
	c-12.426,0-22.499-10.073-22.499-22.499c0-10.402,7.044-19.141,16.632-21.72c1.869-0.502,3.842-0.778,5.867-0.778
	C193.691,199.823,203.762,209.896,203.762,222.322z"/>
<path style="fill:#E6E6E6;" d="M203.762,222.322c0,2.025-0.277,3.998-0.778,5.867c-2.648,1.229-5.625,1.921-8.74,1.921
	c-11.474,0-20.768-9.293-20.768-20.768c0-3.115,0.693-6.092,1.922-8.74c1.869-0.502,3.842-0.778,5.867-0.778
	C193.691,199.823,203.762,209.896,203.762,222.322z"/>
<path style="fill:#823603;" d="M264.584,302.609l15.925-43.589c5.342-14.619-5.483-30.097-21.047-30.097h-6.932
	c-15.565,0-26.389,15.478-21.047,30.097l15.925,43.589C250.335,310.615,261.658,310.615,264.584,302.609z"/>
<g>
</g>
<g>
</g>
<g>
</g>
<g>
</g>
<g>
</g>
<g>
</g>
<g>
</g>
<g>
</g>
<g>
</g>
<g>
</g>
<g>
</g>
<g>
</g>
<g>
</g>
<g>
</g>
<g>
</g>
</svg>
