<?xml version="1.0" encoding="iso-8859-1"?>
<!-- Generator: Adobe Illustrator 19.0.0, SVG Export Plug-In . SVG Version: 6.00 Build 0)  -->
<svg version="1.1" id="Capa_1" xmlns="http://www.w3.org/2000/svg" xmlns:xlink="http://www.w3.org/1999/xlink" x="0px" y="0px"
	 viewBox="0 0 512 512" style="enable-background:new 0 0 512 512;" xml:space="preserve">
<path style="fill:#63CBFF;" d="M512,256c0,55.714-17.795,107.28-48.023,149.305C417.51,469.922,341.671,512,256,512
	c-38.943,0-75.86-8.694-108.899-24.252c-39.654-18.662-73.728-47.198-99.077-82.442C17.795,363.28,0,311.714,0,256
	C0,114.615,114.615,0,256,0S512,114.615,512,256z"/>
<path style="fill:#4C8E37;" d="M512,256c0,2.508-0.031,4.995-0.104,7.481c-0.596,20.532-3.605,40.458-8.756,59.507
	c-4.66,1.463-9.613,2.257-14.754,2.257c-15.768,0-29.78-7.471-38.724-19.048c-8.955,11.577-22.967,19.048-38.734,19.048
	c-15.768,0-29.79-7.471-38.734-19.048c-8.944,11.577-22.956,19.048-38.734,19.048c-15.768,0-29.78-7.471-38.724-19.048
	c-8.955,11.577-22.967,19.048-38.734,19.048s-29.78-7.471-38.734-19.048c-8.944,11.577-22.956,19.048-38.724,19.048
	c-15.778,0-29.79-7.471-38.734-19.048c-8.944,11.577-22.967,19.048-38.734,19.048s-29.78-7.471-38.734-19.048
	c-8.944,11.577-22.956,19.048-38.724,19.048c-5.141,0-10.094-0.794-14.754-2.257C3.709,303.94,0.7,284.014,0.104,263.481
	C0.031,260.995,0,258.508,0,256c0-7.784,0.345-15.485,1.024-23.082c6.76-3.521,14.44-5.517,22.591-5.517
	c15.768,0,29.78,7.461,38.724,19.048c8.955-11.588,22.967-19.048,38.734-19.048s29.79,7.461,38.734,19.048
	c8.944-11.588,22.956-19.048,38.734-19.048c15.768,0,29.78,7.461,38.724,19.048c8.955-11.588,22.967-19.048,38.734-19.048
	s29.78,7.461,38.734,19.048c8.944-11.588,22.956-19.048,38.724-19.048c15.778,0,29.79,7.461,38.734,19.048
	c8.944-11.588,22.967-19.048,38.734-19.048c15.767,0,29.78,7.461,38.734,19.048c8.944-11.588,22.956-19.048,38.724-19.048
	c8.15,0,15.83,1.996,22.591,5.517C511.655,240.515,512,248.215,512,256z"/>
<path style="fill:#69AF54;" d="M509.983,288.162c-1.484,11.88-3.783,23.51-6.844,34.826c-5.454,20.187-13.322,39.382-23.28,57.26
	c-12.236-2.152-22.904-8.861-30.198-18.307c-8.955,11.577-22.967,19.048-38.734,19.048c-15.768,0-29.79-7.471-38.734-19.048
	c-8.944,11.577-22.956,19.048-38.734,19.048c-15.768,0-29.78-7.471-38.724-19.048c-8.955,11.577-22.967,19.048-38.734,19.048
	s-29.78-7.471-38.734-19.048c-8.944,11.577-22.956,19.048-38.724,19.048c-15.778,0-29.79-7.471-38.734-19.048
	c-8.944,11.577-22.967,19.048-38.734,19.048s-29.78-7.471-38.734-19.048c-7.293,9.446-17.962,16.154-30.208,18.307
	c-9.947-17.878-17.816-37.083-23.27-57.26c-3.062-11.316-5.36-22.946-6.844-34.826c6.52-3.218,13.845-5.016,21.598-5.016
	c15.768,0,29.78,7.461,38.724,19.048c8.955-11.588,22.967-19.048,38.734-19.048s29.79,7.461,38.734,19.048
	c8.944-11.588,22.956-19.048,38.734-19.048c15.768,0,29.78,7.461,38.724,19.048c8.955-11.588,22.967-19.048,38.734-19.048
	s29.78,7.461,38.734,19.048c8.944-11.588,22.956-19.048,38.724-19.048c15.778,0,29.79,7.461,38.734,19.048
	c8.944-11.588,22.967-19.048,38.734-19.048c15.767,0,29.78,7.461,38.734,19.048c8.944-11.588,22.956-19.048,38.724-19.048
	C496.138,283.146,503.463,284.944,509.983,288.162z"/>
<path style="fill:#DB7F45;" d="M508.876,295.988c-7.805,49.737-29.926,94.73-62.025,130.612c-2.894,3.239-5.862,6.395-8.923,9.477
	c-8.568,8.673-17.763,16.739-27.502,24.106c-5.966,4.514-12.131,8.777-18.484,12.769C352.549,497.695,305.946,512,255.99,512
	c-40.647,0-79.078-9.467-113.215-26.342c-2.936-1.452-5.841-2.957-8.704-4.514c-11.034-5.977-21.567-12.737-31.535-20.219
	c-1.672-1.254-3.323-2.518-4.953-3.814c-23.301-18.38-43.332-40.72-59.058-66.017c-0.23-0.355-0.449-0.711-0.669-1.066
	c-4.775-7.743-9.153-15.767-13.082-24.033c-6.478-13.594-11.797-27.846-15.809-42.632c-2.445-8.934-4.409-18.077-5.862-27.376
	L508.876,295.988L508.876,295.988z"/>
<path style="fill:#C46837;" d="M448.958,345.831L448.958,345.831c0-6.636-5.38-12.016-12.016-12.016h-66.873
	c-6.636,0-12.016,5.38-12.016,12.016l0,0c0,6.636,5.38,12.016,12.016,12.016h8.359c6.636,0,12.016,5.38,12.016,12.016l0,0
	c0,6.636-5.38,12.016-12.016,12.016h-25.6c-6.636,0-12.016,5.38-12.016,12.016l0,0c0,6.636,5.38,12.016,12.016,12.016h66.873
	c6.636,0,12.016-5.38,12.016-12.016l0,0c0-6.636,5.38-12.016,12.016-12.016h25.6c6.636,0,12.016-5.38,12.016-12.016l0,0
	c0-6.636-5.38-12.016-12.016-12.016h-8.359C454.338,357.847,448.958,352.467,448.958,345.831z"/>
<g>
	<path style="fill:#823603;" d="M437.927,436.078c-8.568,8.673-17.763,16.739-27.502,24.106c-0.439-0.052-0.888-0.073-1.348-0.073
		h-8.359c-3.323,0-6.322-1.348-8.495-3.521c-2.173-2.173-3.521-5.183-3.521-8.495c0-6.635,5.381-12.016,12.016-12.016H437.927z"/>
	<path style="fill:#823603;" d="M218.049,445.095c0,6.635-5.381,12.016-12.016,12.016h-25.6c-3.323,0-6.322,1.348-8.495,3.521
		s-3.521,5.172-3.521,8.495c0,6.635-5.381,12.016-12.016,12.016h-22.329c-11.034-5.977-21.567-12.737-31.535-20.219
		c-1.672-1.254-3.323-2.518-4.953-3.814h17.544c3.323,0,6.322-1.348,8.495-3.521s3.521-5.172,3.521-8.495
		c0-6.635-5.381-12.016-12.016-12.016h-8.359c-3.323,0-6.322-1.348-8.495-3.521c-2.173-2.173-3.521-5.172-3.521-8.495
		c0-6.635,5.381-12.016,12.016-12.016h66.873c6.635,0,12.016,5.381,12.016,12.016c0,6.635,5.381,12.016,12.016,12.016h8.359
		c3.323,0,6.322,1.348,8.495,3.521C216.701,438.774,218.049,441.772,218.049,445.095z"/>
</g>
<path style="fill:#C46837;" d="M90.906,359.414c0,6.646-5.381,12.016-12.016,12.016h-25.6c-3.323,0-6.322,1.348-8.495,3.521
	c-2.173,2.173-3.521,5.172-3.521,8.495c0,2.905-1.034,5.58-2.748,7.649c-0.23-0.355-0.449-0.711-0.669-1.066
	c-4.775-7.743-9.153-15.767-13.082-24.033c-6.478-13.594-11.797-27.846-15.809-42.632h37.533c6.635,0,12.016,5.381,12.016,12.016
	c0,6.646,5.381,12.016,12.016,12.016h8.359c3.323,0,6.322,1.348,8.495,3.521S90.906,356.091,90.906,359.414z"/>
<path style="fill:#823603;" d="M158.134,321.802L158.134,321.802c0-6.636,5.38-12.016,12.016-12.016h66.873
	c6.636,0,12.016,5.38,12.016,12.016l0,0c0,6.636-5.38,12.016-12.016,12.016h-8.36c-6.636,0-12.016,5.38-12.016,12.016l0,0
	c0,6.636,5.38,12.016,12.016,12.016h25.6c6.636,0,12.016,5.38,12.016,12.016l0,0c0,6.636-5.38,12.016-12.016,12.016H187.39
	c-6.636,0-12.016-5.38-12.016-12.016l0,0c0-6.636-5.38-12.016-12.016-12.016h-25.6c-6.636,0-12.016-5.38-12.016-12.016l0,0
	c0-6.636,5.38-12.016,12.016-12.016h8.36C152.754,333.819,158.134,328.44,158.134,321.802z"/>
<g>
	<path style="fill:#AD6332;" d="M463.976,405.305C417.51,469.922,341.671,512,256,512S94.49,469.922,48.024,405.305
		c5.757-40.02,17.23-71.711,27.763-94.03C87.594,286.25,98.2,273,98.2,273H413.79C413.79,273,451.772,320.428,463.976,405.305z"/>
	<path style="fill:#AD6332;" d="M317.159,96.96l59.837-77.617c10.355-13.431,31.609-9.205,36.038,7.166l10.742,39.71
		c7.744,28.626-6.449,58.639-33.488,70.817l-34.864,15.703"/>
</g>
<path style="fill:#823603;" d="M338.583,106.317l33.979-44.076c5.88-7.628,17.95-5.228,20.464,4.07l4.848,17.925
	c5.118,18.921-4.262,38.757-22.134,46.807l-15.43,6.95"/>
<path style="fill:#AD6332;" d="M194.831,96.96l-59.837-77.617c-10.355-13.431-31.609-9.205-36.037,7.166l-10.742,39.71
	c-7.744,28.626,6.449,58.639,33.488,70.817l34.864,15.703"/>
<path style="fill:#823603;" d="M173.406,106.317l-33.979-44.076c-5.88-7.628-17.95-5.228-20.464,4.07l-4.848,17.925
	c-5.118,18.921,4.262,38.757,22.134,46.807l15.43,6.95"/>
<path style="fill:#995325;" d="M399.444,273H174.916H98.2c0,0-37.972,47.428-50.176,132.305
	c25.349,35.244,59.423,63.781,99.077,82.442c-0.142-32.125,2.876-60.339,7.433-84.53c2.112-11.209,13.232-18.271,24.305-15.54
	c0.071,0.018,0.142,0.036,0.213,0.052c5.486,1.358,11.118,2.518,16.865,3.469c12.518,2.09,25.6,3.197,39.069,3.197
	c13.458,0,26.54-1.108,39.058-3.197c5.747-0.951,11.379-2.111,16.865-3.459c63.572-15.642,109.025-57.229,109.025-106.057
	C399.935,278.758,399.767,275.863,399.444,273z"/>
<path style="fill:#AD6332;" d="M420.945,259.742c0,48.829-45.452,90.418-109.025,106.057c-5.487,1.353-11.114,2.51-16.862,3.462
	c-12.522,2.09-25.595,3.191-39.06,3.191c-13.465,0-26.547-1.101-39.07-3.191c-5.748-0.952-11.375-2.109-16.862-3.471
	c-63.582-15.648-109.015-57.219-109.015-106.048c0-17.944,6.14-34.917,17.076-49.977c7.427-10.237,12.774-21.845,15.135-34.255
	c4.834-25.222,14.649-48.195,28.17-67.38c16.143-22.926,37.558-40.459,62.043-49.977c2.379-0.933,4.796-1.783,7.232-2.557
	c8.856-2.827,18.093-4.601,27.582-5.216c2.547-0.178,5.123-0.261,7.707-0.261c2.584,0,5.16,0.084,7.707,0.261
	c9.48,0.615,18.709,2.389,27.574,5.216c2.436,0.774,4.853,1.624,7.232,2.557c24.485,9.518,45.899,27.05,62.043,49.977
	c13.521,19.194,23.337,42.167,28.17,67.38c2.37,12.41,7.707,24.018,15.135,34.255C414.796,224.824,420.945,241.798,420.945,259.742z
	"/>
<path style="fill:#995325;" d="M254.456,50.146c-1.536,0.031-3.082,0.104-4.608,0.24c-7.576,0.637-14.942,2.456-22.016,5.371
	c-1.944,0.794-3.866,1.672-5.768,2.623c-19.55,9.791-36.634,27.826-49.528,51.409c-10.783,19.738-18.62,43.363-22.476,69.308
	c-1.891,12.769-6.154,24.701-12.089,35.234c-8.725,15.496-13.625,32.946-13.625,51.409c0,38.243,21.023,72.161,53.467,93.257
	c-51.66-19.028-86.758-56.341-86.758-99.255c0-17.941,6.144-34.92,17.074-49.977c7.429-10.24,12.779-21.838,15.141-34.252
	c4.827-25.224,14.649-48.201,28.17-67.385c16.144-22.925,37.554-40.458,62.046-49.977c2.372-0.93,4.796-1.776,7.231-2.55
	c8.85-2.832,18.087-4.608,27.575-5.214C250.328,50.24,252.387,50.167,254.456,50.146z"/>
<path style="fill:#BC7647;" d="M360.552,108.126c-0.742-0.073-1.484-0.146-2.215-0.199c-47.95-3.939-83.028,44.878-64.533,89.287
	c3.479,8.328,7.795,16.374,12.925,24.033c29.738,44.304,30.877,99.85,5.193,144.551c-5.486,1.358-11.118,2.508-16.865,3.459
	c-12.518,2.09-25.59,3.197-39.058,3.197c-13.469,0-26.551-1.108-39.069-3.197c-5.747-0.951-11.379-2.1-16.865-3.469
	c-12.11-21.065-18.254-44.554-18.254-68.138c0-26.436,7.732-52.997,23.448-76.403c5.13-7.649,9.446-15.705,12.915-24.022
	c15.935-38.222-7.826-79.705-45.328-88.012c-6.071-1.358-12.507-1.839-19.195-1.285c-0.731,0.052-1.473,0.125-2.215,0.199
	c16.844-23.928,39.445-41.974,65.275-51.179c0.23-0.073,0.449-0.157,0.69-0.24c1.097-0.387,2.194-0.763,3.312-1.108
	c8.85-2.832,18.087-4.608,27.575-5.214c0.575-0.042,1.16-0.073,1.745-0.104c1.975-0.104,3.971-0.157,5.966-0.157
	c2.581,0,5.162,0.084,7.711,0.261c9.477,0.606,18.704,2.382,27.564,5.214c1.118,0.345,2.215,0.721,3.323,1.108
	c0.23,0.084,0.46,0.167,0.69,0.24C321.118,66.152,343.709,84.198,360.552,108.126z"/>
<g>
	<path style="fill:#965021;" d="M330.181,228.196c-12.349,0-22.394-10.047-22.394-22.394c0-10.108,6.812-18.999,16.566-21.622
		c1.909-0.513,3.869-0.772,5.829-0.772c12.349,0,22.394,10.047,22.394,22.394c0,1.959-0.26,3.919-0.771,5.825
		C349.181,221.385,340.289,228.196,330.181,228.196z"/>
	<path style="fill:#965021;" d="M181.813,228.196c-12.349,0-22.394-10.047-22.394-22.394c0-10.108,6.812-18.999,16.566-21.622
		c1.909-0.513,3.869-0.772,5.829-0.772c12.349,0,22.394,10.047,22.394,22.394c0,1.959-0.26,3.919-0.771,5.825
		C200.813,221.385,191.921,228.196,181.813,228.196z"/>
</g>
<g>
	<path style="fill:#0F0F0E;" d="M342.312,201.136c0,1.092-0.149,2.156-0.42,3.163c-1.391,5.169-6.102,8.967-11.71,8.967
		c-6.7,0-12.13-5.43-12.13-12.13c0-5.608,3.798-10.32,8.967-11.71c1.007-0.271,2.072-0.42,3.163-0.42
		C336.881,189.005,342.312,194.437,342.312,201.136z"/>
	<circle style="fill:#0F0F0E;" cx="181.812" cy="201.132" r="12.13"/>
</g>
<g>
	<path style="fill:#E6E6E6;" d="M342.312,201.136c0,1.092-0.149,2.156-0.42,3.163c-1.427,0.662-3.032,1.035-4.712,1.035
		c-6.187,0-11.197-5.01-11.197-11.197c0-1.679,0.373-3.284,1.035-4.712c1.007-0.271,2.072-0.42,3.163-0.42
		C336.881,189.005,342.312,194.437,342.312,201.136z"/>
	<path style="fill:#E6E6E6;" d="M193.943,201.136c0,1.092-0.149,2.156-0.42,3.163c-1.427,0.662-3.032,1.035-4.712,1.035
		c-6.187,0-11.197-5.01-11.197-11.197c0-1.679,0.373-3.284,1.035-4.712c1.007-0.271,2.072-0.42,3.163-0.42
		C188.512,189.005,193.943,194.437,193.943,201.136z"/>
</g>
<path style="fill:#844921;" d="M314.391,277.296c12.325,0.521,21.382,10.487,18.978,21.31l-4.448,20.032
	c-2.755,12.417-12.902,22.478-26.418,26.21l-22.518,6.208c-15.631,4.305-32.351,4.305-47.981,0l-22.518-6.208
	c-13.516-3.732-23.663-13.795-26.418-26.21l-4.448-20.032c-2.403-10.823,6.653-20.788,18.978-21.31
	c3.5-0.148,7.196-0.639,11.028-1.603c23.5-5.928,24.222-20.697,47.367-20.697s23.868,14.77,47.367,20.697
	C307.196,276.657,310.891,277.149,314.391,277.296z"/>
<g>
	<path style="fill:#0F0F0E;" d="M295.783,319.472c-6.163,5.913-14.732,7.728-19.14,4.053c-4.408-3.674-2.985-11.446,3.178-17.359
		c6.163-5.913,14.732-7.728,19.14-4.053C303.369,305.788,301.946,313.559,295.783,319.472z"/>
	<path style="fill:#0F0F0E;" d="M216.209,319.472c6.163,5.913,14.732,7.728,19.14,4.053c4.408-3.675,2.985-11.446-3.178-17.359
		c-6.163-5.913-14.732-7.728-19.14-4.053C208.623,305.788,210.046,313.559,216.209,319.472z"/>
</g>
<g>
	<path style="fill:#E6E6E6;" d="M444.411,357.804c-41.42,16.572-78.127,4.807-100.582-7.001
		c-12.549-6.604-15.13-23.468-5.214-33.614l7.973-8.161c7.241-7.398,18.787-8.537,27.282-2.612
		c29.978,20.929,52.861,30.239,69.12,34.074C451.641,342.538,452.665,354.503,444.411,357.804z"/>
	<path style="fill:#E6E6E6;" d="M168.164,350.804c-22.455,11.81-59.161,23.577-100.58,7.002c-8.258-3.305-7.236-15.268,1.421-17.313
		c16.259-3.841,39.137-13.145,69.12-34.076c8.491-5.928,20.04-4.789,27.279,2.616l7.979,8.162
		C183.296,327.333,180.713,344.204,168.164,350.804z"/>
</g>
<g>
	<path style="fill:#CCCCCC;" d="M444.411,357.804c-41.42,16.572-78.127,4.807-100.582-7.001
		c-12.549-6.604-15.13-23.468-5.214-33.614l7.973-8.161c0,0-3.093,27.711,24.074,35.025c27.167,7.314,56.456,12.309,72.328-3.563
		C451.641,342.538,452.665,354.503,444.411,357.804z"/>
	<path style="fill:#CCCCCC;" d="M67.582,357.804c41.42,16.572,78.127,4.807,100.582-7.001c12.549-6.604,15.13-23.468,5.214-33.614
		l-7.973-8.161c0,0,3.093,27.711-24.074,35.025c-27.167,7.314-56.456,12.309-72.328-3.563
		C60.351,342.538,59.327,354.503,67.582,357.804z"/>
</g>
<path style="fill:#AD6332;" d="M274.808,14.388c-1.494,0.031-22.152,33.75-24.775,35.892c-0.084,0.063-0.146,0.104-0.188,0.104
	c-7.576,0.637-14.942,2.456-22.016,5.371c-1.944,0.794-3.866,1.672-5.768,2.623c-19.393,9.707-36.352,27.533-49.215,50.834
	c-6.071-1.358-12.507-1.839-19.195-1.285c-0.731,0.052-1.473,0.125-2.215,0.199c16.844-23.928,39.445-41.974,65.275-51.179
	c0.23-0.073,0.449-0.157,0.69-0.24c1.097-0.387,2.194-0.763,3.312-1.108c8.85-2.832,18.087-4.608,27.575-5.214
	C250.326,50.239,272.739,14.409,274.808,14.388z"/>
<g>
</g>
<g>
</g>
<g>
</g>
<g>
</g>
<g>
</g>
<g>
</g>
<g>
</g>
<g>
</g>
<g>
</g>
<g>
</g>
<g>
</g>
<g>
</g>
<g>
</g>
<g>
</g>
<g>
</g>
</svg>
