<?xml version="1.0" encoding="iso-8859-1"?>
<!-- Generator: Adobe Illustrator 19.0.0, SVG Export Plug-In . SVG Version: 6.00 Build 0)  -->
<svg version="1.1" id="Capa_1" xmlns="http://www.w3.org/2000/svg" xmlns:xlink="http://www.w3.org/1999/xlink" x="0px" y="0px"
	 viewBox="0 0 512 512" style="enable-background:new 0 0 512 512;" xml:space="preserve">
<path style="fill:#207084;" d="M512,256c0,13.605-1.066,26.958-3.114,39.988C489.691,418.377,383.781,512,256,512
	S22.309,418.377,3.114,295.988C1.066,282.958,0,269.605,0,256C0,114.615,114.615,0,256,0c42.026,0,81.701,10.125,116.694,28.076
	c13.155,6.76,25.663,14.618,37.376,23.458C471.98,98.262,512,172.46,512,256z"/>
<g>
	<path style="fill:#FCE690;" d="M89.532,248.653l-11.154-2.82c-4.174-1.055-7.434-4.314-8.49-8.49l-2.82-11.154
		c-0.728-2.879-4.818-2.879-5.545,0l-2.82,11.154c-1.055,4.174-4.314,7.434-8.49,8.49l-11.154,2.82
		c-2.879,0.727-2.879,4.818,0,5.545l11.154,2.82c4.174,1.055,7.434,4.314,8.49,8.49l2.82,11.154c0.727,2.879,4.818,2.879,5.545,0
		l2.82-11.154c1.055-4.174,4.314-7.434,8.49-8.49l11.154-2.82C92.411,253.471,92.411,249.381,89.532,248.653z"/>
	<path style="fill:#FCE690;" d="M483.729,183.198l-11.154-2.82c-4.174-1.055-7.434-4.314-8.49-8.49l-2.82-11.154
		c-0.728-2.879-4.818-2.879-5.545,0l-2.82,11.154c-1.055,4.174-4.314,7.434-8.49,8.49l-11.154,2.82
		c-2.879,0.728-2.879,4.818,0,5.545l11.154,2.82c4.174,1.055,7.434,4.314,8.49,8.49l2.82,11.154c0.728,2.879,4.818,2.879,5.545,0
		l2.82-11.154c1.055-4.174,4.314-7.434,8.49-8.49l11.154-2.82C486.608,188.015,486.608,183.925,483.729,183.198z"/>
	<path style="fill:#FCE690;" d="M164.22,68.081l-11.154-2.82c-4.174-1.055-7.434-4.314-8.49-8.49l-2.82-11.154
		c-0.728-2.879-4.818-2.879-5.545,0l-2.82,11.154c-1.055,4.174-4.314,7.434-8.49,8.49l-11.154,2.82
		c-2.879,0.727-2.879,4.818,0,5.545l11.154,2.82c4.174,1.055,7.434,4.314,8.49,8.49l2.82,11.154c0.728,2.879,4.818,2.879,5.545,0
		l2.82-11.154c1.055-4.174,4.314-7.434,8.49-8.49l11.154-2.82C167.099,72.899,167.099,68.81,164.22,68.081z"/>
</g>
<path style="fill:#E8E8E8;" d="M508.886,295.988C489.691,418.377,383.781,512,256,512S22.309,418.377,3.114,295.988H508.886z"/>
<path style="fill:#2B3035;" d="M439.745,434.26c-12.873,13.27-27.178,25.151-42.653,35.391C356.645,496.421,308.151,512,256.01,512
	s-100.634-15.59-141.093-42.36c-15.475-10.24-29.78-22.12-42.653-35.391c0.439-0.731,0.888-1.452,1.348-2.173
	c32.047-50.698,38.484-113.048,17.972-169.409c-6.781-18.651-10.48-38.787-10.48-59.789c0-97.019,78.984-175.585,176.17-174.895
	c94.898,0.669,172.523,77.918,173.631,172.816c0.251,22.173-3.615,43.416-10.898,62.997c-20.752,55.85-13.134,118.199,18.61,168.626
	C439.003,433.027,439.38,433.643,439.745,434.26z"/>
<path style="fill:#E6E6E6;" d="M397.302,462.023c0,2.56-0.073,5.099-0.209,7.628C356.645,496.421,308.151,512,256.01,512
	s-100.634-15.59-141.093-42.36c-0.157-2.936-0.219-5.883-0.199-8.861c0.199-23.092,5.935-44.857,15.956-64.042
	c18.108-34.701,20.281-75.358,8.129-112.567c-3.897-11.922-6.008-24.649-6.008-37.878v-35.223c0-37.439,30.636-69.078,68.075-68.932
	c0.836,0,1.661,0.021,2.487,0.052c21.953,0.878,39.09,19.372,39.09,41.326v17.398c0,7.576,6.207,13.709,13.814,13.563
	c7.471-0.136,13.312-6.541,13.312-14.012v-16.938c0-22.016,17.22-40.511,39.225-41.336c0.867-0.031,1.724-0.052,2.591-0.052
	c37.46,0,67.824,30.365,67.824,67.824c0,2.863-0.199,5.684-0.543,8.453l-2.288,35.694c-0.658,10.24-2.57,20.114-5.58,29.487
	c-11.839,36.906-8.923,77.176,9.54,111.261C391.158,414.835,397.302,437.708,397.302,462.023z"/>
<path style="fill:#D8A322;" d="M228.704,243.318c0,15.079,12.224,27.303,27.303,27.303c15.079,0,27.303-12.224,27.303-27.303
	c0-15.079-12.224-7.927-27.303-7.927S228.704,228.239,228.704,243.318z"/>
<g>
	<path style="fill:#CCCCCC;" d="M320.438,225.78c-14.959,0-27.129-12.17-27.129-27.129c0-12.244,8.252-23.016,20.067-26.193
		c2.312-0.621,4.687-0.935,7.061-0.935c14.959,0,27.129,12.17,27.129,27.129c0,2.374-0.315,4.748-0.934,7.056
		C343.454,217.528,332.683,225.78,320.438,225.78z"/>
	<path style="fill:#CCCCCC;" d="M191.576,225.78c-14.959,0-27.129-12.17-27.129-27.129c0-12.244,8.252-23.016,20.067-26.193
		c2.312-0.621,4.687-0.935,7.061-0.935c14.959,0,27.129,12.17,27.129,27.129c0,2.374-0.315,4.748-0.934,7.056
		C214.592,217.528,203.821,225.78,191.576,225.78z"/>
</g>
<g>
	<path style="fill:#0F0F0E;" d="M335.132,193c0,1.323-0.181,2.611-0.509,3.832c-1.684,6.262-7.393,10.863-14.186,10.863
		c-8.116,0-14.694-6.579-14.694-14.694c0-6.794,4.601-12.502,10.863-14.186c1.22-0.328,2.51-0.509,3.832-0.509
		C328.554,178.306,335.132,184.884,335.132,193z"/>
	<circle style="fill:#0F0F0E;" cx="191.572" cy="193.003" r="14.691"/>
</g>
<g>
	<path style="fill:#E6E6E6;" d="M335.132,193c0,1.323-0.181,2.611-0.509,3.832c-1.729,0.802-3.674,1.255-5.708,1.255
		c-7.494,0-13.564-6.07-13.564-13.564c0-2.034,0.452-3.979,1.255-5.708c1.22-0.328,2.51-0.509,3.832-0.509
		C328.554,178.306,335.132,184.884,335.132,193z"/>
	<path style="fill:#E6E6E6;" d="M206.271,193c0,1.323-0.181,2.611-0.509,3.832c-1.729,0.802-3.674,1.255-5.708,1.255
		c-7.494,0-13.564-6.07-13.564-13.564c0-2.034,0.452-3.979,1.255-5.708c1.22-0.328,2.51-0.509,3.832-0.509
		C199.693,178.306,206.271,184.884,206.271,193z"/>
</g>
<path style="fill:#EFBA29;" d="M291.048,237.087c0-19.353-15.688-35.041-35.041-35.041s-35.041,15.688-35.041,35.041
	s15.688,10.173,35.041,10.173S291.048,256.44,291.048,237.087z"/>
<path style="fill:#D8A322;" d="M236.954,237.087c0,7.064,1.139,10.334,3.093,11.619c-11.327,1.494-19.08,1.985-19.08-11.619
	c0-19.184,15.423-34.785,34.544-35.035C245.219,202.533,236.954,218.039,236.954,237.087z"/>
<g>
</g>
<g>
</g>
<g>
</g>
<g>
</g>
<g>
</g>
<g>
</g>
<g>
</g>
<g>
</g>
<g>
</g>
<g>
</g>
<g>
</g>
<g>
</g>
<g>
</g>
<g>
</g>
<g>
</g>
</svg>
