<?xml version="1.0" encoding="iso-8859-1"?>
<!-- Generator: Adobe Illustrator 19.0.0, SVG Export Plug-In . SVG Version: 6.00 Build 0)  -->
<svg version="1.1" id="Capa_1" xmlns="http://www.w3.org/2000/svg" xmlns:xlink="http://www.w3.org/1999/xlink" x="0px" y="0px"
	 viewBox="0 0 512 512" style="enable-background:new 0 0 512 512;" xml:space="preserve">
<path style="fill:#63CBFF;" d="M512,256c0,103.612-61.555,192.846-150.089,233.138C329.634,503.818,293.773,512,256,512
	c-2.967,0-5.925-0.052-8.861-0.157c-36.718-1.243-71.471-10.219-102.682-25.36C58.953,445.032,0,357.397,0,256
	C0,114.615,114.615,0,256,0S512,114.615,512,256z"/>
<g>
	<path style="fill:#4C8E37;" d="M441.002,217.95c-3.002,0-5.436,2.434-5.436,5.436v13.013h-8.895V214.82
		c0-5.186-4.204-9.389-9.389-9.389c-5.186,0-9.389,4.204-9.389,9.389v39.37H397.68v-13.013c0-3.003-2.435-5.437-5.436-5.437
		c-3.002,0-5.436,2.434-5.436,5.437v18.449c0,3.003,2.435,5.437,5.436,5.437h15.648v31.464c0,5.186,4.204,9.389,9.389,9.389
		s9.389-4.204,9.389-9.389v-49.254h14.331c3.002,0,5.436-2.434,5.436-5.436v-18.45C446.439,220.384,444.004,217.95,441.002,217.95z"
		/>
	<path style="fill:#4C8E37;" d="M32.377,235.164c3.026,0,5.48,2.453,5.48,5.482v13.12h10.296v-39.694
		c0-5.228,4.238-9.467,9.467-9.467s9.467,4.238,9.467,9.467v21.757h8.968v-13.12c0-3.027,2.454-5.48,5.48-5.48s5.48,2.453,5.48,5.48
		v18.601c0,3.027-2.454,5.48-5.48,5.48H67.088v28.113h5.738v-10.687c0-2.466,1.999-4.465,4.465-4.465s4.465,1.999,4.465,4.465
		v15.152c0,2.466-1.999,4.465-4.465,4.465H67.088v12.617c0,5.228-4.238,9.467-9.467,9.467s-9.467-4.239-9.467-9.467v-31.722H32.377
		c-3.026,0-5.48-2.453-5.48-5.48v-18.6C26.897,237.618,29.35,235.164,32.377,235.164z"/>
	<path style="fill:#4C8E37;" d="M465.63,296.818v25.799c0,4.252,3.447,7.699,7.699,7.699c4.252,0,7.699-3.447,7.699-7.699V282.23
		h11.751c2.462,0,4.458-1.996,4.458-4.458v-15.127c0-2.462-1.996-4.458-4.458-4.458s-4.458,1.996-4.458,4.458v10.671h-7.293v-17.694
		c0-4.252-3.447-7.699-7.699-7.699c-4.253,0-7.699,3.447-7.699,7.699v32.281"/>
	<path style="fill:#4C8E37;" d="M110.369,278.838v28.441c0,4.687,3.799,8.488,8.488,8.488c4.687,0,8.488-3.8,8.488-8.488v-44.523
		h12.955c2.714,0,4.914-2.199,4.914-4.914v-16.678c0-2.714-2.201-4.914-4.914-4.914c-2.714,0-4.914,2.2-4.914,4.914v11.763h-8.04
		v-19.506c0-4.687-3.8-8.488-8.488-8.488c-4.688,0-8.488,3.8-8.488,8.488v35.588"/>
</g>
<path style="fill:#DB7F45;" d="M508.876,295.988c-7.805,49.737-29.926,94.73-62.025,130.612
	c-15.997,17.899-34.482,33.531-54.909,46.352C352.549,497.695,305.946,512,255.99,512c-40.647,0-79.078-9.467-113.215-26.342
	c-14.211-7.011-27.669-15.308-40.239-24.733c-25.757-19.32-47.752-43.384-64.679-70.896c-4.775-7.743-9.153-15.767-13.082-24.033
	C14.378,344.179,6.98,320.669,3.103,295.988H508.876z"/>
<g>
	<path style="fill:#C46837;" d="M148.376,353.98c0,6.635-5.381,12.016-12.016,12.016h-25.6c-3.323,0-6.322,1.348-8.495,3.521
		c-2.173,2.173-3.521,5.172-3.521,8.495c0,6.635-5.381,12.016-12.016,12.016h-48.87c-4.775-7.743-9.153-15.767-13.082-24.033h20.679
		c3.323,0,6.322-1.348,8.495-3.521c2.173-2.173,3.521-5.172,3.521-8.495c0-6.635-5.381-12.016-12.016-12.016h-8.359
		c-3.323,0-6.322-1.348-8.495-3.521c-2.173-2.173-3.521-5.172-3.521-8.495c0-6.635,5.381-12.016,12.016-12.016h66.873
		c6.635,0,12.016,5.381,12.016,12.016c0,6.635,5.381,12.016,12.016,12.016h8.359c3.323,0,6.322,1.348,8.495,3.521
		C147.028,347.658,148.376,350.657,148.376,353.98z"/>
	<path style="fill:#C46837;" d="M448.958,345.831L448.958,345.831c0-6.636-5.38-12.016-12.016-12.016h-66.873
		c-6.636,0-12.016,5.38-12.016,12.016l0,0c0,6.636,5.38,12.016,12.016,12.016h8.359c6.636,0,12.016,5.38,12.016,12.016l0,0
		c0,6.636-5.38,12.016-12.016,12.016h-25.6c-6.636,0-12.016,5.38-12.016,12.016l0,0c0,6.636,5.38,12.016,12.016,12.016h66.873
		c6.636,0,12.016-5.38,12.016-12.016l0,0c0-6.636,5.38-12.016,12.016-12.016h25.6c6.636,0,12.016-5.38,12.016-12.016l0,0
		c0-6.636-5.38-12.016-12.016-12.016h-8.359C454.338,357.847,448.958,352.467,448.958,345.831z"/>
	<path style="fill:#C46837;" d="M198.186,451.365c0,6.635-5.381,12.016-12.016,12.016h-25.6c-3.312,0-6.322,1.348-8.495,3.521
		s-3.521,5.172-3.521,8.495c0,4.347-2.309,8.161-5.778,10.261c-14.211-7.011-27.669-15.308-40.239-24.733
		c0.428-0.324,0.836-0.679,1.223-1.066c2.173-2.173,3.521-5.172,3.521-8.495c0-6.635-5.381-12.016-12.016-12.016h-8.359
		c-3.312,0-6.322-1.348-8.495-3.521c-2.173-2.173-3.521-5.172-3.521-8.495c0-6.635,5.381-12.016,12.016-12.016h66.873
		c6.635,0,12.016,5.381,12.016,12.016s5.381,12.016,12.016,12.016h8.359c3.312,0,6.322,1.348,8.495,3.521
		C196.838,445.043,198.186,448.042,198.186,451.365z"/>
</g>
<g>
	<path style="fill:#CC8A5A;" d="M361.911,489.138C329.634,503.818,293.773,512,256,512c-2.967,0-5.925-0.052-8.861-0.157
		c-36.718-1.243-71.471-10.219-102.682-25.36l24.785-253.91l0.742-7.638h166.139l4.441,45.484l1.285,13.187l2.226,22.779
		l1.975,20.229L361.911,489.138z"/>
	<path style="fill:#CC8A5A;" d="M352.136,136.523c0.891,0.014,1.769-0.014,2.659-0.053c49.179-1.383,88.637-41.719,88.623-91.23
		v-8.352V13.24c0-8.132-7.289-14.409-15.308-13.054c-43.119,7.285-75.977,44.819-75.989,90.018L352.136,136.523z"/>
</g>
<path style="fill:#91420E;" d="M360.287,135.469c0.522,0.007,1.038-0.007,1.56-0.031c28.845-0.811,51.988-24.469,51.981-53.509
	V77.03V61.074c0-3.562-3.115-6.351-6.65-5.913c-26.427,3.276-46.891,25.822-46.898,53.139L360.287,135.469z"/>
<path style="fill:#BA784C;" d="M159.858,136.523c-0.891,0.014-1.769-0.014-2.659-0.053c-49.179-1.383-88.637-41.719-88.623-91.23
	v-8.352V13.24c0-8.132,7.289-14.409,15.308-13.054c43.119,7.285,75.977,44.819,75.989,90.018L159.858,136.523z"/>
<path style="fill:#91420E;" d="M151.707,135.469c-0.522,0.007-1.038-0.007-1.56-0.031c-28.845-0.811-51.988-24.469-51.981-53.509
	V77.03V61.074c0-3.562,3.115-6.351,6.65-5.913c26.427,3.276,46.891,25.822,46.898,53.139L151.707,135.469z"/>
<path style="fill:#BA784C;" d="M346.049,326.614c-4.221,19.425-12.434,47.741-18.474,47.741c-9.927,0,4.514-48.703-25.078-35.004
	c-29.592,13.699,3.657,47.02-5.224,55.902c-6.081,6.081-20.553-16.488-35.903-29.989c-5.872-5.162-14.754,1.055-11.985,8.37
	l7.544,19.999c1.881,4.995-3.375,9.686-8.119,7.252l-11.839-6.071c-4.974-2.55-10.344,2.685-7.92,7.722l26.29,54.596
	c2.351,4.901-2.685,10.083-7.649,7.858l-20.313-9.122c-5.151-2.309-10.25,3.302-7.461,8.213l27.22,47.762
	c-36.718-1.243-71.471-10.219-102.682-25.36l24.785-253.91l51.231,64.46l17.021,45.108c7.973-22.904,35.547-65.682,35.547-65.682
	l56.519-8.756l11.003,2.717l1.285,13.187l2.226,22.779L346.049,326.614z"/>
<path style="fill:#CC8A5A;" d="M390.375,149.952c0,12.267-2.529,24.054-7.21,35.067c-4.524,10.689-11.076,20.637-19.278,29.55
	c-4.493,4.88-7.523,11.045-8.453,17.763c-0.031,0.23-0.063,0.449-0.104,0.679c-9.383,66.278-51.607,116.287-102.275,116.287
	s-92.891-50.009-102.275-116.287c-0.042-0.23-0.073-0.449-0.105-0.679c-0.93-6.719-3.96-12.884-8.453-17.763
	c-8.202-8.913-14.754-18.86-19.278-29.55c-4.681-11.013-7.21-22.8-7.21-35.067c0-60.426,61.482-109.422,137.32-109.422
	S390.375,89.526,390.375,149.952z"/>
<g>
	<path style="fill:#BA784C;" d="M253.054,349.298c-50.667,0-92.891-50.009-102.275-116.287c-0.042-0.23-0.073-0.449-0.105-0.679
		c-0.93-6.719-3.96-12.884-8.453-17.763c-8.202-8.913-14.754-18.86-19.278-29.55c-4.681-11.013-7.21-22.8-7.21-35.067
		c0-60.426,61.482-109.422,137.32-109.422c-52.799,0-95.608,48.995-95.608,109.422c0,12.267,1.755,24.054,5.016,35.067
		c3.156,10.689,7.711,20.637,13.427,29.55c3.124,4.88,5.235,11.045,5.883,17.763c0.021,0.23,0.042,0.449,0.073,0.679
		C188.375,299.289,217.779,349.298,253.054,349.298z"/>
	<circle style="fill:#BA784C;" cx="253.053" cy="302.038" r="35.579"/>
</g>
<path style="fill:#DDCE93;" d="M329.853,255.446c0,35.495-25.381,65.223-59.434,72.882c-4.232,0.951-8.338-0.993-11.128-4.712
	c-0.502-0.679-0.972-1.411-1.379-2.205c-0.92-1.776-1.588-3.824-1.923-6.05c-0.982-6.771-2.142-13.322-2.936-13.322
	c-0.784,0-1.954,6.552-2.936,13.322c-0.324,2.226-0.993,4.274-1.923,6.05c-0.408,0.794-0.878,1.526-1.379,2.205
	c-2.79,3.72-6.896,5.663-11.118,4.712c-34.064-7.659-59.444-37.386-59.444-72.882c0-12.873,3.344-24.984,9.216-35.558
	c5.757-10.355,9.947-21.943,12.455-34.252c7.879-38.672,29.581-66.456,55.129-66.456c25.558,0,47.261,27.784,55.129,66.456
	c2.508,12.309,6.698,23.897,12.455,34.252C326.52,230.463,329.853,242.573,329.853,255.446z"/>
<g>
	<path style="fill:#BA784C;" d="M383.165,185.019c-4.524,10.689-11.076,20.637-19.278,29.55c-4.493,4.88-7.523,11.045-8.453,17.763
		c-0.031,0.23-0.063,0.449-0.104,0.679c-18.108-14.911-44.178-28.453-16.948-31.566C355.987,199.428,371.65,192.093,383.165,185.019
		z"/>
	<path style="fill:#BA784C;" d="M150.78,233.011c-0.042-0.23-0.073-0.449-0.105-0.679c-0.93-6.719-3.96-12.884-8.453-17.763
		c-8.202-8.913-14.754-18.86-19.278-29.55c11.515,7.074,27.178,14.409,44.784,16.426C194.958,204.559,168.888,218.1,150.78,233.011z
		"/>
</g>
<path style="fill:#4D4445;" d="M277.891,274.108c0,5.684-4.441,12.758-11.18,17.199c-4.723,3.114-7.419,8.516-7.419,14.169v18.139
	c-0.502-0.679-0.972-1.411-1.379-2.205c-0.919-1.776-1.588-3.824-1.923-6.05c-0.009-0.068-0.02-0.136-0.029-0.203
	c-0.492-3.326-5.321-3.326-5.813,0c-0.01,0.068-0.02,0.136-0.029,0.203c-0.324,2.226-0.993,4.274-1.923,6.05
	c-0.408,0.794-0.878,1.526-1.379,2.205v-18.139c0-5.653-2.696-11.055-7.419-14.169c-6.729-4.43-11.18-11.515-11.18-17.199
	c0-9.007,11.118,4.545,24.837,4.545C266.773,278.653,277.891,265.101,277.891,274.108z"/>
<path style="fill:#0F0F0E;" d="M380.753,182.475c0,1.866-0.255,3.684-0.718,5.407c-2.376,8.836-10.431,15.328-20.016,15.328
	c-11.452,0-20.734-9.283-20.734-20.734c0-9.586,6.491-17.64,15.328-20.016c1.723-0.463,3.541-0.718,5.407-0.718
	C371.472,161.741,380.753,171.024,380.753,182.475z"/>
<path style="fill:#E6E6E6;" d="M380.753,182.475c0,1.866-0.255,3.684-0.718,5.407c-2.44,1.133-5.184,1.77-8.054,1.77
	c-10.574,0-19.139-8.565-19.139-19.139c0-2.871,0.638-5.614,1.77-8.054c1.723-0.463,3.541-0.718,5.407-0.718
	C371.472,161.741,380.753,171.024,380.753,182.475z"/>
<path style="fill:#0F0F0E;" d="M166.824,182.475c0,1.866-0.255,3.684-0.718,5.407c-2.376,8.836-10.431,15.328-20.016,15.328
	c-11.452,0-20.734-9.283-20.734-20.734c0-9.586,6.491-17.64,15.328-20.016c1.723-0.463,3.541-0.718,5.407-0.718
	C157.541,161.741,166.824,171.024,166.824,182.475z"/>
<path style="fill:#E6E6E6;" d="M166.824,182.475c0,1.866-0.255,3.684-0.718,5.407c-2.44,1.133-5.184,1.77-8.054,1.77
	c-10.574,0-19.139-8.565-19.139-19.139c0-2.871,0.638-5.614,1.77-8.054c1.723-0.463,3.541-0.718,5.407-0.718
	C157.541,161.741,166.824,171.024,166.824,182.475z"/>
<path style="fill:#CCBB87;" d="M204.989,255.445c0,0,9.927-33.102,56.947-33.102c0,0-15.64-5.894-32.127-7.718
	c-8.673-0.959-14.654-9.104-13.037-17.68c0.696-3.688,1.289-7.464,1.779-11.31c4.932-38.672,18.505-66.456,34.503-66.456
	c-25.558,0-47.261,27.784-55.129,66.456c-2.508,12.309-6.698,23.897-12.455,34.252c-5.872,10.574-9.216,22.685-9.216,35.558
	c0,35.495,25.381,65.223,59.434,72.882c1.902,0.428,3.772,0.272,5.517-0.376C220.38,319.748,204.989,290.387,204.989,255.445z"/>
<g>
</g>
<g>
</g>
<g>
</g>
<g>
</g>
<g>
</g>
<g>
</g>
<g>
</g>
<g>
</g>
<g>
</g>
<g>
</g>
<g>
</g>
<g>
</g>
<g>
</g>
<g>
</g>
<g>
</g>
</svg>
