<?xml version="1.0" encoding="iso-8859-1"?>
<!-- Generator: Adobe Illustrator 19.0.0, SVG Export Plug-In . SVG Version: 6.00 Build 0)  -->
<svg version="1.1" id="Capa_1" xmlns="http://www.w3.org/2000/svg" xmlns:xlink="http://www.w3.org/1999/xlink" x="0px" y="0px"
	 viewBox="0 0 512 512" style="enable-background:new 0 0 512 512;" xml:space="preserve">
<path style="fill:#63CBFF;" d="M512,256c0,18.233-1.912,36.028-5.538,53.185c-3.803,18.035-9.519,35.359-16.906,51.775
	c-12.184,27.094-28.965,51.681-49.34,72.777c-3.208,3.333-6.51,6.583-9.906,9.738c-9.07,8.432-18.745,16.227-28.965,23.28
	C360.061,495.292,309.979,512,256,512s-104.061-16.708-145.345-45.244c-10.219-7.053-19.895-14.848-28.965-23.28
	c-3.396-3.156-6.698-6.405-9.906-9.738c-5.904-6.102-11.504-12.507-16.771-19.174c-7.231-9.143-13.845-18.798-19.79-28.891
	c-4.692-7.973-8.965-16.217-12.779-24.712c-7.387-16.415-13.103-33.74-16.906-51.775C1.912,292.028,0,274.233,0,256
	c0-3.532,0.073-7.043,0.219-10.543c1.578-38.954,11.86-75.661,28.954-108.231C71.962,55.651,157.487,0,256,0
	s184.038,55.651,226.826,137.226c17.095,32.569,27.376,69.277,28.954,108.231C511.927,248.957,512,252.468,512,256z"/>
<g>
	<path style="fill:#427A2D;" d="M512,256c0,18.233-1.912,36.028-5.538,53.185h-77.73c-8.579,0-12.873-10.365-6.802-16.436
		l29.257-29.257c1.954-1.964,2.832-4.378,2.832-6.74c0-4.953-3.835-9.697-9.644-9.697c-8.579,0-12.873-10.376-6.802-16.436
		l22.695-22.695c6.06-6.071,1.766-16.447-6.813-16.447h-1.641c-8.579,0-12.873-10.365-6.813-16.436l37.825-37.815
		c17.095,32.569,27.376,69.277,28.954,108.231C511.927,248.957,512,252.468,512,256z"/>
	<path style="fill:#427A2D;" d="M83.268,309.185H5.538C1.912,292.028,0,274.233,0,256c0-3.532,0.073-7.043,0.219-10.543
		c1.578-38.954,11.86-75.661,28.954-108.231l37.825,37.815c6.06,6.071,1.766,16.436-6.813,16.436h-1.64
		c-8.579,0-12.873,10.376-6.813,16.447l22.695,22.695c1.964,1.964,2.842,4.378,2.842,6.74c0,4.953-3.845,9.697-9.644,9.697
		c-8.579,0-12.873,10.365-6.813,16.436l29.257,29.257C96.141,298.82,91.847,309.185,83.268,309.185z"/>
</g>
<path style="fill:#4C8E37;" d="M489.556,360.96c-12.184,27.094-28.965,51.681-49.34,72.777H71.784
	c-5.904-6.102-11.504-12.507-16.771-19.174v-28.891h-19.79c-4.692-7.973-8.965-16.217-12.779-24.712l20.982-20.992
	c1.964-1.964,2.842-4.368,2.842-6.729c0-4.953-3.845-9.707-9.655-9.707c-8.579,0-12.873-10.376-6.802-16.436L52.506,284.4
	c6.06-6.071,1.766-16.436-6.813-16.436h-1.64c-8.579,0-12.873-10.376-6.813-16.436l54.439-54.439c3.762-3.762,9.853-3.762,13.615,0
	l54.439,54.439c6.071,6.06,1.766,16.436-6.813,16.436h-1.641c-8.579,0-12.873,10.365-6.802,16.436l22.695,22.695
	c1.954,1.954,2.832,4.368,2.832,6.729c0,4.953-3.835,9.707-9.644,9.707c-8.579,0-12.873,10.376-6.813,16.436l23.301,23.301
	l23.301-23.301c6.071-6.06,1.776-16.436-6.802-16.436s-12.873-10.376-6.813-16.436L209.23,284.4
	c6.071-6.071,1.766-16.436-6.813-16.436h-1.64c-8.579,0-12.873-10.376-6.802-16.436l54.429-54.439c3.762-3.762,9.864-3.762,13.625,0
	l54.429,54.439c6.071,6.06,1.776,16.436-6.802,16.436h-1.64c-8.579,0-12.884,10.365-6.813,16.436l22.695,22.695
	c1.954,1.954,2.832,4.368,2.832,6.729c0,4.953-3.835,9.707-9.644,9.707c-8.579,0-12.873,10.376-6.802,16.436l24.085,24.085
	l24.085-24.085c1.954-1.954,2.832-4.368,2.832-6.729c0-4.953-3.835-9.707-9.644-9.707c-8.579,0-12.873-10.376-6.813-16.436
	l22.695-22.695c6.071-6.071,1.776-16.436-6.802-16.436h-1.641c-8.579,0-12.884-10.376-6.813-16.436l54.439-54.439
	c3.762-3.762,9.853-3.762,13.615,0l54.439,54.439c6.06,6.06,1.766,16.436-6.813,16.436h-1.641c-8.579,0-12.873,10.365-6.813,16.436
	l22.695,22.695c1.964,1.964,2.842,4.378,2.842,6.74c0,4.953-3.845,9.697-9.644,9.697c-8.579,0-12.884,10.376-6.813,16.436
	L489.556,360.96z"/>
<path style="fill:#69AF54;" d="M512,256c0,74.041-31.431,140.737-81.69,187.476c-9.07,8.432-18.745,16.227-28.965,23.28
	C360.061,495.292,309.979,512,256,512s-104.061-16.708-145.345-45.244c-10.219-7.053-19.895-14.848-28.965-23.28
	C31.431,396.737,0,330.041,0,256c0-3.532,0.073-7.043,0.219-10.543l12.319-12.319c3.751-3.762,9.853-3.762,13.615,0l54.429,54.439
	c6.071,6.06,1.776,16.436-6.802,16.436h-1.64c-8.579,0-12.873,10.365-6.813,16.436l22.695,22.695
	c1.964,1.964,2.842,4.368,2.842,6.729c0,4.953-3.845,9.707-9.655,9.707c-8.579,0-12.873,10.376-6.802,16.436l24.085,24.085
	l24.085-24.085c1.954-1.954,2.832-4.368,2.832-6.729c0-4.953-3.835-9.707-9.644-9.707c-8.579,0-12.873-10.376-6.813-16.436
	l22.695-22.695c6.071-6.071,1.776-16.436-6.802-16.436h-1.64c-8.579,0-12.873-10.376-6.813-16.436l54.439-54.439
	c3.762-3.762,9.853-3.762,13.615,0l54.439,54.439c6.06,6.06,1.766,16.436-6.813,16.436h-1.641c-8.579,0-12.873,10.365-6.813,16.436
	l22.695,22.695c1.964,1.964,2.842,4.378,2.842,6.74c0,4.953-3.845,9.697-9.644,9.697c-8.579,0-12.884,10.376-6.813,16.436
	L256,399.318l23.301-23.301c1.964-1.964,2.842-4.368,2.842-6.729c0-4.953-3.845-9.707-9.655-9.707
	c-8.579,0-12.873-10.376-6.802-16.436l22.695-22.695c6.06-6.071,1.766-16.436-6.813-16.436h-1.641
	c-8.579,0-12.873-10.376-6.813-16.436l54.439-54.439c3.762-3.762,9.853-3.762,13.615,0l54.439,54.439
	c6.06,6.06,1.766,16.436-6.813,16.436h-1.64c-8.579,0-12.873,10.365-6.802,16.436l22.695,22.695
	c1.954,1.954,2.832,4.368,2.832,6.729c0,4.953-3.835,9.707-9.644,9.707c-8.579,0-12.873,10.376-6.813,16.436l24.085,24.085
	l24.085-24.085c1.964-1.964,2.842-4.378,2.842-6.74c0-4.953-3.845-9.697-9.644-9.697c-8.579,0-12.884-10.376-6.813-16.436
	l22.695-22.695c6.06-6.071,1.766-16.436-6.813-16.436h-1.641c-8.579,0-12.873-10.376-6.802-16.436l54.429-54.439
	c3.762-3.762,9.864-3.762,13.615,0l12.319,12.319C511.927,248.957,512,252.468,512,256z"/>
<path style="fill:#998888;" d="M401.345,466.756C360.061,495.292,309.979,512,256,512c-25.913,0-50.928-3.856-74.501-11.013
	c-25.537-7.753-49.382-19.393-70.844-34.231c-1.327-99.924,36.979-157.184,36.979-157.184h216.722
	C364.356,309.572,402.672,366.832,401.345,466.756z"/>
<path style="fill:#807272;" d="M181.499,500.987c-25.537-7.753-49.382-19.393-70.844-34.231
	c-1.327-99.924,36.979-157.184,36.979-157.184h52.684l12.842,19.853C213.159,329.425,177.695,388.807,181.499,500.987z"/>
<path style="fill:#E6E6E6;" d="M331.129,432.369l-14.562-14.562c-3.934-3.934-10.603-2.586-12.688,2.57
	c-5.774,14.273-17.095,39.891-31.776,61.518c-3.373,4.979-6.928,9.743-10.636,14.109c-3.291,3.876-9.302,3.908-12.594,0.032
	c-19.834-23.346-35.337-58.092-42.444-75.659c-2.087-5.158-8.754-6.506-12.689-2.571l-14.563,14.563
	c-4.029,4.029-10.852,2.895-13.325-2.238c-23.226-48.214,0.205-92.726,9.44-107.248c2.038-3.208,3.385-4.953,3.385-4.953H331.63
	c0,0,41.145,53.302,12.856,112.135C342.004,435.228,335.179,436.419,331.129,432.369z"/>
<path style="fill:#CCCCCC;" d="M178.678,317.931l0.206,6.681l-3.591-1.728c-9.236,14.522-32.666,59.035-9.44,107.248
	c2.472,5.133,9.296,6.266,13.325,2.238l14.563-14.563c3.934-3.934,10.603-2.586,12.689,2.571
	c7.105,17.567,22.61,52.313,42.444,75.659c3.292,3.876,9.302,3.843,12.594-0.032c3.708-4.367,7.263-9.129,10.636-14.109
	l-10.838-23.152c-2.052-4.384-8.295-4.337-10.288,0.059c-1.495,3.298-6.019,3.634-7.897,0.538
	c-14.475-23.847-23.211-55.425-26.869-70.707c-0.632-2.642,2.605-4.443,4.525-2.522l11.793,11.793
	c1.772,1.772,4.793,0.375,4.588-2.123l-1.789-21.891c-0.363-4.44,5.703-6.063,7.616-2.04c5.812,12.221,11.443,20.693,14.884,25.368
	c1.583,2.15,4.825,2.035,6.25-0.223l20.465-32.462c2.023-3.209,6.983-1.775,6.983,2.018v3.596c0,5.429,6.89,7.751,10.176,3.429
	c11.315-14.884,25.35-35.793,25.35-35.793L178.678,317.931z"/>
<path style="fill:#E6E6E6;" d="M176.564,380.579c0.669,3.475,1.819,7.967,3.798,13.093c1.39,3.6,6.736,2.678,6.886-1.179
	l0.753-19.454c0.133-3.438-3.653-5.606-6.55-3.751l0,0C177.673,371.707,175.716,376.175,176.564,380.579z"/>
<path style="fill:#998888;" d="M393.177,329.895l-29.853,9.697l-2.978,0.972l-87.458,28.432c-5.298,1.724-10.773,2.612-16.269,2.664
	c-0.408,0.01-0.815,0.01-1.233,0c-5.496-0.052-10.992-0.94-16.269-2.664l-69.193-22.486l-18.265-5.935l-2.999-0.972l-29.832-9.697
	c-22.434-7.293-36.101-29.936-32.099-53.164l4.106-23.918l0.219-1.285l10.553-61.45c1.964-11.358,5.12-22.329,9.373-32.758
	l39.403-44.826l9.341-10.627l6.29-7.158c10.303-11.724,23.353-20.762,38.076-25.924c0.094-0.031,0.178-0.063,0.272-0.094
	c16.697-5.851,34.189-8.767,51.628-8.767h0.01c17.471,0,34.91,2.915,51.639,8.767c0.105,0.031,0.209,0.073,0.303,0.104
	C322.657,73.979,335.708,83.017,346,94.73l6.259,7.126l9.55,10.867l39.215,44.607c4.263,10.428,7.419,21.4,9.383,32.758
	l6.771,39.487l0.021,0.084l3.971,23.165l3.218,18.735l0.888,5.183C429.268,299.969,415.601,322.612,393.177,329.895z"/>
<path style="fill:#807272;" d="M244.512,368.995c3.5,1.672,7.126,2.56,10.752,2.664c-5.465-0.063-10.909-0.951-16.154-2.664
	l-87.458-28.421l-32.831-10.668c-22.424-7.293-36.101-29.936-32.099-53.164l14.879-86.653c1.964-11.358,5.12-22.329,9.373-32.758
	l55.054-62.624c10.292-11.708,23.337-20.743,38.046-25.905c0.095-0.033,0.189-0.066,0.284-0.099
	c16.708-5.851,34.189-8.767,51.628-8.767c-11.87,0-23.751,2.915-35.119,8.767c-6.134,3.145-69.851,56.454-69.851,121.041
	l-0.031,0.345l-10.125,86.653c-2.727,23.228,6.583,45.871,21.828,53.164l22.34,10.668L244.512,368.995z"/>
<path style="fill:#665B5B;" d="M226.746,237.474l-12.455,117.081l-0.658,6.154l-43.708-14.2l-18.265-5.935l-2.999-0.972
	l-29.832-9.697c-22.434-7.293-36.101-29.936-32.099-53.164l4.106-23.918l0.219-1.285c19.54-20.553,41.336-41.096,58.723-51.179
	c4.786-2.779,9.247-4.765,13.228-5.726C201.668,185.229,226.746,237.474,226.746,237.474z"/>
<path style="fill:#4D4445;" d="M214.291,354.555l-0.658,6.154l-43.708-14.2l-18.265-5.935l-2.999-0.972l-29.832-9.697
	c-22.434-7.293-36.101-29.936-32.099-53.164l4.106-23.918l0.219-1.285c19.54-20.553,41.336-41.096,58.723-51.179l-8.923,76.382
	c-2.727,23.228,6.583,45.871,21.828,53.164l22.34,10.668L214.291,354.555z"/>
<path style="fill:#665B5B;" d="M285.26,237.474l13.113,123.235l43.708-14.2l18.265-5.935l2.999-0.972l29.832-9.697
	c22.434-7.293,36.101-29.936,32.099-53.164l-4.106-23.918l-0.219-1.285c-24.921-26.216-53.53-52.423-71.952-56.905
	C310.338,185.229,285.26,237.474,285.26,237.474z"/>
<path style="fill:#E6E6E6;" d="M304.741,270.792c39.318,19.037,35.178,76.41-6.367,89.918l-25.485,8.286
	c-5.298,1.724-10.773,2.612-16.269,2.664c-0.408,0.01-0.815,0.01-1.233,0c-5.496-0.052-10.992-0.94-16.269-2.664l-25.488-8.282
	c-41.551-13.501-45.697-70.882-6.374-89.921c14.736-7.135,31.274-11.135,48.747-11.135
	C273.472,259.657,290.006,263.657,304.741,270.792z"/>
<path style="fill:#CCCCCC;" d="M255.573,371.657c-0.063,0.01-0.125,0-0.188,0c-5.496-0.052-10.992-0.94-16.269-2.664l-25.485-8.276
	c-41.556-13.5-45.704-70.886-6.374-89.924c14.409-6.98,30.563-10.961,47.616-11.128c-11.598,0.24-22.57,4.211-32.381,11.128
	c-27.031,19.038-24.179,76.424,4.378,89.924l17.523,8.276C248.018,370.716,251.801,371.604,255.573,371.657z"/>
<line style="fill:none;stroke:#0F0F0E;stroke-width:13;stroke-linejoin:round;stroke-miterlimit:10;" x1="378.556" y1="119.066" x2="378.556" y2="119.045"/>
<path style="fill:#0F0F0E;" d="M291.242,285.267c0,12.774-15.78,30.473-35.245,30.473s-35.245-17.699-35.245-30.473
	s15.78-15.786,35.245-15.786S291.242,272.493,291.242,285.267z"/>
<path style="fill:#998888;" d="M422.539,35.657c0,0,46.461,100.685-40.668,145.224l-0.011-0.011
	c-0.365-0.719-28.837-35.228-11.047-71.639c9.554-19.549,37.097-49.47,50.476-73.242C421.698,35.879,422.107,35.779,422.539,35.657z
	"/>
<path style="fill:#E6E6E6;" d="M395.093,67.157c0,0,18.111,12.539,9.056,52.245c-9.056,39.706-33.618,47.53-33.618,47.53
	l-25.594-34.992"/>
<g>
	<path style="fill:#807272;" d="M421.289,35.989c-13.379,23.772-29.865,53.693-39.419,73.242
		c-9.603,19.653-8.948,38.753-6.255,52.284c0.882,4.429-4.678,7.174-7.693,3.811l-21.393-23.86
		c-12.207-13.615-14.87-33.437-6.312-49.597C350.505,72.443,372.851,49.139,421.289,35.989z"/>
	<path style="fill:#807272;" d="M89.455,35.657c0,0-46.461,100.685,40.668,145.224l0.011-0.011
		c0.365-0.719,28.837-35.228,11.047-71.639c-9.553-19.549-37.097-49.47-50.476-73.242C90.295,35.879,89.886,35.779,89.455,35.657z"
		/>
</g>
<path style="fill:#CCCCCC;" d="M116.9,67.157c0,0-18.111,12.539-9.056,52.245c6.726,29.49,22.005,41.394,29.422,45.567
	c2.569,1.446,7.281-28.316,7.281-11.783l14.911-28.842"/>
<path style="fill:#807272;" d="M90.704,35.989c13.379,23.772,29.865,53.693,39.419,73.242c17.79,36.411,0.376,70.92,0.011,71.639
	l23.469-35.348c10.011-11.166,26.959-33.799,21.068-47.591c-0.066-0.154-0.132-0.308-0.2-0.463
	C165.628,77.121,143.901,50.431,90.704,35.989z"/>
<g>
	<path style="fill:#4D4445;" d="M339.07,261.507c-13.828,0-25.078-11.249-25.078-25.078c0-11.319,7.628-21.275,18.55-24.213
		c2.138-0.574,4.332-0.864,6.527-0.864c13.828,0,25.078,11.249,25.078,25.078c0,2.194-0.29,4.389-0.864,6.523
		C360.346,253.879,350.389,261.507,339.07,261.507z"/>
	<path style="fill:#4D4445;" d="M172.926,261.507c-13.828,0-25.078-11.249-25.078-25.078c0-11.319,7.628-21.275,18.55-24.213
		c2.138-0.574,4.332-0.864,6.527-0.864c13.828,0,25.078,11.249,25.078,25.078c0,2.194-0.29,4.389-0.864,6.523
		C194.203,253.879,184.246,261.507,172.926,261.507z"/>
</g>
<g>
	<path style="fill:#0F0F0E;" d="M352.654,231.205c0,1.223-0.167,2.414-0.47,3.542c-1.557,5.789-6.834,10.041-13.113,10.041
		c-7.502,0-13.584-6.081-13.584-13.584c0-6.28,4.253-11.557,10.041-13.113c1.128-0.303,2.32-0.47,3.542-0.47
		C346.573,217.621,352.654,223.702,352.654,231.205z"/>
	<circle style="fill:#0F0F0E;" cx="172.931" cy="231.205" r="13.584"/>
</g>
<g>
	<path style="fill:#E6E6E6;" d="M352.654,231.205c0,1.223-0.167,2.414-0.47,3.542c-1.599,0.742-3.396,1.16-5.277,1.16
		c-6.928,0-12.539-5.611-12.539-12.539c0-1.881,0.418-3.678,1.16-5.277c1.128-0.303,2.32-0.47,3.542-0.47
		C346.573,217.621,352.654,223.702,352.654,231.205z"/>
	<path style="fill:#E6E6E6;" d="M186.51,231.205c0,1.223-0.167,2.414-0.47,3.542c-1.599,0.742-3.396,1.16-5.277,1.16
		c-6.928,0-12.539-5.611-12.539-12.539c0-1.881,0.418-3.678,1.16-5.277c1.128-0.303,2.32-0.47,3.542-0.47
		C180.429,217.621,186.51,223.702,186.51,231.205z"/>
</g>
<circle style="fill:#807272;" cx="273.763" cy="283.972" r="9.404"/>
<g>
	<path style="fill:#E6E6E6;" d="M424.388,271.559c-11.274-13.824-67.25-80.238-96.287-72.746
		c-32.392,8.359-25.663,70.896-25.663,70.896l-27.042-8.37c0,0,5.684-78.2,43.301-88.649c37.616-10.449,98.482,56.884,98.482,56.884
		l0.021,0.084l3.971,23.165L424.388,271.559z"/>
	<path style="fill:#E6E6E6;" d="M209.568,269.709c0,0,6.729-62.537-25.663-70.896c-9.686-2.497-22.382,3.229-35.401,12.487
		c-26.018,18.484-53.373,51.043-60.886,60.259l3.218-18.735l3.971-23.165l0.021-0.084c0,0,27.178-30.062,56.435-46.895
		c14.524-8.359,29.56-13.458,42.047-9.989c37.616,10.449,43.301,88.649,43.301,88.649L209.568,269.709z"/>
</g>
<path style="fill:#CCCCCC;" d="M151.263,182.68c-0.167,2.341-0.251,4.692-0.251,7.064l-0.031,0.345l-2.476,21.211
	c-26.018,18.484-53.373,51.043-60.886,60.259l3.218-18.735l3.971-23.165l0.021-0.084C94.828,229.575,122.005,199.513,151.263,182.68
	z"/>
<g>
</g>
<g>
</g>
<g>
</g>
<g>
</g>
<g>
</g>
<g>
</g>
<g>
</g>
<g>
</g>
<g>
</g>
<g>
</g>
<g>
</g>
<g>
</g>
<g>
</g>
<g>
</g>
<g>
</g>
</svg>
