<?xml version="1.0" encoding="iso-8859-1"?>
<!-- Generator: Adobe Illustrator 19.0.0, SVG Export Plug-In . SVG Version: 6.00 Build 0)  -->
<svg version="1.1" id="Capa_1" xmlns="http://www.w3.org/2000/svg" xmlns:xlink="http://www.w3.org/1999/xlink" x="0px" y="0px"
	 viewBox="0 0 512 512" style="enable-background:new 0 0 512 512;" xml:space="preserve">
<path style="fill:#63CBFF;" d="M512,256c0,141.385-114.615,256-256,256S0,397.385,0,256c0-11.274,0.731-22.382,2.152-33.27
	C18.453,97.061,125.889,0,256,0c127.812,0,233.754,93.675,252.907,216.116C510.945,229.115,512,242.437,512,256z"/>
<path style="fill:#556F7C;" d="M512,256c0,141.385-114.615,256-256,256S0,397.385,0,256c0-11.274,0.731-22.382,2.152-33.27
	C55.4,172.178,126.527,139.4,206.461,135.367c35.109-1.787,70.228-1.787,105.326,0c76.382,3.866,144.729,33.97,197.12,80.75
	C510.945,229.115,512,242.437,512,256z"/>
<path style="fill:#D3D3D3;" d="M401.238,408.837c0,16.185-6.844,29.832-16.196,34.126c-1.985,0.909-4.096,1.4-6.269,1.4
	c-12.403,0-22.465-15.903-22.465-35.527c0-19.623,10.062-35.527,22.465-35.527c2.173,0,4.284,0.491,6.269,1.4
	C394.394,379.005,401.238,392.652,401.238,408.837z"/>
<path style="fill:#E6E6E6;" d="M401.238,408.837c0,16.185-6.844,29.832-16.196,34.126c-9.352-4.295-16.196-17.941-16.196-34.126
	s6.844-29.832,16.196-34.126C394.394,379.005,401.238,392.652,401.238,408.837z"/>
<path style="fill:#D3D3D3;" d="M155.687,408.837c0,16.185-6.844,29.832-16.196,34.126c-1.985,0.909-4.096,1.4-6.269,1.4
	c-12.403,0-22.465-15.903-22.465-35.527c0-19.623,10.062-35.527,22.465-35.527c2.173,0,4.284,0.491,6.269,1.4
	C148.843,379.005,155.687,392.652,155.687,408.837z"/>
<path style="fill:#E6E6E6;" d="M155.687,408.837c0,16.185-6.844,29.832-16.196,34.126c-9.352-4.295-16.196-17.941-16.196-34.126
	s6.844-29.832,16.196-34.126C148.843,379.005,155.687,392.652,155.687,408.837z"/>
<path style="fill:#7A98AF;" d="M442.948,33.14L442.948,33.14c-9.589-9.589-25.137-9.589-34.726,0l-45.439,45.439l34.726,34.726
	l45.439-45.439C452.538,58.277,452.538,42.729,442.948,33.14z"/>
<path style="fill:#556F7C;" d="M417.294,58.794L417.294,58.794c-5.672-5.672-14.869-5.672-20.541,0l-26.878,26.878l20.541,20.541
	l26.878-26.878C422.966,73.663,422.966,64.467,417.294,58.794z"/>
<path style="fill:#6A889B;" d="M75.313,33.14L75.313,33.14c9.589-9.589,25.137-9.589,34.726,0l45.439,45.439l-34.726,34.726
	L75.313,67.866C65.723,58.277,65.723,42.729,75.313,33.14z"/>
<path style="fill:#556F7C;" d="M100.967,58.794L100.967,58.794c5.672-5.672,14.869-5.672,20.541,0l26.878,26.878l-20.541,20.541
	l-26.878-26.878C95.295,73.663,95.295,64.467,100.967,58.794z"/>
<path style="fill:#7A98AF;" d="M438.864,201.026c-0.428,4.932-1.087,9.906-1.985,14.89c-0.93,5.12-2.006,10.24-3.229,15.36
	c-8.861,36.854-38.567,65.223-75.818,72.192c-65.808,12.309-131.605,12.309-197.402,0c-37.261-6.969-66.968-35.338-75.818-72.192
	c-1.233-5.12-2.309-10.24-3.229-15.36c-1.212-6.687-1.985-13.333-2.341-19.926C74.247,108.406,142.27,31.637,232.455,27.082
	c17.784-0.909,35.568-0.909,53.342,0C377.707,31.731,446.597,111.374,438.864,201.026z"/>
<g>
	<path style="fill:#6A889B;" d="M392.983,179.647c-68.177-8.23-136.354-10.31-204.531-6.251
		c-25.923,1.543-45.946-22.872-39.011-47.897c0.75-2.707,1.549-5.379,2.393-8.012c8.047-25.09,31.564-41.975,57.912-41.975h68.576
		c8.205,0,9.602-11.474,1.623-13.339c-18.43-4.31-37.197-6.767-56.014-7.382c-12.574-0.412-15.679-17.884-4.005-22.575
		c6.973-2.801,14.249-4.557,21.761-5.139c5.082-0.385,10.174-0.616,15.266-0.664c-8.172,0.029-16.335,0.26-24.497,0.664
		c-96.969,4.909-168.314,93.292-151.074,188.836c0.924,5.121,2.002,10.242,3.234,15.362c8.846,36.857,38.561,65.224,75.812,72.192
		c32.901,6.161,65.801,9.241,98.701,9.241c-1.019,0-2.038-0.014-3.056-0.027c33.918,0.196,67.838-2.868,101.76-9.214
		c37.251-6.969,66.957-35.338,75.818-72.192c1.223-5.12,2.299-10.24,3.229-15.36c0.899-4.984,1.557-9.958,1.985-14.89
		C426.524,189.438,410.537,181.768,392.983,179.647z"/>
	<path style="fill:#6A889B;" d="M352.49,179.639c-15.933,0-28.895-12.962-28.895-28.895c0-13.041,8.789-24.513,21.373-27.899
		c2.463-0.661,4.992-0.996,7.521-0.996c15.933,0,28.895,12.962,28.895,28.895c0,2.529-0.335,5.057-0.995,7.516
		C377.004,170.85,365.532,179.639,352.49,179.639z"/>
	<path style="fill:#6A889B;" d="M165.766,179.639c-15.933,0-28.895-12.962-28.895-28.895c0-13.041,8.789-24.513,21.373-27.899
		c2.463-0.661,4.993-0.996,7.521-0.996c15.933,0,28.895,12.962,28.895,28.895c0,2.529-0.335,5.057-0.995,7.516
		C190.279,170.85,178.807,179.639,165.766,179.639z"/>
</g>
<g>
	<path style="fill:#0F0F0E;" d="M368.142,150.745c0,1.409-0.192,2.782-0.542,4.081c-1.794,6.67-7.873,11.57-15.109,11.57
		c-8.644,0-15.652-7.007-15.652-15.652c0-7.236,4.901-13.315,11.57-15.109c1.3-0.349,2.673-0.542,4.081-0.542
		C361.134,135.094,368.142,142.101,368.142,150.745z"/>
	<circle style="fill:#0F0F0E;" cx="165.763" cy="150.747" r="15.652"/>
</g>
<g>
	<path style="fill:#E6E6E6;" d="M368.142,150.745c0,1.409-0.192,2.782-0.542,4.081c-1.842,0.855-3.913,1.336-6.08,1.336
		c-7.982,0-14.447-6.465-14.447-14.447c0-2.167,0.482-4.238,1.336-6.08c1.3-0.349,2.673-0.542,4.081-0.542
		C361.134,135.094,368.142,142.101,368.142,150.745z"/>
	<path style="fill:#E6E6E6;" d="M181.417,150.745c0,1.409-0.192,2.782-0.542,4.081c-1.842,0.855-3.913,1.336-6.08,1.336
		c-7.982,0-14.447-6.465-14.447-14.447c0-2.167,0.482-4.238,1.336-6.08c1.3-0.349,2.673-0.542,4.081-0.542
		C174.41,135.094,181.417,142.101,181.417,150.745z"/>
</g>
<path style="fill:#7A98AF;" d="M461.361,343.811c-1.358,5.183-3.218,10.135-5.528,14.817
	c-11.839,24.127-35.432,40.981-62.851,44.293c-91.324,11.024-182.648,11.024-273.972,0c-15.036-1.818-28.933-7.711-40.364-16.656
	c-13.448-10.501-23.5-25.224-28.014-42.454c-8.161-31.19-8.161-62.37,0-93.56c8.359-31.89,35.641-55.16,68.378-59.11
	c91.324-11.024,182.648-11.024,273.972,0c32.737,3.95,60.019,27.22,68.378,59.11C469.522,281.441,469.522,312.621,461.361,343.811z"
	/>
<g>
	<ellipse style="fill:#556F7C;" cx="153.078" cy="273" rx="19.853" ry="33.437"/>
	<ellipse style="fill:#556F7C;" cx="358.922" cy="273" rx="19.853" ry="33.437"/>
</g>
<g>
	<path style="fill:#6A889B;" d="M369.891,387.937c-86.46,15.88-145.533,14.256-184.933,5.671
		c-41.559-9.055-71.501-45.455-72.971-87.964c-0.701-20.265-0.612-42.852,1.971-57.858c5.204-30.198,21.002-53.07,40.615-60.374
		c-11.86,1.055-23.709,2.299-35.558,3.73c-32.737,3.95-60.019,27.22-68.378,59.11c-8.161,31.19-8.161,62.37,0,93.56
		c8.359,31.89,35.641,55.16,68.378,59.11c0.739,0.089,1.479,0.171,2.217,0.259c2.14,0.254,4.279,0.508,6.419,0.75
		c1.314,0.148,2.629,0.287,3.942,0.432c1.623,0.178,3.247,0.359,4.869,0.53c0.949,0.099,1.898,0.192,2.845,0.29
		c2.044,0.21,4.088,0.42,6.131,0.619c0.48,0.047,0.959,0.09,1.44,0.136c82.035,7.888,164.07,6.887,246.105-3.016
		c27.418-3.312,51.012-20.167,62.851-44.293C432.71,371.323,404.435,381.595,369.891,387.937z"/>
	<path style="fill:#6A889B;" d="M166.424,210.549c58.871-10.078,120.274-10.078,179.145,0c10.899,1.866,8.99,13.339-2.217,13.339
		H168.642C157.435,223.888,155.526,212.415,166.424,210.549z"/>
</g>
<g>
</g>
<g>
</g>
<g>
</g>
<g>
</g>
<g>
</g>
<g>
</g>
<g>
</g>
<g>
</g>
<g>
</g>
<g>
</g>
<g>
</g>
<g>
</g>
<g>
</g>
<g>
</g>
<g>
</g>
</svg>
