<?xml version="1.0" encoding="iso-8859-1"?>
<!-- Generator: Adobe Illustrator 19.0.0, SVG Export Plug-In . SVG Version: 6.00 Build 0)  -->
<svg version="1.1" id="Capa_1" xmlns="http://www.w3.org/2000/svg" xmlns:xlink="http://www.w3.org/1999/xlink" x="0px" y="0px"
	 viewBox="0 0 512 512" style="enable-background:new 0 0 512 512;" xml:space="preserve">
<path style="fill:#63CBFF;" d="M0,256c0,13.354,1.024,26.467,2.999,39.267c10.334,67.135,46.749,125.659,98.565,164.916
	c30.605,23.186,66.581,39.654,105.744,47.188C223.065,510.412,239.344,512,256,512c16.666,0,32.956-1.588,48.724-4.639
	c24.534-4.723,47.835-12.957,69.329-24.148c12.8-6.666,24.963-14.378,36.383-23.04h0.01c45.746-34.649,79.485-84.323,93.863-141.678
	C509.336,298.496,512,277.556,512,256c0-20.856-2.487-41.117-7.199-60.52c-0.261-1.128-0.543-2.257-0.836-3.385
	c-10.031-39.006-29.006-74.418-54.638-103.905c-0.178-0.209-0.366-0.418-0.543-0.627C401.857,33.896,332.884,0,256,0
	C114.615,0,0,114.615,0,256z"/>
<path style="fill:#F2BC24;" d="M399.078,149.703c0,34.67,28.108,62.767,62.767,62.767c16.614,0,31.713-6.447,42.956-16.99
	c-0.261-1.128-0.543-2.257-0.836-3.385c-10.031-39.006-29.006-74.418-54.638-103.905
	C420.665,93.989,399.078,119.327,399.078,149.703z"/>
<path style="fill:#4C8E37;" d="M509.001,295.267c-10.334,67.135-46.749,125.659-98.565,164.916
	c-30.605,23.186-66.581,39.654-105.744,47.188C288.935,510.412,272.656,512,256,512c-16.666,0-32.956-1.588-48.724-4.639
	c-24.534-4.723-47.835-12.957-69.329-24.148c-12.8-6.666-24.963-14.378-36.383-23.04h-0.01
	C55.808,425.524,22.068,375.85,7.69,318.495c60.029,30.73,91.909,81,196.2,81c150.204,0,150.204-104.27,300.408-104.27
	C505.887,295.225,507.455,295.236,509.001,295.267z"/>
<path style="fill:#EF731A;" d="M410.436,460.184C367.512,492.711,314.013,512,256,512s-111.522-19.299-154.446-51.827l0.157-0.94
	l4.618-28.578l0.606-3.741l3.762-23.364c0.846-5.214,1.923-10.334,3.239-15.37c0.094-0.376,0.188-0.742,0.293-1.118
	c1.724-6.426,3.814-12.695,6.269-18.766c16.091-39.978,47.344-71.638,86.894-86.329c15.736-5.851,32.162-8.777,48.598-8.777
	s32.872,2.926,48.609,8.777h0.01c39.549,14.691,70.802,46.352,86.883,86.329c2.456,6.071,4.545,12.34,6.269,18.766
	c0.104,0.376,0.199,0.742,0.293,1.118c1.317,5.036,2.393,10.156,3.239,15.37l3.762,23.364l0.606,3.741l4.618,28.578L410.436,460.184
	z"/>
<path style="fill:#BC5410;" d="M337.147,492.648l-32.455,14.723C288.935,510.412,272.656,512,256,512
	c-16.666,0-32.956-1.588-48.724-4.639l-32.423-14.712c-7.335-3.323-4.315-14.367,3.688-13.49l66.152,7.231
	c7.513,0.815,15.088,0.815,22.601,0l66.152-7.231C341.452,478.281,344.472,489.326,337.147,492.648z"/>
<g>
	<path style="fill:#DB6212;" d="M255.99,273.189c-12.267,0-24.534,2.926-36.268,8.777c-34.011,16.927-59.799,56.362-69.538,105.096
		c-1.087,5.392-1.964,10.888-2.633,16.488l-3.26,27.105l-5.601,46.383l-0.742,6.175c-12.8-6.666-24.963-14.378-36.383-23.04
		l4.765-29.518l4.368-27.105c0.909-5.601,2.079-11.097,3.532-16.488c13.051-48.734,47.606-88.168,93.163-105.096
		C223.128,276.114,239.553,273.189,255.99,273.189z"/>
	<path style="fill:#DB6212;" d="M340.744,409.011l-16.243-16.243c-4.388-4.388-11.826-2.885-14.153,2.867
		c-6.441,15.922-19.068,44.497-35.446,68.621c-3.763,5.554-7.728,10.867-11.865,15.738c-3.672,4.323-10.376,4.359-14.048,0.037
		c-22.125-26.042-39.418-64.799-47.343-84.394c-2.327-5.753-9.766-7.257-14.154-2.868l-16.244,16.244
		c-4.494,4.494-12.105,3.229-14.863-2.496c-25.907-53.781,0.228-103.432,10.529-119.631c2.273-3.578,3.776-5.524,3.776-5.524
		h170.612c0,0,45.896,59.456,14.341,125.082C352.875,412.2,345.261,413.528,340.744,409.011z"/>
</g>
<path style="fill:#C9590F;" d="M170.69,281.36l0.229,7.452l-4.005-1.928c-10.302,16.199-36.438,65.851-10.529,119.631
	c2.759,5.725,10.37,6.99,14.863,2.496l16.244-16.244c4.389-4.389,11.827-2.885,14.154,2.868
	c7.926,19.595,25.22,58.352,47.343,84.394c3.672,4.323,10.376,4.286,14.048-0.037c4.137-4.87,8.102-10.184,11.865-15.738
	l-12.088-25.825c-2.289-4.89-9.253-4.838-11.476,0.066c-1.669,3.679-6.713,4.053-8.81,0.601
	c-16.146-26.6-25.892-61.823-29.97-78.871c-0.705-2.947,2.906-4.956,5.048-2.814l13.155,13.155c1.977,1.977,5.346,0.418,5.118-2.369
	l-1.995-24.418c-0.404-4.953,6.361-6.763,8.495-2.275c6.483,13.633,12.764,23.083,16.602,28.297
	c1.766,2.398,5.383,2.271,6.972-0.249l22.828-36.21c2.256-3.579,7.79-1.981,7.79,2.251v4.011c0,6.056,7.686,8.647,11.351,3.825
	c12.622-16.602,28.277-39.926,28.277-39.926L170.69,281.36z"/>
<path style="fill:#DB6212;" d="M168.333,351.24c0.746,3.877,2.03,8.887,4.237,14.605c1.551,4.016,7.514,2.987,7.681-1.314
	l0.84-21.699c0.148-3.834-4.075-6.253-7.307-4.184l0,0C169.571,341.343,167.387,346.327,168.333,351.24z"/>
<g>
	<path style="fill:#BC5410;" d="M410.28,459.233l-58.169,3.385c-8.046,0.47-10.501-10.7-3.009-13.657l55.954-22.047l0.606,3.741
		L410.28,459.233z"/>
	<path style="fill:#BC5410;" d="M398.055,388.18l-22.685,1.317c-8.035,0.47-10.501-10.71-3.009-13.657l19.132-7.544
		c2.456,6.071,4.545,12.34,6.269,18.766C397.867,387.438,397.96,387.803,398.055,388.18z"/>
	<path style="fill:#BC5410;" d="M159.88,462.618l-58.169-3.385l4.618-28.578l0.606-3.741l55.954,22.047
		C170.392,451.918,167.927,463.088,159.88,462.618z"/>
	<path style="fill:#BC5410;" d="M136.62,389.496l-22.685-1.317c0.094-0.376,0.188-0.742,0.293-1.118
		c1.724-6.426,3.814-12.695,6.269-18.766l19.132,7.544C147.122,378.786,144.656,389.966,136.62,389.496z"/>
</g>
<circle style="fill:#EF731A;" cx="384.219" cy="71.867" r="64.784"/>
<circle style="fill:#91420E;" cx="390.05" cy="86.936" r="37.012"/>
<circle style="fill:#DB6212;" cx="127.781" cy="71.867" r="64.784"/>
<circle style="fill:#91420E;" cx="121.95" cy="86.936" r="37.012"/>
<path style="fill:#EF731A;" d="M411.982,292.331c-6.019,6.687-13.803,11.901-22.883,14.848l-116.193,37.773
	c-10.992,3.563-22.831,3.563-33.813,0L122.89,307.179c-9.08-2.947-16.865-8.161-22.883-14.848
	c-10.501-11.661-15.621-27.815-12.8-44.241l1.515-8.85l7.973-46.383l4.65-27.105c0.961-5.601,2.215-11.097,3.762-16.488
	c13.887-48.734,50.667-88.168,99.161-105.096c16.739-5.851,34.231-8.777,51.722-8.777s34.983,2.926,51.733,8.777h0.01
	c48.494,16.927,85.264,56.362,99.15,105.096c1.546,5.392,2.8,10.888,3.762,16.488l4.65,27.105l7.973,46.383l1.515,8.85
	C427.604,264.516,422.494,280.66,411.982,292.331z"/>
<path style="fill:#DB6212;" d="M243.576,344.952c3.783,1.672,7.701,2.56,11.64,2.664c-5.454-0.073-10.888-0.961-16.123-2.664
	L122.89,307.179c-9.08-2.947-16.865-8.161-22.883-14.848c-10.501-11.661-15.621-27.815-12.8-44.241l1.515-8.85l7.973-46.383
	l4.65-27.105c0.961-5.601,2.215-11.097,3.762-16.488c13.887-48.734,50.667-88.168,99.161-105.096
	c16.739-5.851,34.231-8.777,51.722-8.777c-12.852,0-25.694,2.926-37.992,8.777c-35.631,16.927-62.652,56.362-72.85,105.096
	c-1.139,5.392-2.058,10.888-2.759,16.488l-3.417,27.105l-5.862,46.383l-1.108,8.85c-2.079,16.426,1.682,32.58,9.404,44.241
	c4.42,6.687,10.136,11.901,16.802,14.848L243.576,344.952z"/>
<path style="fill:#E6E6E6;" d="M183.665,322.532c0-20.306,32.383-113.344,72.331-113.344s72.331,93.039,72.331,113.344
	s-32.383,25.093-72.331,25.093S183.665,342.838,183.665,322.532z"/>
<path style="fill:#DB6212;" d="M212.888,252.515c0-15.624,19.3-87.212,43.108-87.212s43.108,71.589,43.108,87.212
	c0,15.624-19.3,19.308-43.108,19.308S212.888,268.14,212.888,252.515z"/>
<path style="fill:#0F0F0E;" d="M299.105,252.515c0,15.624-19.3,37.273-43.108,37.273s-43.108-21.648-43.108-37.273
	s19.3-19.308,43.108-19.308S299.105,236.891,299.105,252.515z"/>
<circle style="fill:#807272;" cx="277.723" cy="250.932" r="11.504"/>
<g>
	<path style="fill:#DB6212;" d="M328.618,227.997c-13.828,0-25.078-11.249-25.078-25.078c0-11.319,7.628-21.275,18.55-24.213
		c2.138-0.574,4.332-0.864,6.527-0.864c13.828,0,25.078,11.249,25.078,25.078c0,2.194-0.29,4.389-0.864,6.523
		C349.895,220.369,339.938,227.997,328.618,227.997z"/>
	<path style="fill:#DB6212;" d="M183.374,227.997c-13.828,0-25.078-11.249-25.078-25.078c0-11.319,7.628-21.275,18.55-24.213
		c2.138-0.574,4.332-0.864,6.527-0.864c13.828,0,25.078,11.249,25.078,25.078c0,2.194-0.29,4.389-0.864,6.523
		C204.651,220.369,194.694,227.997,183.374,227.997z"/>
</g>
<g>
	<path style="fill:#0F0F0E;" d="M342.202,197.695c0,1.223-0.167,2.414-0.47,3.542c-1.557,5.789-6.834,10.041-13.113,10.041
		c-7.502,0-13.584-6.081-13.584-13.584c0-6.28,4.253-11.557,10.041-13.113c1.128-0.303,2.32-0.47,3.542-0.47
		C336.121,184.111,342.202,190.192,342.202,197.695z"/>
	<circle style="fill:#0F0F0E;" cx="183.38" cy="197.695" r="13.584"/>
</g>
<g>
	<path style="fill:#E6E6E6;" d="M342.202,197.695c0,1.223-0.167,2.414-0.47,3.542c-1.599,0.742-3.396,1.16-5.277,1.16
		c-6.928,0-12.539-5.611-12.539-12.539c0-1.881,0.418-3.678,1.16-5.277c1.128-0.303,2.32-0.47,3.542-0.47
		C336.121,184.111,342.202,190.192,342.202,197.695z"/>
	<path style="fill:#E6E6E6;" d="M196.958,197.695c0,1.223-0.167,2.414-0.47,3.542c-1.599,0.742-3.396,1.16-5.277,1.16
		c-6.928,0-12.539-5.611-12.539-12.539c0-1.881,0.418-3.678,1.16-5.277c1.128-0.303,2.32-0.47,3.542-0.47
		C190.877,184.111,196.958,190.192,196.958,197.695z"/>
</g>
<g>
	<path style="fill:#BC5410;" d="M415.296,192.857h-36.645c-9.07,0-13.009-11.473-5.851-17.042l34.085-26.551
		c1.546,5.392,2.8,10.888,3.762,16.488L415.296,192.857z"/>
	<path style="fill:#BC5410;" d="M411.982,292.331l-43.154-26.446c-9.247-5.674-6.102-19.832,4.681-21.044l49.758-5.601l1.515,8.85
		C427.604,264.516,422.494,280.66,411.982,292.331z"/>
	<path style="fill:#BC5410;" d="M133.35,192.857H96.695l4.65-27.105c0.961-5.601,2.215-11.097,3.762-16.488l34.095,26.551
		C146.348,181.384,142.409,192.857,133.35,192.857z"/>
	<path style="fill:#BC5410;" d="M143.161,265.885l-43.154,26.446c-10.501-11.661-15.621-27.815-12.8-44.241l1.515-8.85l49.758,5.601
		C149.264,246.053,152.419,260.211,143.161,265.885z"/>
	<path style="fill:#BC5410;" d="M267.294,144.872l66.151,7.227c8.006,0.875,11.03-10.164,3.696-13.492l-68.878-31.256
		c-7.797-3.538-16.74-3.538-24.537,0l-68.878,31.256c-7.334,3.328-4.31,14.366,3.696,13.492l66.151-7.227
		C252.207,144.052,259.785,144.052,267.294,144.872z"/>
	<path style="fill:#BC5410;" d="M265.419,83.87l55.173,6.027c6.678,0.729,9.199-8.476,3.082-11.253l-57.445-26.068
		c-6.502-2.951-13.962-2.951-20.464,0l-57.445,26.068c-6.117,2.775-3.594,11.982,3.082,11.253l55.173-6.027
		C252.836,83.185,259.156,83.185,265.419,83.87z"/>
</g>
<g>
</g>
<g>
</g>
<g>
</g>
<g>
</g>
<g>
</g>
<g>
</g>
<g>
</g>
<g>
</g>
<g>
</g>
<g>
</g>
<g>
</g>
<g>
</g>
<g>
</g>
<g>
</g>
<g>
</g>
</svg>
