<?xml version="1.0" encoding="iso-8859-1"?>
<!-- Generator: Adobe Illustrator 19.0.0, SVG Export Plug-In . SVG Version: 6.00 Build 0)  -->
<svg version="1.1" id="Capa_1" xmlns="http://www.w3.org/2000/svg" xmlns:xlink="http://www.w3.org/1999/xlink" x="0px" y="0px"
	 viewBox="0 0 512 512" style="enable-background:new 0 0 512 512;" xml:space="preserve">
<path style="fill:#427A2D;" d="M512,256c0,13.605-1.066,26.958-3.114,39.988C489.691,418.377,383.781,512,256,512
	S22.309,418.377,3.114,295.988C1.066,282.958,0,269.605,0,256c0-34.126,6.677-66.706,18.808-96.486
	c4.754-11.682,10.355-22.946,16.718-33.698c5.966-10.083,12.601-19.717,19.853-28.85c5.256-6.625,10.836-12.988,16.718-19.048
	c9.07-9.373,18.85-18.045,29.257-25.945c10.533-8.004,21.713-15.203,33.437-21.514c4.786-2.581,9.665-5.016,14.629-7.283
	c10.762-4.942,21.932-9.153,33.437-12.57c10.522-3.135,21.337-5.611,32.392-7.377c5.517-0.888,11.086-1.588,16.718-2.111
	C239.877,0.376,247.892,0,256,0c1.4,0,2.79,0.01,4.18,0.042c16.081,0.251,31.796,1.985,47.02,5.078
	c5.287,1.076,10.512,2.309,15.673,3.709c11.483,3.093,22.653,6.969,33.437,11.577c3.521,1.494,7.011,3.072,10.449,4.733
	c5.695,2.727,11.264,5.674,16.718,8.808c11.766,6.771,22.946,14.451,33.437,22.946c5.789,4.681,11.368,9.603,16.718,14.764
	c5.465,5.266,10.689,10.773,15.673,16.499c12.936,14.879,24.179,31.284,33.437,48.891C501.426,172.586,512,213.065,512,256z"/>
<path style="fill:#69AF54;" d="M508.886,295.988c-4.399,28.097-13.385,54.669-26.143,78.952
	c-9.258,17.607-20.501,34.001-33.437,48.891c-4.984,5.736-10.209,11.243-15.673,16.509c-5.35,5.162-10.93,10.094-16.718,14.775
	c-10.491,8.485-21.671,16.165-33.437,22.936c-5.454,3.135-11.024,6.081-16.718,8.808c-3.438,1.661-6.917,3.239-10.449,4.733
	c-10.783,4.598-21.943,8.485-33.437,11.577c-5.162,1.4-10.386,2.633-15.673,3.709c-15.224,3.093-30.939,4.827-47.02,5.078
	C258.79,511.99,257.4,512,256,512c-8.108,0-16.123-0.376-24.033-1.108c-5.632-0.533-11.201-1.233-16.718-2.121
	c-11.055-1.766-21.859-4.242-32.392-7.377c-11.504-3.417-22.664-7.628-33.437-12.57c-4.963-2.278-9.843-4.702-14.629-7.283
	c-11.724-6.311-22.904-13.51-33.437-21.514c-10.407-7.899-20.187-16.583-29.257-25.945c-5.883-6.071-11.463-12.434-16.718-19.059
	c-7.252-9.122-13.887-18.766-19.853-28.839c-6.363-10.762-11.964-22.026-16.718-33.719c-7.293-17.899-12.612-36.822-15.694-56.477
	L508.886,295.988L508.886,295.988z"/>
<g>
	<path style="fill:#4C8E37;" d="M482.743,137.049v237.892c-9.258,17.607-20.501,34.001-33.437,48.891V88.158
		C462.242,103.037,473.485,119.442,482.743,137.049z"/>
	<path style="fill:#4C8E37;" d="M356.31,20.407v471.186c-10.783,4.598-21.943,8.485-33.437,11.577V8.829
		C334.357,11.922,345.527,15.799,356.31,20.407z"/>
	<path style="fill:#4C8E37;" d="M134.792,30.459v451.082c-11.724-6.311-22.904-13.51-33.437-21.514V51.973
		C111.888,43.969,123.068,36.77,134.792,30.459z"/>
	<path style="fill:#4C8E37;" d="M182.857,10.606v490.789c-11.504-3.417-22.664-7.628-33.437-12.57V23.176
		C160.183,18.233,171.353,14.023,182.857,10.606z"/>
	<path style="fill:#4C8E37;" d="M433.633,71.659v368.682c-5.35,5.162-10.93,10.094-16.718,14.775V56.895
		C422.703,61.576,428.283,66.497,433.633,71.659z"/>
	<path style="fill:#4C8E37;" d="M35.527,125.816v260.368c-6.363-10.762-11.964-22.026-16.718-33.719V159.514
		C23.562,147.832,29.163,136.568,35.527,125.816z"/>
	<path style="fill:#4C8E37;" d="M72.098,77.918v356.164c-5.883-6.071-11.463-12.434-16.718-19.059V96.967
		C60.635,90.342,66.215,83.978,72.098,77.918z"/>
	<path style="fill:#4C8E37;" d="M383.478,33.949v444.102c-5.454,3.135-11.024,6.081-16.718,8.809V25.14
		C372.454,27.867,378.023,30.814,383.478,33.949z"/>
	<path style="fill:#4C8E37;" d="M231.967,1.118v509.774c-5.632-0.533-11.201-1.233-16.718-2.121V3.229
		C220.766,2.341,226.335,1.64,231.967,1.118z"/>
	<path style="fill:#4C8E37;" d="M307.2,5.12v501.76c-15.224,3.093-30.939,4.827-47.02,5.078V0.042
		C276.261,0.293,291.976,2.027,307.2,5.12z"/>
</g>
<circle style="fill:#965021;" cx="416.632" cy="153.464" r="66.267"/>
<path style="fill:#F2B471;" d="M416.629,193.573c-22.117,0-40.109-17.993-40.109-40.109s17.992-40.109,40.109-40.109
	s40.109,17.993,40.109,40.109S438.745,193.573,416.629,193.573z"/>
<circle style="fill:#965021;" cx="95.368" cy="153.464" r="66.267"/>
<path style="fill:#F2B471;" d="M95.366,193.573c-22.117,0-40.109-17.993-40.109-40.109s17.992-40.109,40.109-40.109
	s40.109,17.993,40.109,40.109S117.482,193.573,95.366,193.573z"/>
<path style="fill:#AD6332;" d="M444.249,429.484C397.479,480.225,330.449,512,256,512s-141.479-31.775-188.249-82.516l2.727-8.673
	c12.842-40.929,40.417-74.177,75.776-94.657c6.405-3.709,13.061-7.001,19.937-9.843c19.832-8.213,41.462-12.675,63.885-12.675
	h51.837c22.423,0,44.053,4.462,63.885,12.675c6.875,2.842,13.542,6.134,19.947,9.843c35.359,20.48,62.934,53.729,75.776,94.657
	L444.249,429.484z"/>
<path style="fill:#965021;" d="M345.799,316.311c-19.832-8.213-41.462-12.675-63.885-12.675H237.38h-7.304
	c-73.08,0-137.707,47.438-159.598,117.175l-2.727,8.673c18.704,20.292,40.657,37.554,65.024,50.96
	c-1.149-2.069-2.267-4.169-3.354-6.29c-8.422-16.426-10.71-35.328-6.646-53.342c2.714-12.043,6.345-23.42,10.765-34.002
	c11.102-26.582,43.89-36.181,67.662-19.908l19.637,13.442c20.961,15.235,49.351,15.235,70.311,0l74.595-54.188
	C359.34,322.445,352.674,319.154,345.799,316.311z"/>
<path style="fill:#F2B471;" d="M361.639,489.253C329.435,503.86,293.669,512,256,512s-73.435-8.14-105.639-22.747l0.93-4.984
	c4.702-25.213,18.066-46.958,36.645-62.391c18.589-15.444,42.423-24.576,68.065-24.576c51.284,0,95.295,36.54,104.709,86.967
	L361.639,489.253z"/>
<path style="fill:#AD6332;" d="M291.155,366.126l93.092-67.635c31.656-22.999,45.577-63.322,34.855-100.953l-24.665-86.556
	c-15.742-55.246-66.219-93.348-123.665-93.348h-29.548c-57.445,0-107.922,38.102-123.665,93.348l-24.667,86.556
	c-10.723,37.631,3.198,77.954,34.855,100.953l93.092,67.635C241.803,381.357,270.191,381.357,291.155,366.126z"/>
<path style="fill:#965021;" d="M159.514,304.149l66.017,65.055c-1.599-0.951-3.166-1.975-4.692-3.082l-93.09-67.626
	c-31.66-23.009-45.578-63.331-34.858-100.958l24.67-86.559c15.736-55.244,66.215-93.341,123.664-93.341h3.657
	c-43.217,0-81.189,38.87-93.027,95.222l-18.557,88.304C125.231,239.553,135.701,280.691,159.514,304.149z"/>
<path style="fill:#F2B471;" d="M337.963,237.422c-6.926,2.731-11.523,9.37-11.707,16.812c-0.336,13.571-2.773,27.139-7.337,40.713
	c-3.829,11.377-12.737,20.37-23.982,24.56c-25.957,9.691-51.914,9.691-77.871,0c-11.257-4.19-20.154-13.184-23.982-24.56
	c-4.564-13.573-7.008-27.14-7.348-40.71c-0.189-7.55-4.97-14.123-11.983-16.925c-11.822-4.724-22.018-12.657-29.513-22.715
	c-8.211-11.052-13.159-24.669-13.436-39.453c-0.434-23.646,11.461-44.871,29.701-57.476c10.775-7.465,23.778-11.907,37.744-12.076
	c13.688-0.168,26.462,3.696,37.214,10.487c12.558,7.922,28.522,7.922,41.078,0c10.739-6.79,23.513-10.655,37.202-10.487
	c37.635,0.445,68.13,31.929,67.457,69.552C380.676,203.475,362.914,227.58,337.963,237.422z"/>
<g>
	<path style="fill:#D8995D;" d="M324.623,199.164c-15.933,0-28.895-12.962-28.895-28.895c0-13.041,8.789-24.513,21.373-27.899
		c2.463-0.661,4.993-0.996,7.521-0.996c15.933,0,28.895,12.962,28.895,28.895c0,2.529-0.335,5.057-0.995,7.516
		C349.136,190.374,337.664,199.164,324.623,199.164z"/>
	<path style="fill:#D8995D;" d="M187.371,199.164c-15.933,0-28.895-12.962-28.895-28.895c0-13.041,8.789-24.513,21.373-27.899
		c2.463-0.661,4.993-0.996,7.521-0.996c15.933,0,28.895,12.962,28.895,28.895c0,2.529-0.335,5.057-0.995,7.516
		C211.885,190.374,200.412,199.164,187.371,199.164z"/>
</g>
<g>
	<path style="fill:#0F0F0E;" d="M340.273,170.269c0,1.409-0.192,2.782-0.541,4.081c-1.794,6.67-7.873,11.57-15.109,11.57
		c-8.644,0-15.652-7.007-15.652-15.652c0-7.236,4.9-13.315,11.57-15.109c1.3-0.349,2.673-0.542,4.081-0.542
		C333.266,154.618,340.273,161.625,340.273,170.269z"/>
	<circle style="fill:#0F0F0E;" cx="187.371" cy="170.266" r="15.652"/>
</g>
<g>
	<path style="fill:#E6E6E6;" d="M340.273,170.269c0,1.409-0.192,2.782-0.541,4.081c-1.842,0.855-3.913,1.336-6.08,1.336
		c-7.982,0-14.447-6.465-14.447-14.447c0-2.167,0.482-4.238,1.336-6.08c1.3-0.349,2.673-0.542,4.081-0.542
		C333.266,154.618,340.273,161.625,340.273,170.269z"/>
	<path style="fill:#E6E6E6;" d="M203.023,170.269c0,1.409-0.192,2.782-0.542,4.081c-1.842,0.855-3.913,1.336-6.08,1.336
		c-7.982,0-14.447-6.465-14.447-14.447c0-2.167,0.482-4.238,1.336-6.08c1.3-0.349,2.673-0.542,4.081-0.542
		C196.016,154.618,203.023,161.625,203.023,170.269z"/>
</g>
<g>
	
		<ellipse transform="matrix(0.2996 -0.9541 0.9541 0.2996 -61.0653 400.6689)" style="fill:#3D3636;" cx="242.354" cy="241.925" rx="14.846" ry="9.63"/>
	
		<ellipse transform="matrix(0.2996 0.9541 -0.9541 0.2996 419.6409 -87.811)" style="fill:#3D3636;" cx="269.627" cy="241.903" rx="14.846" ry="9.63"/>
	<path style="fill:#3D3636;" d="M300.125,293.587c-0.831,1.096-1.974,2.047-3.431,2.758c-25.607,12.484-55.779,12.484-81.399,0
		c-1.457-0.711-2.588-1.661-3.419-2.758c1.589-2.143,4.129-3.624,7.452-3.624h73.343
		C295.983,289.963,298.536,291.444,300.125,293.587z"/>
</g>
<g>
</g>
<g>
</g>
<g>
</g>
<g>
</g>
<g>
</g>
<g>
</g>
<g>
</g>
<g>
</g>
<g>
</g>
<g>
</g>
<g>
</g>
<g>
</g>
<g>
</g>
<g>
</g>
<g>
</g>
</svg>
