<?xml version="1.0" encoding="iso-8859-1"?>
<!-- Generator: Adobe Illustrator 19.0.0, SVG Export Plug-In . SVG Version: 6.00 Build 0)  -->
<svg version="1.1" id="Capa_1" xmlns="http://www.w3.org/2000/svg" xmlns:xlink="http://www.w3.org/1999/xlink" x="0px" y="0px"
	 viewBox="0 0 512 512" style="enable-background:new 0 0 512 512;" xml:space="preserve">
<path style="fill:#63CBFF;" d="M512,256c0,73.749-31.18,140.204-81.084,186.911c-20.072,18.798-43.165,34.388-68.472,45.975
	C330.031,503.735,293.982,512,256,512C114.615,512,0,397.385,0,256c0-10.815,0.669-21.473,1.975-31.932
	c0.784-6.28,1.787-12.487,3.02-18.61c1.076-5.381,2.32-10.7,3.73-15.956c1.996-7.429,4.315-14.733,6.949-21.88
	C51.66,69.778,145.68,0,256,0c8.798,0,17.502,0.449,26.081,1.317c32.705,3.302,63.592,12.769,91.491,27.22
	c12.999,6.74,25.349,14.555,36.937,23.333c32.037,24.294,58.19,55.965,75.912,92.484c5.047,10.376,9.404,21.149,13.019,32.256
	c2.623,8.025,4.859,16.227,6.677,24.586C509.973,218.854,512,237.192,512,256z"/>
<path style="fill:#F2BC24;" d="M486.421,144.353c-10.794,10.48-25.527,16.927-41.765,16.927c-33.155,0-60.04-26.875-60.04-60.029
	c0-20.47,10.25-38.546,25.893-49.382C442.546,76.163,468.699,107.833,486.421,144.353z"/>
<path style="fill:#BC5410;" d="M461.497,221.453c0,0,18.111,8.359,18.111,29.257s-17.415,14.629-11.842,52.942h21.595
	c0,0-18.111-13.932-6.269-32.74c11.842-18.808-5.903-42.02-5.903-42.02"/>
<path style="fill:#4C8E37;" d="M510.025,224.068c-8.913,3.009-20.365,4.827-32.841,4.827c-0.69,0-1.379-0.01-2.058-0.021
	c-0.104,0-0.209,0-0.313-0.01c-27.408-0.502-49.236-9.759-49.236-21.117c0-11.672,23.103-21.138,51.607-21.138
	c9.519,0,18.442,1.055,26.091,2.894C506.295,200.735,508.562,212.281,510.025,224.068z"/>
<path style="fill:#A3460A;" d="M508.876,295.988c-7.805,49.737-29.926,94.73-62.025,130.612c-2.894,3.239-5.862,6.395-8.923,9.477
	c-8.568,8.673-17.763,16.739-27.502,24.106c-5.966,4.514-12.131,8.777-18.484,12.769C352.549,497.695,305.946,512,255.99,512
	c-40.647,0-79.078-9.467-113.215-26.342c-2.936-1.452-5.841-2.957-8.704-4.514c-11.034-5.977-21.567-12.737-31.535-20.219
	c-1.672-1.254-3.323-2.518-4.953-3.814c-23.301-18.38-43.332-40.72-59.058-66.017c-0.23-0.355-0.449-0.711-0.669-1.066
	c-4.775-7.743-9.153-15.767-13.082-24.033c-6.478-13.594-11.797-27.846-15.809-42.632c-2.445-8.934-4.409-18.077-5.862-27.376
	L508.876,295.988L508.876,295.988z"/>
<g>
	<path style="fill:#823603;" d="M448.958,345.831L448.958,345.831c0-6.636-5.38-12.016-12.016-12.016h-66.873
		c-6.636,0-12.016,5.38-12.016,12.016l0,0c0,6.636,5.38,12.016,12.016,12.016h8.359c6.636,0,12.016,5.38,12.016,12.016l0,0
		c0,6.636-5.38,12.016-12.016,12.016h-25.6c-6.636,0-12.016,5.38-12.016,12.016l0,0c0,6.636,5.38,12.016,12.016,12.016h66.873
		c6.636,0,12.016-5.38,12.016-12.016l0,0c0-6.636,5.38-12.016,12.016-12.016h25.6c6.636,0,12.016-5.38,12.016-12.016l0,0
		c0-6.636-5.38-12.016-12.016-12.016h-8.359C454.338,357.847,448.958,352.467,448.958,345.831z"/>
	<path style="fill:#823603;" d="M437.927,436.078c-8.568,8.673-17.763,16.739-27.502,24.106c-0.439-0.052-0.888-0.073-1.348-0.073
		h-8.359c-3.323,0-6.322-1.348-8.495-3.521c-2.173-2.173-3.521-5.183-3.521-8.495c0-6.635,5.381-12.016,12.016-12.016H437.927z"/>
	<path style="fill:#823603;" d="M218.049,445.095c0,6.635-5.381,12.016-12.016,12.016h-25.6c-3.323,0-6.322,1.348-8.495,3.521
		s-3.521,5.172-3.521,8.495c0,6.635-5.381,12.016-12.016,12.016h-22.329c-11.034-5.977-21.567-12.737-31.535-20.219
		c-1.672-1.254-3.323-2.518-4.953-3.814h17.544c3.323,0,6.322-1.348,8.495-3.521s3.521-5.172,3.521-8.495
		c0-6.635-5.381-12.016-12.016-12.016h-8.359c-3.323,0-6.322-1.348-8.495-3.521c-2.173-2.173-3.521-5.172-3.521-8.495
		c0-6.635,5.381-12.016,12.016-12.016h66.873c6.635,0,12.016,5.381,12.016,12.016c0,6.635,5.381,12.016,12.016,12.016h8.359
		c3.323,0,6.322,1.348,8.495,3.521C216.701,438.774,218.049,441.772,218.049,445.095z"/>
	<path style="fill:#823603;" d="M90.906,359.414c0,6.646-5.381,12.016-12.016,12.016h-25.6c-3.323,0-6.322,1.348-8.495,3.521
		c-2.173,2.173-3.521,5.172-3.521,8.495c0,2.905-1.034,5.58-2.748,7.649c-0.23-0.355-0.449-0.711-0.669-1.066
		c-4.775-7.743-9.153-15.767-13.082-24.033c-6.478-13.594-11.797-27.846-15.809-42.632h37.533c6.635,0,12.016,5.381,12.016,12.016
		c0,6.646,5.381,12.016,12.016,12.016h8.359c3.323,0,6.322,1.348,8.495,3.521S90.906,356.091,90.906,359.414z"/>
	<path style="fill:#823603;" d="M158.134,321.802L158.134,321.802c0-6.636,5.38-12.016,12.016-12.016h66.873
		c6.636,0,12.016,5.38,12.016,12.016l0,0c0,6.636-5.38,12.016-12.016,12.016h-8.36c-6.636,0-12.016,5.38-12.016,12.016l0,0
		c0,6.636,5.38,12.016,12.016,12.016h25.6c6.636,0,12.016,5.38,12.016,12.016l0,0c0,6.636-5.38,12.016-12.016,12.016H187.39
		c-6.636,0-12.016-5.38-12.016-12.016l0,0c0-6.636-5.38-12.016-12.016-12.016h-25.6c-6.636,0-12.016-5.38-12.016-12.016l0,0
		c0-6.636,5.38-12.016,12.016-12.016h8.36C152.754,333.819,158.134,328.44,158.134,321.802z"/>
</g>
<path style="fill:#3D752A;" d="M474.812,228.864c-27.408-0.502-49.236-9.759-49.236-21.117c0-11.672,23.103-21.138,51.607-21.138
	c0,0-25.266,0.711-25.266,22.131C451.918,226.105,468.511,228.561,474.812,228.864z"/>
<path style="fill:#E2762E;" d="M348.097,494.937C319.519,505.96,288.465,512,256,512c-15.642,0-30.95-1.4-45.808-4.096
	c-15.997-2.884-31.483-7.262-46.299-12.978c8.892-56.853,27.794-195.114,5.245-217.663h173.725
	C320.303,299.813,339.205,438.105,348.097,494.937z"/>
<path style="fill:#CE6723;" d="M210.192,507.904c-15.997-2.884-31.483-7.262-46.299-12.978
	c8.903-56.842,27.805-195.114,5.245-217.673h44.607C225.688,301.798,213.755,463.308,210.192,507.904z"/>
<g>
	
		<ellipse transform="matrix(-0.2019 -0.9794 0.9794 -0.2019 344.2862 565.4578)" style="fill:#844921;" cx="402.533" cy="142.453" rx="56.518" ry="43.29"/>
	
		<ellipse transform="matrix(-0.2019 0.9794 -0.9794 -0.2019 271.0591 63.9985)" style="fill:#844921;" cx="109.454" cy="142.44" rx="56.518" ry="43.29"/>
</g>
<path style="fill:#E2762E;" d="M412.421,200.203c-0.806,4.507-1.753,9.013-2.844,13.52c-7.793,32.429-33.936,57.391-66.716,63.534
	c-43.572,8.156-87.158,10.169-130.731,6.052c-14.338-1.351-28.663-3.377-43.002-6.052c-32.781-6.143-58.924-31.105-66.717-63.534
	c-1.078-4.507-2.026-9.013-2.844-13.52C84.398,116.123,147.193,38.341,232.519,34.017c1.792-0.091,3.598-0.168,5.39-0.234
	c3.585-0.156,7.182-0.247,10.779-0.299c1.792-0.026,3.598-0.052,5.39-0.052c8.455-0.039,16.922,0.156,25.39,0.584
	C364.809,38.341,427.604,116.123,412.421,200.203z"/>
<path style="fill:#CE6723;" d="M153.712,200.203c0.533,4.507,1.143,9.013,1.857,13.52c5.091,32.442,22.182,57.405,43.624,63.534
	c4.312,1.234,8.624,3.416,12.936,6.052c-14.338-1.351-28.663-3.377-43.002-6.052c-32.781-6.143-58.924-31.105-66.717-63.534
	c-1.078-4.507-2.026-9.013-2.844-13.52C84.398,116.123,147.193,38.341,232.519,34.017c1.792-0.091,3.598-0.168,5.39-0.234
	c3.598-0.143,7.182-0.247,10.779-0.299c1.792-0.026,3.598-0.052,5.39-0.052c-4.481,0.052-8.961,0.247-13.429,0.584
	C184.842,38.341,143.789,116.123,153.712,200.203z"/>
<path style="fill:#B75819;" d="M276.777,256.528c-7.972,0-15.244-2.977-20.78-7.873c-5.536,4.896-12.808,7.873-20.78,7.873
	c-11.377,0-21.338-6.054-26.841-15.116c-1.282-2.111-4.557-1.003-4.193,1.44c0.015,0.099,0.03,0.2,0.046,0.3
	c2.302,14.504,14.702,25.585,29.369,26.323c8.604,0.433,16.49-2.607,22.398-7.833c5.909,5.226,13.795,8.265,22.398,7.833
	c14.667-0.738,27.067-11.819,29.369-26.323c0.016-0.1,0.031-0.2,0.046-0.3c0.365-2.443-2.911-3.551-4.193-1.44
	C298.115,250.474,288.154,256.528,276.777,256.528z"/>
<path style="fill:#0F0F0E;" d="M290.147,226.616c0,12.378-15.29,29.528-34.151,29.528s-34.151-17.15-34.151-29.528
	s15.29-15.296,34.151-15.296S290.147,214.239,290.147,226.616z"/>
<circle style="fill:#807272;" cx="273.209" cy="225.364" r="9.113"/>
<g>
	<path style="fill:#844921;" d="M331.033,212.806c-19.553,0-18.715-32.651-18.715-52.204c0-16.005,10.786-30.084,26.23-34.237
		c3.023-0.812,6.126-1.223,9.23-1.223c19.553,0,35.46,4.906,35.46,24.458c0,3.103-0.777,17.132-1.221,20.225
		C377.86,198.801,347.038,212.806,331.033,212.806z"/>
	<path style="fill:#844921;" d="M180.961,212.806c19.553,0,18.715-32.651,18.715-52.204c0-16.005-10.786-30.084-26.23-34.237
		c-3.023-0.812-6.126-1.223-9.23-1.223c-19.553,0-35.46,4.906-35.46,24.458c0,3.103,0.777,17.132,1.221,20.225
		C134.133,198.801,164.956,212.806,180.961,212.806z"/>
</g>
<circle style="fill:#0F0F0E;" cx="347.878" cy="154.039" r="18.892"/>
<path style="fill:#E6E6E6;" d="M366.774,154.037c0,1.7-0.232,3.357-0.654,4.927c-2.224,1.031-4.723,1.613-7.339,1.613
	c-9.635,0-17.439-7.804-17.439-17.439c0-2.615,0.581-5.116,1.613-7.339c1.569-0.421,3.227-0.654,4.927-0.654
	C358.316,135.145,366.774,143.602,366.774,154.037z"/>
<circle style="fill:#0F0F0E;" cx="164.112" cy="154.039" r="18.892"/>
<path style="fill:#E6E6E6;" d="M183.003,154.037c0,1.7-0.233,3.357-0.654,4.927c-2.224,1.031-4.723,1.613-7.339,1.613
	c-9.635,0-17.439-7.804-17.439-17.439c0-2.615,0.581-5.116,1.613-7.339c1.569-0.421,3.227-0.654,4.927-0.654
	C174.545,135.145,183.003,143.602,183.003,154.037z"/>
<g>
</g>
<g>
</g>
<g>
</g>
<g>
</g>
<g>
</g>
<g>
</g>
<g>
</g>
<g>
</g>
<g>
</g>
<g>
</g>
<g>
</g>
<g>
</g>
<g>
</g>
<g>
</g>
<g>
</g>
</svg>
