<?xml version="1.0" encoding="iso-8859-1"?>
<!-- Generator: Adobe Illustrator 19.0.0, SVG Export Plug-In . SVG Version: 6.00 Build 0)  -->
<svg version="1.1" id="Capa_1" xmlns="http://www.w3.org/2000/svg" xmlns:xlink="http://www.w3.org/1999/xlink" x="0px" y="0px"
	 viewBox="0 0 512 512" style="enable-background:new 0 0 512 512;" xml:space="preserve">
<path style="fill:#63CBFF;" d="M511.999,255.999c0,2.508-0.031,4.995-0.104,7.481c-0.24,8.338-0.878,16.572-1.912,24.68
	c-1.484,11.88-3.783,23.51-6.844,34.826c-5.454,20.187-13.322,39.382-23.28,57.26c-2.508,4.535-5.162,8.976-7.941,13.333
	C426.454,464.791,346.739,511.999,256,511.999c-90.749,0-170.475-47.219-215.928-118.439c-2.779-4.347-5.433-8.788-7.941-13.312
	c-9.947-17.878-17.815-37.083-23.27-57.26c-3.062-11.316-5.36-22.946-6.844-34.826c-1.034-8.108-1.672-16.342-1.912-24.68
	c-0.073-2.487-0.104-4.974-0.104-7.481c0-7.784,0.345-15.485,1.024-23.082c1.87-20.929,6.259-41.138,12.863-60.311
	C48.484,72.16,143.81,0,256,0s207.516,72.16,242.113,172.606c6.604,19.174,10.992,39.382,12.863,60.311
	C511.654,240.514,511.999,248.215,511.999,255.999z"/>
<path style="fill:#427A2D;" d="M511.999,255.999c0,2.508-0.031,4.995-0.104,7.481c-6.98,3.835-14.994,6.008-23.51,6.008
	c-15.767,0-29.78-7.461-38.724-19.048c-8.955,11.588-22.967,19.048-38.734,19.048s-29.79-7.461-38.734-19.048
	c-8.944,11.588-22.956,19.048-38.734,19.048c-15.767,0-29.78-7.461-38.724-19.048c-8.955,11.588-22.967,19.048-38.734,19.048
	s-29.78-7.461-38.734-19.048c-8.944,11.588-22.956,19.048-38.724,19.048c-15.778,0-29.79-7.461-38.734-19.048
	c-8.944,11.588-22.967,19.048-38.734,19.048s-29.78-7.461-38.734-19.048c-8.944,11.588-22.956,19.048-38.724,19.048
	c-8.516,0-16.53-2.173-23.51-6.008c-0.073-2.487-0.104-4.974-0.104-7.481c0-7.784,0.345-15.485,1.024-23.082
	c1.87-20.929,6.259-41.138,12.863-60.311c3.145-0.627,6.395-0.961,9.728-0.961c15.767,0,29.78,7.471,38.724,19.048
	c8.955-11.577,22.967-19.048,38.734-19.048s29.79,7.471,38.734,19.048c8.944-11.577,22.956-19.048,38.734-19.048
	c15.767,0,29.78,7.471,38.724,19.048c8.955-11.577,22.967-19.048,38.734-19.048s29.78,7.471,38.734,19.048
	c8.944-11.577,22.956-19.048,38.724-19.048c15.778,0,29.79,7.471,38.734,19.048c8.944-11.577,22.967-19.048,38.734-19.048
	s29.78,7.471,38.734,19.048c8.944-11.577,22.956-19.048,38.724-19.048c3.333,0,6.583,0.334,9.728,0.961
	c6.604,19.174,10.992,39.382,12.863,60.311C511.654,240.514,511.999,248.215,511.999,255.999z"/>
<path style="fill:#4C8E37;" d="M511.999,255.999c0,2.508-0.031,4.995-0.104,7.481c-0.596,20.532-3.605,40.458-8.756,59.507
	c-4.66,1.463-9.613,2.257-14.754,2.257c-15.767,0-29.78-7.471-38.724-19.048c-8.955,11.577-22.967,19.048-38.734,19.048
	s-29.79-7.471-38.734-19.048c-8.944,11.577-22.956,19.048-38.734,19.048c-15.767,0-29.78-7.471-38.724-19.048
	c-8.955,11.577-22.967,19.048-38.734,19.048s-29.78-7.471-38.734-19.048c-8.944,11.577-22.956,19.048-38.724,19.048
	c-15.778,0-29.79-7.471-38.734-19.048c-8.944,11.577-22.967,19.048-38.734,19.048s-29.78-7.471-38.734-19.048
	c-8.944,11.577-22.956,19.048-38.724,19.048c-5.141,0-10.094-0.794-14.754-2.257c-5.151-19.048-8.161-38.975-8.756-59.507
	c-0.073-2.487-0.104-4.974-0.104-7.481c0-7.784,0.345-15.485,1.024-23.082c6.76-3.521,14.44-5.517,22.591-5.517
	c15.767,0,29.78,7.461,38.724,19.048c8.955-11.588,22.967-19.048,38.734-19.048s29.79,7.461,38.734,19.048
	c8.944-11.588,22.956-19.048,38.734-19.048c15.767,0,29.78,7.461,38.724,19.048c8.955-11.588,22.967-19.048,38.734-19.048
	s29.78,7.461,38.734,19.048c8.944-11.588,22.956-19.048,38.724-19.048c15.778,0,29.79,7.461,38.734,19.048
	c8.944-11.588,22.967-19.048,38.734-19.048s29.78,7.461,38.734,19.048c8.944-11.588,22.956-19.048,38.724-19.048
	c8.15,0,15.83,1.996,22.591,5.517C511.654,240.514,511.999,248.215,511.999,255.999z"/>
<path style="fill:#69AF54;" d="M509.983,288.161c-1.484,11.88-3.783,23.51-6.844,34.826c-5.454,20.187-13.322,39.382-23.28,57.26
	c-12.236-2.152-22.904-8.861-30.197-18.307c-8.955,11.577-22.967,19.048-38.734,19.048s-29.79-7.471-38.734-19.048
	c-8.944,11.577-22.956,19.048-38.734,19.048c-15.767,0-29.78-7.471-38.724-19.048C285.78,373.519,271.767,380.99,256,380.99
	c-15.767,0-29.78-7.471-38.734-19.048c-8.944,11.577-22.956,19.048-38.724,19.048c-15.778,0-29.79-7.471-38.734-19.048
	c-8.944,11.577-22.967,19.048-38.734,19.048s-29.78-7.471-38.734-19.048c-7.293,9.446-17.962,16.154-30.208,18.307
	c-9.947-17.878-17.815-37.083-23.27-57.26c-3.062-11.316-5.36-22.946-6.844-34.826c6.52-3.218,13.845-5.015,21.598-5.015
	c15.767,0,29.78,7.461,38.724,19.048c8.955-11.588,22.967-19.048,38.734-19.048s29.79,7.461,38.734,19.048
	c8.944-11.588,22.956-19.048,38.734-19.048c15.767,0,29.78,7.461,38.724,19.048c8.955-11.588,22.967-19.048,38.734-19.048
	s29.78,7.461,38.734,19.048c8.944-11.588,22.956-19.048,38.724-19.048c15.778,0,29.79,7.461,38.734,19.048
	c8.944-11.588,22.967-19.048,38.734-19.048s29.78,7.461,38.734,19.048c8.944-11.588,22.956-19.048,38.724-19.048
	C496.138,283.146,503.463,284.943,509.983,288.161z"/>
<path style="fill:#427A2D;" d="M16.054,345.397C52.316,442.695,146.062,511.999,256,511.999s203.684-69.304,239.946-166.602H16.054z
	"/>
<path style="fill:#CCCCCC;" d="M380.582,479.691c-5.705,3.187-11.557,6.165-17.523,8.913
	c-32.569,15.026-68.838,23.395-107.06,23.395c-16.833,0-33.28-1.63-49.215-4.723c-20.24-3.939-39.633-10.271-57.856-18.672
	c-5.966-2.748-11.807-5.726-17.512-8.913l10.459-25.913l7.659-18.965l9.644-23.918l9.78-24.221l38.285-94.866h97.51l16.885,41.838
	l25.276,62.621l5.904,14.629l9.655,23.918l7.649,18.965L380.582,479.691z"/>
<path style="fill:#E6E6E6;" d="M380.579,479.692C343.715,500.276,301.229,512,255.996,512c-16.833,0-33.28-1.63-49.215-4.723
	c-4.012-26.154-1.787-74.731,61.753-97.395c29.999-10.7,31.18-76.601,53.102-76.236L380.579,479.692z"/>
<path style="fill:#665B5B;" d="M290.656,426.715c7.316,0.446,12.691,8.984,11.265,18.256l-2.64,17.161
	c-1.635,10.637-7.659,19.257-15.682,22.455l-13.366,5.319c-9.278,3.688-19.203,3.688-28.481,0l-13.366-5.319
	c-8.023-3.197-14.047-11.818-15.682-22.455l-2.64-17.161c-1.426-9.272,3.95-17.809,11.265-18.256
	c2.078-0.126,4.272-0.549,6.546-1.373c13.949-5.078,14.378-17.732,28.117-17.732c13.738,0,14.168,12.654,28.117,17.732
	C286.385,426.166,288.578,426.587,290.656,426.715z"/>
<path style="fill:#CCCCCC;" d="M367.856,244.046l-2.623,6.102l-3.971,9.247h-0.01l-13.688,31.838l-8.662,20.156v0.01l-0.846,1.954
	c-1.118,2.602-1.954,5.308-2.508,8.077l-3.082,15.506l-3.835,19.31l-3.5,17.627l-5.475,27.533l-7.795,39.257
	c-2.111,10.637-9.885,19.257-20.24,22.455l-17.251,5.319c-11.975,3.688-24.785,3.688-36.759,0l-17.251-5.319
	c-7.847-2.424-14.2-7.952-17.753-15.12c-1.128-2.288-1.975-4.754-2.487-7.335l-7.795-39.257l-5.465-27.533l-3.5-17.627l-3.835-19.31
	l-3.082-15.506c-0.554-2.769-1.4-5.475-2.508-8.077l-0.846-1.964l-8.673-20.156l-13.688-31.838l-3.971-9.226v-0.01l-2.633-6.113
	c-3.95-9.195-5.726-19.069-5.298-28.881c0.272-6.541,1.536-13.04,3.772-19.289c0.209-0.606,0.439-1.212,0.669-1.808l12.34-31.66
	l6.823-17.512l6.395-16.415l5.987-15.36c3.344-8.589,8.568-16.175,15.151-22.288c6.593-6.113,14.555-10.752,23.364-13.448
	c13.908-4.242,28.285-6.374,42.663-6.374c14.378,0,28.756,2.132,42.663,6.374c0.794,0.24,1.578,0.502,2.351,0.773
	c0.554,0.188,1.097,0.387,1.641,0.606c14.461,5.538,26.237,16.468,32.852,30.48c0.606,1.264,1.16,2.56,1.672,3.877l0.836,2.132
	l11.546,29.644l6.823,17.512l12.34,31.66c0.23,0.596,0.46,1.202,0.669,1.808c2.236,6.248,3.49,12.748,3.772,19.268
	C373.582,224.956,371.806,234.851,367.856,244.046z"/>
<path style="fill:#B39F9F;" d="M243.454,297.231c0,65.912-16.614,122.995-40.845,150.768c-1.128-2.288-1.975-4.754-2.487-7.335
	l-7.795-39.257l-16.718-84.145l-28.85-67.093v-0.01l-2.633-6.113c-3.95-9.195-5.726-19.069-5.298-28.881
	c0.303-7.168,1.787-14.294,4.441-21.096l19.163-49.173l6.395-16.415h0.439C210.237,128.48,243.454,204.037,243.454,297.231z"/>
<path style="fill:#E6E6E6;" d="M301.86,407.614h-91.742c21.671-34.544,29.644-183.599-47.689-262.718l12.382-31.775
	c3.344-8.589,8.568-16.175,15.151-22.288c6.593-6.113,14.555-10.752,23.364-13.448c6.468-1.975,13.019-3.48,19.634-4.535
	c7.628-1.223,15.329-1.839,23.03-1.839c7.701,0,15.402,0.616,23.03,1.839c6.614,1.055,13.166,2.56,19.634,4.535
	c17.627,5.381,31.828,18.557,38.515,35.735l12.382,31.775C272.217,224.015,280.188,373.07,301.86,407.614z"/>
<g>
	<path style="fill:#4D4445;" d="M339.678,113.117c0,0-28.648,37.282-41.187,37.282s2.664-73.016,2.664-73.016L339.678,113.117z"/>
	<path style="fill:#4D4445;" d="M172.307,113.117c0,0,28.648,37.282,41.187,37.282c12.539,0-2.664-73.016-2.664-73.016
		L172.307,113.117z"/>
</g>
<path style="fill:#E6E6E6;" d="M347.133,5.697c2.824-6.87,12.256-7.711,16.332-1.502c9.863,15.024,21.174,38.432,14.151,59.502
	c-11.494,34.482-29.376,29.355-37.937,49.42s-38.522-35.734-38.522-35.734s-3.998-34.584,22.125-46.078
	C336.285,25.583,343.332,14.942,347.133,5.697z"/>
<path style="fill:#4D4445;" d="M325.523,98.984c-8.675-0.41-14.887-8.584-12.896-17.037c1.984-8.423,8.575-18.929,26.327-28.699
	c6.388-3.516,9.815-7.712,11.636-11.42c1.42-2.89,5.598-2.532,6.513,0.556c3.496,11.79,3.994,32.431-22.163,53.515
	C332.284,98.04,328.932,99.145,325.523,98.984L325.523,98.984z"/>
<path style="fill:#E6E6E6;" d="M164.853,5.697c-2.824-6.87-12.256-7.711-16.332-1.502c-9.863,15.024-21.174,38.432-14.151,59.502
	c11.494,34.482,29.376,29.355,37.937,49.42s38.522-35.734,38.522-35.734s3.998-34.584-22.125-46.078
	C175.701,25.583,168.653,14.942,164.853,5.697z"/>
<path style="fill:#4D4445;" d="M186.462,98.984c8.675-0.41,14.887-8.584,12.896-17.037c-1.984-8.423-8.575-18.929-26.327-28.699
	c-6.388-3.516-9.815-7.712-11.636-11.42c-1.42-2.89-5.598-2.532-6.513,0.556c-3.496,11.79-3.994,32.431,22.163,53.515
	C179.702,98.04,183.055,99.145,186.462,98.984L186.462,98.984z"/>
<path style="fill:#0F0F0E;" d="M380.335,228.266c0,1.646-0.225,3.249-0.633,4.768c-2.096,7.792-9.198,13.516-17.651,13.516
	c-10.098,0-18.284-8.186-18.284-18.284c0-8.453,5.724-15.555,13.516-17.651c1.519-0.408,3.122-0.633,4.768-0.633
	C372.15,209.982,380.335,218.168,380.335,228.266z"/>
<path style="fill:#E6E6E6;" d="M380.335,228.266c0,1.646-0.225,3.249-0.633,4.768c-2.151,0.999-4.571,1.561-7.102,1.561
	c-9.325,0-16.877-7.553-16.877-16.877c0-2.532,0.562-4.951,1.561-7.102c1.519-0.408,3.122-0.633,4.768-0.633
	C372.15,209.982,380.335,218.168,380.335,228.266z"/>
<path style="fill:#0F0F0E;" d="M164.042,228.266c0,1.646-0.225,3.249-0.633,4.768c-2.096,7.792-9.198,13.516-17.651,13.516
	c-10.098,0-18.284-8.186-18.284-18.284c0-8.453,5.724-15.555,13.516-17.651c1.519-0.408,3.122-0.633,4.768-0.633
	C155.856,209.982,164.042,218.168,164.042,228.266z"/>
<path style="fill:#E6E6E6;" d="M164.042,228.266c0,1.646-0.225,3.249-0.633,4.768c-2.151,0.999-4.571,1.561-7.102,1.561
	c-9.325,0-16.877-7.553-16.877-16.877c0-2.532,0.562-4.951,1.561-7.102c1.519-0.408,3.122-0.633,4.768-0.633
	C155.856,209.982,164.042,218.168,164.042,228.266z"/>
<path style="fill:#CCCCCC;" d="M377.461,195.876h-39.27v19.332h39.27c5.338,0,9.665-4.328,9.665-9.665l0,0
	C387.127,200.203,382.799,195.876,377.461,195.876z"/>
<path style="fill:#B39F9F;" d="M134.525,195.876h35.525v19.332h-35.525c-5.338,0-9.665-4.328-9.665-9.665l0,0
	C124.859,200.203,129.186,195.876,134.525,195.876z"/>
<path style="fill:#4D4445;" d="M300.731,405.246c9.443,0.446,16.381,8.984,14.54,18.256l-3.407,17.161
	c-2.111,10.637-9.885,19.257-20.24,22.455l-17.251,5.319c-11.975,3.688-24.785,3.688-36.759,0l-17.251-5.319
	c-10.355-3.197-18.129-11.818-20.24-22.455l-3.407-17.161c-1.841-9.272,5.097-17.809,14.54-18.256
	c2.682-0.126,5.513-0.549,8.449-1.373c18.004-5.078,18.557-17.732,36.289-17.732s18.286,12.654,36.289,17.732
	C295.218,404.699,298.05,405.12,300.731,405.246z"/>
<g>
	
		<ellipse transform="matrix(0.6818 -0.7315 0.7315 0.6818 -229.491 343.7096)" style="fill:#332D2D;" cx="280.361" cy="435.663" rx="12.538" ry="8.359"/>
	
		<ellipse transform="matrix(0.6818 0.7315 -0.7315 0.6818 392.4134 -30.8307)" style="fill:#332D2D;" cx="231.648" cy="435.678" rx="12.538" ry="8.359"/>
</g>
<g>
	<path style="fill:#4D4445;" d="M361.251,259.395l-13.688,31.838l-42.883-12.392c-6.677-1.923-5.914-11.619,0.982-12.487
		L361.251,259.395z"/>
	<path style="fill:#4D4445;" d="M338.902,311.4l-0.846,1.954c-1.118,2.602-1.954,5.308-2.508,8.077l-3.082,15.506l-29.874-8.631
		c-6.677-1.933-5.914-11.63,0.982-12.497L338.902,311.4z"/>
	<path style="fill:#4D4445;" d="M328.631,356.247l-3.5,17.627l-22.058-6.374c-4.357-1.254-3.856-7.576,0.637-8.14L328.631,356.247z"
		/>
	<path style="fill:#4D4445;" d="M369.382,195.876h-70.656c-10.104,0-12.037-14.346-2.299-17.021l59.946-16.447l12.34,31.66
		C368.943,194.664,369.173,195.27,369.382,195.876z"/>
	<path style="fill:#4D4445;" d="M362.474,434.812h-32.507c-10.104,0-12.037-14.346-2.299-17.021l25.151-6.896L362.474,434.812z"/>
	<path style="fill:#4D4445;" d="M380.582,479.691c-5.705,3.187-11.557,6.165-17.523,8.913h-43.186
		c-12.048,0-14.346-17.094-2.738-20.292l52.987-14.534L380.582,479.691z"/>
	<path style="fill:#4D4445;" d="M182.01,434.812h-32.475l9.644-23.918l25.13,6.896C194.047,420.466,192.114,434.812,182.01,434.812z
		"/>
	<path style="fill:#4D4445;" d="M192.105,488.604H148.93c-5.966-2.748-11.807-5.726-17.512-8.913l10.459-25.913l52.966,14.534
		C206.451,471.509,204.151,488.604,192.105,488.604z"/>
	<path style="fill:#4D4445;" d="M207.307,278.841l-42.893,12.392l-13.688-31.838l55.599,6.959
		C213.222,267.222,213.985,276.918,207.307,278.841z"/>
	<path style="fill:#4D4445;" d="M209.397,328.306l-29.874,8.631l-3.082-15.506c-0.554-2.769-1.4-5.475-2.508-8.077l-0.846-1.964
		l35.328,4.42C215.312,316.677,216.075,326.373,209.397,328.306z"/>
	<path style="fill:#4D4445;" d="M208.916,367.5l-22.058,6.374l-3.5-17.627l24.921,3.114
		C212.772,359.925,213.264,366.246,208.916,367.5z"/>
	<path style="fill:#4D4445;" d="M213.264,195.876h-70.666c0.209-0.606,0.439-1.212,0.669-1.808l12.34-31.66l59.946,16.447
		C225.289,181.53,223.357,195.876,213.264,195.876z"/>
	<path style="fill:#4D4445;" d="M279.019,72.85l-17.314,235.582c-0.522,7.074-10.898,7.074-11.421,0L232.959,72.85
		c7.628-1.223,15.329-1.839,23.029-1.839C263.689,71.011,271.39,71.628,279.019,72.85z"/>
</g>
<g>
</g>
<g>
</g>
<g>
</g>
<g>
</g>
<g>
</g>
<g>
</g>
<g>
</g>
<g>
</g>
<g>
</g>
<g>
</g>
<g>
</g>
<g>
</g>
<g>
</g>
<g>
</g>
<g>
</g>
</svg>
