<?xml version="1.0" encoding="iso-8859-1"?>
<!-- Generator: Adobe Illustrator 19.0.0, SVG Export Plug-In . SVG Version: 6.00 Build 0)  -->
<svg version="1.1" id="Capa_1" xmlns="http://www.w3.org/2000/svg" xmlns:xlink="http://www.w3.org/1999/xlink" x="0px" y="0px"
	 viewBox="0 0 512 512" style="enable-background:new 0 0 512 512;" xml:space="preserve">
<path style="fill:#63CBFF;" d="M512,256c0,2.508-0.031,4.995-0.104,7.481c-0.24,8.338-0.878,16.572-1.912,24.68
	c-1.484,11.88-3.783,23.51-6.844,34.826c-5.454,20.187-13.322,39.382-23.28,57.26c-2.508,4.535-5.162,8.976-7.941,13.333
	C426.454,464.792,346.739,512,256,512c-90.749,0-170.475-47.219-215.928-118.439c-2.779-4.347-5.433-8.788-7.941-13.312
	c-9.947-17.878-17.816-37.083-23.27-57.26c-3.062-11.316-5.36-22.946-6.844-34.826c-1.034-8.108-1.672-16.342-1.912-24.68
	C0.031,260.995,0,258.508,0,256c0-7.784,0.345-15.485,1.024-23.082c1.87-20.929,6.259-41.138,12.863-60.312
	C48.483,72.161,143.809,0,256,0s207.517,72.161,242.113,172.607c6.604,19.174,10.992,39.382,12.863,60.312
	C511.655,240.515,512,248.215,512,256z"/>
<path style="fill:#427A2D;" d="M512,256c0,2.508-0.031,4.995-0.104,7.481c-6.98,3.835-14.994,6.008-23.51,6.008
	c-15.768,0-29.78-7.461-38.724-19.048c-8.955,11.588-22.967,19.048-38.734,19.048c-15.768,0-29.79-7.461-38.734-19.048
	c-8.944,11.588-22.956,19.048-38.734,19.048c-15.768,0-29.78-7.461-38.724-19.048C285.78,262.029,271.767,269.49,256,269.49
	s-29.78-7.461-38.734-19.048c-8.944,11.588-22.956,19.048-38.724,19.048c-15.778,0-29.79-7.461-38.734-19.048
	c-8.944,11.588-22.967,19.048-38.734,19.048s-29.78-7.461-38.734-19.048c-8.944,11.588-22.956,19.048-38.724,19.048
	c-8.516,0-16.53-2.173-23.51-6.008C0.031,260.995,0,258.508,0,256c0-7.784,0.345-15.485,1.024-23.082
	c1.87-20.929,6.259-41.138,12.863-60.312c3.145-0.627,6.395-0.961,9.728-0.961c15.768,0,29.78,7.471,38.724,19.048
	c8.955-11.577,22.967-19.048,38.734-19.048s29.79,7.471,38.734,19.048c8.944-11.577,22.956-19.048,38.734-19.048
	c15.768,0,29.78,7.471,38.724,19.048c8.955-11.577,22.967-19.048,38.734-19.048s29.78,7.471,38.734,19.048
	c8.944-11.577,22.956-19.048,38.724-19.048c15.778,0,29.79,7.471,38.734,19.048c8.944-11.577,22.967-19.048,38.734-19.048
	c15.767,0,29.78,7.471,38.734,19.048c8.944-11.577,22.956-19.048,38.724-19.048c3.333,0,6.583,0.334,9.728,0.961
	c6.604,19.174,10.992,39.382,12.863,60.312C511.655,240.515,512,248.215,512,256z"/>
<path style="fill:#4C8E37;" d="M512,256c0,2.508-0.031,4.995-0.104,7.481c-0.596,20.532-3.605,40.458-8.756,59.507
	c-4.66,1.463-9.613,2.257-14.754,2.257c-15.768,0-29.78-7.471-38.724-19.048c-8.955,11.577-22.967,19.048-38.734,19.048
	c-15.768,0-29.79-7.471-38.734-19.048c-8.944,11.577-22.956,19.048-38.734,19.048c-15.768,0-29.78-7.471-38.724-19.048
	c-8.955,11.577-22.967,19.048-38.734,19.048s-29.78-7.471-38.734-19.048c-8.944,11.577-22.956,19.048-38.724,19.048
	c-15.778,0-29.79-7.471-38.734-19.048c-8.944,11.577-22.967,19.048-38.734,19.048s-29.78-7.471-38.734-19.048
	c-8.944,11.577-22.956,19.048-38.724,19.048c-5.141,0-10.094-0.794-14.754-2.257C3.709,303.94,0.7,284.014,0.104,263.481
	C0.031,260.995,0,258.508,0,256c0-7.784,0.345-15.485,1.024-23.082c6.76-3.521,14.44-5.517,22.591-5.517
	c15.768,0,29.78,7.461,38.724,19.048c8.955-11.588,22.967-19.048,38.734-19.048s29.79,7.461,38.734,19.048
	c8.944-11.588,22.956-19.048,38.734-19.048c15.768,0,29.78,7.461,38.724,19.048c8.955-11.588,22.967-19.048,38.734-19.048
	s29.78,7.461,38.734,19.048c8.944-11.588,22.956-19.048,38.724-19.048c15.778,0,29.79,7.461,38.734,19.048
	c8.944-11.588,22.967-19.048,38.734-19.048c15.767,0,29.78,7.461,38.734,19.048c8.944-11.588,22.956-19.048,38.724-19.048
	c8.15,0,15.83,1.996,22.591,5.517C511.655,240.515,512,248.215,512,256z"/>
<path style="fill:#69AF54;" d="M509.983,288.162c-1.484,11.88-3.783,23.51-6.844,34.826c-5.454,20.187-13.322,39.382-23.28,57.26
	c-12.236-2.152-22.904-8.861-30.198-18.307c-8.955,11.577-22.967,19.048-38.734,19.048c-15.768,0-29.79-7.471-38.734-19.048
	c-8.944,11.577-22.956,19.048-38.734,19.048c-15.768,0-29.78-7.471-38.724-19.048c-8.955,11.577-22.967,19.048-38.734,19.048
	s-29.78-7.471-38.734-19.048c-8.944,11.577-22.956,19.048-38.724,19.048c-15.778,0-29.79-7.471-38.734-19.048
	c-8.944,11.577-22.967,19.048-38.734,19.048s-29.78-7.471-38.734-19.048c-7.293,9.446-17.962,16.154-30.208,18.307
	c-9.947-17.878-17.816-37.083-23.27-57.26c-3.062-11.316-5.36-22.946-6.844-34.826c6.52-3.218,13.845-5.016,21.598-5.016
	c15.768,0,29.78,7.461,38.724,19.048c8.955-11.588,22.967-19.048,38.734-19.048s29.79,7.461,38.734,19.048
	c8.944-11.588,22.956-19.048,38.734-19.048c15.768,0,29.78,7.461,38.724,19.048c8.955-11.588,22.967-19.048,38.734-19.048
	s29.78,7.461,38.734,19.048c8.944-11.588,22.956-19.048,38.724-19.048c15.778,0,29.79,7.461,38.734,19.048
	c8.944-11.588,22.967-19.048,38.734-19.048c15.767,0,29.78,7.461,38.734,19.048c8.944-11.588,22.956-19.048,38.724-19.048
	C496.138,283.146,503.463,284.944,509.983,288.162z"/>
<path style="fill:#427A2D;" d="M495.95,345.401c-18.118,48.588-50.573,90.206-92.223,119.693C361.994,494.634,311.024,512,256,512
	c-22.037,0-43.416-2.779-63.822-8.025c-30.542-7.837-58.89-21.17-83.916-38.891C66.612,435.608,34.158,394,16.05,345.401H495.95z"/>
<path style="fill:#CCCCCC;" d="M457.728,413.633C410.864,473.516,337.93,512,256,512c-42.12,0-81.857-10.167-116.903-28.202
	c-33.123-17.021-62.056-41.064-84.825-70.165c7.199-28.003,20.929-53.708,39.612-75.191c30.03-34.534,72.861-58.201,121.992-63.133
	c3.124-0.313,6.269-0.554,9.435-0.711c20.459-1.034,40.918-1.034,61.377,0c53.081,2.685,99.495,27.115,131.427,63.843
	C436.799,359.926,450.529,385.63,457.728,413.633z"/>
<g>
	<path style="fill:#B39F9F;" d="M242.134,297.232c0,0-100.989,42.966-103.037,186.567c-33.123-17.021-62.056-41.064-84.825-70.165
		c7.199-28.003,20.929-53.708,39.612-75.191c30.03-34.534,72.861-58.201,121.992-63.133L242.134,297.232z"/>
	<path style="fill:#B39F9F;" d="M383.844,13.589c4.123-10.032,17.894-11.26,23.847-2.192c14.401,21.937,30.916,56.117,20.663,86.879
		c-16.782,50.347-42.893,42.863-55.393,72.161s-56.248-52.177-56.248-52.177s-5.837-50.498,32.305-67.28
		C368.005,42.625,378.296,27.088,383.844,13.589z"/>
</g>
<path style="fill:#4D4445;" d="M352.292,149.8c-12.666-0.598-21.737-12.534-18.829-24.876c2.897-12.298,12.521-27.64,38.441-41.905
	c9.329-5.135,14.331-11.262,16.99-16.673c2.074-4.22,8.173-3.698,9.511,0.811c5.105,17.215,5.831,47.355-32.362,78.14
	C362.164,148.421,357.268,150.034,352.292,149.8L352.292,149.8z"/>
<path style="fill:#B39F9F;" d="M128.142,13.589c-4.123-10.032-17.894-11.26-23.847-2.192C89.895,33.333,73.379,67.513,83.634,98.276
	c16.782,50.347,42.893,42.863,55.393,72.161s56.248-52.177,56.248-52.177s5.837-50.498-32.305-67.28
	C143.982,42.625,133.691,27.088,128.142,13.589z"/>
<path style="fill:#4D4445;" d="M159.695,149.8c12.666-0.598,21.737-12.534,18.829-24.876c-2.897-12.298-12.521-27.64-38.441-41.905
	c-9.329-5.135-14.331-11.262-16.99-16.673c-2.074-4.22-8.173-3.698-9.511,0.811c-5.105,17.215-5.831,47.355,32.362,78.14
	C149.824,148.421,154.718,150.034,159.695,149.8L159.695,149.8z"/>
<path style="fill:#CCCCCC;" d="M290.656,426.715c7.316,0.446,12.692,8.984,11.265,18.256l-2.64,17.161
	c-1.635,10.637-7.659,19.257-15.682,22.455l-13.366,5.319c-9.278,3.688-19.203,3.688-28.481,0l-13.366-5.319
	c-8.023-3.197-14.047-11.818-15.682-22.455l-2.64-17.161c-1.426-9.272,3.95-17.809,11.265-18.256
	c2.078-0.126,4.272-0.549,6.546-1.373c13.949-5.078,14.378-17.732,28.117-17.732c13.738,0,14.168,12.654,28.117,17.732
	C286.386,426.167,288.579,426.588,290.656,426.715z"/>
<path style="fill:#B39F9F;" d="M379.643,244.046l-2.899,6.102l-30.043,63.207c-1.234,2.598-2.164,5.305-2.773,8.078l-17.564,79.974
	l-8.616,39.257c-2.333,10.637-10.925,19.257-22.371,22.455l-19.068,5.319c-13.236,3.689-27.395,3.689-40.632,0l-19.068-5.319
	c-8.674-2.424-15.695-7.952-19.622-15.12c-1.248-2.288-2.183-4.754-2.749-7.335l-8.616-39.257l-17.564-79.974
	c-0.609-2.773-1.538-5.48-2.772-8.077l-30.031-63.186v-0.01l-2.91-6.113c-4.366-9.195-6.329-19.069-5.856-28.881
	c0.334-7.168,1.975-14.294,4.909-21.096l21.182-49.173l7.069-16.415l6.617-15.36c3.696-8.589,9.471-16.175,16.747-22.288
	c7.288-6.113,16.088-10.752,25.825-13.448c15.373-4.242,31.264-6.374,47.157-6.374c15.892,0,31.785,2.132,47.157,6.374
	c19.484,5.381,35.18,18.557,42.571,35.736l13.686,31.775l21.182,49.173c2.934,6.792,4.562,13.918,4.909,21.076
	C385.972,224.956,384.008,234.851,379.643,244.046z"/>
<path style="fill:#998888;" d="M242.134,297.232c0,65.912-18.364,122.995-45.147,150.768c-1.248-2.288-2.183-4.754-2.749-7.335
	l-8.616-39.257l-18.479-84.146l-31.888-67.093v-0.01l-2.91-6.113c-4.366-9.195-6.329-19.069-5.856-28.881
	c0.334-7.168,1.975-14.294,4.909-21.096l21.182-49.173l7.069-16.415h0.485C205.418,128.481,242.134,204.037,242.134,297.232z"/>
<path style="fill:#CCCCCC;" d="M306.698,407.615H205.291c20.658-29.8,30.062-144.812-22.622-226.628
	c-8.391-13.03-18.348-25.224-30.093-36.091l13.688-31.775c3.699-8.589,9.467-16.175,16.75-22.288
	c7.283-6.113,16.091-10.752,25.819-13.448c13.981-3.856,28.369-5.966,42.809-6.311c1.442-0.042,2.894-0.063,4.347-0.063
	c15.893,0,31.786,2.132,47.156,6.374c19.487,5.381,35.182,18.557,42.58,35.736l13.678,31.775
	C273.93,224.016,282.739,373.07,306.698,407.615z"/>
<path style="fill:#0F0F0E;" d="M380.337,228.266c0,1.646-0.225,3.249-0.633,4.768c-2.096,7.792-9.198,13.516-17.651,13.516
	c-10.098,0-18.284-8.186-18.284-18.284c0-8.453,5.724-15.555,13.516-17.651c1.519-0.408,3.122-0.633,4.768-0.633
	C372.151,209.983,380.337,218.168,380.337,228.266z"/>
<path style="fill:#E6E6E6;" d="M380.337,228.266c0,1.646-0.225,3.249-0.633,4.768c-2.151,0.999-4.571,1.561-7.102,1.561
	c-9.325,0-16.877-7.553-16.877-16.877c0-2.532,0.562-4.951,1.561-7.102c1.519-0.408,3.122-0.633,4.768-0.633
	C372.151,209.983,380.337,218.168,380.337,228.266z"/>
<path style="fill:#0F0F0E;" d="M164.043,228.266c0,1.646-0.225,3.249-0.633,4.768c-2.096,7.792-9.198,13.516-17.651,13.516
	c-10.098,0-18.284-8.186-18.284-18.284c0-8.453,5.724-15.555,13.516-17.651c1.519-0.408,3.122-0.633,4.768-0.633
	C155.857,209.983,164.043,218.168,164.043,228.266z"/>
<path style="fill:#E6E6E6;" d="M164.043,228.266c0,1.646-0.225,3.249-0.633,4.768c-2.151,0.999-4.571,1.561-7.102,1.561
	c-9.325,0-16.877-7.553-16.877-16.877c0-2.532,0.562-4.951,1.561-7.102c1.519-0.408,3.122-0.633,4.768-0.633
	C155.857,209.983,164.043,218.168,164.043,228.266z"/>
<path style="fill:#B39F9F;" d="M377.462,195.877h-39.27v19.332h39.269c5.338,0,9.665-4.328,9.665-9.665l0,0
	C387.127,200.203,382.8,195.877,377.462,195.877z"/>
<path style="fill:#998888;" d="M134.524,195.877h35.525v19.332h-35.525c-5.338,0-9.665-4.328-9.665-9.665l0,0
	C124.859,200.203,129.187,195.877,134.524,195.877z"/>
<path style="fill:#E6E6E6;" d="M306.021,405.247c10.559,0.446,18.317,8.984,16.259,18.256l-3.811,17.161
	c-2.36,10.637-11.053,19.257-22.632,22.455l-19.291,5.319c-13.39,3.689-27.715,3.689-41.105,0l-19.291-5.319
	c-11.58-3.197-20.272-11.818-22.632-22.455l-3.811-17.161c-2.058-9.272,5.7-17.809,16.259-18.256
	c2.999-0.126,6.165-0.549,9.448-1.373c20.132-5.078,20.752-17.732,40.58-17.732s20.448,12.654,40.58,17.732
	C299.856,404.699,303.022,405.121,306.021,405.247z"/>
<g>
	<path style="fill:#4D4445;" d="M290.079,441.38c-5.28,5.066-12.621,6.62-16.398,3.473c-3.776-3.148-2.558-9.806,2.722-14.872
		c5.28-5.066,12.621-6.62,16.398-3.473C296.578,429.656,295.359,436.314,290.079,441.38z"/>
	<path style="fill:#4D4445;" d="M221.907,441.38c5.28,5.066,12.621,6.62,16.398,3.473s2.558-9.806-2.722-14.872
		c-5.28-5.066-12.621-6.62-16.398-3.473C215.409,429.656,216.627,436.314,221.907,441.38z"/>
</g>
<path style="fill:#B39F9F;" d="M251.643,71.074c-13.928,12.675-68.631,19.759-68.974,109.913
	c-8.391-13.03-18.348-25.224-30.093-36.091l13.688-31.775c3.699-8.589,9.467-16.175,16.75-22.288
	c7.283-6.113,16.091-10.752,25.819-13.448C222.814,73.529,237.202,71.419,251.643,71.074z"/>
<path style="fill:#998888;" d="M263.816,106.486h-15.653c-3.208,0-6.217-0.418-8.903-1.17c-8.819-2.435-14.19-8.37-11.776-14.514
	l17.962-45.547c2.633-6.677,18.453-6.677,21.086,0l17.962,45.547C287.65,98.816,277.525,106.486,263.816,106.486z"/>
<path style="fill:#807272;" d="M255.143,106.486h-6.98c-3.208,0-6.217-0.418-8.903-1.17l6.865-25.913
	c0.982-3.699,6.363-3.239,6.698,0.575L255.143,106.486z"/>
<g>
</g>
<g>
</g>
<g>
</g>
<g>
</g>
<g>
</g>
<g>
</g>
<g>
</g>
<g>
</g>
<g>
</g>
<g>
</g>
<g>
</g>
<g>
</g>
<g>
</g>
<g>
</g>
<g>
</g>
</svg>
