<?xml version="1.0" encoding="iso-8859-1"?>
<!-- Generator: Adobe Illustrator 19.0.0, SVG Export Plug-In . SVG Version: 6.00 Build 0)  -->
<svg version="1.1" id="Capa_1" xmlns="http://www.w3.org/2000/svg" xmlns:xlink="http://www.w3.org/1999/xlink" x="0px" y="0px"
	 viewBox="0 0 512 512" style="enable-background:new 0 0 512 512;" xml:space="preserve">
<path style="fill:#63CBFF;" d="M512,255.999c0,6.081-0.209,12.11-0.627,18.077c-4.462,63.947-32.402,121.406-75.264,163.839
	c-38.765,38.389-89.725,64.459-146.546,71.899c-10.982,1.442-22.183,2.184-33.562,2.184c-5.81,0-11.577-0.199-17.293-0.585
	c-5.371-0.355-10.689-0.878-15.956-1.557c-56.957-7.387-108.031-33.489-146.87-71.951C29.03,391.511,0.003,327.146,0.003,255.999
	c0-141.384,114.614-255.998,255.998-255.998c13.625,0,27.01,1.066,40.061,3.114c15.673,2.466,30.887,6.353,45.484,11.525
	c82.787,29.351,145.992,100.09,164.738,187.339C510.035,219.397,512,237.463,512,255.999z"/>
<g>
	<path style="fill:#A1E4FF;" d="M134.793,202.854L134.793,202.854c0-6.636-5.38-12.016-12.016-12.016H55.903
		c-6.636,0-12.016,5.38-12.016,12.016l0,0c0,6.636,5.38,12.016,12.016,12.016h8.36c6.636,0,12.016,5.38,12.016,12.016l0,0
		c0,6.636-5.38,12.016-12.016,12.016h-25.6c-6.636,0-12.016,5.38-12.016,12.016l0,0c0,6.636,5.38,12.016,12.016,12.016h66.873
		c6.636,0,12.016-5.38,12.016-12.016l0,0c0-6.636,5.38-12.016,12.016-12.016h25.6c6.636,0,12.016-5.38,12.016-12.016l0,0
		c0-6.636-5.38-12.016-12.016-12.016h-8.36C140.173,214.87,134.793,209.49,134.793,202.854z"/>
	<path style="fill:#A1E4FF;" d="M341.547,14.64c-2.173,2.173-3.521,5.183-3.521,8.495c0,6.635-5.381,12.016-12.016,12.016h-66.873
		c-3.323,0-6.322-1.348-8.495-3.521c-2.173-2.173-3.521-5.183-3.521-8.495c0-6.635,5.381-12.016,12.016-12.016h25.6
		c3.323,0,6.322-1.348,8.495-3.521c1.254-1.254,2.226-2.779,2.832-4.483C311.736,5.581,326.949,9.468,341.547,14.64z"/>
	<path style="fill:#A1E4FF;" d="M512,255.999c0,6.081-0.209,12.11-0.627,18.077H495.94c-6.635,0-12.016-5.381-12.016-12.016
		c0-3.312-1.348-6.322-3.521-8.495c-2.173-2.173-5.183-3.521-8.495-3.521h-25.6c-6.635,0-12.016-5.381-12.016-12.016
		c0-3.312,1.348-6.322,3.521-8.495c2.173-2.173,5.183-3.521,8.495-3.521h8.359c6.635,0,12.016-5.381,12.016-12.016
		s5.381-12.016,12.016-12.016h27.585C510.035,219.397,512,237.463,512,255.999z"/>
	<path style="fill:#A1E4FF;" d="M494.644,163.14h-40.646c-6.635,0-12.016-5.381-12.016-12.016c0-3.323-1.348-6.322-3.521-8.495
		c-2.173-2.173-5.183-3.521-8.495-3.521h-25.6c-6.635,0-12.016-5.381-12.016-12.016c0-3.323,1.348-6.322,3.521-8.495
		c2.173-2.173,5.183-3.521,8.495-3.521h8.359c6.646,0,12.016-5.381,12.016-12.016c0-6.635,5.381-12.016,12.016-12.016h15.015
		C469.765,112.369,484.341,136.694,494.644,163.14z"/>
</g>
<path style="fill:#69AF54;" d="M508.875,295.987c-19.195,122.388-125.105,216.01-252.885,216.01S22.301,418.375,3.106,295.987
	H508.875z"/>
<g>
	<path style="fill:#77BC62;" d="M148.377,353.979c0,6.635-5.381,12.016-12.016,12.016h-25.6c-3.323,0-6.322,1.348-8.495,3.521
		c-2.173,2.173-3.521,5.172-3.521,8.495c0,6.635-5.381,12.016-12.016,12.016h-48.87c-4.775-7.743-9.153-15.767-13.082-24.033h20.678
		c3.323,0,6.322-1.348,8.495-3.521c2.173-2.173,3.521-5.172,3.521-8.495c0-6.635-5.381-12.016-12.016-12.016h-8.359
		c-3.323,0-6.322-1.348-8.495-3.521s-3.521-5.172-3.521-8.495c0-6.635,5.381-12.016,12.016-12.016h66.873
		c6.635,0,12.016,5.381,12.016,12.016s5.381,12.016,12.016,12.016h8.359c3.323,0,6.322,1.348,8.495,3.521
		C147.029,347.657,148.377,350.656,148.377,353.979z"/>
	<path style="fill:#77BC62;" d="M448.959,345.83L448.959,345.83c0-6.636-5.38-12.016-12.016-12.016H370.07
		c-6.636,0-12.016,5.38-12.016,12.016l0,0c0,6.636,5.38,12.016,12.016,12.016h8.36c6.636,0,12.016,5.38,12.016,12.016l0,0
		c0,6.636-5.38,12.016-12.016,12.016h-25.6c-6.636,0-12.016,5.38-12.016,12.016l0,0c0,6.636,5.38,12.016,12.016,12.016h66.873
		c6.636,0,12.016-5.38,12.016-12.016l0,0c0-6.636,5.38-12.016,12.016-12.016h25.6c6.636,0,12.016-5.38,12.016-12.016l0,0
		c0-6.636-5.38-12.016-12.016-12.016h-8.36C454.338,357.846,448.959,352.466,448.959,345.83z"/>
</g>
<path style="fill:#BC5410;" d="M457.725,413.633c-46.863,59.883-119.797,98.366-201.727,98.366s-154.863-38.483-201.727-98.366
	c7.199-28.003,20.929-53.707,39.612-75.19c31.932-36.728,78.346-61.158,131.426-63.843c20.459-1.034,40.918-1.034,61.377,0
	c53.08,2.685,99.495,27.115,131.426,63.843C436.796,359.925,450.526,385.63,457.725,413.633z"/>
<path style="fill:#A3460A;" d="M418.116,338.442c-31.932-36.728-78.346-61.158-131.426-63.843
	c-11.274-0.575-22.549-0.815-33.813-0.752c0.209-0.01,0.408-0.01,0.616-0.021c-0.742,0.01-1.494,0.021-2.236,0.021
	c-1.327,0.01-2.654,0.021-3.981,0.042c-1.264,0.021-2.529,0.052-3.793,0.073c-1.191,0.021-2.382,0.042-3.574,0.073
	c-1.317,0.042-2.644,0.084-3.96,0.125c-1.118,0.042-2.247,0.073-3.365,0.115c-2.424,0.094-4.848,0.199-7.272,0.324
	c-84.156,4.253-151.53,63.164-171.038,139.033c18.453,23.583,40.96,43.844,66.455,59.747c-0.721-13.866-0.397-27.512,0.867-40.761
	c3.371-35.247,34.523-60.941,69.499-58.533c1.888,0.13,3.617,1.113,4.686,2.674l14.286,20.883c2.911,4.256,9.25,4.067,11.903-0.354
	l6.432-10.72c2.455-4.092,8.432-3.951,10.691,0.252l16.031,29.818c3.046,5.664,11.458,4.655,13.077-1.569l7.119-27.379
	c1.196-4.602,6.939-6.164,10.302-2.801l6.399,6.399c3.264,3.264,8.729,2.578,11.085-1.392l7.278-12.263
	c0.994-1.674,2.721-2.77,4.657-2.971c16.034-1.653,32.069-3.973,48.104-6.975C384.439,363.708,403.467,353.28,418.116,338.442z"/>
<path style="fill:#E6E6E6;" d="M255.998,82.561c-77.361,0-147.761-29.789-200.364-78.519c-6.843-6.339-17.425,1.255-13.624,9.774
	c36.51,81.844,118.583,138.892,213.989,138.892S433.477,95.66,469.987,13.816c3.8-8.519-6.781-16.113-13.624-9.774
	C403.759,52.772,333.359,82.561,255.998,82.561z"/>
<path style="fill:#CCCCCC;" d="M255.998,114.41c-89.806,0-168.696-43.118-213.753-108.156c-1.181,2.126-1.47,4.794-0.235,7.562
	c36.51,81.843,118.583,138.891,213.989,138.891S433.477,95.66,469.987,13.816c1.235-2.768,0.946-5.436-0.235-7.562
	C424.694,71.292,345.806,114.41,255.998,114.41z"/>
<path style="fill:#BC5410;" d="M155.605,152.088c-0.621,0.639-1.26,1.241-1.918,1.843c-35.753,33.797-92.174,33.176-127.175-1.843
	l-5.906-5.906l-16.72-16.721c-5.75-5.75-5.035-15.342,1.593-20.055c35.64-25.339,85.415-22.032,117.383,9.92L155.605,152.088z"/>
<path style="fill:#91420E;" d="M149.096,157.106c-0.364,0.375-0.739,0.728-1.125,1.081c-20.97,19.823-54.064,19.459-74.592-1.081
	l-3.464-3.464L58.634,142.36c-2.519-2.519-2.288-6.694,0.521-8.884c21.002-16.369,51.415-14.898,70.737,4.413L149.096,157.106z"/>
<path style="fill:#BC5410;" d="M356.391,152.088c0.621,0.639,1.26,1.241,1.918,1.843c35.753,33.797,92.174,33.176,127.175-1.843
	l5.906-5.906l16.721-16.721c5.75-5.75,5.035-15.342-1.593-20.055c-35.64-25.339-85.415-22.032-117.383,9.92L356.391,152.088z"/>
<path style="fill:#91420E;" d="M362.9,157.106c0.364,0.375,0.739,0.728,1.125,1.081c20.97,19.823,54.064,19.459,74.592-1.081
	l3.464-3.464l11.282-11.282c2.519-2.519,2.288-6.694-0.521-8.884c-21.002-16.369-51.415-14.898-70.737,4.413L362.9,157.106z"/>
<path style="fill:#BC5410;" d="M286.96,386.191l90.36-65.651c31.915-23.187,45.269-64.288,33.079-101.807l-34.515-106.225
	c-7.052-21.703-27.278-36.399-50.098-36.399H186.21c-22.82,0-43.046,14.694-50.098,36.399l-34.515,106.226
	c-12.191,37.518,1.164,78.619,33.079,101.807l90.36,65.651C243.498,399.605,268.498,399.605,286.96,386.191z"/>
<path style="fill:#A3460A;" d="M256,396.255c-10.867,0-21.734-3.354-30.971-10.062l-90.352-65.651
	c-31.921-23.186-45.275-64.292-33.081-101.804l34.513-106.234c7.053-21.702,27.282-36.394,50.103-36.394h18.568
	c-16.75,0-31.598,14.691-36.77,36.394l-25.339,106.234c-8.944,37.512,0.857,78.618,24.283,101.804l66.319,65.651
	C240.055,392.901,248.028,396.255,256,396.255z"/>
<path style="fill:#DDCE93;" d="M276.832,400.494l27.921-20.286c12.423-9.026,17.621-25.025,12.876-39.629l-12.203-37.558
	c-3.47-10.679-15.267-16.174-25.674-11.96l0,0c-15.235,6.169-32.271,6.169-47.506,0l0,0c-10.407-4.214-22.205,1.281-25.674,11.96
	l-12.203,37.558c-4.745,14.604,0.453,30.603,12.876,39.629l27.921,20.286C247.587,409.52,264.409,409.52,276.832,400.494z"/>
<path style="fill:#F4E4A6;" d="M337.44,324.158l-16.123,49.632c-3.532,10.867-13.604,17.68-24.336,17.68
	c-3.187,0-6.437-0.606-9.592-1.881c-10.073-4.075-20.731-6.113-31.389-6.113c-7.178,0-14.346,0.92-21.337,2.779
	c-3.406,0.888-6.76,1.996-10.052,3.333c-13.751,5.569-29.341-1.693-33.928-15.799l-16.133-49.632
	c-6.269-19.299,0.606-40.437,17.021-52.37l36.895-26.801c9.78-7.105,21.608-9.979,33.06-8.631l0.01,0.01
	c7.764,0.92,15.36,3.793,21.995,8.62l36.885,26.801C336.844,283.72,343.709,304.858,337.44,324.158z"/>
<g>
	<path style="fill:#A3460A;" d="M361.697,257.961c-14.802,0-26.843-12.042-26.843-26.843c0-12.116,8.165-22.773,19.856-25.917
		c2.288-0.614,4.637-0.926,6.987-0.926c14.802,0,26.843,12.042,26.843,26.843c0,2.349-0.311,4.698-0.925,6.983
		C384.471,249.795,373.814,257.961,361.697,257.961z"/>
	<path style="fill:#A3460A;" d="M150.299,257.961c-14.802,0-26.843-12.042-26.843-26.843c0-12.116,8.165-22.773,19.856-25.917
		c2.288-0.614,4.637-0.926,6.987-0.926c14.802,0,26.843,12.042,26.843,26.843c0,2.349-0.311,4.698-0.925,6.983
		C173.072,249.795,162.414,257.961,150.299,257.961z"/>
</g>
<g>
	<path style="fill:#0F0F0E;" d="M376.238,225.524c0,1.308-0.179,2.584-0.504,3.792c-1.667,6.196-7.315,10.749-14.037,10.749
		c-8.031,0-14.54-6.51-14.54-14.54c0-6.722,4.553-12.37,10.749-14.037c1.208-0.324,2.483-0.504,3.792-0.504
		C369.728,210.984,376.238,217.493,376.238,225.524z"/>
	<circle style="fill:#0F0F0E;" cx="150.297" cy="225.529" r="14.54"/>
</g>
<g>
	<path style="fill:#E6E6E6;" d="M376.238,225.524c0,1.308-0.179,2.584-0.504,3.792c-1.712,0.794-3.635,1.241-5.649,1.241
		c-7.416,0-13.422-6.006-13.422-13.422c0-2.014,0.447-3.937,1.241-5.649c1.208-0.324,2.483-0.504,3.792-0.504
		C369.728,210.984,376.238,217.493,376.238,225.524z"/>
	<path style="fill:#E6E6E6;" d="M164.84,225.524c0,1.308-0.179,2.584-0.504,3.792c-1.712,0.794-3.635,1.241-5.649,1.241
		c-7.416,0-13.422-6.006-13.422-13.422c0-2.014,0.447-3.937,1.241-5.649c1.208-0.324,2.483-0.504,3.792-0.504
		C158.33,210.984,164.84,217.493,164.84,225.524z"/>
</g>
<g>
	<path style="fill:#4D4445;" d="M240.48,333.184c0,12.508-6.384,12.198-14.26,12.198s-14.26,0.309-14.26-12.198
		s6.384-22.648,14.26-22.648S240.48,320.676,240.48,333.184z"/>
	<path style="fill:#4D4445;" d="M300.036,333.184c0,12.508-6.384,12.198-14.26,12.198c-7.875,0-14.26,0.309-14.26-12.198
		s6.384-22.648,14.26-22.648S300.036,320.676,300.036,333.184z"/>
</g>
<path style="fill:#DDCE93;" d="M233.275,386.193c0.491,0,0.961,0.021,1.39,0.063c-3.406,0.888-6.76,1.996-10.052,3.333
	c-13.751,5.569-29.341-1.693-33.928-15.799l-16.133-49.632c-6.269-19.299,0.606-40.437,17.021-52.37l36.895-26.801
	c9.78-7.105,21.608-9.979,33.06-8.631l0.01,0.01c-25.736,0-77.291,50.562-66.842,91.668
	C205.146,369.13,210.548,386.193,233.275,386.193z"/>
<path style="fill:#91420E;" d="M255.998,102.682c0,0,13.584,36.571,29.257,36.571c15.673,0,0-49.11,0-49.11
	s14.629,34.481,36.355,21.943c21.726-12.539-21.726-48.065-21.726-48.065s12.016-12.016,3.135-20.898
	c-8.882-8.882-47.02,14.628-47.02,14.628s-38.139-23.51-47.02-14.628s3.135,20.898,3.135,20.898s-43.454,35.526-21.726,48.065
	s36.355-21.943,36.355-21.943s-15.673,49.11,0,49.11S255.998,102.682,255.998,102.682z"/>
<g>
</g>
<g>
</g>
<g>
</g>
<g>
</g>
<g>
</g>
<g>
</g>
<g>
</g>
<g>
</g>
<g>
</g>
<g>
</g>
<g>
</g>
<g>
</g>
<g>
</g>
<g>
</g>
<g>
</g>
</svg>
