<?xml version="1.0" encoding="iso-8859-1"?>
<!-- Generator: Adobe Illustrator 19.0.0, SVG Export Plug-In . SVG Version: 6.00 Build 0)  -->
<svg version="1.1" id="Capa_1" xmlns="http://www.w3.org/2000/svg" xmlns:xlink="http://www.w3.org/1999/xlink" x="0px" y="0px"
	 viewBox="0 0 511.999 511.999" style="enable-background:new 0 0 511.999 511.999;" xml:space="preserve">
<path style="fill:#63CBFF;" d="M511.428,256c0,31.079-5.546,60.864-15.722,88.419c-3.983,10.78-8.664,21.226-14.002,31.266
	c-33.643,63.314-93.152,110.792-164.442,128.349c-6.422,1.574-12.938,2.919-19.548,3.993c-13.574,2.241-27.503,3.399-41.713,3.399
	c-91.119,0-171.083-47.707-216.299-119.508c-2.408-3.826-4.712-7.715-6.912-11.666c-13.47-24.125-23.124-50.658-28.18-78.786
	C1.963,286.713,0.576,271.513,0.576,256c0-141.068,114.358-255.426,255.426-255.426c78.692,0,149.065,35.582,195.917,91.536
	C489.065,136.46,511.428,193.623,511.428,256z"/>
<g>
	<path style="fill:#665B5B;" d="M508.321,295.898C489.17,418.013,383.496,511.426,256.002,511.426
		c-115.859,0-213.693-77.139-244.959-182.854c-1.126-3.784-2.158-7.611-3.096-11.468c-1.72-6.964-3.138-14.033-4.264-21.206
		L508.321,295.898L508.321,295.898z"/>
	<path style="fill:#665B5B;" d="M259.849,410.506L39.703,391.918c-17.087-27.138-29.212-57.716-35.092-90.452l97.02-172.939
		L259.849,410.506z"/>
	<path style="fill:#665B5B;" d="M511.428,256c0,31.079-5.546,60.864-15.722,88.419l-176.943-14.94L451.919,92.11
		C489.065,136.46,511.428,193.623,511.428,256z"/>
	<polyline style="fill:#665B5B;" points="78.43,304.82 268.259,17.18 477.024,333.43 	"/>
</g>
<g>
	<path style="fill:#726565;" d="M317.263,504.034c-6.422,1.574-12.938,2.919-19.548,3.993c-13.574,2.241-27.503,3.399-41.713,3.399
		c-91.119,0-171.083-47.707-216.299-119.508c-2.408-3.826-4.712-7.715-6.912-11.666l101.368-153.6l174.649,264.569L317.263,504.034z
		"/>
	<path style="fill:#726565;" d="M481.705,375.685c-33.643,63.314-93.152,110.792-164.442,128.349
		c-6.422,1.574-12.938,2.919-19.548,3.993l11.093-16.806l124.565-188.744L481.705,375.685z"/>
</g>
<path style="fill:#CCCCCC;" d="M401.017,466.283c-41.191,28.472-91.161,45.143-145.019,45.143c-25.855,0-50.814-3.847-74.334-10.989
	c-25.48-7.736-49.271-19.35-70.685-34.154c-1.324-99.7,36.896-156.832,36.896-156.832h216.236
	C364.112,309.451,402.341,366.583,401.017,466.283z"/>
<path style="fill:#BC5410;" d="M462.037,278.174c-43.86,32.069-77.378,9.227-97.917-15.92c-6.391-7.84,2.294-18.912,11.364-14.439
	c19.016,9.362,42.182,14.262,59.447-3.003c34.926-34.926,22.415-100.607,0-123.022s-85.291,1.022-108.332,66.192l-28.097-18.266
	l-36.823-23.937c0,0,16.869-104.266,129.465-113.649c38.168-3.18,69.757,15.93,91.046,45.33v0.01
	C523.715,134.822,526.123,231.321,462.037,278.174z"/>
<path style="fill:#A3460A;" d="M482.19,77.461v0.01c-91.046-72.447-174.774,69.476-183.688,92.245l-36.823-23.937
	c0,0,16.869-104.266,129.465-113.649C429.311,28.951,460.901,48.061,482.19,77.461z"/>
<path style="fill:#BC5410;" d="M250.32,145.78l-36.823,23.937L185.4,187.982c-23.04-65.17-85.917-88.607-108.332-66.192
	c-4.733,4.733-9.029,11.406-12.521,19.319h-0.01c-0.01,0.031-0.021,0.073-0.042,0.104c-2.909,6.589-5.265,14.043-6.85,21.935
	c-5.557,27.43-1.939,60.301,19.423,81.663c17.265,17.265,40.43,12.365,59.447,3.003c9.07-4.473,17.755,6.599,11.364,14.439
	c-12.969,15.878-31.11,30.849-53.775,31.642c-13.22,0.459-27.982-3.91-44.142-15.722c-64.086-46.852-61.678-143.351-20.153-200.702
	v-0.01c21.289-29.4,52.878-48.51,91.046-45.33C233.452,41.514,250.32,145.78,250.32,145.78z"/>
<path style="fill:#A3460A;" d="M29.807,77.461v0.01c91.046-72.447,174.774,69.476,183.688,92.245l36.823-23.937
	c0,0-16.869-104.266-129.465-113.649C82.686,28.951,51.096,48.061,29.807,77.461z"/>
<path style="fill:#B39F9F;" d="M202.354,353.651c5.976-16.143,10.899-24.391,10.899-24.391l-12.813-19.809h-52.566
	c0,0-38.22,57.132-36.896,156.832c21.414,14.804,45.205,26.418,70.685,34.154c-0.735-21.675,0-41.373,1.662-59.047
	c0.754-8.011,12.114-8.857,14.046-1.047l6.255,25.28c1.806,7.297,12.088,7.54,14.237,0.337l4.896-16.414
	c1.351-4.531,7.851-4.28,8.848,0.343l9.63,44.648c2.214,10.268,16.864,10.263,19.074-0.006l7.326-34.069
	c1.142-5.307,8.529-5.778,10.336-0.66l4.976,14.101c2.236,6.337,11.332,5.93,12.993-0.582l33.036-129.467L202.354,353.651z"/>
<g>
	<path style="fill:#A3460A;" d="M147.879,262.254c-12.969,15.878-31.11,30.849-53.775,31.642c-0.021,0-0.031-0.01-0.052-0.01
		c-54.14-10.822-48.489-84.322-36.406-130.736c-5.557,27.43-1.939,60.301,19.423,81.663c17.265,17.265,40.43,12.365,59.446,3.003
		C145.585,243.342,154.27,254.414,147.879,262.254z"/>
	<path style="fill:#A3460A;" d="M364.12,262.254c12.969,15.878,31.11,30.849,53.775,31.642c0.021,0,0.031-0.01,0.052-0.01
		c54.14-10.822,48.489-84.322,36.406-130.736c5.557,27.43,1.939,60.301-19.423,81.663c-17.265,17.265-40.43,12.365-59.447,3.003
		C366.414,243.342,357.729,254.414,364.12,262.254z"/>
</g>
<path style="fill:#B39F9F;" d="M360.324,352.341c-1.952,10.138-5.309,23.245-11.081,38.197c-4.055,10.503-19.653,7.813-20.089-3.437
	l-2.197-56.754c-0.388-10.027,10.659-16.354,19.111-10.944l0,0C357.088,326.458,362.798,339.494,360.324,352.341z"/>
<path style="fill:#E6E6E6;" d="M370.965,305.021c-2.94,14.095-9.477,27.419-19.266,38.575l-28.013,31.913l-34.988,39.857
	c-2.794,3.19-5.953,5.849-9.341,7.996c-4.368,2.773-9.122,4.681-14.033,5.724c-6.099,1.293-12.417,1.261-18.505-0.104
	c-4.837-1.074-9.519-3.003-13.814-5.755c-3.315-2.116-6.391-4.744-9.122-7.861l-35.916-40.91l-27.086-30.86
	c-9.79-11.155-16.326-24.479-19.266-38.575c-2.69-12.865-2.398-26.366,1.136-39.44l12.573-46.561l3.274-12.135
	c1.011-3.753,2.221-7.402,3.628-10.947c6.86-17.327,18.245-32.069,32.538-43.016c7.569-5.797,15.951-10.519,24.917-14.002
	c4.619-1.793,9.393-3.263,14.293-4.368c7.204-1.626,14.69-2.481,22.321-2.481c7.423,0,14.7,0.813,21.727,2.356
	c5.098,1.116,10.071,2.627,14.867,4.493c25.855,10.029,46.905,30.453,57.414,56.903c1.428,3.576,2.659,7.267,3.68,11.062
	l3.274,12.135l12.573,46.561C373.363,278.654,373.655,292.155,370.965,305.021z"/>
<g>
	<path style="fill:#CCCCCC;" d="M249.278,428.979c2.023,0.615,4.076,0.959,6.13,1.032c-2.888-0.052-5.765-0.396-8.591-1.032
		c-4.837-1.074-9.519-3.003-13.814-5.755c-3.315-2.116-6.391-4.744-9.122-7.861l-35.916-40.91l-27.086-30.86
		c-9.79-11.155-16.326-24.479-19.266-38.575c-2.69-12.865-2.398-26.366,1.136-39.44l12.573-46.561l3.274-12.135
		c1.011-3.753,2.221-7.402,3.628-10.947c6.86-17.327,18.245-32.069,32.538-43.016c11.479-8.778,24.813-15.117,39.211-18.37
		c7.204-1.626,14.69-2.481,22.321-2.481c-5.651,0-11.197,0.855-16.525,2.481c-10.665,3.253-20.538,9.592-29.035,18.37
		c-10.592,10.947-19.016,25.689-24.093,43.016c-1.043,3.545-1.939,7.194-2.69,10.947l-2.429,12.135l-9.31,46.561
		c-2.617,13.074-2.825,26.575-0.834,39.44c2.169,14.095,7.016,27.419,14.262,38.575l20.059,30.86l26.596,40.91
		c2.023,3.117,4.295,5.745,6.756,7.861C242.23,425.977,245.691,427.905,249.278,428.979z"/>
	<path style="fill:#CCCCCC;" d="M338.364,282.344c-13.797,0-25.021-11.224-25.021-25.021c0-11.294,7.611-21.227,18.508-24.159
		c2.133-0.572,4.322-0.862,6.513-0.862c13.797,0,25.021,11.224,25.021,25.021c0,2.189-0.29,4.379-0.862,6.509
		C359.591,274.733,349.658,282.344,338.364,282.344z"/>
	<path style="fill:#CCCCCC;" d="M172.594,282.344c-13.797,0-25.021-11.224-25.021-25.021c0-11.294,7.611-21.227,18.508-24.159
		c2.133-0.572,4.322-0.862,6.513-0.862c13.797,0,25.021,11.224,25.021,25.021c0,2.189-0.29,4.379-0.862,6.509
		C193.821,274.733,183.887,282.344,172.594,282.344z"/>
</g>
<g>
	<path style="fill:#0F0F0E;" d="M351.917,252.11c0,1.22-0.167,2.408-0.469,3.534c-1.553,5.776-6.818,10.019-13.084,10.019
		c-7.486,0-13.553-6.068-13.553-13.553c0-6.266,4.243-11.531,10.019-13.084c1.126-0.302,2.314-0.469,3.534-0.469
		C345.85,238.557,351.917,244.624,351.917,252.11z"/>
	<circle style="fill:#0F0F0E;" cx="172.595" cy="252.111" r="13.553"/>
</g>
<g>
	<path style="fill:#E6E6E6;" d="M351.917,252.11c0,1.22-0.167,2.408-0.469,3.534c-1.595,0.74-3.388,1.157-5.265,1.157
		c-6.912,0-12.511-5.599-12.511-12.511c0-1.877,0.417-3.67,1.157-5.265c1.126-0.302,2.314-0.469,3.534-0.469
		C345.85,238.557,351.917,244.624,351.917,252.11z"/>
	<path style="fill:#E6E6E6;" d="M186.147,252.11c0,1.22-0.167,2.408-0.469,3.534c-1.595,0.74-3.388,1.157-5.265,1.157
		c-6.912,0-12.511-5.599-12.511-12.511c0-1.877,0.417-3.67,1.157-5.265c1.126-0.302,2.314-0.469,3.534-0.469
		C180.079,238.557,186.147,244.624,186.147,252.11z"/>
	<path style="fill:#E6E6E6;" d="M338.381,191.168c0.363,0.51,0.742,0.996,1.135,1.484c21.226,27.27,60.467,32.844,88.494,12.255
		l4.729-3.472l9.834-7.22c6.739-4.947,7.071-14.955,0.605-20.254c-22.104-18.112-54.471-19.744-78.576-2.056L338.381,191.168z"/>
</g>
<path style="fill:#B39F9F;" d="M349.462,194.543c0.213,0.299,0.436,0.584,0.666,0.871c12.45,15.995,35.466,19.264,51.905,7.188
	l2.773-2.036l5.151-3.782c4.305-3.161,4.485-9.603,0.275-12.888c-12.941-10.097-31.504-10.839-45.392-0.65L349.462,194.543z"/>
<path style="fill:#CCCCCC;" d="M174.195,191.168c-0.363,0.51-0.742,0.996-1.135,1.484c-21.226,27.27-60.466,32.844-88.494,12.255
	l-4.729-3.472l-9.834-7.22c-6.739-4.947-7.071-14.955-0.605-20.254c22.104-18.112,54.471-19.744,78.576-2.056L174.195,191.168z"/>
<path style="fill:#B39F9F;" d="M163.114,194.543c-0.213,0.299-0.436,0.584-0.666,0.871c-12.45,15.995-35.466,19.264-51.905,7.188
	l-2.773-2.036l-5.151-3.782c-4.305-3.161-4.485-9.603-0.275-12.888c12.941-10.097,31.504-10.839,45.392-0.65L163.114,194.543z"/>
<g>
	<path style="fill:#CCCCCC;" d="M141.469,425.193c1.151,5.98,3.132,13.711,6.537,22.531c2.392,6.195,11.592,4.608,11.85-2.028
		l1.296-33.476c0.229-5.915-6.288-9.647-11.273-6.456l0,0C143.378,409.925,140.01,417.614,141.469,425.193z"/>
	<path style="fill:#CCCCCC;" d="M294.838,321.52c-8.723-6.71-14.623-16.421-17.09-27.146c-3.556-15.457-6.588-34.325-6.588-53.73
		c0-34.769,14.314-80.423,21.727-101.722c-4.796-1.866-9.769-3.378-14.867-4.493c-7.027-1.543-14.304-2.356-21.727-2.356
		c-7.632,0-15.117,0.855-22.321,2.481c-4.9,1.105-9.675,2.575-14.293,4.368c7.413,21.299,21.727,66.953,21.727,101.722
		c0,19.409-3.033,38.281-6.59,53.739c-2.467,10.722-8.363,20.431-17.083,27.141c-15.031,11.565-24.722,29.726-24.722,50.159
		c0,32.747,24.886,40.107,56.767,40.91c2.137,0.052,4.306,0.073,6.506,0.073c2.002,0,3.983-0.021,5.943-0.063
		c32.163-0.719,57.341-7.976,57.341-40.92C319.567,351.247,309.873,333.084,294.838,321.52z"/>
</g>
<path style="fill:#4D4445;" d="M280.776,375.621c0-8.981-11.094,4.541-24.778,4.541s-24.778-13.522-24.778-4.541
	c0,5.678,4.435,12.739,11.155,17.166c4.711,3.103,7.402,8.497,7.402,14.138v5.667c2.137,0.052,4.306,0.073,6.506,0.073
	c2.002,0,3.983-0.021,5.943-0.063v-5.682c0-5.64,2.691-11.033,7.4-14.136C276.345,388.357,280.776,381.298,280.776,375.621z"/>
<g>
</g>
<g>
</g>
<g>
</g>
<g>
</g>
<g>
</g>
<g>
</g>
<g>
</g>
<g>
</g>
<g>
</g>
<g>
</g>
<g>
</g>
<g>
</g>
<g>
</g>
<g>
</g>
<g>
</g>
</svg>
