<?xml version="1.0" encoding="iso-8859-1"?>
<!-- Generator: Adobe Illustrator 19.0.0, SVG Export Plug-In . SVG Version: 6.00 Build 0)  -->
<svg version="1.1" id="Capa_1" xmlns="http://www.w3.org/2000/svg" xmlns:xlink="http://www.w3.org/1999/xlink" x="0px" y="0px"
	 viewBox="0 0 512 512" style="enable-background:new 0 0 512 512;" xml:space="preserve">
<path style="fill:#63CBFF;" d="M511.839,256.161c0,2.506-0.031,4.991-0.104,7.477c-0.24,8.333-0.877,16.562-1.911,24.665
	c-1.483,11.873-3.78,23.495-6.84,34.805c-5.451,20.175-13.314,39.357-23.266,57.224c-2.506,4.532-5.159,8.97-7.936,13.324
	C426.347,464.821,346.682,512,256,512c-90.692,0-170.368-47.189-215.792-118.365c-2.778-4.344-5.43-8.782-7.936-13.304
	c-9.941-17.867-17.804-37.06-23.255-57.224c-3.06-11.309-5.357-22.931-6.84-34.805c-1.034-8.103-1.671-16.332-1.911-24.665
	c-0.073-2.485-0.104-4.971-0.104-7.477c0-7.78,0.345-15.476,1.023-23.067c1.869-20.916,6.255-41.112,12.855-60.273
	C48.614,72.438,143.88,0.322,256,0.322S463.386,72.438,497.961,172.82c6.6,19.162,10.985,39.357,12.855,60.273
	C511.494,240.685,511.839,248.381,511.839,256.161z"/>
<path style="fill:#427A2D;" d="M511.839,256.161c0,2.506-0.031,4.991-0.104,7.477c-6.976,3.832-14.985,6.004-23.495,6.004
	c-15.758,0-29.761-7.456-38.7-19.036c-8.949,11.581-22.952,19.036-38.71,19.036s-29.771-7.456-38.71-19.036
	c-8.939,11.581-22.942,19.036-38.71,19.036c-15.758,0-29.761-7.456-38.7-19.036c-8.949,11.581-22.952,19.036-38.71,19.036
	s-29.761-7.456-38.71-19.036c-8.939,11.581-22.942,19.036-38.7,19.036c-15.768,0-29.771-7.456-38.71-19.036
	c-8.939,11.581-22.952,19.036-38.71,19.036s-29.761-7.456-38.71-19.036c-8.939,11.581-22.942,19.036-38.7,19.036
	c-8.511,0-16.52-2.172-23.495-6.004c-0.073-2.485-0.104-4.971-0.104-7.477c0-7.78,0.345-15.476,1.023-23.067
	c1.869-20.916,6.255-41.112,12.855-60.273c3.143-0.627,6.391-0.961,9.722-0.961c15.758,0,29.761,7.466,38.7,19.036
	c8.949-11.57,22.952-19.036,38.71-19.036s29.771,7.466,38.71,19.036c8.939-11.57,22.942-19.036,38.71-19.036
	c15.758,0,29.761,7.466,38.7,19.036c8.949-11.57,22.952-19.036,38.71-19.036c15.758,0,29.761,7.466,38.71,19.036
	c8.939-11.57,22.942-19.036,38.7-19.036c15.768,0,29.771,7.466,38.71,19.036c8.939-11.57,22.952-19.036,38.71-19.036
	s29.761,7.466,38.71,19.036c8.939-11.57,22.942-19.036,38.7-19.036c3.331,0,6.579,0.334,9.722,0.961
	c6.6,19.162,10.985,39.357,12.855,60.273C511.494,240.685,511.839,248.381,511.839,256.161z"/>
<path style="fill:#4C8E37;" d="M511.839,256.161c0,2.506-0.031,4.991-0.104,7.477c-0.595,20.519-3.603,40.433-8.751,59.469
	c-4.657,1.462-9.607,2.256-14.745,2.256c-15.758,0-29.761-7.466-38.7-19.036c-8.949,11.57-22.952,19.036-38.71,19.036
	s-29.771-7.466-38.71-19.036c-8.939,11.57-22.942,19.036-38.71,19.036c-15.758,0-29.761-7.466-38.7-19.036
	c-8.949,11.57-22.952,19.036-38.71,19.036s-29.761-7.466-38.71-19.036c-8.939,11.57-22.942,19.036-38.7,19.036
	c-15.768,0-29.771-7.466-38.71-19.036c-8.939,11.57-22.952,19.036-38.71,19.036s-29.761-7.466-38.71-19.036
	c-8.939,11.57-22.942,19.036-38.7,19.036c-5.138,0-10.087-0.794-14.745-2.256c-5.148-19.036-8.156-38.95-8.751-59.469
	c-0.073-2.485-0.104-4.971-0.104-7.477c0-7.78,0.345-15.476,1.023-23.067c6.756-3.519,14.431-5.514,22.576-5.514
	c15.758,0,29.761,7.456,38.7,19.036c8.949-11.581,22.952-19.036,38.71-19.036s29.771,7.456,38.71,19.036
	c8.939-11.581,22.942-19.036,38.71-19.036c15.758,0,29.761,7.456,38.7,19.036c8.949-11.581,22.952-19.036,38.71-19.036
	c15.758,0,29.761,7.456,38.71,19.036c8.939-11.581,22.942-19.036,38.7-19.036c15.768,0,29.771,7.456,38.71,19.036
	c8.939-11.581,22.952-19.036,38.71-19.036s29.761,7.456,38.71,19.036c8.939-11.581,22.942-19.036,38.7-19.036
	c8.145,0,15.82,1.995,22.576,5.514C511.494,240.685,511.839,248.381,511.839,256.161z"/>
<path style="fill:#69AF54;" d="M509.823,288.303c-1.483,11.873-3.78,23.495-6.84,34.805c-5.451,20.175-13.314,39.357-23.266,57.224
	c-12.228-2.151-22.89-8.855-30.179-18.295c-8.949,11.57-22.952,19.036-38.71,19.036s-29.771-7.466-38.71-19.036
	c-8.939,11.57-22.942,19.036-38.71,19.036c-15.758,0-29.761-7.466-38.7-19.036c-8.949,11.57-22.952,19.036-38.71,19.036
	s-29.761-7.466-38.71-19.036c-8.939,11.57-22.942,19.036-38.7,19.036c-15.768,0-29.771-7.466-38.71-19.036
	c-8.939,11.57-22.952,19.036-38.71,19.036s-29.761-7.466-38.71-19.036c-7.289,9.44-17.95,16.144-30.189,18.295
	c-9.941-17.867-17.804-37.06-23.255-57.224c-3.06-11.309-5.357-22.931-6.84-34.805c6.516-3.216,13.836-5.012,21.584-5.012
	c15.758,0,29.761,7.456,38.7,19.036c8.949-11.581,22.952-19.036,38.71-19.036s29.771,7.456,38.71,19.036
	c8.939-11.581,22.942-19.036,38.71-19.036c15.758,0,29.761,7.456,38.7,19.036c8.949-11.581,22.952-19.036,38.71-19.036
	s29.761,7.456,38.71,19.036c8.939-11.581,22.942-19.036,38.7-19.036c15.768,0,29.771,7.456,38.71,19.036
	c8.939-11.581,22.952-19.036,38.71-19.036s29.761,7.456,38.71,19.036c8.939-11.581,22.942-19.036,38.7-19.036
	C495.987,283.29,503.307,285.086,509.823,288.303z"/>
<path style="fill:#427A2D;" d="M16.205,345.501C52.444,442.738,146.131,511.999,256,511.999s203.556-69.26,239.795-166.498H16.205z"
	/>
<g>
	<path style="fill:#823603;" d="M370.24,9.961c-18.807,49.528-46.897,141.87-26.231,209.234L305.1,186.886l-19.726-16.374
		l-5.722-4.751c0,0,0.574-2.757,1.817-7.675v-0.01c5.994-23.704,27.61-97.595,76.386-155.445c2.945-3.488,7.362-3.195,10.181-0.919
		C370.281,3.507,371.535,6.567,370.24,9.961z"/>
	<path style="fill:#823603;" d="M232.922,165.761l-35.045,29.093l-28.842,23.955l-0.47,0.386c0.063-0.188,0.115-0.376,0.167-0.574
		c20.342-67.312-7.644-159.267-26.398-208.66c-1.013-2.673-0.459-5.138,0.919-6.944c2.569-3.373,8.02-4.469,11.466-0.386
		C213.625,72.5,232.922,165.761,232.922,165.761z"/>
</g>
<g>
	<path style="fill:#632800;" d="M368.036,1.711c-16.321,21.407-62.613,89.439-62.613,172.581c0,4.908-0.115,9.095-0.324,12.594
		c-1.765,28.487-10.328,12.27-19.726-16.374c-1.284-3.937-2.59-8.103-3.905-12.426v-0.01c5.994-23.704,27.61-97.595,76.386-155.445
		C360.8-0.858,365.217-0.566,368.036,1.711z"/>
	<path style="fill:#632800;" d="M198.222,192.4c-0.104,0.835-0.219,1.66-0.345,2.454c-4.26,28.591-15.58,32.1-28.842,23.955
		c-0.104-0.063-0.198-0.125-0.303-0.188c20.342-67.312-7.644-159.267-26.398-208.66c-1.013-2.673-0.459-5.138,0.919-6.944
		C159.209,28.778,208.153,115.251,198.222,192.4z"/>
</g>
<path style="fill:#BC5410;" d="M322.848,191.224c0.363,0.511,0.743,0.997,1.137,1.486c21.261,27.314,60.565,32.897,88.637,12.275
	l4.737-3.477l19.931-14.633c0.883-0.648,1.079-1.908,0.403-2.772c-21.29-27.215-60.524-32.761-88.583-12.172L322.848,191.224z"/>
<path style="fill:#823603;" d="M333.947,194.604c0.213,0.3,0.436,0.585,0.667,0.872c12.47,16.021,35.523,19.295,51.988,7.2
	l2.778-2.039l5.16-3.789c4.312-3.166,4.492-9.618,0.276-12.909c-12.962-10.113-31.555-10.858-45.465-0.651L333.947,194.604z"/>
<path style="fill:#A3460A;" d="M189.726,191.224c-0.363,0.511-0.743,0.997-1.137,1.486c-21.261,27.314-60.564,32.897-88.637,12.275
	l-4.737-3.477l-19.931-14.633c-0.884-0.648-1.079-1.908-0.403-2.772c21.29-27.215,60.524-32.761,88.583-12.172L189.726,191.224z"/>
<path style="fill:#823603;" d="M178.627,194.604c-0.213,0.3-0.436,0.585-0.667,0.872c-12.47,16.021-35.523,19.295-51.989,7.2
	l-2.778-2.039l-5.16-3.789c-4.312-3.166-4.492-9.618-0.276-12.909c12.962-10.113,31.555-10.858,45.465-0.651L178.627,194.604z"/>
<path style="fill:#A3460A;" d="M401.25,466.784C359.993,495.302,309.942,512,255.997,512c-25.897,0-50.896-3.853-74.454-11.006
	c-25.521-7.748-49.351-19.381-70.799-34.209c-1.326-99.861,36.956-157.085,36.956-157.085h216.586
	C364.284,309.699,402.577,366.923,401.25,466.784z"/>
<g>
	<path style="fill:#823603;" d="M202.266,353.969c5.986-16.169,10.916-24.43,10.916-24.43l-12.834-19.841h-52.651
		c0,0-38.282,57.224-36.956,157.085c21.449,14.828,45.278,26.461,70.799,34.209c-0.736-21.71,0-41.44,1.665-59.143
		c0.755-8.024,12.134-8.871,14.069-1.048l6.265,25.321c1.809,7.309,12.108,7.552,14.26,0.337l4.904-16.44
		c1.353-4.538,7.864-4.287,8.862,0.344l9.646,44.72c2.218,10.285,16.892,10.279,19.104-0.006l7.338-34.124
		c1.143-5.315,8.543-5.787,10.353-0.661l4.984,14.123c2.24,6.347,11.35,5.94,13.014-0.583l33.09-129.676L202.266,353.969z"/>
	<path style="fill:#823603;" d="M360.492,352.658c-1.955,10.154-5.317,23.282-11.099,38.259c-4.061,10.52-19.685,7.826-20.121-3.443
		l-2.2-56.845c-0.388-10.043,10.676-16.38,19.142-10.961l0,0C357.25,326.733,362.969,339.789,360.492,352.658z"/>
</g>
<path style="fill:#EAD9B2;" d="M371.148,305.261c-2.6,12.479-8.02,24.352-16.019,34.648c-1.044,1.358-2.141,2.694-3.279,3.989
	l-28.059,31.964l-35.045,39.921c-2.799,3.195-5.963,5.858-9.356,8.009c-4.375,2.778-9.137,4.689-14.055,5.733
	c-6.109,1.295-12.437,1.264-18.535-0.104c-4.845-1.076-9.534-3.007-13.836-5.764c-3.321-2.12-6.401-4.751-9.137-7.874
	l-35.974-40.976l-27.129-30.909c-9.805-11.173-16.353-24.519-19.298-38.637c-2.694-12.886-2.402-26.409,1.138-39.504l12.594-46.636
	l3.279-12.155c1.013-3.759,2.224-7.414,3.634-10.965c6.871-17.355,18.274-32.121,32.591-43.085
	c7.581-5.806,15.977-10.536,24.957-14.024c4.626-1.796,9.409-3.268,14.317-4.375c7.216-1.629,14.713-2.485,22.357-2.485
	c7.435,0,14.724,0.815,21.762,2.36c5.106,1.117,10.087,2.631,14.891,4.501c14.933,5.796,28.268,15.048,38.887,26.921
	c7.811,8.719,14.16,18.859,18.619,30.074c1.431,3.582,2.663,7.278,3.686,11.079l3.279,12.155l12.594,46.636
	C373.55,278.852,373.842,292.375,371.148,305.261z"/>
<path style="fill:#D3C19E;" d="M249.265,429.419c2.026,0.616,4.083,0.961,6.14,1.034c-2.893-0.052-5.775-0.397-8.605-1.034
	c-4.845-1.076-9.534-3.007-13.836-5.764c-3.321-2.12-6.401-4.751-9.137-7.874l-35.974-40.976l-27.129-30.909
	c-9.805-11.173-16.353-24.519-19.298-38.637c-2.694-12.886-2.402-26.409,1.138-39.504l12.594-46.636l3.279-12.155
	c1.013-3.759,2.224-7.414,3.634-10.965c6.871-17.355,18.274-32.121,32.591-43.085c11.497-8.792,24.853-15.141,39.274-18.4
	c7.216-1.629,14.713-2.485,22.357-2.485c-5.66,0-11.215,0.856-16.551,2.485c-10.683,3.258-20.572,9.607-29.082,18.4
	c-10.609,10.965-19.047,25.73-24.132,43.085c-1.044,3.55-1.942,7.205-2.694,10.965l-2.433,12.155l-9.325,46.636
	c-2.621,13.095-2.83,26.618-0.835,39.504c2.172,14.118,7.028,27.464,14.285,38.637l20.091,30.909l26.639,40.976
	c2.026,3.122,4.302,5.754,6.767,7.874C242.205,426.412,245.672,428.344,249.265,429.419z"/>
<path style="fill:#BC5410;" d="M371.148,305.261c-2.6,12.479-8.02,24.352-16.019,34.648
	c-76.574-51.993-42.427-138.132-23.297-174.096c7.811,8.719,14.16,18.859,18.619,30.074c1.431,3.582,2.663,7.278,3.686,11.079
	l3.279,12.155l12.594,46.636C373.55,278.852,373.842,292.375,371.148,305.261z"/>
<g>
	<path style="fill:#A3460A;" d="M141.426,305.261c2.6,12.479,8.02,24.352,16.019,34.648
		c76.574-51.993,42.427-138.132,23.297-174.096c-7.811,8.719-14.16,18.859-18.619,30.074c-1.431,3.582-2.663,7.278-3.686,11.079
		l-3.279,12.155l-12.594,46.636C139.024,278.852,138.732,292.375,141.426,305.261z"/>
	<path style="fill:#A3460A;" d="M338.496,282.547c-13.819,0-25.062-11.242-25.062-25.062c0-11.312,7.623-21.262,18.538-24.198
		c2.137-0.573,4.329-0.864,6.523-0.864c13.819,0,25.062,11.242,25.062,25.062c0,2.193-0.29,4.386-0.864,6.519
		C359.758,274.924,349.807,282.547,338.496,282.547z"/>
</g>
<path style="fill:#823603;" d="M172.457,282.547c-13.819,0-25.062-11.242-25.062-25.062c0-11.312,7.623-21.262,18.538-24.198
	c2.137-0.573,4.329-0.864,6.523-0.864c13.819,0,25.062,11.242,25.062,25.062c0,2.193-0.29,4.386-0.864,6.519
	C193.719,274.924,183.769,282.547,172.457,282.547z"/>
<g>
	<path style="fill:#0F0F0E;" d="M352.071,252.264c0,1.222-0.167,2.412-0.47,3.54c-1.556,5.785-6.829,10.035-13.105,10.035
		c-7.498,0-13.575-6.077-13.575-13.575c0-6.276,4.25-11.549,10.035-13.105c1.128-0.303,2.318-0.47,3.54-0.47
		C345.993,238.689,352.071,244.766,352.071,252.264z"/>
	<circle style="fill:#0F0F0E;" cx="172.457" cy="252.267" r="13.575"/>
</g>
<g>
	<path style="fill:#E6E6E6;" d="M352.071,252.264c0,1.222-0.167,2.412-0.47,3.54c-1.598,0.741-3.394,1.159-5.273,1.159
		c-6.923,0-12.531-5.608-12.531-12.531c0-1.88,0.418-3.676,1.159-5.273c1.128-0.303,2.318-0.47,3.54-0.47
		C345.993,238.689,352.071,244.766,352.071,252.264z"/>
	<path style="fill:#E6E6E6;" d="M186.032,252.264c0,1.222-0.167,2.412-0.47,3.54c-1.598,0.741-3.394,1.159-5.273,1.159
		c-6.923,0-12.531-5.608-12.531-12.531c0-1.88,0.418-3.676,1.159-5.273c1.128-0.303,2.318-0.47,3.54-0.47
		C179.954,238.689,186.032,244.766,186.032,252.264z"/>
</g>
<path style="fill:#A3460A;" d="M141.282,425.626c1.153,5.99,3.137,13.733,6.547,22.567c2.395,6.205,11.611,4.616,11.869-2.031
	l1.298-33.531c0.23-5.925-6.298-9.662-11.291-6.466l0,0C143.195,410.335,139.821,418.036,141.282,425.626z"/>
<path style="fill:#BC5410;" d="M294.9,321.786c-8.737-6.721-14.647-16.448-17.117-27.19c-3.562-15.482-6.599-34.381-6.599-53.817
	c0-34.825,14.337-80.553,21.762-101.886c-4.804-1.869-9.785-3.383-14.891-4.501c-7.038-1.545-14.327-2.36-21.762-2.36
	c-7.644,0-15.141,0.856-22.357,2.485c-4.908,1.107-9.691,2.579-14.317,4.375c7.425,21.334,21.762,67.061,21.762,101.886
	c0,19.441-3.038,38.342-6.601,53.825c-2.471,10.739-8.377,20.464-17.111,27.185c-15.055,11.584-24.762,29.774-24.762,50.24
	c0,32.8,24.926,40.172,56.859,40.976c2.141,0.052,4.313,0.073,6.516,0.073c2.005,0,3.989-0.021,5.952-0.063
	c32.215-0.721,57.433-7.988,57.433-40.986C319.667,351.562,309.959,333.37,294.9,321.786z"/>
<path style="fill:#A3460A;" d="M251.896,413.006c1.441,0.052,2.903,0.073,4.386,0.073c-2.203,0-4.375-0.021-6.516-0.073
	c-31.933-0.804-56.859-8.176-56.859-40.976c0-20.467,9.711-38.658,24.769-50.238c8.73-6.725,14.64-16.447,17.105-27.182
	c3.561-15.486,6.6-34.387,6.6-53.831c0-34.825-14.337-80.553-21.762-101.886c4.626-1.796,9.409-3.268,14.317-4.375
	c7.216-1.629,14.713-2.485,22.357-2.485c-5.159,0-10.213,0.856-15.079,2.485c-3.31,1.107-6.537,2.579-9.659,4.375
	c5.012,21.334,14.682,67.061,14.682,101.886c0,19.444-2.047,38.344-4.448,53.831c-1.671,10.735-5.66,20.457-11.549,27.182
	c-10.15,11.581-16.697,29.771-16.697,50.238C213.541,404.829,230.353,412.202,251.896,413.006z"/>
<path style="fill:#4D4445;" d="M280.815,375.975c0-8.995-11.112,4.549-24.818,4.549c-13.707,0-24.818-13.544-24.818-4.549
	c0,5.687,4.442,12.76,11.173,17.193c4.719,3.108,7.414,8.511,7.414,14.161v5.676c2.141,0.052,4.313,0.073,6.516,0.073
	c2.005,0,3.989-0.021,5.952-0.063v-5.691c0-5.649,2.695-11.051,7.412-14.159C276.375,388.732,280.815,381.661,280.815,375.975z"/>
<g>
</g>
<g>
</g>
<g>
</g>
<g>
</g>
<g>
</g>
<g>
</g>
<g>
</g>
<g>
</g>
<g>
</g>
<g>
</g>
<g>
</g>
<g>
</g>
<g>
</g>
<g>
</g>
<g>
</g>
</svg>
