<?xml version="1.0" encoding="iso-8859-1"?>
<!-- Generator: Adobe Illustrator 19.0.0, SVG Export Plug-In . SVG Version: 6.00 Build 0)  -->
<svg version="1.1" id="Capa_1" xmlns="http://www.w3.org/2000/svg" xmlns:xlink="http://www.w3.org/1999/xlink" x="0px" y="0px"
	 viewBox="0 0 512 512" style="enable-background:new 0 0 512 512;" xml:space="preserve">
<circle style="fill:#63CBFF;" cx="256" cy="256" r="256"/>
<g>
	<path style="fill:#427A2D;" d="M512,255.999c0,18.233-1.912,36.028-5.538,53.185h-77.73c-8.579,0-12.873-10.365-6.802-16.436
		l29.257-29.257c1.954-1.964,2.832-4.378,2.832-6.74c0-4.953-3.835-9.697-9.644-9.697c-8.579,0-12.873-10.376-6.802-16.436
		l22.695-22.695c6.06-6.071,1.766-16.447-6.813-16.447h-1.641c-8.579,0-12.873-10.365-6.813-16.436l37.825-37.815
		c17.095,32.569,27.376,69.277,28.954,108.231C511.927,248.956,512,252.467,512,255.999z"/>
	<path style="fill:#427A2D;" d="M83.268,309.184H5.538C1.912,292.027,0,274.232,0,255.999c0-3.532,0.073-7.043,0.219-10.543
		c1.578-38.954,11.86-75.661,28.954-108.231l37.825,37.815c6.06,6.071,1.766,16.436-6.813,16.436h-1.64
		c-8.579,0-12.873,10.376-6.813,16.447l22.695,22.695c1.964,1.964,2.842,4.378,2.842,6.74c0,4.953-3.845,9.697-9.644,9.697
		c-8.579,0-12.873,10.365-6.813,16.436l29.257,29.257C96.141,298.819,91.847,309.184,83.268,309.184z"/>
</g>
<path style="fill:#4C8E37;" d="M489.556,360.959c-12.184,27.094-28.965,51.681-49.34,72.777H71.784
	c-5.904-6.102-11.504-12.507-16.771-19.174v-28.891h-19.79c-4.692-7.973-8.965-16.217-12.779-24.712l20.982-20.992
	c1.964-1.964,2.842-4.368,2.842-6.729c0-4.953-3.845-9.707-9.655-9.707c-8.579,0-12.873-10.376-6.802-16.436l22.695-22.695
	c6.06-6.071,1.766-16.436-6.813-16.436h-1.64c-8.579,0-12.873-10.376-6.813-16.436l54.439-54.439c3.762-3.762,9.853-3.762,13.615,0
	l54.439,54.439c6.071,6.06,1.766,16.436-6.813,16.436h-1.641c-8.579,0-12.873,10.365-6.802,16.436l22.695,22.695
	c1.954,1.954,2.832,4.368,2.832,6.729c0,4.953-3.835,9.707-9.644,9.707c-8.579,0-12.873,10.376-6.813,16.436l23.301,23.301
	l23.301-23.301c6.071-6.06,1.776-16.436-6.802-16.436s-12.873-10.376-6.813-16.436l22.695-22.695
	c6.071-6.071,1.766-16.436-6.813-16.436h-1.64c-8.579,0-12.873-10.376-6.802-16.436l54.429-54.439c3.762-3.762,9.864-3.762,13.625,0
	l54.429,54.439c6.071,6.06,1.776,16.436-6.802,16.436h-1.64c-8.579,0-12.884,10.365-6.813,16.436l22.695,22.695
	c1.954,1.954,2.832,4.368,2.832,6.729c0,4.953-3.835,9.707-9.644,9.707c-8.579,0-12.873,10.376-6.802,16.436l24.085,24.085
	l24.085-24.085c1.954-1.954,2.832-4.368,2.832-6.729c0-4.953-3.835-9.707-9.644-9.707c-8.579,0-12.873-10.376-6.813-16.436
	l22.695-22.695c6.071-6.071,1.776-16.436-6.802-16.436h-1.641c-8.579,0-12.884-10.376-6.813-16.436l54.439-54.439
	c3.762-3.762,9.853-3.762,13.615,0l54.439,54.439c6.06,6.06,1.766,16.436-6.813,16.436h-1.641c-8.579,0-12.873,10.365-6.813,16.436
	l22.695,22.695c1.964,1.964,2.842,4.378,2.842,6.74c0,4.953-3.845,9.697-9.644,9.697c-8.579,0-12.884,10.376-6.813,16.436
	L489.556,360.959z"/>
<path style="fill:#69AF54;" d="M512,255.999c0,74.041-31.431,140.737-81.69,187.476c-9.07,8.432-18.745,16.227-28.965,23.28
	c-41.284,28.536-91.366,45.244-145.345,45.244s-104.061-16.708-145.345-45.244c-10.219-7.053-19.895-14.848-28.965-23.28
	C31.431,396.736,0,330.04,0,255.999c0-3.532,0.073-7.043,0.219-10.543l12.319-12.319c3.751-3.762,9.853-3.762,13.615,0
	l54.429,54.439c6.071,6.06,1.776,16.436-6.802,16.436h-1.64c-8.579,0-12.873,10.365-6.813,16.436l22.695,22.695
	c1.964,1.964,2.842,4.368,2.842,6.729c0,4.953-3.845,9.707-9.655,9.707c-8.579,0-12.873,10.376-6.802,16.436l24.085,24.085
	l24.085-24.085c1.954-1.954,2.832-4.368,2.832-6.729c0-4.953-3.835-9.707-9.644-9.707c-8.579,0-12.873-10.376-6.813-16.436
	l22.695-22.695c6.071-6.071,1.776-16.436-6.802-16.436h-1.64c-8.579,0-12.873-10.376-6.813-16.436l54.439-54.439
	c3.762-3.762,9.853-3.762,13.615,0l54.439,54.439c6.06,6.06,1.766,16.436-6.813,16.436h-1.641c-8.579,0-12.873,10.365-6.813,16.436
	l22.695,22.695c1.964,1.964,2.842,4.378,2.842,6.74c0,4.953-3.845,9.697-9.644,9.697c-8.579,0-12.884,10.376-6.813,16.436
	L256,399.317l23.301-23.301c1.964-1.964,2.842-4.368,2.842-6.729c0-4.953-3.845-9.707-9.655-9.707
	c-8.579,0-12.873-10.376-6.802-16.436l22.695-22.695c6.06-6.071,1.766-16.436-6.813-16.436h-1.641
	c-8.579,0-12.873-10.376-6.813-16.436l54.439-54.439c3.762-3.762,9.853-3.762,13.615,0l54.439,54.439
	c6.06,6.06,1.766,16.436-6.813,16.436h-1.64c-8.579,0-12.873,10.365-6.802,16.436l22.695,22.695
	c1.954,1.954,2.832,4.368,2.832,6.729c0,4.953-3.835,9.707-9.644,9.707c-8.579,0-12.873,10.376-6.813,16.436l24.085,24.085
	l24.085-24.085c1.964-1.964,2.842-4.378,2.842-6.74c0-4.953-3.845-9.697-9.644-9.697c-8.579,0-12.884-10.376-6.813-16.436
	l22.695-22.695c6.06-6.071,1.766-16.436-6.813-16.436h-1.641c-8.579,0-12.873-10.376-6.802-16.436l54.429-54.439
	c3.762-3.762,9.864-3.762,13.615,0l12.319,12.319C511.927,248.956,512,252.467,512,255.999z"/>
<g>
	<path style="fill:#3D3636;" d="M246.599,425.555c0,33.583-16.677,63.269-42.193,81.241c-25.987-5.308-50.531-14.566-72.986-27.105
		c-19.519-10.898-37.46-24.273-53.405-39.696c-6.468-6.248-12.601-12.842-18.38-19.738c-0.825-0.993-1.651-1.996-2.466-2.999
		c-2.57-3.166-5.068-6.395-7.481-9.686c8.464-46.237,48.964-81.283,97.646-81.283C202.16,326.289,246.599,370.729,246.599,425.555z"
		/>
	<path style="fill:#3D3636;" d="M280.036,257.326l-179.2,121.731l-41.2,41.2c-0.825-0.993-1.651-1.996-2.466-2.999
		C26.753,379.809,6.711,333.593,1.414,282.999c40.5-63.342,144.426-78.127,134.426-114.489
		c-11.619-42.256,41.211-72.61,41.211-72.61L280.036,257.326z"/>
</g>
<path style="fill:#CB8413;" d="M380.586,479.691c-36.864,20.585-79.35,32.308-124.583,32.308c-16.833,0-33.28-1.63-49.215-4.723
	c-26.864-5.235-52.224-14.66-75.368-27.585l37.543-93.017l38.285-94.866h97.51l16.886,41.838l25.276,62.621L380.586,479.691z"/>
<path style="fill:#E19829;" d="M380.586,479.691c-36.864,20.585-79.35,32.308-124.583,32.308c-16.833,0-33.28-1.63-49.215-4.723
	c-4.012-26.154-1.787-74.731,61.753-97.395c29.999-10.7,31.18-76.601,53.102-76.236L380.586,479.691z"/>
<path style="fill:#4D4445;" d="M411.693,264.64c-15.297,30.302-49.162,51.597-90.049,69.005
	c-47.47,20.24-104.396,35.234-152.68,53.029c-39.288,14.482-72.85,30.814-90.948,53.321c-7.398-7.147-14.357-14.743-20.846-22.737
	c2.915-51.148,26.07-119.212,119.421-154.708l173.85-182.983C350.441,79.568,467.072,154.926,411.693,264.64z"/>
<path style="fill:#4A2C21;" d="M290.663,426.713c7.316,0.446,12.692,8.984,11.265,18.256l-2.64,17.161
	c-1.635,10.637-7.659,19.257-15.682,22.455l-13.366,5.319c-9.278,3.688-19.203,3.688-28.481,0l-13.366-5.319
	c-8.023-3.197-14.047-11.818-15.682-22.455l-2.64-17.161c-1.426-9.272,3.95-17.809,11.265-18.256
	c2.078-0.126,4.272-0.549,6.546-1.373c13.949-5.078,14.378-17.732,28.117-17.732c13.739,0,14.168,12.654,28.117,17.732
	C286.392,426.165,288.585,426.586,290.663,426.713z"/>
<path style="fill:#CB8413;" d="M367.867,244.044l-2.623,6.102l-27.18,63.207c-1.117,2.598-1.958,5.305-2.509,8.078l-15.89,79.974
	l-7.795,39.257c-2.111,10.637-9.885,19.257-20.24,22.455l-17.251,5.319c-11.975,3.689-24.785,3.689-36.759,0l-17.251-5.319
	c-7.847-2.424-14.2-7.952-17.753-15.12c-1.128-2.288-1.975-4.754-2.487-7.335l-7.795-39.257l-15.89-79.974
	c-0.551-2.773-1.392-5.48-2.509-8.077l-27.17-63.186v-0.01l-2.633-6.113c-3.95-9.195-5.726-19.069-5.298-28.881
	c0.303-7.168,1.787-14.294,4.441-21.096l19.163-49.173l6.395-16.415l5.987-15.36c3.344-8.589,8.568-16.175,15.151-22.288
	c6.593-6.113,14.555-10.752,23.364-13.448c13.908-4.242,28.285-6.374,42.663-6.374s28.756,2.132,42.663,6.374
	c17.627,5.381,31.828,18.557,38.515,35.736l12.382,31.775l19.163,49.173c2.654,6.792,4.127,13.918,4.441,21.076
	C373.593,224.954,371.816,234.849,367.867,244.044z"/>
<path style="fill:#AD670D;" d="M243.461,297.23c0,65.912-16.614,122.995-40.845,150.768c-1.128-2.288-1.975-4.754-2.487-7.335
	l-7.795-39.257l-16.718-84.146l-28.85-67.093v-0.01l-2.633-6.113c-3.95-9.195-5.726-19.069-5.298-28.881
	c0.303-7.168,1.787-14.294,4.441-21.096l19.163-49.173l6.395-16.415h0.439C210.244,128.479,243.461,204.035,243.461,297.23z"/>
<g>
	<path style="fill:#E19829;" d="M301.871,407.613h-91.742c21.671-34.544,29.644-183.599-47.689-262.719l12.382-31.775
		c3.344-8.589,8.568-16.175,15.151-22.288c6.593-6.113,14.555-10.752,23.364-13.448c13.908-4.242,28.285-6.374,42.663-6.374
		c14.378,0,28.756,2.132,42.663,6.374c17.627,5.381,31.828,18.557,38.515,35.736l12.382,31.775
		C272.227,224.014,280.2,373.068,301.871,407.613z"/>
	<path style="fill:#E19829;" d="M347.14,5.696c2.824-6.87,12.256-7.711,16.332-1.502c9.863,15.024,21.174,38.432,14.151,59.502
		c-11.494,34.482-29.376,29.355-37.937,49.421c-8.561,20.065-38.522-35.734-38.522-35.734s-3.998-34.584,22.125-46.078
		C336.292,25.581,343.34,14.94,347.14,5.696z"/>
</g>
<path style="fill:#4A2C21;" d="M325.531,98.982c-8.675-0.41-14.887-8.584-12.896-17.037c1.984-8.423,8.575-18.929,26.327-28.699
	c6.39-3.516,9.815-7.712,11.636-11.42c1.42-2.89,5.598-2.532,6.513,0.556c3.496,11.79,3.994,32.432-22.163,53.515
	C332.291,98.039,328.939,99.143,325.531,98.982L325.531,98.982z"/>
<path style="fill:#E19829;" d="M164.86,5.696c-2.824-6.87-12.256-7.711-16.332-1.502c-9.863,15.024-21.174,38.432-14.151,59.502
	c11.494,34.482,29.376,29.355,37.937,49.421s38.522-35.734,38.522-35.734s3.998-34.584-22.125-46.078
	C175.708,25.581,168.66,14.94,164.86,5.696z"/>
<path style="fill:#4A2C21;" d="M186.469,98.982c8.675-0.41,14.887-8.584,12.896-17.037c-1.984-8.423-8.575-18.929-26.327-28.699
	c-6.389-3.516-9.815-7.712-11.636-11.42c-1.42-2.89-5.598-2.532-6.513,0.556c-3.496,11.79-3.994,32.432,22.163,53.515
	C179.709,98.039,183.061,99.143,186.469,98.982L186.469,98.982z"/>
<path style="fill:#4D4445;" d="M287.35,149.378c-24.482,48.974-50.792,69.371-71.011,77.521
	c-20.344,8.182-34.523,3.981-34.523,3.981s41.796-14.629,33.437-71.053c-7.199-48.588-16.729-89.433,16.802-105.838
	c12.173-5.966,26.373-6.499,39.1-1.818C292.71,60.112,320.494,83.089,287.35,149.378z"/>
<path style="fill:#0F0F0E;" d="M380.343,228.264c0,1.646-0.225,3.249-0.633,4.768c-2.096,7.792-9.198,13.516-17.651,13.516
	c-10.098,0-18.284-8.186-18.284-18.284c0-8.453,5.724-15.555,13.516-17.651c1.519-0.408,3.122-0.633,4.768-0.633
	C372.157,209.981,380.343,218.166,380.343,228.264z"/>
<path style="fill:#E6E6E6;" d="M380.343,228.264c0,1.646-0.225,3.249-0.633,4.768c-2.151,0.999-4.571,1.561-7.102,1.561
	c-9.325,0-16.877-7.553-16.877-16.877c0-2.532,0.562-4.951,1.561-7.102c1.519-0.408,3.122-0.633,4.768-0.633
	C372.157,209.981,380.343,218.166,380.343,228.264z"/>
<path style="fill:#0F0F0E;" d="M164.049,228.264c0,1.646-0.225,3.249-0.633,4.768c-2.096,7.792-9.198,13.516-17.651,13.516
	c-10.098,0-18.284-8.186-18.284-18.284c0-8.453,5.724-15.555,13.516-17.651c1.519-0.408,3.122-0.633,4.768-0.633
	C155.863,209.981,164.049,218.166,164.049,228.264z"/>
<path style="fill:#E6E6E6;" d="M164.049,228.264c0,1.646-0.225,3.249-0.633,4.768c-2.151,0.999-4.571,1.561-7.102,1.561
	c-9.325,0-16.877-7.553-16.877-16.877c0-2.532,0.562-4.951,1.561-7.102c1.519-0.408,3.122-0.633,4.768-0.633
	C155.863,209.981,164.049,218.166,164.049,228.264z"/>
<path style="fill:#CB8413;" d="M377.468,195.874h-39.27v19.332h39.27c5.338,0,9.665-4.328,9.665-9.665l0,0
	C387.135,200.201,382.807,195.874,377.468,195.874z"/>
<path style="fill:#AD670D;" d="M134.532,195.874h35.525v19.332h-35.525c-5.338,0-9.665-4.328-9.665-9.665l0,0
	C124.865,200.201,129.193,195.874,134.532,195.874z"/>
<path style="fill:#654030;" d="M300.738,405.245c9.443,0.446,16.381,8.984,14.54,18.256l-3.407,17.161
	c-2.111,10.637-9.885,19.257-20.24,22.455l-17.251,5.319c-11.975,3.689-24.785,3.689-36.759,0l-17.251-5.319
	c-10.355-3.197-18.129-11.818-20.24-22.455l-3.407-17.161c-1.841-9.272,5.097-17.809,14.54-18.256
	c2.682-0.126,5.513-0.549,8.449-1.373c18.004-5.078,18.557-17.732,36.289-17.732c17.732,0,18.286,12.654,36.289,17.732
	C295.225,404.697,298.056,405.118,300.738,405.245z"/>
<g>
	
		<ellipse transform="matrix(0.6818 -0.7315 0.7315 0.6818 -229.491 343.7172)" style="fill:#4A2C21;" cx="280.37" cy="435.667" rx="12.538" ry="8.359"/>
	
		<ellipse transform="matrix(0.6818 0.7315 -0.7315 0.6818 392.4095 -30.8267)" style="fill:#4A2C21;" cx="231.641" cy="435.676" rx="12.538" ry="8.359"/>
</g>
<path style="fill:#3D3636;" d="M242.419,117.31c13.584,36.571,11.713,86.392-26.018,109.547c-0.021,0.01-0.042,0.021-0.063,0.042
	c-20.344,8.182-34.523,3.981-34.523,3.981s41.796-14.629,33.437-71.053c-7.199-48.588-16.729-89.433,16.802-105.838
	c12.173-5.966,26.373-6.499,39.1-1.818C271.154,52.171,228.836,80.738,242.419,117.31z"/>
<g>
</g>
<g>
</g>
<g>
</g>
<g>
</g>
<g>
</g>
<g>
</g>
<g>
</g>
<g>
</g>
<g>
</g>
<g>
</g>
<g>
</g>
<g>
</g>
<g>
</g>
<g>
</g>
<g>
</g>
</svg>
