<?xml version="1.0" encoding="iso-8859-1"?>
<!-- Generator: Adobe Illustrator 19.0.0, SVG Export Plug-In . SVG Version: 6.00 Build 0)  -->
<svg version="1.1" id="Capa_1" xmlns="http://www.w3.org/2000/svg" xmlns:xlink="http://www.w3.org/1999/xlink" x="0px" y="0px"
	 viewBox="0 0 512 512" style="enable-background:new 0 0 512 512;" xml:space="preserve">
<path style="fill:#095972;" d="M512,256c0,18.233-1.912,36.028-5.538,53.185c-3.803,18.035-9.519,35.359-16.906,51.775
	c-12.184,27.094-28.965,51.681-49.34,72.777c-3.208,3.333-6.51,6.583-9.906,9.738c-9.07,8.432-18.745,16.227-28.965,23.28
	C360.061,495.292,309.979,512,256,512s-104.061-16.708-145.345-45.244c-10.219-7.053-19.895-14.848-28.965-23.28
	c-3.396-3.156-6.698-6.405-9.906-9.738c-5.904-6.102-11.504-12.507-16.771-19.174c-7.231-9.143-13.845-18.798-19.79-28.891
	c-4.692-7.973-8.965-16.217-12.779-24.712c-7.387-16.415-13.103-33.74-16.906-51.775C1.912,292.028,0,274.233,0,256
	c0-3.532,0.073-7.043,0.219-10.543c1.578-38.954,11.86-75.661,28.954-108.231C71.962,55.651,157.487,0,256,0
	s184.038,55.651,226.826,137.226c17.095,32.569,27.376,69.277,28.954,108.231C511.927,248.957,512,252.468,512,256z"/>
<g>
	<path style="fill:#427A2D;" d="M512,256c0,18.233-1.912,36.028-5.538,53.185h-77.73c-8.579,0-12.873-10.365-6.802-16.436
		l29.257-29.257c1.954-1.964,2.832-4.378,2.832-6.74c0-4.953-3.835-9.697-9.644-9.697c-8.579,0-12.873-10.376-6.802-16.436
		l22.695-22.695c6.06-6.071,1.766-16.447-6.813-16.447h-1.641c-8.579,0-12.873-10.365-6.813-16.436l37.825-37.815
		c17.095,32.569,27.376,69.277,28.954,108.231C511.927,248.957,512,252.468,512,256z"/>
	<path style="fill:#427A2D;" d="M83.268,309.185H5.538C1.912,292.028,0,274.233,0,256c0-3.532,0.073-7.043,0.219-10.543
		c1.578-38.954,11.86-75.661,28.954-108.231l37.825,37.815c6.06,6.071,1.766,16.436-6.813,16.436h-1.64
		c-8.579,0-12.873,10.376-6.813,16.447l22.695,22.695c1.964,1.964,2.842,4.378,2.842,6.74c0,4.953-3.845,9.697-9.644,9.697
		c-8.579,0-12.873,10.365-6.813,16.436l29.257,29.257C96.141,298.82,91.847,309.185,83.268,309.185z"/>
</g>
<path style="fill:#4C8E37;" d="M489.556,360.96c-12.184,27.094-28.965,51.681-49.34,72.777H71.784
	c-5.904-6.102-11.504-12.507-16.771-19.174v-28.891h-19.79c-4.692-7.973-8.965-16.217-12.779-24.712l20.982-20.992
	c1.964-1.964,2.842-4.368,2.842-6.729c0-4.953-3.845-9.707-9.655-9.707c-8.579,0-12.873-10.376-6.802-16.436L52.506,284.4
	c6.06-6.071,1.766-16.436-6.813-16.436h-1.64c-8.579,0-12.873-10.376-6.813-16.436l54.439-54.439c3.762-3.762,9.853-3.762,13.615,0
	l54.439,54.439c6.071,6.06,1.766,16.436-6.813,16.436h-1.641c-8.579,0-12.873,10.365-6.802,16.436l22.695,22.695
	c1.954,1.954,2.832,4.368,2.832,6.729c0,4.953-3.835,9.707-9.644,9.707c-8.579,0-12.873,10.376-6.813,16.436l23.301,23.301
	l23.301-23.301c6.071-6.06,1.776-16.436-6.802-16.436s-12.873-10.376-6.813-16.436L209.23,284.4
	c6.071-6.071,1.766-16.436-6.813-16.436h-1.64c-8.579,0-12.873-10.376-6.802-16.436l54.429-54.439c3.762-3.762,9.864-3.762,13.625,0
	l54.429,54.439c6.071,6.06,1.776,16.436-6.802,16.436h-1.64c-8.579,0-12.884,10.365-6.813,16.436l22.695,22.695
	c1.954,1.954,2.832,4.368,2.832,6.729c0,4.953-3.835,9.707-9.644,9.707c-8.579,0-12.873,10.376-6.802,16.436l24.085,24.085
	l24.085-24.085c1.954-1.954,2.832-4.368,2.832-6.729c0-4.953-3.835-9.707-9.644-9.707c-8.579,0-12.873-10.376-6.813-16.436
	l22.695-22.695c6.071-6.071,1.776-16.436-6.802-16.436h-1.641c-8.579,0-12.884-10.376-6.813-16.436l54.439-54.439
	c3.762-3.762,9.853-3.762,13.615,0l54.439,54.439c6.06,6.06,1.766,16.436-6.813,16.436h-1.641c-8.579,0-12.873,10.365-6.813,16.436
	l22.695,22.695c1.964,1.964,2.842,4.378,2.842,6.74c0,4.953-3.845,9.697-9.644,9.697c-8.579,0-12.884,10.376-6.813,16.436
	L489.556,360.96z"/>
<path style="fill:#69AF54;" d="M512,256c0,74.041-31.431,140.737-81.69,187.476c-9.07,8.432-18.745,16.227-28.965,23.28
	C360.061,495.292,309.979,512,256,512s-104.061-16.708-145.345-45.244c-10.219-7.053-19.895-14.848-28.965-23.28
	C31.431,396.737,0,330.041,0,256c0-3.532,0.073-7.043,0.219-10.543l12.319-12.319c3.751-3.762,9.853-3.762,13.615,0l54.429,54.439
	c6.071,6.06,1.776,16.436-6.802,16.436h-1.64c-8.579,0-12.873,10.365-6.813,16.436l22.695,22.695
	c1.964,1.964,2.842,4.368,2.842,6.729c0,4.953-3.845,9.707-9.655,9.707c-8.579,0-12.873,10.376-6.802,16.436l24.085,24.085
	l24.085-24.085c1.954-1.954,2.832-4.368,2.832-6.729c0-4.953-3.835-9.707-9.644-9.707c-8.579,0-12.873-10.376-6.813-16.436
	l22.695-22.695c6.071-6.071,1.776-16.436-6.802-16.436h-1.64c-8.579,0-12.873-10.376-6.813-16.436l54.439-54.439
	c3.762-3.762,9.853-3.762,13.615,0l54.439,54.439c6.06,6.06,1.766,16.436-6.813,16.436h-1.641c-8.579,0-12.873,10.365-6.813,16.436
	l22.695,22.695c1.964,1.964,2.842,4.378,2.842,6.74c0,4.953-3.845,9.697-9.644,9.697c-8.579,0-12.884,10.376-6.813,16.436
	L256,399.318l23.301-23.301c1.964-1.964,2.842-4.368,2.842-6.729c0-4.953-3.845-9.707-9.655-9.707
	c-8.579,0-12.873-10.376-6.802-16.436l22.695-22.695c6.06-6.071,1.766-16.436-6.813-16.436h-1.641
	c-8.579,0-12.873-10.376-6.813-16.436l54.439-54.439c3.762-3.762,9.853-3.762,13.615,0l54.439,54.439
	c6.06,6.06,1.766,16.436-6.813,16.436h-1.64c-8.579,0-12.873,10.365-6.802,16.436l22.695,22.695
	c1.954,1.954,2.832,4.368,2.832,6.729c0,4.953-3.835,9.707-9.644,9.707c-8.579,0-12.873,10.376-6.813,16.436l24.085,24.085
	l24.085-24.085c1.964-1.964,2.842-4.378,2.842-6.74c0-4.953-3.845-9.697-9.644-9.697c-8.579,0-12.884-10.376-6.813-16.436
	l22.695-22.695c6.06-6.071,1.766-16.436-6.813-16.436h-1.641c-8.579,0-12.873-10.376-6.802-16.436l54.429-54.439
	c3.762-3.762,9.864-3.762,13.615,0l12.319,12.319C511.927,248.957,512,252.468,512,256z"/>
<path style="fill:#665B5B;" d="M401.345,466.756C360.061,495.292,309.979,512,256,512c-25.913,0-50.928-3.856-74.501-11.013
	c-25.537-7.753-49.382-19.393-70.844-34.231c-1.327-99.924,36.979-157.184,36.979-157.184h216.722
	C364.356,309.572,402.672,366.832,401.345,466.756z"/>
<path style="fill:#4D4445;" d="M181.499,500.987c-25.537-7.753-49.382-19.393-70.844-34.231
	c-1.327-99.924,36.979-157.184,36.979-157.184h52.684l12.842,19.853C213.159,329.425,177.695,388.807,181.499,500.987z"/>
<path style="fill:#998888;" d="M331.129,432.369l-14.562-14.562c-3.934-3.934-10.603-2.586-12.688,2.57
	c-5.774,14.273-17.095,39.891-31.776,61.518c-3.373,4.979-6.928,9.743-10.636,14.109c-3.291,3.876-9.302,3.908-12.594,0.032
	c-19.834-23.346-35.337-58.092-42.444-75.659c-2.087-5.158-8.754-6.506-12.689-2.571l-14.563,14.563
	c-4.029,4.029-10.852,2.895-13.325-2.238c-23.226-48.214,0.205-92.726,9.44-107.248c2.038-3.208,3.385-4.953,3.385-4.953H331.63
	c0,0,41.145,53.302,12.856,112.135C342.004,435.228,335.179,436.419,331.129,432.369z"/>
<path style="fill:#807272;" d="M178.678,317.931l0.206,6.681l-3.591-1.728c-9.236,14.522-32.666,59.035-9.44,107.248
	c2.472,5.133,9.296,6.266,13.325,2.238l14.563-14.563c3.934-3.934,10.603-2.586,12.689,2.571
	c7.105,17.567,22.61,52.313,42.444,75.659c3.292,3.876,9.302,3.843,12.594-0.032c3.708-4.367,7.263-9.129,10.636-14.109
	l-10.838-23.152c-2.052-4.384-8.295-4.337-10.288,0.059c-1.495,3.298-6.019,3.634-7.897,0.538
	c-14.475-23.847-23.211-55.425-26.869-70.707c-0.632-2.642,2.605-4.443,4.525-2.522l11.793,11.793
	c1.772,1.772,4.793,0.375,4.588-2.123l-1.789-21.891c-0.363-4.44,5.703-6.063,7.616-2.04c5.812,12.221,11.443,20.693,14.884,25.368
	c1.583,2.15,4.825,2.035,6.25-0.223l20.465-32.462c2.023-3.209,6.983-1.775,6.983,2.018v3.596c0,5.429,6.89,7.751,10.176,3.429
	c11.315-14.884,25.35-35.793,25.35-35.793L178.678,317.931z"/>
<g>
	<path style="fill:#998888;" d="M176.564,380.579c0.669,3.475,1.819,7.967,3.798,13.093c1.39,3.6,6.736,2.678,6.886-1.179
		l0.753-19.454c0.133-3.438-3.653-5.606-6.55-3.751l0,0C177.673,371.707,175.716,376.175,176.564,380.579z"/>
	<path style="fill:#998888;" d="M393.174,329.895l-32.831,10.668l-87.458,28.432c-5.298,1.724-10.773,2.612-16.269,2.664
		c-0.408,0.01-0.815,0.01-1.233,0c-5.496-0.052-10.992-0.94-16.269-2.664l-87.458-28.421l-32.831-10.668
		c-22.434-7.293-36.101-29.936-32.099-53.164l4.106-23.918l10.773-62.736c1.964-11.358,5.12-22.329,9.373-32.758l39.403-44.826
		l9.341-10.627l6.29-7.158c10.303-11.724,23.353-20.762,38.076-25.924c0.094-0.031,0.178-0.063,0.272-0.094
		c16.697-5.851,34.189-8.767,51.628-8.767H256c17.471,0,34.91,2.915,51.639,8.767c0.104,0.031,0.209,0.073,0.303,0.104
		c14.712,5.172,27.763,14.211,38.055,25.924l6.259,7.126l9.55,10.867l39.215,44.607c4.263,10.428,7.419,21.4,9.383,32.758
		l10.762,62.736l4.106,23.918C429.265,299.969,415.598,322.612,393.174,329.895z"/>
</g>
<path style="fill:#807272;" d="M244.512,368.995c3.5,1.672,7.126,2.56,10.752,2.664c-5.465-0.063-10.909-0.951-16.154-2.664
	l-87.458-28.421l-32.831-10.668c-22.424-7.293-36.101-29.936-32.099-53.164l14.879-86.653c1.964-11.358,5.12-22.329,9.373-32.758
	l55.054-62.624c10.292-11.708,23.337-20.743,38.046-25.905c0.095-0.033,0.189-0.066,0.284-0.099
	c16.708-5.851,34.189-8.767,51.628-8.767c-11.87,0-23.751,2.915-35.119,8.767c-6.134,3.145-69.851,56.454-69.851,121.041
	l-0.031,0.345l-10.125,86.653c-2.727,23.228,6.583,45.871,21.828,53.164l22.34,10.668L244.512,368.995z"/>
<path style="fill:#E6E6E6;" d="M393.174,329.895l-32.831,10.668l-87.458,28.432c-5.298,1.724-10.773,2.612-16.269,2.664
	c-0.408,0.01-0.815,0.01-1.233,0h-0.125c-0.042,0-0.094,0-0.136-0.01c-5.413-0.073-10.815-0.961-16.008-2.654l-87.458-28.421
	l-32.831-10.668c-22.434-7.293-36.101-29.936-32.099-53.164l4.106-23.918c19.728-0.679,37.146,0.387,52.506,2.759
	c29.78,4.587,51.869,14.012,68.19,24.91C248.78,305.371,256,337.899,256,337.899s7.22-32.517,44.46-57.396
	c24.743-16.53,62.757-29.686,120.707-27.679l4.106,23.918C429.265,299.969,415.598,322.612,393.174,329.895z"/>
<line style="fill:none;stroke:#0F0F0E;stroke-width:13;stroke-linejoin:round;stroke-miterlimit:10;" x1="378.556" y1="119.066" x2="378.556" y2="119.045"/>
<circle style="fill:#998888;" cx="256" cy="324.66" r="32.048"/>
<path style="fill:#665B5B;" d="M361.806,112.724l-4.827,4.054c-88.712,75.442-52.255,99.046-56.519,163.725
	c-0.24,3.688-0.616,7.502-1.149,11.473C289.332,365.599,256,337.899,256,337.899s-33.343,27.7-43.321-45.923
	c-0.533-3.971-0.909-7.795-1.149-11.483c-4.033-61.095,28.275-85.546-42.914-151.646c-4.169-3.877-8.694-7.889-13.605-12.069
	l-4.629-4.274l9.341-10.627l6.29-7.158c10.303-11.724,23.353-20.762,38.076-25.924c0.094-0.031,0.178-0.063,0.272-0.094
	c16.697-5.851,34.189-8.767,51.628-8.767H256c17.471,0,34.91,2.915,51.639,8.767c0.104,0.031,0.209,0.073,0.303,0.104
	c14.712,5.172,27.763,14.211,38.055,25.924l6.259,7.126L361.806,112.724z"/>
<path style="fill:#0F0F0E;" d="M291.242,285.267c0,12.774-15.78,30.473-35.245,30.473s-35.245-17.699-35.245-30.473
	s15.78-15.786,35.245-15.786S291.242,272.493,291.242,285.267z"/>
<path style="fill:#998888;" d="M443.438,35.657c0,0,46.461,100.685-40.668,145.224l-0.011-0.011
	c-0.365-0.719-28.837-35.228-11.047-71.639c9.553-19.549,37.097-49.47,50.476-73.242C442.598,35.879,443.006,35.779,443.438,35.657z
	"/>
<path style="fill:#665B5B;" d="M415.992,67.157c0,0,18.111,12.539,9.056,52.245c-9.056,39.706-33.618,47.53-33.618,47.53
	l-25.594-34.992"/>
<path style="fill:#807272;" d="M442.188,35.989c-13.379,23.772-29.865,53.693-39.419,73.242c-17.79,36.411-0.376,70.92-0.011,71.639
	l-35.33-39.404c-12.207-13.615-14.87-33.437-6.312-49.597C371.404,72.443,393.75,49.139,442.188,35.989z"/>
<path style="fill:#998888;" d="M68.556,35.657c0,0-46.461,100.685,40.668,145.224l0.011-0.011
	c0.365-0.719,28.837-35.228,11.047-71.639c-9.555-19.548-37.098-49.469-50.478-73.241C69.396,35.879,68.986,35.779,68.556,35.657z"
	/>
<path style="fill:#665B5B;" d="M96.001,67.157c0,0-18.111,12.539-9.056,52.245s33.618,47.53,33.618,47.53l25.594-34.992"/>
<g>
	<path style="fill:#807272;" d="M69.804,35.989c13.379,23.772,29.865,53.693,39.419,73.242c17.79,36.411,0.376,70.92,0.011,71.639
		l50.343-56.148C159.578,124.722,163.403,61.398,69.804,35.989z"/>
	<path style="fill:#807272;" d="M328.62,261.507c-13.828,0-25.078-11.249-25.078-25.078c0-11.319,7.628-21.275,18.55-24.213
		c2.138-0.574,4.332-0.864,6.527-0.864c13.828,0,25.078,11.249,25.078,25.078c0,2.194-0.29,4.389-0.864,6.523
		C349.896,253.879,339.94,261.507,328.62,261.507z"/>
	<path style="fill:#807272;" d="M183.376,261.507c-13.828,0-25.078-11.249-25.078-25.078c0-11.319,7.628-21.275,18.55-24.213
		c2.138-0.574,4.332-0.864,6.527-0.864c13.828,0,25.078,11.249,25.078,25.078c0,2.194-0.29,4.389-0.864,6.523
		C204.652,253.879,194.695,261.507,183.376,261.507z"/>
</g>
<g>
	<path style="fill:#0F0F0E;" d="M342.204,231.205c0,1.223-0.167,2.414-0.47,3.542c-1.557,5.789-6.834,10.041-13.113,10.041
		c-7.502,0-13.584-6.081-13.584-13.584c0-6.28,4.253-11.557,10.041-13.113c1.128-0.303,2.32-0.47,3.542-0.47
		C336.123,217.621,342.204,223.702,342.204,231.205z"/>
	<circle style="fill:#0F0F0E;" cx="183.38" cy="231.205" r="13.584"/>
</g>
<g>
	<path style="fill:#E6E6E6;" d="M342.204,231.205c0,1.223-0.167,2.414-0.47,3.542c-1.599,0.742-3.396,1.16-5.277,1.16
		c-6.928,0-12.539-5.611-12.539-12.539c0-1.881,0.418-3.678,1.16-5.277c1.128-0.303,2.32-0.47,3.542-0.47
		C336.123,217.621,342.204,223.702,342.204,231.205z"/>
	<path style="fill:#E6E6E6;" d="M196.96,231.205c0,1.223-0.167,2.414-0.47,3.542c-1.599,0.742-3.396,1.16-5.277,1.16
		c-6.928,0-12.539-5.611-12.539-12.539c0-1.881,0.418-3.678,1.16-5.277c1.128-0.303,2.32-0.47,3.542-0.47
		C190.879,217.621,196.96,223.702,196.96,231.205z"/>
</g>
<circle style="fill:#807272;" cx="273.763" cy="283.972" r="9.404"/>
<path style="fill:#4D4445;" d="M155.011,116.778l-4.629-4.274l9.341-10.627l6.29-7.158c10.303-11.724,23.353-20.762,38.076-25.924
	c0.094-0.031,0.178-0.063,0.272-0.094c16.697-5.851,34.189-8.767,51.628-8.767c-11.87,0-23.751,2.915-35.119,8.767
	c-4.033,2.069-32.925,25.788-52.255,60.144C164.446,124.97,159.922,120.957,155.011,116.778z"/>
<path style="fill:#CCCCCC;" d="M244.517,368.995c3.448,1.651,7.032,2.539,10.606,2.654c-5.413-0.073-10.815-0.961-16.008-2.654
	l-87.458-28.421l-32.831-10.668c-22.434-7.293-36.101-29.936-32.099-53.164l4.106-23.918c19.728-0.679,37.146,0.387,52.506,2.759
	l-2.476,21.159c-2.727,23.228,6.583,45.871,21.828,53.164l22.34,10.668L244.517,368.995z"/>
<g>
</g>
<g>
</g>
<g>
</g>
<g>
</g>
<g>
</g>
<g>
</g>
<g>
</g>
<g>
</g>
<g>
</g>
<g>
</g>
<g>
</g>
<g>
</g>
<g>
</g>
<g>
</g>
<g>
</g>
</svg>
