<?xml version="1.0" encoding="iso-8859-1"?>
<!-- Generator: Adobe Illustrator 19.0.0, SVG Export Plug-In . SVG Version: 6.00 Build 0)  -->
<svg version="1.1" id="Capa_1" xmlns="http://www.w3.org/2000/svg" xmlns:xlink="http://www.w3.org/1999/xlink" x="0px" y="0px"
	 viewBox="0 0 512 512" style="enable-background:new 0 0 512 512;" xml:space="preserve">
<path style="fill:#095972;" d="M511.999,255.999c0,13.605-1.066,26.958-3.114,39.988C489.691,418.376,383.78,511.999,256,511.999
	S22.309,418.376,3.114,295.988c-2.048-13.03-3.114-26.384-3.114-39.988C0.001,114.615,114.615,0,256,0
	c42.026,0,81.7,10.125,116.694,28.076c13.155,6.76,25.663,14.618,37.376,23.458C471.98,98.262,511.999,172.46,511.999,255.999z"/>
<g>
	<path style="fill:#FCE690;" d="M164.722,66.627l-11.154-2.82c-4.174-1.055-7.434-4.314-8.49-8.49l-2.82-11.154
		c-0.728-2.879-4.818-2.879-5.545,0l-2.82,11.154c-1.055,4.174-4.314,7.434-8.49,8.49l-11.154,2.82
		c-2.879,0.727-2.879,4.818,0,5.545l11.154,2.82c4.174,1.055,7.434,4.314,8.49,8.49l2.82,11.154c0.728,2.879,4.818,2.879,5.545,0
		l2.82-11.154c1.055-4.174,4.314-7.434,8.49-8.49l11.154-2.82C167.601,71.445,167.601,67.355,164.722,66.627z"/>
	<path style="fill:#FCE690;" d="M89.533,248.653l-11.155-2.82c-4.174-1.055-7.434-4.314-8.49-8.49l-2.82-11.154
		c-0.728-2.879-4.818-2.879-5.545,0l-2.82,11.154c-1.055,4.174-4.314,7.434-8.49,8.49l-11.154,2.82
		c-2.879,0.727-2.879,4.818,0,5.545l11.154,2.82c4.174,1.055,7.434,4.314,8.49,8.49l2.82,11.154c0.727,2.879,4.818,2.879,5.545,0
		l2.82-11.154c1.055-4.174,4.314-7.434,8.49-8.49l11.154-2.82C92.412,253.471,92.412,249.38,89.533,248.653z"/>
	<path style="fill:#FCE690;" d="M410.07,51.534l-6.687,1.693c-6.186,1.567-11.013,6.395-12.57,12.57l-4.18,16.52
		c-1.076,4.263-7.126,4.263-8.213,0l-4.169-16.52c-1.567-6.175-6.395-11.003-12.57-12.57l-16.52-4.169
		c-4.263-1.076-4.263-7.137,0-8.213l16.52-4.18c4.775-1.202,8.735-4.357,11.013-8.589C385.849,34.837,398.357,42.694,410.07,51.534z
		"/>
</g>
<path style="fill:#E8E8E8;" d="M508.886,295.988C489.691,418.376,383.78,511.999,256,511.999S22.309,418.376,3.114,295.988H508.886z
	"/>
<g>
	<path style="fill:#E6E6E6;" d="M457.735,413.633C410.871,473.516,337.938,512,256.007,512S101.143,473.516,54.28,413.633
		c7.199-28.003,20.929-53.708,39.612-75.191c31.932-36.728,78.346-61.158,131.427-63.843c20.459-1.034,40.918-1.034,61.377,0
		c53.081,2.685,99.495,27.115,131.427,63.843C436.806,359.926,450.536,385.63,457.735,413.633z"/>
	<circle style="fill:#E6E6E6;" cx="449.828" cy="132.994" r="43.886"/>
</g>
<circle style="fill:#807272;" cx="446.704" cy="136.119" r="25.073"/>
<circle style="fill:#CCCCCC;" cx="62.182" cy="132.994" r="43.886"/>
<circle style="fill:#807272;" cx="65.306" cy="136.119" r="25.073"/>
<path style="fill:#CCCCCC;" d="M418.123,338.443c-31.932-36.728-78.346-61.158-131.427-63.843
	c-11.274-0.575-22.549-0.815-33.813-0.752c0.209-0.01,0.408-0.01,0.616-0.021c-0.742,0.01-1.494,0.021-2.236,0.021
	c-1.327,0.01-2.654,0.021-3.981,0.042c-1.264,0.021-2.529,0.052-3.793,0.073c-1.191,0.021-2.382,0.042-3.574,0.073
	c-1.317,0.042-2.644,0.084-3.96,0.125c-1.118,0.042-2.247,0.073-3.365,0.115c-2.424,0.094-4.848,0.199-7.272,0.324
	c-84.156,4.253-151.531,63.164-171.039,139.034c18.453,23.583,40.96,43.844,66.455,59.747c-0.721-13.866-0.397-27.512,0.867-40.761
	c3.371-35.247,34.523-60.941,69.499-58.533c1.888,0.13,3.617,1.113,4.686,2.674l14.286,20.883c2.911,4.256,9.25,4.067,11.903-0.354
	l6.432-10.72c2.456-4.092,8.432-3.951,10.691,0.252l16.031,29.818c3.046,5.664,11.458,4.655,13.077-1.569l7.119-27.379
	c1.196-4.602,6.939-6.164,10.302-2.801l6.399,6.399c3.264,3.264,8.729,2.578,11.085-1.392l7.278-12.263
	c0.994-1.674,2.721-2.77,4.657-2.971c16.035-1.653,32.069-3.973,48.104-6.975C384.446,363.708,403.473,353.28,418.123,338.443z"/>
<path style="fill:#E6E6E6;" d="M284.958,358.277c-19.302,0.851-38.606,0.851-57.908,0c-105.259-4.639-182.716-88.258-163.997-178.65
	c1.003-4.844,2.172-9.687,3.508-14.531c9.611-34.863,41.861-61.702,82.3-68.299c71.43-11.652,142.859-11.652,214.289,0
	c40.44,6.596,72.689,33.435,82.3,68.299c1.335,4.844,2.505,9.687,3.508,14.531C467.674,270.019,390.217,353.638,284.958,358.277z"/>
<g>
	<path style="fill:#CCCCCC;" d="M306.484,273.967c0-27.879-22.601-79.662-50.48-79.662s-50.48,51.783-50.48,79.662
		s22.601,50.48,50.48,50.48S306.484,301.846,306.484,273.967z"/>
	<path style="fill:#CCCCCC;" d="M256.004,88.053c-35.715,0-71.429,2.914-107.144,8.742c-40.437,6.593-72.693,33.429-82.296,68.298
		c-1.337,4.844-2.508,9.689-3.511,14.533C44.34,270.016,121.787,353.63,227.05,358.275c8.861,0.382,17.721,0.601,26.593,0.628
		c-5.527-0.046-11.055-0.264-16.572-0.628c-68.827-4.645-119.473-88.259-107.238-178.649c0.658-4.844,1.421-9.689,2.299-14.533
		c6.28-34.868,27.366-61.705,53.812-68.298C209.297,90.968,232.651,88.053,256.004,88.053z"/>
</g>
<path style="fill:#0F0F0E;" d="M291.251,267.645c0,12.774-15.78,30.473-35.245,30.473s-35.245-17.699-35.245-30.473
	c0-12.774,15.78-15.786,35.245-15.786C275.471,251.859,291.251,254.87,291.251,267.645z"/>
<circle style="fill:#807272;" cx="273.774" cy="266.354" r="9.404"/>
<g>
	<path style="fill:#CCCCCC;" d="M339.075,256.283c-13.828,0-25.078-11.249-25.078-25.077c0-11.319,7.628-21.275,18.55-24.213
		c2.138-0.574,4.332-0.864,6.527-0.864c13.828,0,25.077,11.249,25.077,25.077c0,2.194-0.29,4.389-0.864,6.523
		C360.352,248.655,350.395,256.283,339.075,256.283z"/>
	<path style="fill:#CCCCCC;" d="M172.933,256.283c-13.828,0-25.077-11.249-25.077-25.077c0-11.319,7.628-21.275,18.55-24.213
		c2.138-0.574,4.332-0.864,6.527-0.864c13.828,0,25.077,11.249,25.077,25.077c0,2.194-0.29,4.389-0.864,6.523
		C194.208,248.655,184.251,256.283,172.933,256.283z"/>
</g>
<g>
	<path style="fill:#0F0F0E;" d="M352.659,225.981c0,1.223-0.167,2.414-0.47,3.542c-1.557,5.789-6.834,10.041-13.113,10.041
		c-7.502,0-13.584-6.081-13.584-13.584c0-6.28,4.253-11.557,10.041-13.113c1.128-0.303,2.32-0.47,3.542-0.47
		C346.578,212.397,352.659,218.478,352.659,225.981z"/>
	<circle style="fill:#0F0F0E;" cx="172.931" cy="225.98" r="13.584"/>
</g>
<g>
	<path style="fill:#EFEFEF;" d="M352.659,225.981c0,1.223-0.167,2.414-0.47,3.542c-1.599,0.742-3.396,1.16-5.277,1.16
		c-6.928,0-12.539-5.611-12.539-12.539c0-1.881,0.418-3.678,1.16-5.277c1.128-0.303,2.32-0.47,3.542-0.47
		C346.578,212.397,352.659,218.478,352.659,225.981z"/>
	<path style="fill:#EFEFEF;" d="M186.516,225.981c0,1.223-0.167,2.414-0.47,3.542c-1.599,0.742-3.396,1.16-5.277,1.16
		c-6.928,0-12.539-5.611-12.539-12.539c0-1.881,0.418-3.678,1.16-5.277c1.128-0.303,2.32-0.47,3.542-0.47
		C180.435,212.397,186.516,218.478,186.516,225.981z"/>
</g>
<g>
</g>
<g>
</g>
<g>
</g>
<g>
</g>
<g>
</g>
<g>
</g>
<g>
</g>
<g>
</g>
<g>
</g>
<g>
</g>
<g>
</g>
<g>
</g>
<g>
</g>
<g>
</g>
<g>
</g>
</svg>
