<?xml version="1.0" encoding="iso-8859-1"?>
<!-- Generator: Adobe Illustrator 19.0.0, SVG Export Plug-In . SVG Version: 6.00 Build 0)  -->
<svg version="1.1" id="Capa_1" xmlns="http://www.w3.org/2000/svg" xmlns:xlink="http://www.w3.org/1999/xlink" x="0px" y="0px"
	 viewBox="0 0 512 512" style="enable-background:new 0 0 512 512;" xml:space="preserve">
<path style="fill:#427A2D;" d="M511.949,256c0,13.602-1.066,26.952-3.113,39.979c-19.19,122.361-125.078,215.963-252.829,215.963
	S22.367,418.341,3.177,295.979C1.129,282.953,0.064,269.602,0.064,256c0-34.119,6.675-66.691,18.804-96.464
	c4.753-11.679,10.353-22.941,16.715-33.69c5.965-10.081,12.599-19.713,19.849-28.843c5.255-6.623,10.833-12.985,16.715-19.044
	c9.068-9.371,18.846-18.041,29.251-25.939c10.53-8.002,21.708-15.2,33.429-21.51c4.785-2.58,9.663-5.014,14.625-7.281
	c10.76-4.941,21.927-9.151,33.429-12.567c10.52-3.134,21.332-5.61,32.385-7.375c5.516-0.888,11.084-1.588,16.715-2.11
	c7.908-0.742,15.921-1.118,24.027-1.118c1.4,0,2.789,0.01,4.179,0.042c16.077,0.251,31.789,1.985,47.01,5.077
	c5.286,1.076,10.509,2.309,15.67,3.709c11.481,3.092,22.648,6.968,33.429,11.575c3.521,1.494,7.01,3.071,10.447,4.732
	c5.693,2.727,11.261,5.673,16.715,8.807c11.763,6.769,22.941,14.448,33.429,22.941c5.787,4.68,11.366,9.6,16.715,14.761
	c5.464,5.265,10.687,10.77,15.67,16.495c12.933,14.876,24.174,31.277,33.429,48.88C501.377,172.605,511.949,213.075,511.949,256z"/>
<path style="fill:#69AF54;" d="M508.836,295.979c-4.398,28.091-13.382,54.657-26.137,78.935
	c-9.256,17.603-20.496,33.993-33.429,48.88c-4.983,5.735-10.206,11.241-15.67,16.506c-5.349,5.161-10.927,10.091-16.715,14.772
	c-10.488,8.483-21.666,16.161-33.429,22.93c-5.453,3.134-11.021,6.08-16.715,8.807c-3.437,1.661-6.916,3.238-10.447,4.732
	c-10.781,4.596-21.938,8.483-33.429,11.575c-5.161,1.4-10.384,2.633-15.67,3.709c-15.221,3.092-30.932,4.826-47.01,5.077
	c-1.389,0.031-2.779,0.042-4.179,0.042c-8.107,0-16.119-0.376-24.027-1.107c-5.631-0.533-11.199-1.233-16.715-2.121
	c-11.053-1.765-21.854-4.241-32.385-7.375c-11.502-3.416-22.659-7.626-33.429-12.567c-4.962-2.277-9.841-4.701-14.625-7.281
	c-11.721-6.31-22.899-13.508-33.429-21.51c-10.405-7.898-20.183-16.579-29.251-25.939c-5.881-6.069-11.46-12.431-16.715-19.055
	c-7.25-9.12-13.884-18.762-19.849-28.833c-6.362-10.76-11.961-22.022-16.715-33.711C11.576,334.548,6.259,315.63,3.177,295.98
	L508.836,295.979L508.836,295.979z"/>
<g>
	<path style="fill:#4C8E37;" d="M482.698,137.076v237.839c-9.256,17.603-20.496,33.993-33.429,48.88V88.196
		C462.202,103.072,473.443,119.473,482.698,137.076z"/>
	<path style="fill:#4C8E37;" d="M356.294,20.46V491.54c-10.781,4.596-21.938,8.483-33.429,11.575V8.885
		C334.346,11.977,345.513,15.853,356.294,20.46z"/>
	<path style="fill:#4C8E37;" d="M134.826,30.51v450.981c-11.721-6.31-22.899-13.508-33.429-21.51V52.019
		C111.926,44.017,123.104,36.819,134.826,30.51z"/>
	<path style="fill:#4C8E37;" d="M182.88,10.661v490.678c-11.502-3.416-22.659-7.626-33.429-12.567V23.228
		C160.211,18.287,171.378,14.077,182.88,10.661z"/>
	<path style="fill:#4C8E37;" d="M433.599,71.701V440.3c-5.349,5.161-10.927,10.091-16.715,14.772V56.94
		C422.672,61.62,428.251,66.54,433.599,71.701z"/>
	<path style="fill:#4C8E37;" d="M35.582,125.846v260.309c-6.362-10.76-11.961-22.022-16.715-33.711V159.536
		C23.621,147.857,29.22,136.595,35.582,125.846z"/>
	<path style="fill:#4C8E37;" d="M72.146,77.958v356.084c-5.881-6.069-11.46-12.431-16.715-19.055V97.002
		C60.686,90.379,66.264,84.017,72.146,77.958z"/>
	<path style="fill:#4C8E37;" d="M383.455,33.999v444.003c-5.453,3.134-11.021,6.08-16.715,8.807V25.192
		C372.434,27.919,378.002,30.865,383.455,33.999z"/>
	<path style="fill:#4C8E37;" d="M231.979,1.175v509.66c-5.631-0.533-11.199-1.233-16.715-2.121V3.286
		C220.78,2.398,226.348,1.698,231.979,1.175z"/>
	<path style="fill:#4C8E37;" d="M307.195,5.177v501.647c-15.221,3.092-30.932,4.826-47.01,5.077V0.099
		C276.262,0.35,291.974,2.084,307.195,5.177z"/>
</g>
<g>
	<path style="fill:#998888;" d="M457.686,413.598c-46.853,59.87-119.771,98.345-201.683,98.345s-154.83-38.475-201.683-98.345
		c7.198-27.997,20.925-53.696,39.603-75.174c31.925-36.72,78.329-61.144,131.398-63.829c20.455-1.034,40.909-1.034,61.364,0
		c53.069,2.685,99.473,27.109,131.398,63.829C436.761,359.902,450.488,385.601,457.686,413.598z"/>
	<path style="fill:#998888;" d="M511.953,97.968c-2.809-17.506-17.732-30.716-27.137-37.455c-2.653-1.901-1.703-6.054,1.514-6.616
		l5.624-0.983c3.28-0.574,4.168-4.847,1.402-6.7c-26.275-17.608-75.351-14.534-75.351-14.534
		c-47.629,0-126.091,39.172-124.964,87.056c1.061,45.094,77.82,81.871,122.914,82.934c47.885,1.127,87.057-37.353,87.057-84.982
		c0-3.634-0.233-7.214-0.679-10.728c-0.342-2.691,2.235-4.814,4.809-3.956l0,0C509.747,102.87,512.388,100.679,511.953,97.968z"/>
</g>
<circle style="fill:#665B5B;" cx="411.942" cy="122.748" r="48.566"/>
<path style="fill:#807272;" d="M0.047,97.968c2.809-17.506,17.732-30.716,27.137-37.455c2.653-1.901,1.703-6.054-1.514-6.616
	l-5.624-0.983c-3.28-0.574-4.168-4.847-1.402-6.7C44.92,28.605,93.995,31.679,93.995,31.679c47.629,0,126.091,39.172,124.964,87.056
	c-1.061,45.094-77.82,81.871-122.914,82.934c-47.885,1.127-87.057-37.353-87.057-84.982c0-3.634,0.233-7.214,0.679-10.728
	c0.342-2.691-2.235-4.814-4.809-3.956l0,0C2.254,102.87-0.387,100.679,0.047,97.968z"/>
<circle style="fill:#665B5B;" cx="100.058" cy="122.748" r="48.566"/>
<path style="fill:#807272;" d="M418.083,338.424c-31.925-36.72-78.329-61.144-131.398-63.829
	c-11.272-0.575-22.544-0.815-33.805-0.752c0.209-0.01,0.407-0.01,0.616-0.021c-0.742,0.01-1.494,0.021-2.236,0.021
	c-1.327,0.01-2.653,0.021-3.98,0.042c-1.264,0.021-2.528,0.052-3.792,0.073c-1.191,0.021-2.382,0.042-3.573,0.073
	c-1.316,0.042-2.643,0.084-3.959,0.125c-1.118,0.042-2.246,0.073-3.364,0.115c-2.424,0.094-4.847,0.199-7.271,0.324
	c-84.137,4.252-151.497,63.15-171.001,139.003c18.449,23.578,40.951,43.834,66.441,59.734c-0.721-13.863-0.397-27.506,0.867-40.752
	c3.37-35.24,34.516-60.928,69.484-58.52c1.888,0.13,3.617,1.113,4.685,2.673l14.283,20.879c2.91,4.255,9.248,4.066,11.901-0.354
	l6.431-10.717c2.455-4.091,8.43-3.95,10.689,0.252l16.027,29.812c3.045,5.663,11.456,4.654,13.074-1.569l7.117-27.373
	c1.196-4.601,6.938-6.162,10.299-2.801l6.398,6.398c3.264,3.264,8.727,2.577,11.083-1.392l7.276-12.26
	c0.993-1.674,2.72-2.769,4.656-2.97c16.03-1.653,32.062-3.972,48.093-6.973C384.413,363.684,403.437,353.258,418.083,338.424z"/>
<path style="fill:#998888;" d="M284.948,48.898c-19.298-0.976-38.597-0.976-57.895,0C121.817,54.22,44.378,150.147,63.092,253.841
	c1.003,5.557,2.172,11.113,3.507,16.67c9.609,39.995,41.851,70.783,82.282,78.351c71.414,13.366,142.827,13.366,214.242,0
	c40.431-7.568,72.673-38.356,82.282-78.351c1.335-5.557,2.504-11.113,3.507-16.67C467.623,150.147,390.183,54.22,284.948,48.898z"/>
<path style="fill:#665B5B;" d="M296.748,291.452c0-29.04-18.243-92.627-40.747-92.627s-40.747,63.588-40.747,92.627
	s18.243,52.581,40.747,52.581S296.748,320.491,296.748,291.452z"/>
<path style="fill:#4D4445;" d="M308.582,275.784c0-29.04-23.542-92.627-52.581-92.627s-52.581,63.588-52.581,92.627
	s23.541,52.581,52.581,52.581S308.582,304.823,308.582,275.784z"/>
<path style="fill:#332D2D;" d="M255.998,328.362c-29.042,0-52.578-23.536-52.578-52.578c0-28.916,23.338-92.077,52.202-92.62
	c-15.983,0.982-28.874,63.808-28.874,92.62C226.748,304.826,239.848,328.362,255.998,328.362z"/>
<g>
	<path style="fill:#807272;" d="M256,358.892c-35.707,0-71.413-3.343-107.12-10.029c-40.428-7.563-72.677-38.35-82.278-78.35
		c-1.337-5.558-2.507-11.115-3.51-16.673c-18.71-103.693,58.721-199.614,163.96-204.942c8.859-0.439,17.717-0.689,26.587-0.721
		c-5.526,0.052-11.053,0.303-16.568,0.721c-68.812,5.328-119.447,101.249-107.214,204.942c0.658,5.558,1.421,11.115,2.298,16.673
		c6.278,40,27.36,70.786,53.8,78.35C209.304,355.549,232.652,358.892,256,358.892z"/>
	<path style="fill:#807272;" d="M339.053,256.282c-13.825,0-25.072-11.247-25.072-25.072c0-11.317,7.626-21.27,18.546-24.208
		c2.137-0.574,4.331-0.864,6.526-0.864c13.825,0,25.072,11.247,25.072,25.072c0,2.194-0.29,4.388-0.864,6.522
		C360.324,248.656,350.37,256.282,339.053,256.282z"/>
	<path style="fill:#807272;" d="M172.947,256.282c-13.825,0-25.072-11.247-25.072-25.072c0-11.317,7.626-21.27,18.546-24.208
		c2.137-0.574,4.331-0.864,6.526-0.864c13.825,0,25.072,11.247,25.072,25.072c0,2.194-0.29,4.388-0.864,6.522
		C194.218,248.656,184.263,256.282,172.947,256.282z"/>
</g>
<g>
	<path style="fill:#0F0F0E;" d="M352.634,225.987c0,1.222-0.167,2.413-0.47,3.541c-1.557,5.787-6.832,10.039-13.111,10.039
		c-7.501,0-13.581-6.08-13.581-13.581c0-6.278,4.252-11.554,10.039-13.111c1.128-0.303,2.319-0.47,3.541-0.47
		C346.554,212.406,352.634,218.486,352.634,225.987z"/>
	<circle style="fill:#0F0F0E;" cx="172.944" cy="225.982" r="13.581"/>
</g>
<g>
	<path style="fill:#E6E6E6;" d="M352.634,225.987c0,1.222-0.167,2.413-0.47,3.541c-1.598,0.742-3.395,1.16-5.276,1.16
		c-6.926,0-12.536-5.61-12.536-12.536c0-1.88,0.418-3.677,1.16-5.276c1.128-0.303,2.319-0.47,3.541-0.47
		C346.554,212.406,352.634,218.486,352.634,225.987z"/>
	<path style="fill:#E6E6E6;" d="M186.528,225.987c0,1.222-0.167,2.413-0.47,3.541c-1.598,0.742-3.395,1.16-5.276,1.16
		c-6.926,0-12.536-5.61-12.536-12.536c0-1.88,0.418-3.677,1.16-5.276c1.128-0.303,2.319-0.47,3.541-0.47
		C180.448,212.406,186.528,218.486,186.528,225.987z"/>
</g>
<g>
	<path style="fill:#998888;" d="M99.576,379.954c2.833-4.354,9.69-2.906,10.323,2.25c1.17,9.537-8.213,22.907-19.564,27.232
		C78.556,413.924,92.194,391.299,99.576,379.954z"/>
	<path style="fill:#998888;" d="M102.973,413.325c1.874-4.845,8.883-4.842,10.566,0.072c3.112,9.09-3.312,24.11-13.526,30.682
		C89.411,450.9,98.089,425.948,102.973,413.325z"/>
</g>
<g>
	<ellipse style="fill:#332D2D;" cx="276.032" cy="281.871" rx="6.79" ry="14.103"/>
	<ellipse style="fill:#332D2D;" cx="235.969" cy="281.871" rx="6.79" ry="14.103"/>
</g>
<g>
</g>
<g>
</g>
<g>
</g>
<g>
</g>
<g>
</g>
<g>
</g>
<g>
</g>
<g>
</g>
<g>
</g>
<g>
</g>
<g>
</g>
<g>
</g>
<g>
</g>
<g>
</g>
<g>
</g>
</svg>
