<?xml version="1.0" encoding="iso-8859-1"?>
<!-- Generator: Adobe Illustrator 19.0.0, SVG Export Plug-In . SVG Version: 6.00 Build 0)  -->
<svg version="1.1" id="Capa_1" xmlns="http://www.w3.org/2000/svg" xmlns:xlink="http://www.w3.org/1999/xlink" x="0px" y="0px"
	 viewBox="0 0 512 512" style="enable-background:new 0 0 512 512;" xml:space="preserve">
<path style="fill:#4C8E37;" d="M512,256c0,27.512-4.336,53.99-12.382,78.827v0.021c-7.084,21.943-17.063,42.59-29.477,61.492
	c-21.107,32.141-49.257,59.246-82.265,79.12c-11.17,6.729-22.894,12.622-35.088,17.607h-0.01
	c-11.191,4.577-22.758,8.38-34.67,11.337c-5.13,1.285-10.324,2.414-15.579,3.375c-9.519,1.755-19.216,2.967-29.069,3.626
	C267.692,511.801,261.872,512,256,512c-5.162,0-10.303-0.157-15.391-0.46c-30.051-1.776-58.702-8.735-85.076-20.01
	c-12.372-5.287-24.252-11.515-35.537-18.61c-11.368-7.147-22.141-15.161-32.225-23.96c-6.019-5.245-11.797-10.783-17.304-16.572
	c-14.775-15.527-27.617-32.914-38.139-51.764c-6.875-12.309-12.758-25.245-17.544-38.693C5.214,315.068,0,286.145,0,256
	C0,114.615,114.615,0,256,0S512,114.615,512,256z"/>
<g>
	<path style="fill:#69AF54;" d="M9.394,258.601l13.468-120.574c0.689-6.166,9.651-6.166,10.339,0l13.468,120.574
		c0.633,5.665-1.346,11.311-5.377,15.342l0,0c-7.324,7.324-19.197,7.324-26.521,0l0,0C10.739,269.912,8.76,264.266,9.394,258.601z"
		/>
	<path style="fill:#69AF54;" d="M80.625,160.681L94.093,40.107c0.689-6.166,9.651-6.166,10.339,0L117.9,160.681
		c0.633,5.665-1.346,11.311-5.377,15.342l0,0c-7.324,7.324-19.197,7.324-26.521,0l0,0C81.971,171.992,79.993,166.347,80.625,160.681
		z"/>
	<path style="fill:#69AF54;" d="M60.774,358.618l13.468-120.574c0.689-6.166,9.651-6.166,10.339,0l13.468,120.574
		c0.633,5.665-1.346,11.311-5.377,15.342l0,0c-7.324,7.324-19.197,7.324-26.521,0l0,0C62.12,369.929,60.141,364.284,60.774,358.618z
		"/>
	<path style="fill:#69AF54;" d="M127.648,300.104l13.468-120.574c0.689-6.166,9.651-6.166,10.339,0l13.468,120.574
		c0.633,5.665-1.346,11.311-5.377,15.342l0,0c-7.324,7.324-19.197,7.324-26.521,0l0,0
		C128.994,311.415,127.015,305.77,127.648,300.104z"/>
	<path style="fill:#69AF54;" d="M221.686,297.733l13.468-120.574c0.689-6.166,9.651-6.166,10.339,0l13.468,120.574
		c0.633,5.665-1.346,11.311-5.377,15.342l0,0c-7.324,7.324-19.197,7.324-26.521,0l0,0
		C223.031,309.044,221.052,303.399,221.686,297.733z"/>
	<path style="fill:#69AF54;" d="M326.178,236.722l13.468-120.574c0.689-6.166,9.651-6.166,10.339,0l13.468,120.574
		c0.633,5.665-1.346,11.311-5.377,15.342l0,0c-7.324,7.324-19.197,7.324-26.521,0l0,0
		C327.524,248.033,325.545,242.387,326.178,236.722z"/>
	<path style="fill:#69AF54;" d="M282.293,389.965l13.468-120.574c0.689-6.166,9.651-6.166,10.339,0l13.468,120.574
		c0.633,5.665-1.346,11.311-5.377,15.342l0,0c-7.324,7.324-19.197,7.324-26.521,0l0,0
		C283.639,401.276,281.66,395.631,282.293,389.965z"/>
	<path style="fill:#69AF54;" d="M273.46,511.404C267.692,511.801,261.872,512,256,512c-5.162,0-10.303-0.157-15.391-0.46
		l11.264-100.822c0.69-6.175,9.655-6.175,10.344,0L273.46,511.404z"/>
	<path style="fill:#69AF54;" d="M387.877,475.46c-11.17,6.729-22.894,12.622-35.088,17.607h-0.01
		c-0.888-2.205-1.348-4.577-1.348-6.99c0-0.69,0.042-1.379,0.115-2.069l13.469-120.571c0.69-6.165,9.655-6.165,10.344,0
		L387.877,475.46z"/>
	<path style="fill:#69AF54;" d="M499.618,334.827v0.021c-7.084,21.943-17.063,42.59-29.477,61.492l12.999-116.433
		c0.69-6.165,9.655-6.165,10.344,0L499.618,334.827z"/>
	<path style="fill:#69AF54;" d="M454.513,220.042l13.468-120.574c0.689-6.166,9.651-6.166,10.339,0l13.468,120.574
		c0.633,5.665-1.346,11.311-5.377,15.342l0,0c-7.324,7.324-19.197,7.324-26.521,0l0,0
		C455.859,231.353,453.88,225.707,454.513,220.042z"/>
	<path style="fill:#69AF54;" d="M402.401,345.065l13.468-120.574c0.689-6.166,9.651-6.166,10.339,0l13.468,120.574
		c0.633,5.665-1.346,11.311-5.377,15.342l0,0c-7.324,7.324-19.197,7.324-26.521,0l0,0
		C403.746,356.376,401.767,350.73,402.401,345.065z"/>
	<path style="fill:#69AF54;" d="M387.999,153.817l13.468-120.574c0.689-6.166,9.651-6.166,10.339,0l13.468,120.574
		c0.633,5.665-1.346,11.311-5.377,15.342l0,0c-7.324,7.324-19.197,7.324-26.521,0l0,0
		C389.345,165.128,387.366,159.483,387.999,153.817z"/>
	<path style="fill:#69AF54;" d="M258.202,126.651L271.668,6.077c0.689-6.166,9.651-6.166,10.339,0l13.468,120.574
		c0.633,5.665-1.346,11.311-5.377,15.342l0,0c-7.324,7.324-19.197,7.324-26.521,0l0,0
		C259.547,137.962,257.568,132.316,258.202,126.651z"/>
	<path style="fill:#69AF54;" d="M155.533,491.53c-12.372-5.287-24.252-11.515-35.537-18.61l12.079-108.126
		c0.69-6.165,9.644-6.165,10.334,0l13.469,120.571C156.108,487.455,155.993,489.535,155.533,491.53z"/>
	<path style="fill:#69AF54;" d="M87.771,448.961c-6.019-5.245-11.797-10.783-17.304-16.572l2.56-22.915
		c0.69-6.165,9.644-6.165,10.334,0L87.771,448.961z"/>
	<path style="fill:#69AF54;" d="M318.109,504.404c-5.13,1.285-10.324,2.414-15.579,3.375l2.811-25.161
		c0.69-6.165,9.644-6.165,10.334,0L318.109,504.404z"/>
	<path style="fill:#69AF54;" d="M32.329,380.625c-6.875-12.309-12.758-25.245-17.544-38.693l1.442-12.957
		c0.69-6.165,9.655-6.165,10.334,0L32.329,380.625z"/>
	<path style="fill:#69AF54;" d="M183.229,408.773L196.697,288.2c0.689-6.166,9.651-6.166,10.339,0l13.468,120.574
		c0.633,5.665-1.346,11.311-5.377,15.342l0,0c-7.324,7.324-19.197,7.324-26.521,0l0,0
		C184.575,420.084,182.596,414.439,183.229,408.773z"/>
	<path style="fill:#69AF54;" d="M177.941,153.799l13.468-120.574c0.689-6.166,9.651-6.166,10.339,0l13.468,120.574
		c0.633,5.665-1.346,11.311-5.377,15.342l0,0c-7.324,7.324-19.197,7.324-26.521,0l0,0
		C179.287,165.11,177.308,159.464,177.941,153.799z"/>
</g>
<path style="fill:#4D4445;" d="M457.132,286.521c-3.271,8.6,3.082,17.826,12.288,17.826h4.002c10.846,0,16.572,12.842,9.32,20.908
	l-75.18,83.613H104.427l-75.18-83.613c-7.252-8.067-1.526-20.908,9.32-20.908h4.002c9.206,0,15.569-9.226,12.288-17.826
	l-34.482-90.52c-3.668-9.634,5.204-19.32,15.12-16.52l11.954,3.385c9.143,2.591,17.93-5.089,16.603-14.493l-4.796-33.907
	c-1.348-9.54,7.408-17.398,16.75-15.026l17.92,4.566c7.471,1.902,14.744-3.751,14.744-11.463V69.977
	c0-8.516,7.753-14.911,16.102-13.312l28.181,5.423c5.768,1.108,11.483-2.184,13.406-7.743l7.001-20.177
	c2.957-8.558,12.184-13.197,20.825-10.48L256,43.123l5.799-1.818l56.017-17.617c8.631-2.717,17.857,1.923,20.825,10.48l6.99,20.177
	c1.933,5.559,7.638,8.85,13.416,7.743l28.17-5.423c8.359-1.599,16.102,4.796,16.102,13.312v42.569
	c0,7.711,7.272,13.364,14.754,11.463l17.91-4.566c9.341-2.372,18.108,5.486,16.76,15.026l-4.796,33.907
	c-1.327,9.404,7.45,17.084,16.603,14.493l11.943-3.385c9.916-2.8,18.798,6.886,15.13,16.52L457.132,286.521z"/>
<path style="fill:#3D3636;" d="M217.546,149.445l-16.344-3.407c-7.902-1.647-13.664,7.329-8.875,13.827l15.503,21.04
	c5.503,7.469-0.682,17.88-9.873,16.619l-35.859-4.921c-7.597-1.043-12.797,7.458-8.408,13.748l38.583,55.281l-8.892,96.005
	l-51.231,51.231h-27.721l-75.18-83.613c-7.252-8.067-1.526-20.908,9.32-20.908h4.002c9.206,0,15.569-9.226,12.288-17.826
	l-34.482-90.52c-3.668-9.634,5.204-19.32,15.12-16.52l11.954,3.385c9.143,2.591,17.93-5.089,16.603-14.493l-4.796-33.907
	c-1.348-9.54,7.408-17.398,16.75-15.026l17.92,4.566c7.471,1.902,14.744-3.751,14.744-11.463V69.977
	c0-8.516,7.753-14.911,16.102-13.312l28.181,5.423c5.768,1.108,11.483-2.184,13.406-7.743l7.001-20.177
	c2.957-8.558,12.184-13.197,20.825-10.48L256,43.123l5.799-1.818l1.743,45.335c0.334,8.694-9.449,13.994-16.549,8.965l-13.587-9.624
	c-6.639-4.703-15.555,1.355-13.629,9.26l10.103,41.448C231.707,144.182,225.096,151.019,217.546,149.445z"/>
<path style="fill:#F7E28A;" d="M363.092,446.757l-80.353,26.112c-8.683,2.821-17.711,4.242-26.739,4.242
	c-1.693,0-3.385-0.052-5.078-0.146c-1.128-0.073-2.247-0.157-3.375-0.272c-6.186-0.606-12.319-1.881-18.296-3.824l-80.342-26.112
	c-36.195-11.766-58.253-48.306-51.816-85.807l9.853-57.396c3.229-18.766,9.885-36.404,19.372-52.214l24.367,24.357l6.98,6.98
	l2.09-20.261c0.711-6.813,9.832-8.558,12.999-2.487l7.011,13.437c2.466,4.723,9.498,3.699,10.522-1.526l1.985-10.209
	c1.191-6.102,9.216-7.649,12.581-2.424l10.648,16.52c1.149,1.787,2.915,2.581,4.671,2.581c2.873,0,5.695-2.142,5.695-5.632
	c0-7.074,9.352-9.571,12.884-3.459l12.372,21.441c2.163,3.762,7.586,3.762,9.759,0l12.361-21.441
	c1.379-2.393,3.647-3.459,5.904-3.459c3.511,0,6.99,2.612,6.99,6.917c0,5.611,7.314,7.764,10.365,3.051l10.637-16.52
	c3.365-5.224,11.389-3.678,12.581,2.424l1.996,10.209c1.014,5.224,8.056,6.249,10.522,1.526l7.011-13.437
	c3.166-6.071,12.278-4.326,12.988,2.487l2.1,20.261l31.336-31.337c9.488,15.809,16.154,33.447,19.372,52.214l9.864,57.396
	C421.345,398.451,399.276,434.991,363.092,446.757z"/>
<path style="fill:#D8C470;" d="M256,477.111c-1.693,0-3.385-0.052-5.078-0.146c-1.128-0.073-2.247-0.157-3.375-0.272
	c-6.186-0.606-12.319-1.881-18.296-3.824l-80.342-26.112c-36.195-11.766-58.253-48.306-51.816-85.807l9.853-57.396
	c3.229-18.766,9.885-36.404,19.372-52.214l24.367,24.357c-2.518,8.923-4.42,18.244-5.642,27.857l-7.335,57.396
	c-4.796,37.501,11.63,74.042,38.567,85.807l59.82,26.112C242.563,475.69,249.281,477.111,256,477.111z"/>
<g>
	<path style="fill:#E0CC79;" d="M328.619,407.792c-13.828,0-25.078-11.249-25.078-25.078c0-11.319,7.628-21.275,18.55-24.213
		c2.138-0.574,4.332-0.864,6.527-0.864c13.828,0,25.078,11.249,25.078,25.078c0,2.194-0.29,4.389-0.864,6.523
		C349.895,400.165,339.938,407.792,328.619,407.792z"/>
	<path style="fill:#E0CC79;" d="M183.374,407.792c-13.828,0-25.078-11.249-25.078-25.078c0-11.319,7.628-21.275,18.55-24.213
		c2.138-0.574,4.332-0.864,6.527-0.864c13.828,0,25.078,11.249,25.078,25.078c0,2.194-0.29,4.389-0.864,6.523
		C204.651,400.165,194.694,407.792,183.374,407.792z"/>
</g>
<g>
	<path style="fill:#0F0F0E;" d="M342.203,377.49c0,1.223-0.167,2.414-0.47,3.542c-1.557,5.789-6.834,10.041-13.113,10.041
		c-7.502,0-13.584-6.081-13.584-13.584c0-6.28,4.253-11.557,10.041-13.113c1.128-0.303,2.32-0.47,3.542-0.47
		C336.121,363.907,342.203,369.988,342.203,377.49z"/>
	<circle style="fill:#0F0F0E;" cx="183.38" cy="377.49" r="13.584"/>
</g>
<g>
	<path style="fill:#E6E6E6;" d="M342.203,377.49c0,1.223-0.167,2.414-0.47,3.542c-1.599,0.742-3.396,1.16-5.277,1.16
		c-6.928,0-12.539-5.611-12.539-12.539c0-1.881,0.418-3.678,1.16-5.277c1.128-0.303,2.32-0.47,3.542-0.47
		C336.121,363.907,342.203,369.988,342.203,377.49z"/>
	<path style="fill:#E6E6E6;" d="M196.958,377.49c0,1.223-0.167,2.414-0.47,3.542c-1.599,0.742-3.396,1.16-5.277,1.16
		c-6.928,0-12.539-5.611-12.539-12.539c0-1.881,0.418-3.678,1.16-5.277c1.128-0.303,2.32-0.47,3.542-0.47
		C190.877,363.907,196.958,369.988,196.958,377.49z"/>
</g>
<path style="fill:#0F0F0E;" d="M291.242,407.705c0,12.774-15.78,30.473-35.245,30.473s-35.245-17.7-35.245-30.473
	c0-12.774,15.78-15.786,35.245-15.786S291.242,394.93,291.242,407.705z"/>
<circle style="fill:#807272;" cx="273.763" cy="406.413" r="9.404"/>
<path style="fill:#F7E28A;" d="M163.631,300.795c-41.323,12.562-86.976-5.906-107.251-45.732l-3.773-7.407l-7.847-15.404
	c-5.377-10.556,0.578-23.433,12.139-26.02c39.517-8.841,81.523,9.714,100.764,47.459l13.659,26.831
	C171.319,280.523,167.874,299.505,163.631,300.795z"/>
<path style="fill:#D8C470;" d="M162.401,291.99c-0.46,0.243-0.924,0.462-1.398,0.677c-25.948,12.313-57.162,1.787-70.276-23.971
	l-2.213-4.345l-4.111-8.07c-3.435-6.743,0.441-15.012,7.863-16.487c22.813-4.535,46.781,6.352,57.866,28.097L162.401,291.99z"/>
<path style="fill:#F7E28A;" d="M333.418,294.778c0.785,0.414,1.575,0.787,2.383,1.155c44.24,20.992,97.458,3.047,119.814-40.869
	l3.773-7.407l7.847-15.404c5.377-10.556-0.578-23.433-12.139-26.02c-39.517-8.841-81.523,9.714-100.764,47.459L333.418,294.778z"/>
<path style="fill:#D8C470;" d="M349.593,291.99c0.46,0.243,0.924,0.462,1.398,0.677c25.948,12.313,57.162,1.787,70.276-23.971
	l2.213-4.345l4.111-8.07c3.435-6.743-0.441-15.012-7.863-16.487c-22.813-4.535-46.781,6.352-57.866,28.097L349.593,291.99z"/>
<path style="fill:#3D3636;" d="M319.938,176.613c-5.051-2.612-6.507-9.162-3.023-13.657c10.977-14.166,32.317-40.185,37.305-35.196
	c4.936,4.936-4.475,34.15-9.988,49.751c-1.843,5.215-7.861,7.603-12.773,5.061L319.938,176.613z"/>
<g>
	<path style="fill:#4D4445;" d="M154.89,174.582c-4.637,3.292-11.125,1.585-13.524-3.57c-7.561-16.248-20.909-47.137-14.19-49.286
		c6.649-2.125,28.303,19.626,39.643,31.675c3.791,4.027,3.156,10.47-1.354,13.673L154.89,174.582z"/>
	<path style="fill:#4D4445;" d="M176.204,134.546c-2.92,2.074-7.008,0.999-8.519-2.25c-4.763-10.235-13.172-29.694-8.938-31.047
		c4.188-1.339,17.829,12.363,24.973,19.953c2.388,2.537,1.987,6.595-0.854,8.613L176.204,134.546z"/>
</g>
<g>
</g>
<g>
</g>
<g>
</g>
<g>
</g>
<g>
</g>
<g>
</g>
<g>
</g>
<g>
</g>
<g>
</g>
<g>
</g>
<g>
</g>
<g>
</g>
<g>
</g>
<g>
</g>
<g>
</g>
</svg>
