<?xml version="1.0" encoding="iso-8859-1"?>
<!-- Generator: Adobe Illustrator 19.0.0, SVG Export Plug-In . SVG Version: 6.00 Build 0)  -->
<svg version="1.1" id="Capa_1" xmlns="http://www.w3.org/2000/svg" xmlns:xlink="http://www.w3.org/1999/xlink" x="0px" y="0px"
	 viewBox="0 0 512 512" style="enable-background:new 0 0 512 512;" xml:space="preserve">
<path style="fill:#63CBFF;" d="M512,256c0,17.021-1.661,33.656-4.838,49.748c-3.291,16.697-8.202,32.81-14.566,48.17
	c-6.447,15.579-14.399,30.386-23.677,44.231C423.016,466.798,344.795,512,256,512c-41.179,0-80.081-9.718-114.542-27
	c-39.852-19.968-73.77-50.04-98.398-86.852c-9.258-13.845-17.209-28.651-23.667-44.231c-6.363-15.36-11.274-31.472-14.566-48.18
	C1.661,289.646,0,273.021,0,256C0,114.615,114.615,0,256,0c78.535,0,148.814,35.37,195.772,91.042
	c17.993,21.326,32.569,45.652,42.872,72.098C505.846,191.927,512,223.253,512,256z"/>
<g>
	<path style="fill:#A1E4FF;" d="M197.485,53.947L197.485,53.947c0-6.636-5.38-12.016-12.016-12.016h-66.873
		c-6.636,0-12.016,5.38-12.016,12.016l0,0c0,6.636,5.38,12.016,12.016,12.016h8.36c6.636,0,12.016,5.38,12.016,12.016l0,0
		c0,6.636-5.38,12.016-12.016,12.016h-25.6c-6.636,0-12.016,5.38-12.016,12.016l0,0c0,6.636,5.38,12.016,12.016,12.016h66.873
		c6.636,0,12.016-5.38,12.016-12.016l0,0c0-6.636,5.38-12.016,12.016-12.016h25.6c6.636,0,12.016-5.38,12.016-12.016l0,0
		c0-6.636-5.38-12.016-12.016-12.016h-8.36C202.865,65.963,197.485,60.584,197.485,53.947z"/>
	<path style="fill:#A1E4FF;" d="M494.644,163.14h-40.647c-6.635,0-12.016-5.381-12.016-12.016c0-3.323-1.348-6.322-3.521-8.495
		c-2.173-2.173-5.183-3.521-8.495-3.521h-25.6c-6.635,0-12.016-5.381-12.016-12.016c0-3.323,1.348-6.322,3.521-8.495
		c2.173-2.173,5.183-3.521,8.495-3.521h8.359c6.646,0,12.016-5.381,12.016-12.016s5.381-12.016,12.016-12.016h15.015
		C469.765,112.368,484.342,136.694,494.644,163.14z"/>
</g>
<path style="fill:#228464;" d="M512,256c0,2.508-0.031,4.995-0.104,7.481c-0.596,20.532-3.605,40.458-8.756,59.507
	c-4.66,1.463-9.613,2.257-14.754,2.257c-15.768,0-29.78-7.471-38.724-19.048c-8.955,11.577-22.967,19.048-38.734,19.048
	c-15.768,0-29.79-7.471-38.734-19.048c-8.944,11.577-22.956,19.048-38.734,19.048c-15.768,0-29.78-7.471-38.724-19.048
	c-8.955,11.577-22.967,19.048-38.734,19.048s-29.78-7.471-38.734-19.048c-8.944,11.577-22.956,19.048-38.724,19.048
	c-15.778,0-29.79-7.471-38.734-19.048c-8.944,11.577-22.967,19.048-38.734,19.048s-29.78-7.471-38.734-19.048
	c-8.944,11.577-22.956,19.048-38.724,19.048c-5.141,0-10.094-0.794-14.754-2.257C3.709,303.94,0.7,284.014,0.104,263.481
	C0.031,260.995,0,258.508,0,256c0-7.784,0.345-15.485,1.024-23.082c6.76-3.521,14.44-5.517,22.591-5.517
	c15.768,0,29.78,7.461,38.724,19.048c8.955-11.588,22.967-19.048,38.734-19.048s29.79,7.461,38.734,19.048
	c8.944-11.588,22.956-19.048,38.734-19.048c15.768,0,29.78,7.461,38.724,19.048c8.955-11.588,22.967-19.048,38.734-19.048
	s29.78,7.461,38.734,19.048c8.944-11.588,22.956-19.048,38.724-19.048c15.778,0,29.79,7.461,38.734,19.048
	c8.944-11.588,22.967-19.048,38.734-19.048c15.767,0,29.78,7.461,38.734,19.048c8.944-11.588,22.956-19.048,38.724-19.048
	c8.15,0,15.83,1.996,22.591,5.517C511.655,240.515,512,248.215,512,256z"/>
<path style="fill:#34AD89;" d="M508.886,295.988C489.691,418.377,383.781,512,256,512c-116.12,0-214.173-77.312-245.509-183.265
	c-1.128-3.793-2.163-7.628-3.103-11.494c-1.724-6.98-3.145-14.064-4.274-21.253H508.886z"/>
<g>
	<path style="fill:#57CEA7;" d="M101.073,336.739H62.412c-3.174,0-5.747-2.573-5.747-5.747l0,0c0-3.174,2.573-5.747,5.747-5.747
		h38.661c3.174,0,5.747,2.573,5.747,5.747l0,0C106.82,334.167,104.247,336.739,101.073,336.739z"/>
	<path style="fill:#57CEA7;" d="M77.845,360.249H39.184c-3.174,0-5.747-2.573-5.747-5.747l0,0c0-3.174,2.573-5.747,5.747-5.747
		h38.661c3.174,0,5.747,2.573,5.747,5.747l0,0C83.592,357.677,81.019,360.249,77.845,360.249z"/>
	<path style="fill:#57CEA7;" d="M33.938,322.988c0,1.588-0.648,3.03-1.682,4.065c-1.034,1.034-2.476,1.682-4.065,1.682H10.491
		c-1.128-3.793-2.163-7.628-3.103-11.494h20.804C31.368,317.241,33.938,319.812,33.938,322.988z"/>
</g>
<path style="fill:#427A2D;" d="M468.919,398.148C423.016,466.798,344.795,512,256,512c-41.179,0-80.081-9.718-114.542-27
	c-39.852-19.968-73.77-50.04-98.398-86.852c35.474-30.229,81.868-49.162,135.429-49.162h154.99c15.433,0,30.271,1.567,44.429,4.535
	C412.871,360.835,443.664,376.623,468.919,398.148z"/>
<g>
	<path style="fill:#4C8E37;" d="M468.919,398.148C423.016,466.798,344.795,512,256,512c-41.179,0-80.081-9.718-114.542-27
		c20.208-26.227,47.438-48.327,81.575-63.436l141.73-62.715c4.378-1.933,8.756-3.709,13.145-5.329
		C412.871,360.835,443.664,376.623,468.919,398.148z"/>
	<path style="fill:#4C8E37;" d="M431.543,235.504c4.479,22.145,2.832,44.643-3.925,65.386
		c-16.335,50.152-62.436,90.08-123.642,90.08h-95.952c-18.338,0-35.32-3.587-50.553-9.952
		c-35.611-14.896-61.662-45.008-73.098-80.136c-6.756-20.742-8.404-43.223-3.925-65.368c2.258-11.199,1.73-22.79-1.384-33.772
		c-1.402-4.926-2.149-10.125-2.149-15.497c0-25.704,17.318-48.313,42.122-54.978c4.854-1.302,9.834-1.967,14.824-1.967h0.11
		c7.056,0.018,13.749-3.123,18.038-8.732l0.811-1.065C181.255,82.289,224.788,65.426,266.9,68.94h0.009
		c32.925,2.741,64.985,17.928,88.258,45.572c1.366,1.621,2.704,3.287,4.006,4.989l0.811,1.065c4.18,5.463,10.644,8.586,17.501,8.723
		c0.355,0,0.537,0.009,0.537,0.009h0.118c31.395,0,56.945,25.55,56.945,56.945c0,4.989-0.665,9.97-1.966,14.815
		c-0.009,0.054-0.027,0.118-0.046,0.173C430.031,212.423,429.248,224.141,431.543,235.504z"/>
</g>
<path style="fill:#427A2D;" d="M162.436,221.977c9.372-6.089,21.608-12.652,36.528-17.78c4.886-1.679,4.005-8.833-1.143-9.271
	c-3.279-0.279-6.906-0.429-10.841-0.363c-5.613,0.094-10.203-4.466-10.196-10.08v-0.114c0-3.978-0.512-7.836-1.473-11.513
	c-2.321-8.878-0.95-18.317,3.459-26.366c25.926-47.34,63.939-77.542,88.13-77.551c-42.113-3.515-85.645,13.349-114.081,50.563
	l-0.811,1.065c-4.288,5.609-10.981,8.75-18.038,8.732h-0.11c-4.989,0-9.97,0.665-14.824,1.967
	c-24.803,6.665-42.122,29.274-42.122,54.978c0,5.372,0.747,10.571,2.149,15.497c3.114,10.981,3.643,22.572,1.384,33.772
	c-4.479,22.145-2.832,44.626,3.925,65.368c11.436,35.128,37.487,65.24,73.098,80.136c7.011-17.273,8.504-40.492,0.301-71.668
	c-6.196-23.544-8.066-46.455-6.708-68.194c0.003-0.052,0.006-0.104,0.01-0.157C151.595,233.237,155.912,226.215,162.436,221.977z"/>
<g>
	<path style="fill:#0F0F0E;" d="M408.981,174.383c0,2.776-0.379,5.482-1.068,8.044c-3.536,13.145-15.518,22.803-29.779,22.803
		c-17.037,0-30.846-13.809-30.846-30.846c0-14.261,9.657-26.243,22.803-29.779c2.563-0.689,5.267-1.068,8.044-1.068
		C395.172,143.537,408.981,157.346,408.981,174.383z"/>
	<circle style="fill:#0F0F0E;" cx="133.862" cy="174.383" r="30.846"/>
</g>
<g>
	<path style="fill:#E6E6E6;" d="M408.981,174.383c0,2.776-0.379,5.482-1.068,8.044c-3.63,1.684-7.711,2.634-11.983,2.634
		c-15.732,0-28.473-12.741-28.473-28.473c0-4.271,0.949-8.352,2.634-11.983c2.563-0.689,5.267-1.068,8.044-1.068
		C395.172,143.537,408.981,157.346,408.981,174.383z"/>
	<path style="fill:#E6E6E6;" d="M164.705,174.383c0,2.776-0.379,5.482-1.068,8.044c-3.63,1.684-7.711,2.634-11.983,2.634
		c-15.732,0-28.473-12.741-28.473-28.473c0-4.271,0.949-8.352,2.634-11.983c2.563-0.689,5.267-1.068,8.044-1.068
		C150.896,143.537,164.705,157.346,164.705,174.383z"/>
</g>
<path style="fill:#427A2D;" d="M208.024,379.133c-61.206,0-107.307-23.75-123.642-78.601C147.045,339.549,186.126,238.09,256,238.09
	s108.955,101.459,171.618,62.441c-16.335,54.852-62.436,78.601-123.642,78.601"/>
<path style="fill:#69AF54;" d="M427.618,300.89c-16.335,50.152-62.436,90.08-123.642,90.08h-95.952
	c-61.206,0-107.316-39.927-123.651-90.088c26.651,15.178,49.033,10.417,71.331-0.073C185.843,286.641,215.827,262.01,256,262.01
	C325.874,262.01,364.955,336.565,427.618,300.89z"/>
<g>
	<path style="fill:#579643;" d="M225.652,390.969h-17.628c-61.206,0-107.316-39.927-123.651-90.088
		c26.651,15.178,49.033,10.417,71.331-0.073C155.704,300.808,165.557,377.221,225.652,390.969z"/>
	<path style="fill:#579643;" d="M219.711,285.039c24.068-4.864,48.882-4.864,72.951,0c9.034,1.825,7.716,15.125-1.502,15.125
		h-69.947C211.995,300.164,210.676,286.864,219.711,285.039z"/>
</g>
<g>
	<path style="fill:#427A2D;" d="M377.484,129.29c-2.864,0.018-16.68,0.669-29.277,11.188c-4.703,3.928-11.426-1.457-8.514-6.847
		c3.566-6.603,8.54-13.274,15.473-19.119c1.366,1.621,2.704,3.287,4.006,4.989l0.811,1.065
		C364.163,126.03,370.627,129.154,377.484,129.29z"/>
	<ellipse style="fill:#427A2D;" cx="240.306" cy="215.186" rx="6.728" ry="11.494"/>
	<ellipse style="fill:#427A2D;" cx="271.694" cy="215.186" rx="6.728" ry="11.494"/>
	<circle style="fill:#427A2D;" cx="307.545" cy="106.517" r="12.539"/>
	<circle style="fill:#427A2D;" cx="324.786" cy="130.027" r="7.489"/>
	<circle style="fill:#427A2D;" cx="395.159" cy="390.029" r="12.539"/>
	<circle style="fill:#427A2D;" cx="373.812" cy="429.505" r="23.246"/>
	<circle style="fill:#427A2D;" cx="412.4" cy="413.539" r="7.489"/>
	<circle style="fill:#427A2D;" cx="194.351" cy="473.422" r="7.489"/>
	<circle style="fill:#427A2D;" cx="300.23" cy="130.55" r="5.921"/>
	<circle style="fill:#427A2D;" cx="399.151" cy="258.027" r="16.37"/>
	<circle style="fill:#427A2D;" cx="372.161" cy="281.182" r="6.792"/>
</g>
<g>
	<path style="fill:#57CEA7;" d="M484.31,335.694h-38.661c-3.174,0-5.747-2.573-5.747-5.747l0,0c0-3.174,2.573-5.747,5.747-5.747
		h38.661c3.174,0,5.747,2.573,5.747,5.747l0,0C490.057,333.122,487.485,335.694,484.31,335.694z"/>
	<path style="fill:#57CEA7;" d="M461.322,357.115h-38.661c-3.174,0-5.747-2.573-5.747-5.747l0,0c0-3.174,2.573-5.747,5.747-5.747
		h38.661c3.174,0,5.747,2.573,5.747,5.747l0,0C467.069,354.542,464.497,357.115,461.322,357.115z"/>
</g>
<g>
</g>
<g>
</g>
<g>
</g>
<g>
</g>
<g>
</g>
<g>
</g>
<g>
</g>
<g>
</g>
<g>
</g>
<g>
</g>
<g>
</g>
<g>
</g>
<g>
</g>
<g>
</g>
<g>
</g>
</svg>
