<?xml version="1.0" encoding="iso-8859-1"?>
<!-- Generator: Adobe Illustrator 19.0.0, SVG Export Plug-In . SVG Version: 6.00 Build 0)  -->
<svg version="1.1" id="Capa_1" xmlns="http://www.w3.org/2000/svg" xmlns:xlink="http://www.w3.org/1999/xlink" x="0px" y="0px"
	 viewBox="0 0 512 512" style="enable-background:new 0 0 512 512;" xml:space="preserve">
<path style="fill:#69AF54;" d="M512,256c0,141.385-114.615,256-256,256S0,397.385,0,256c0-3.208,0.063-6.405,0.178-9.582
	c1.337-36.488,10.324-71.022,25.381-102.055c7.429-15.308,16.342-29.759,26.551-43.175C98.858,39.696,172.795,0,256,0
	s157.142,39.696,203.891,101.188c10.209,13.416,19.122,27.878,26.551,43.186c15.057,31.033,24.043,65.567,25.381,102.055
	C511.937,249.605,512,252.792,512,256z"/>
<g>
	<path style="fill:#4C8E37;" d="M66.748,232.302l-25.506,25.506l-25.506-25.506l9.822-87.939
		c7.429-15.308,16.342-29.759,26.551-43.175L66.748,232.302z"/>
	<path style="fill:#4C8E37;" d="M111.684,253.201L92.891,84.952c-0.894-8.008-12.535-8.008-13.429,0L60.67,253.201l25.507,25.507
		L111.684,253.201z"/>
	<path style="fill:#4C8E37;" d="M155.57,213.858L136.777,45.61c-0.894-8.008-12.535-8.008-13.429,0l-18.792,168.248l25.507,25.507
		L155.57,213.858z"/>
	<path style="fill:#4C8E37;" d="M202.621,223.231L183.829,54.983c-0.894-8.008-12.535-8.008-13.429,0l-18.792,168.248l25.507,25.507
		L202.621,223.231z"/>
	<path style="fill:#4C8E37;" d="M241.303,186.068L222.511,17.82c-0.894-8.008-12.535-8.008-13.429,0l-18.792,168.248l25.507,25.507
		L241.303,186.068z"/>
	<path style="fill:#4C8E37;" d="M496.264,232.302l-25.506,25.506l-25.506-25.506l14.639-131.114
		c10.209,13.416,19.122,27.878,26.551,43.186L496.264,232.302z"/>
	<path style="fill:#4C8E37;" d="M400.316,253.201l18.793-168.248c0.894-8.008,12.535-8.008,13.429,0l18.793,168.248l-25.507,25.507
		L400.316,253.201z"/>
	<path style="fill:#4C8E37;" d="M356.43,213.858L375.223,45.61c0.894-8.008,12.535-8.008,13.429,0l18.793,168.248l-25.507,25.507
		L356.43,213.858z"/>
	<path style="fill:#4C8E37;" d="M309.379,223.231l18.792-168.248c0.894-8.008,12.535-8.008,13.429,0l18.792,168.248l-25.507,25.507
		L309.379,223.231z"/>
	<path style="fill:#4C8E37;" d="M270.696,186.068L289.489,17.82c0.894-8.008,12.535-8.008,13.429,0l18.792,168.248l-25.507,25.507
		L270.696,186.068z"/>
	<path style="fill:#4C8E37;" d="M230.44,203.823l18.792-168.248c0.894-8.008,12.535-8.008,13.429,0l18.792,168.248l-25.507,25.507
		L230.44,203.823z"/>
</g>
<path style="fill:#755139;" d="M512,256c0,12.528-0.899,24.837-2.644,36.885C491.478,416.799,384.857,512,256,512
	S20.522,416.799,2.644,292.885C0.899,280.837,0,268.528,0,256c0-3.208,0.063-6.405,0.178-9.582
	C49.027,155.188,145.262,93.121,256,93.121s206.973,62.067,255.822,153.307C511.937,249.605,512,252.792,512,256z"/>
<path style="fill:#3F332B;" d="M509.356,292.885c-4.88,33.834-16.374,65.526-33.144,93.727C431.595,461.688,349.675,512,256,512
	S80.405,461.688,35.788,386.612C19.017,358.41,7.523,326.719,2.644,292.885c10.062-5.59,20.511-10.846,31.295-15.768
	c20.741-9.435,36.54-27.376,42.851-49.267C99.234,150.037,170.966,93.121,256,93.121s156.766,56.916,179.21,134.729
	c6.311,21.891,22.11,39.832,42.851,49.267C488.845,282.039,499.294,287.295,509.356,292.885z"/>
<path style="fill:#755139;" d="M476.212,386.612C431.595,461.688,349.675,512,256,512c-40.876,0-79.517-9.582-113.8-26.624
	C97.928,463.37,60.938,428.92,35.788,386.612c58.744-39.685,135.816-63.76,220.212-63.76c3.124,0,6.228,0.031,9.331,0.104
	C346.07,324.65,419.641,348.39,476.212,386.612z"/>
<path style="fill:#63432E;" d="M265.331,322.957C224.057,343.98,151.239,393.644,142.2,485.376
	C97.928,463.37,60.938,428.92,35.788,386.612c58.744-39.685,135.816-63.76,220.212-63.76
	C259.124,322.853,262.228,322.884,265.331,322.957z"/>
<path style="fill:#6E8C63;" d="M420.726,301.527c-2.842,11.588-7.231,22.737-12.988,33.113
	c-21.974,39.675-63.906,68.221-115.733,68.221h-72.014c-51.827,0-93.769-28.547-115.743-68.211
	c-5.747-10.376-10.136-21.525-12.978-33.113c-7.638-31.159-4.096-65.557,14.137-97.134l36.007-62.37
	c50.918-88.2,178.239-88.2,229.167,0l36.007,62.37C424.812,235.981,428.364,270.379,420.726,301.527z"/>
<g>
	<path style="fill:#57724C;" d="M398.135,340.586c-12.706,7.858-27,11.734-41.242,11.734c-18.035,0-35.976-6.207-50.458-18.39
		c-14.576-12.257-32.507-18.38-50.437-18.38s-35.861,6.123-50.448,18.38c-0.131,0.11-0.261,0.218-0.392,0.327
		c-20.805,17.264-52.421,6.362-58.759-19.919c-1.011-4.193-1.881-8.466-2.603-12.8c-5.204-31.159-2.79-65.557,9.624-97.134
		l24.534-62.37c17.335-44.095,47.689-66.152,78.043-66.152c-44.565,0-89.13,22.058-114.583,66.152l-36.007,62.37
		c-18.233,31.577-21.776,65.975-14.137,97.134c13.678,55.881,63.331,101.324,128.721,101.324h11.483h60.531
		c51.827,0,93.759-28.547,115.733-68.221L398.135,340.586z"/>
	<path style="fill:#57724C;" d="M363.295,297.313c-17.86,0-32.391-14.53-32.391-32.391c0-14.62,9.852-27.48,23.96-31.275
		c2.762-0.742,5.596-1.117,8.431-1.117c17.86,0,32.391,14.53,32.391,32.391c0,2.835-0.375,5.669-1.116,8.426
		C390.775,287.46,377.914,297.313,363.295,297.313z"/>
	<path style="fill:#57724C;" d="M148.698,297.313c-17.86,0-32.391-14.53-32.391-32.391c0-14.62,9.852-27.48,23.96-31.275
		c2.762-0.742,5.596-1.117,8.431-1.117c17.86,0,32.391,14.53,32.391,32.391c0,2.835-0.375,5.669-1.116,8.426
		C176.178,287.46,163.319,297.313,148.698,297.313z"/>
</g>
<g>
	<path style="fill:#0F0F0E;" d="M380.84,258.173c0,1.579-0.216,3.118-0.607,4.576c-2.011,7.477-8.826,12.97-16.938,12.97
		c-9.69,0-17.545-7.854-17.545-17.545c0-8.112,5.493-14.926,12.97-16.938c1.458-0.392,2.996-0.607,4.576-0.607
		C372.986,240.627,380.84,248.483,380.84,258.173z"/>
	<circle style="fill:#0F0F0E;" cx="148.699" cy="258.173" r="17.545"/>
</g>
<g>
	<path style="fill:#E6E6E6;" d="M380.84,258.173c0,1.579-0.216,3.118-0.607,4.576c-2.065,0.958-4.386,1.498-6.816,1.498
		c-8.948,0-16.196-7.247-16.196-16.196c0-2.429,0.54-4.751,1.498-6.816c1.458-0.392,2.996-0.607,4.576-0.607
		C372.986,240.627,380.84,248.483,380.84,258.173z"/>
	<path style="fill:#E6E6E6;" d="M166.243,258.173c0,1.579-0.216,3.118-0.607,4.576c-2.065,0.958-4.386,1.498-6.816,1.498
		c-8.949,0-16.196-7.247-16.196-16.196c0-2.429,0.54-4.751,1.498-6.816c1.458-0.392,2.996-0.607,4.576-0.607
		C158.389,240.627,166.243,248.483,166.243,258.173z"/>
</g>
<g>
	<ellipse style="fill:#57724C;" cx="236.795" cy="280.336" rx="10.188" ry="18.023"/>
	<ellipse style="fill:#57724C;" cx="275.195" cy="280.336" rx="10.188" ry="18.023"/>
	<circle style="fill:#57724C;" cx="316.207" cy="131.741" r="14.281"/>
	<circle style="fill:#57724C;" cx="301.819" cy="162.283" r="10.101"/>
	<circle style="fill:#57724C;" cx="386.612" cy="310.617" r="10.101"/>
	<circle style="fill:#57724C;" cx="343.604" cy="131.197" r="6.244"/>
	<circle style="fill:#57724C;" cx="183.181" cy="136.808" r="6.244"/>
	<circle style="fill:#57724C;" cx="399.956" cy="288.632" r="6.244"/>
	<circle style="fill:#57724C;" cx="409.078" cy="302.78" r="6.244"/>
	<circle style="fill:#57724C;" cx="204.424" cy="149.086" r="13.939"/>
	<circle style="fill:#57724C;" cx="193.024" cy="115.952" r="10.101"/>
	<circle style="fill:#57724C;" cx="339.655" cy="162.105" r="17.415"/>
</g>
<g>
</g>
<g>
</g>
<g>
</g>
<g>
</g>
<g>
</g>
<g>
</g>
<g>
</g>
<g>
</g>
<g>
</g>
<g>
</g>
<g>
</g>
<g>
</g>
<g>
</g>
<g>
</g>
<g>
</g>
</svg>
