<?xml version="1.0" encoding="iso-8859-1"?>
<!-- Generator: Adobe Illustrator 19.0.0, SVG Export Plug-In . SVG Version: 6.00 Build 0)  -->
<svg version="1.1" id="Capa_1" xmlns="http://www.w3.org/2000/svg" xmlns:xlink="http://www.w3.org/1999/xlink" x="0px" y="0px"
	 viewBox="0 0 512 512" style="enable-background:new 0 0 512 512;" xml:space="preserve">
<path style="fill:#63CBFF;" d="M512,256c0,2.508-0.031,4.995-0.104,7.481c-0.24,8.338-0.878,16.572-1.912,24.68
	c-1.484,11.88-3.783,23.51-6.844,34.826c-5.454,20.187-13.322,39.382-23.28,57.26c-2.508,4.535-5.162,8.976-7.941,13.333
	C426.454,464.792,346.739,512,256,512c-90.749,0-170.475-47.219-215.928-118.439c-2.779-4.347-5.433-8.788-7.941-13.312
	c-9.947-17.878-17.816-37.083-23.27-57.26c-3.062-11.316-5.36-22.946-6.844-34.826c-1.034-8.108-1.672-16.342-1.912-24.68
	C0.031,260.995,0,258.508,0,256c0-7.784,0.345-15.485,1.024-23.082c1.87-20.929,6.259-41.138,12.863-60.312
	C48.483,72.161,143.809,0,256,0s207.517,72.161,242.113,172.607c6.604,19.174,10.992,39.382,12.863,60.312
	C511.655,240.515,512,248.215,512,256z"/>
<path style="fill:#427A2D;" d="M512,256c0,2.508-0.031,4.995-0.104,7.481c-6.98,3.835-14.994,6.008-23.51,6.008
	c-15.768,0-29.78-7.461-38.724-19.048c-8.955,11.588-22.967,19.048-38.734,19.048c-15.768,0-29.79-7.461-38.734-19.048
	c-8.944,11.588-22.956,19.048-38.734,19.048c-15.768,0-29.78-7.461-38.724-19.048C285.78,262.029,271.767,269.49,256,269.49
	s-29.78-7.461-38.734-19.048c-8.944,11.588-22.956,19.048-38.724,19.048c-15.778,0-29.79-7.461-38.734-19.048
	c-8.944,11.588-22.967,19.048-38.734,19.048s-29.78-7.461-38.734-19.048c-8.944,11.588-22.956,19.048-38.724,19.048
	c-8.516,0-16.53-2.173-23.51-6.008C0.031,260.995,0,258.508,0,256c0-7.784,0.345-15.485,1.024-23.082
	c1.87-20.929,6.259-41.138,12.863-60.312c3.145-0.627,6.395-0.961,9.728-0.961c15.768,0,29.78,7.471,38.724,19.048
	c8.955-11.577,22.967-19.048,38.734-19.048s29.79,7.471,38.734,19.048c8.944-11.577,22.956-19.048,38.734-19.048
	c15.768,0,29.78,7.471,38.724,19.048c8.955-11.577,22.967-19.048,38.734-19.048s29.78,7.471,38.734,19.048
	c8.944-11.577,22.956-19.048,38.724-19.048c15.778,0,29.79,7.471,38.734,19.048c8.944-11.577,22.967-19.048,38.734-19.048
	c15.767,0,29.78,7.471,38.734,19.048c8.944-11.577,22.956-19.048,38.724-19.048c3.333,0,6.583,0.334,9.728,0.961
	c6.604,19.174,10.992,39.382,12.863,60.312C511.655,240.515,512,248.215,512,256z"/>
<path style="fill:#4C8E37;" d="M512,256c0,2.508-0.031,4.995-0.104,7.481c-0.596,20.532-3.605,40.458-8.756,59.507
	c-4.66,1.463-9.613,2.257-14.754,2.257c-15.768,0-29.78-7.471-38.724-19.048c-8.955,11.577-22.967,19.048-38.734,19.048
	c-15.768,0-29.79-7.471-38.734-19.048c-8.944,11.577-22.956,19.048-38.734,19.048c-15.768,0-29.78-7.471-38.724-19.048
	c-8.955,11.577-22.967,19.048-38.734,19.048s-29.78-7.471-38.734-19.048c-8.944,11.577-22.956,19.048-38.724,19.048
	c-15.778,0-29.79-7.471-38.734-19.048c-8.944,11.577-22.967,19.048-38.734,19.048s-29.78-7.471-38.734-19.048
	c-8.944,11.577-22.956,19.048-38.724,19.048c-5.141,0-10.094-0.794-14.754-2.257C3.709,303.94,0.7,284.014,0.104,263.481
	C0.031,260.995,0,258.508,0,256c0-7.784,0.345-15.485,1.024-23.082c6.76-3.521,14.44-5.517,22.591-5.517
	c15.768,0,29.78,7.461,38.724,19.048c8.955-11.588,22.967-19.048,38.734-19.048s29.79,7.461,38.734,19.048
	c8.944-11.588,22.956-19.048,38.734-19.048c15.768,0,29.78,7.461,38.724,19.048c8.955-11.588,22.967-19.048,38.734-19.048
	s29.78,7.461,38.734,19.048c8.944-11.588,22.956-19.048,38.724-19.048c15.778,0,29.79,7.461,38.734,19.048
	c8.944-11.588,22.967-19.048,38.734-19.048c15.767,0,29.78,7.461,38.734,19.048c8.944-11.588,22.956-19.048,38.724-19.048
	c8.15,0,15.83,1.996,22.591,5.517C511.655,240.515,512,248.215,512,256z"/>
<path style="fill:#69AF54;" d="M509.983,288.162c-1.484,11.88-3.783,23.51-6.844,34.826c-5.454,20.187-13.322,39.382-23.28,57.26
	c-12.236-2.152-22.904-8.861-30.198-18.307c-8.955,11.577-22.967,19.048-38.734,19.048c-15.768,0-29.79-7.471-38.734-19.048
	c-8.944,11.577-22.956,19.048-38.734,19.048c-15.768,0-29.78-7.471-38.724-19.048c-8.955,11.577-22.967,19.048-38.734,19.048
	s-29.78-7.471-38.734-19.048c-8.944,11.577-22.956,19.048-38.724,19.048c-15.778,0-29.79-7.471-38.734-19.048
	c-8.944,11.577-22.967,19.048-38.734,19.048s-29.78-7.471-38.734-19.048c-7.293,9.446-17.962,16.154-30.208,18.307
	c-9.947-17.878-17.816-37.083-23.27-57.26c-3.062-11.316-5.36-22.946-6.844-34.826c6.52-3.218,13.845-5.016,21.598-5.016
	c15.768,0,29.78,7.461,38.724,19.048c8.955-11.588,22.967-19.048,38.734-19.048s29.79,7.461,38.734,19.048
	c8.944-11.588,22.956-19.048,38.734-19.048c15.768,0,29.78,7.461,38.724,19.048c8.955-11.588,22.967-19.048,38.734-19.048
	s29.78,7.461,38.734,19.048c8.944-11.588,22.956-19.048,38.724-19.048c15.778,0,29.79,7.461,38.734,19.048
	c8.944-11.588,22.967-19.048,38.734-19.048c15.767,0,29.78,7.461,38.734,19.048c8.944-11.588,22.956-19.048,38.724-19.048
	C496.138,283.146,503.463,284.944,509.983,288.162z"/>
<path style="fill:#427A2D;" d="M16.054,345.397C52.316,442.696,146.062,512,256,512s203.684-69.304,239.946-166.603H16.054z"/>
<g>
	<circle style="fill:#3D3636;" cx="378.775" cy="141.343" r="39.706"/>
	<circle style="fill:#3D3636;" cx="133.224" cy="141.343" r="39.706"/>
	<path style="fill:#3D3636;" d="M484.697,371.169c-21.347,42.297-54.084,77.866-94.177,102.682C351.431,498.04,305.351,512,256,512
		s-95.431-13.96-134.52-38.16c-40.093-24.806-72.829-60.374-94.177-102.672l9.3-29.612
		c25.893-82.463,102.316-138.564,188.74-138.564h61.304c86.434,0,162.858,56.101,188.75,138.564L484.697,371.169z"/>
</g>
<path style="fill:#665B5B;" d="M390.52,473.851C351.431,498.04,305.351,512,256,512s-95.431-13.96-134.52-38.16l10.689-57.25
	c5.569-29.811,21.368-55.526,43.342-73.78c21.985-18.254,50.166-29.059,80.488-29.059c60.646,0,112.692,43.217,123.82,102.839
	L390.52,473.851z"/>
<path style="fill:#4D4445;" d="M291.155,340.346l79.556-57.801c25.638-18.626,37.555-50.845,30.21-81.671L366.714,57.306
	c-8.005-33.597-38.026-57.305-72.563-57.305h-76.31c-34.537,0-64.558,23.709-72.563,57.305l-34.206,143.567
	c-7.345,30.827,4.572,63.045,30.21,81.671l79.556,57.801C241.803,355.578,270.191,355.578,291.155,340.346z"/>
<path style="fill:#3D3636;" d="M255.154,351.754c-12.058-0.167-24.074-3.971-34.314-11.41l-79.559-57.804
	c-25.631-18.62-37.554-50.845-30.208-81.669l34.21-143.569C153.287,23.709,183.306,0,217.84,0h10.094
	c-25.412,0-47.491,23.709-53.384,57.302l-25.161,143.569c-5.402,30.824,3.365,63.049,22.225,81.669l58.525,57.804
	C237.61,347.721,246.366,351.525,255.154,351.754z"/>
<path style="fill:#665B5B;" d="M316.677,235.06c1.191,15.632-0.815,31.253-6.071,46.885c-3.323,9.874-11.055,17.68-20.814,21.316
	c-22.528,8.411-45.056,8.411-67.584,0c-9.77-3.636-17.492-11.442-20.814-21.316c-5.256-15.632-7.272-31.253-6.081-46.885
	c-14.796-2.853-27.638-11.212-36.31-22.852c-7.126-9.592-11.421-21.41-11.661-34.241c-0.376-20.522,9.947-38.943,25.778-49.883
	c9.352-6.478,20.637-10.334,32.758-10.48c11.88-0.146,22.967,3.208,32.298,9.101c10.898,6.875,24.754,6.875,35.652,0
	c9.32-5.893,20.407-9.247,32.287-9.101c32.664,0.387,59.131,27.711,58.546,60.364C364.136,206.357,343.667,229.857,316.677,235.06z"
	/>
<g>
	<path style="fill:#4D4445;" d="M315.557,198.814c-13.828,0-25.078-11.249-25.078-25.078c0-11.319,7.628-21.275,18.55-24.213
		c2.138-0.574,4.332-0.864,6.527-0.864c13.828,0,25.078,11.249,25.078,25.078c0,2.194-0.29,4.389-0.864,6.523
		C336.832,191.186,326.875,198.814,315.557,198.814z"/>
	<path style="fill:#4D4445;" d="M196.437,198.814c-13.828,0-25.078-11.249-25.078-25.078c0-11.319,7.628-21.275,18.55-24.213
		c2.138-0.574,4.332-0.864,6.527-0.864c13.828,0,25.078,11.249,25.078,25.078c0,2.194-0.29,4.389-0.864,6.523
		C217.712,191.186,207.756,198.814,196.437,198.814z"/>
</g>
<g>
	<path style="fill:#0F0F0E;" d="M329.141,173.736c0,1.223-0.167,2.414-0.47,3.542c-1.557,5.789-6.834,10.041-13.113,10.041
		c-7.502,0-13.584-6.081-13.584-13.584c0-6.28,4.253-11.557,10.041-13.113c1.128-0.303,2.32-0.47,3.542-0.47
		C323.059,160.153,329.141,166.234,329.141,173.736z"/>
	<circle style="fill:#0F0F0E;" cx="196.441" cy="173.735" r="13.584"/>
</g>
<g>
	<path style="fill:#E6E6E6;" d="M329.141,173.736c0,1.223-0.167,2.414-0.47,3.542c-1.599,0.742-3.396,1.16-5.277,1.16
		c-6.928,0-12.539-5.611-12.539-12.539c0-1.881,0.418-3.678,1.16-5.277c1.128-0.303,2.32-0.47,3.542-0.47
		C323.059,160.153,329.141,166.234,329.141,173.736z"/>
	<path style="fill:#E6E6E6;" d="M210.02,173.736c0,1.223-0.167,2.414-0.47,3.542c-1.599,0.742-3.396,1.16-5.277,1.16
		c-6.928,0-12.539-5.611-12.539-12.539c0-1.881,0.418-3.678,1.16-5.277c1.128-0.303,2.32-0.47,3.542-0.47
		C203.939,160.153,210.02,166.234,210.02,173.736z"/>
</g>
<g>
	
		<ellipse transform="matrix(0.2996 -0.9541 0.9541 0.2996 -52.2362 388.1443)" style="fill:#3D3636;" cx="238.239" cy="229.649" rx="19.331" ry="12.539"/>
	
		<ellipse transform="matrix(0.2996 0.9541 -0.9541 0.2996 410.826 -100.3294)" style="fill:#3D3636;" cx="273.745" cy="229.64" rx="19.331" ry="12.539"/>
	<path style="fill:#3D3636;" d="M294.296,280.764c-0.721,0.951-1.714,1.776-2.978,2.393c-22.225,10.836-48.41,10.836-70.646,0
		c-1.264-0.616-2.247-1.442-2.968-2.393c1.379-1.86,3.584-3.145,6.468-3.145h63.655
		C290.701,277.619,292.916,278.904,294.296,280.764z"/>
</g>
<g>
</g>
<g>
</g>
<g>
</g>
<g>
</g>
<g>
</g>
<g>
</g>
<g>
</g>
<g>
</g>
<g>
</g>
<g>
</g>
<g>
</g>
<g>
</g>
<g>
</g>
<g>
</g>
<g>
</g>
</svg>
