<?xml version="1.0" encoding="iso-8859-1"?>
<!-- Generator: Adobe Illustrator 19.0.0, SVG Export Plug-In . SVG Version: 6.00 Build 0)  -->
<svg version="1.1" id="Capa_1" xmlns="http://www.w3.org/2000/svg" xmlns:xlink="http://www.w3.org/1999/xlink" x="0px" y="0px"
	 viewBox="0 0 512 512" style="enable-background:new 0 0 512 512;" xml:space="preserve">
<path style="fill:#63CBFF;" d="M512,256c0,2.508-0.031,4.995-0.104,7.481c-0.24,8.338-0.878,16.572-1.912,24.68
	c-1.484,11.88-3.783,23.51-6.844,34.826c-5.454,20.187-13.322,39.382-23.28,57.26c-2.508,4.535-5.162,8.976-7.941,13.333
	C426.454,464.792,346.739,512,256,512c-90.749,0-170.475-47.219-215.928-118.439c-2.779-4.347-5.433-8.788-7.941-13.312
	c-9.947-17.878-17.816-37.083-23.27-57.26c-3.062-11.316-5.36-22.946-6.844-34.826c-1.034-8.108-1.672-16.342-1.912-24.68
	C0.031,260.995,0,258.508,0,256c0-7.784,0.345-15.485,1.024-23.082c1.87-20.929,6.259-41.138,12.863-60.312
	C48.483,72.161,143.809,0,256,0s207.517,72.161,242.113,172.607c6.604,19.174,10.992,39.382,12.863,60.312
	C511.655,240.515,512,248.215,512,256z"/>
<path style="fill:#427A2D;" d="M512,256c0,2.508-0.031,4.995-0.104,7.481c-6.98,3.835-14.994,6.008-23.51,6.008
	c-15.768,0-29.78-7.461-38.724-19.048c-8.955,11.588-22.967,19.048-38.734,19.048c-15.768,0-29.79-7.461-38.734-19.048
	c-8.944,11.588-22.956,19.048-38.734,19.048c-15.768,0-29.78-7.461-38.724-19.048C285.78,262.029,271.767,269.49,256,269.49
	s-29.78-7.461-38.734-19.048c-8.944,11.588-22.956,19.048-38.724,19.048c-15.778,0-29.79-7.461-38.734-19.048
	c-8.944,11.588-22.967,19.048-38.734,19.048s-29.78-7.461-38.734-19.048c-8.944,11.588-22.956,19.048-38.724,19.048
	c-8.516,0-16.53-2.173-23.51-6.008C0.031,260.995,0,258.508,0,256c0-7.784,0.345-15.485,1.024-23.082
	c1.87-20.929,6.259-41.138,12.863-60.312c3.145-0.627,6.395-0.961,9.728-0.961c15.768,0,29.78,7.471,38.724,19.048
	c8.955-11.577,22.967-19.048,38.734-19.048s29.79,7.471,38.734,19.048c8.944-11.577,22.956-19.048,38.734-19.048
	c15.768,0,29.78,7.471,38.724,19.048c8.955-11.577,22.967-19.048,38.734-19.048s29.78,7.471,38.734,19.048
	c8.944-11.577,22.956-19.048,38.724-19.048c15.778,0,29.79,7.471,38.734,19.048c8.944-11.577,22.967-19.048,38.734-19.048
	c15.767,0,29.78,7.471,38.734,19.048c8.944-11.577,22.956-19.048,38.724-19.048c3.333,0,6.583,0.334,9.728,0.961
	c6.604,19.174,10.992,39.382,12.863,60.312C511.655,240.515,512,248.215,512,256z"/>
<path style="fill:#4C8E37;" d="M512,256c0,2.508-0.031,4.995-0.104,7.481c-0.596,20.532-3.605,40.458-8.756,59.507
	c-4.66,1.463-9.613,2.257-14.754,2.257c-15.768,0-29.78-7.471-38.724-19.048c-8.955,11.577-22.967,19.048-38.734,19.048
	c-15.768,0-29.79-7.471-38.734-19.048c-8.944,11.577-22.956,19.048-38.734,19.048c-15.768,0-29.78-7.471-38.724-19.048
	c-8.955,11.577-22.967,19.048-38.734,19.048s-29.78-7.471-38.734-19.048c-8.944,11.577-22.956,19.048-38.724,19.048
	c-15.778,0-29.79-7.471-38.734-19.048c-8.944,11.577-22.967,19.048-38.734,19.048s-29.78-7.471-38.734-19.048
	c-8.944,11.577-22.956,19.048-38.724,19.048c-5.141,0-10.094-0.794-14.754-2.257C3.709,303.94,0.7,284.014,0.104,263.481
	C0.031,260.995,0,258.508,0,256c0-7.784,0.345-15.485,1.024-23.082c6.76-3.521,14.44-5.517,22.591-5.517
	c15.768,0,29.78,7.461,38.724,19.048c8.955-11.588,22.967-19.048,38.734-19.048s29.79,7.461,38.734,19.048
	c8.944-11.588,22.956-19.048,38.734-19.048c15.768,0,29.78,7.461,38.724,19.048c8.955-11.588,22.967-19.048,38.734-19.048
	s29.78,7.461,38.734,19.048c8.944-11.588,22.956-19.048,38.724-19.048c15.778,0,29.79,7.461,38.734,19.048
	c8.944-11.588,22.967-19.048,38.734-19.048c15.767,0,29.78,7.461,38.734,19.048c8.944-11.588,22.956-19.048,38.724-19.048
	c8.15,0,15.83,1.996,22.591,5.517C511.655,240.515,512,248.215,512,256z"/>
<path style="fill:#69AF54;" d="M509.983,288.162c-1.484,11.88-3.783,23.51-6.844,34.826c-5.454,20.187-13.322,39.382-23.28,57.26
	c-12.236-2.152-22.904-8.861-30.198-18.307c-8.955,11.577-22.967,19.048-38.734,19.048c-15.768,0-29.79-7.471-38.734-19.048
	c-8.944,11.577-22.956,19.048-38.734,19.048c-15.768,0-29.78-7.471-38.724-19.048c-8.955,11.577-22.967,19.048-38.734,19.048
	s-29.78-7.471-38.734-19.048c-8.944,11.577-22.956,19.048-38.724,19.048c-15.778,0-29.79-7.471-38.734-19.048
	c-8.944,11.577-22.967,19.048-38.734,19.048s-29.78-7.471-38.734-19.048c-7.293,9.446-17.962,16.154-30.208,18.307
	c-9.947-17.878-17.816-37.083-23.27-57.26c-3.062-11.316-5.36-22.946-6.844-34.826c6.52-3.218,13.845-5.016,21.598-5.016
	c15.768,0,29.78,7.461,38.724,19.048c8.955-11.588,22.967-19.048,38.734-19.048s29.79,7.461,38.734,19.048
	c8.944-11.588,22.956-19.048,38.734-19.048c15.768,0,29.78,7.461,38.724,19.048c8.955-11.588,22.967-19.048,38.734-19.048
	s29.78,7.461,38.734,19.048c8.944-11.588,22.956-19.048,38.724-19.048c15.778,0,29.79,7.461,38.734,19.048
	c8.944-11.588,22.967-19.048,38.734-19.048c15.767,0,29.78,7.461,38.734,19.048c8.944-11.588,22.956-19.048,38.724-19.048
	C496.138,283.146,503.463,284.944,509.983,288.162z"/>
<path style="fill:#427A2D;" d="M16.054,345.397C52.316,442.696,146.062,512,256,512s203.684-69.304,239.946-166.603H16.054z"/>
<g>
	<path style="fill:#E2BA58;" d="M332.56,500.36c-17.293,5.413-35.38,9.038-54.032,10.658C271.099,511.666,263.586,512,256,512
		s-15.099-0.334-22.528-0.982c-5.036-0.439-10.031-1.024-14.984-1.755c-13.385-1.954-26.425-4.953-39.048-8.903l2.236-38.891
		l7.586-131.751l1.264-21.891h130.947l1.264,21.891l1.348,23.385l3.699,64.188l2.539,44.178L332.56,500.36z"/>
	<path style="fill:#E2BA58;" d="M376.364,148.84l-5.58,40.612l-6.615,48.159l-0.08,0.609c-5.338,38.851-30.523,72.124-66.474,87.816
		l-19.029,8.307c-14.404,6.293-30.775,6.293-45.179,0l-19.029-8.307c-35.953-15.692-61.137-48.964-66.474-87.816l-0.08-0.609
		l-6.615-48.171l-5.58-40.601c-3.509-25.575,10.769-50.288,34.699-60.008L182.211,84l13.587-5.511
		c38.599-15.681,81.8-15.681,120.41,0L329.783,84l11.896,4.832C365.596,98.554,379.885,123.266,376.364,148.84z"/>
</g>
<g>
	<path style="fill:#CEA44A;" d="M322.738,329.718c-7.586,6.039-16.008,11.149-25.119,15.13l-19.038,8.307
		c-7.199,3.145-14.89,4.712-22.58,4.712c-7.701,0-15.391-1.567-22.591-4.712c-4.984-2.173-10.585,1.379-10.731,6.813l-3.114,111.104
		l-1.076,38.191c-13.385-1.954-26.425-4.953-39.048-8.903c0,0,0,0-0.01,0l2.247-38.891l7.586-131.751l1.264-21.891h130.947
		L322.738,329.718z"/>
	<path style="fill:#CEA44A;" d="M240.089,334.341c5.074,3.152,10.493,4.717,15.912,4.717c-7.697,0-15.393-1.564-22.596-4.717
		l-19.029-8.306c-35.953-15.692-61.137-48.964-66.474-87.816l-0.08-0.61l-6.615-48.171l-5.58-40.601
		c-3.509-25.575,10.769-50.288,34.699-60.01l11.885-4.832l13.587-5.511c19.294-7.835,39.749-11.758,60.205-11.758
		c-14.404,0-28.808,3.924-42.396,11.758l-9.572,5.511l-8.364,4.832c-16.854,9.722-26.899,34.434-24.436,60.01l3.934,40.601
		l4.659,48.171l0.057,0.61c3.75,38.851,21.49,72.124,46.801,87.816L240.089,334.341z"/>
</g>
<path style="fill:#CC9221;" d="M313.939,264.577c0,3.981-0.552,8.376-1.587,12.978c-6.075,27.117-29.003,61.505-56.35,61.505
	s-50.276-34.388-56.35-61.505c-1.035-4.602-1.587-8.997-1.587-12.978c0-12.978,5.81-24.782,15.324-33.629
	c11.309-10.516,16.946-25.863,15.646-41.257c-1.323-15.669-4.763-33.329-12.011-51.45c-6.339-15.853-15.589-32.075-28.877-47.618
	c-1.887-2.232-3.866-4.441-5.936-6.627c10.365-4.188,16.383-15.072,14.392-26.059l-7.639-42.349
	c-0.149-0.794-0.218-1.588-0.218-2.37c0-6.282,4.487-11.85,10.884-13.001c7.191-1.3,14.071,3.474,15.37,10.665l3.543,19.616
	c1.634,9.066,6.397,16.889,13.047,22.445c6.648,5.557,15.207,8.847,24.411,8.847c18.408,0,34.181-13.173,37.448-31.293l3.543-19.616
	C298.143,4.487,303.723,0,309.992,0c0.783,0,1.577,0.069,2.37,0.218c7.191,1.288,11.965,8.181,10.665,15.37l-7.639,42.349
	c-1.979,10.987,4.027,21.871,14.381,26.059c0.011,0,0.011,0,0.011,0c-33.042,35.067-44.178,74.344-46.825,105.683
	c-1.3,15.393,4.337,30.752,15.658,41.268C308.129,239.783,313.939,251.599,313.939,264.577z"/>
<path style="fill:#CEA44A;" d="M163.63,127.722c-41.323,12.562-86.976-5.906-107.251-45.732l-3.773-7.407l-7.847-15.404
	c-5.377-10.556,0.578-23.433,12.139-26.02c39.517-8.841,81.523,9.714,100.764,47.459l13.659,26.831
	C171.319,107.45,167.874,126.433,163.63,127.722z"/>
<path style="fill:#9B6511;" d="M162.401,118.918c-0.46,0.243-0.924,0.462-1.398,0.677c-25.948,12.313-57.162,1.787-70.276-23.971
	l-2.213-4.345l-4.111-8.07c-3.435-6.743,0.441-15.012,7.863-16.487c22.813-4.535,46.781,6.352,57.866,28.097L162.401,118.918z"/>
<path style="fill:#E2BA58;" d="M333.418,121.706c0.785,0.414,1.575,0.787,2.383,1.155c44.24,20.992,97.458,3.047,119.814-40.869
	l3.773-7.407l7.847-15.404c5.377-10.556-0.578-23.433-12.139-26.02c-39.517-8.841-81.523,9.714-100.764,47.459L333.418,121.706z"/>
<path style="fill:#9B6511;" d="M349.593,118.918c0.46,0.243,0.924,0.462,1.398,0.677c25.948,12.313,57.162,1.787,70.276-23.971
	l2.213-4.345l4.111-8.07c3.435-6.743-0.441-15.012-7.863-16.487c-22.813-4.535-46.781,6.352-57.866,28.097L349.593,118.918z"/>
<g>
	<path style="fill:#CEA44A;" d="M344.05,214.924c-12.384,0-22.459-10.075-22.459-22.459c0-10.137,6.832-19.054,16.613-21.685
		c1.914-0.514,3.881-0.774,5.846-0.774c12.384,0,22.459,10.075,22.459,22.459c0,1.965-0.26,3.931-0.773,5.842
		C363.104,208.094,354.187,214.924,344.05,214.924z"/>
	<path style="fill:#CEA44A;" d="M167.952,214.924c-12.384,0-22.459-10.075-22.459-22.459c0-10.137,6.832-19.054,16.613-21.685
		c1.914-0.514,3.88-0.774,5.846-0.774c12.384,0,22.459,10.075,22.459,22.459c0,1.965-0.26,3.931-0.773,5.842
		C187.005,208.094,178.088,214.924,167.952,214.924z"/>
</g>
<g>
	<path style="fill:#0F0F0E;" d="M356.215,187.787c0,1.095-0.149,2.162-0.421,3.172c-1.394,5.184-6.12,8.992-11.744,8.992
		c-6.719,0-12.165-5.446-12.165-12.165c0-5.624,3.809-10.35,8.992-11.744c1.01-0.272,2.077-0.421,3.172-0.421
		C350.769,175.621,356.215,181.067,356.215,187.787z"/>
	<circle style="fill:#0F0F0E;" cx="167.957" cy="187.789" r="12.165"/>
</g>
<g>
	<path style="fill:#E6E6E6;" d="M356.215,187.787c0,1.095-0.149,2.162-0.421,3.172c-1.431,0.665-3.042,1.039-4.726,1.039
		c-6.205,0-11.23-5.025-11.23-11.23c0-1.684,0.374-3.294,1.039-4.726c1.01-0.272,2.077-0.421,3.172-0.421
		C350.769,175.621,356.215,181.067,356.215,187.787z"/>
	<path style="fill:#E6E6E6;" d="M180.116,187.787c0,1.095-0.149,2.162-0.421,3.172c-1.432,0.665-3.042,1.039-4.726,1.039
		c-6.205,0-11.23-5.025-11.23-11.23c0-1.684,0.374-3.294,1.039-4.726c1.01-0.272,2.077-0.421,3.172-0.421
		C174.67,175.621,180.116,181.067,180.116,187.787z"/>
</g>
<g>
	<path style="fill:#B77D19;" d="M312.363,0.218c-15.738,3.739-9.572,52.244-14.174,61.574c-4.602,9.331-42.188,0-42.188,0
		c18.408,0,34.181-13.173,37.448-31.293l3.543-19.616c1.15-6.397,6.73-10.884,13-10.884C310.775,0,311.569,0.069,312.363,0.218z"/>
	<path style="fill:#B77D19;" d="M229.734,241.4c4.419-10.452,18.521-17.32,40.648-17.32c22.127,0-10.884-24.126-33.939-8.629"/>
	<path style="fill:#B77D19;" d="M260.603,88.204c6.183-6.183-6.531-11.908-27.133-11.635c-9.962,0.132-18.965-5.88-22.441-15.216
		c-5.486-14.73-12.799-35.199-14.473-43.784c-2.681-13.806,3.072-17.349,3.072-17.349c-6.397,1.15-10.884,6.719-10.884,13.001
		c0,0.783,0.069,1.576,0.218,2.37l7.639,42.349c1.991,10.986-4.026,21.869-14.39,26.058l-0.002,0.001
		c1.437,1.525,2.817,3.059,4.172,4.6c0.591,0.675,1.19,1.348,1.765,2.027l0.015,0.005c28.304,33.147,38.283,69.284,40.831,98.577
		c1.354,15.559-4.171,31.109-15.608,41.744c-9.513,8.847-15.322,20.65-15.322,33.626c0,3.981,0.552,8.376,1.587,12.978
		c6.075,27.117,29.003,61.505,56.35,61.505c-14.025,0-25.782-34.388-28.9-61.505c-0.529-4.602-0.806-8.997-0.806-12.978
		c0-12.978,2.98-24.782,7.858-33.629c5.798-10.516,8.686-25.863,8.019-41.257c-0.954-22.054-6.92-56.585-16.273-87.338l0.003,0.006
		C221.242,88.204,252.608,96.197,260.603,88.204z"/>
</g>
<g>
	<path style="fill:#9B6511;" d="M289.918,273.614c0,6.213-5.036,19.43-11.249,19.43c-6.213,0-11.249-13.218-11.249-19.43
		s5.036-11.249,11.249-11.249S289.918,267.401,289.918,273.614z"/>
	<path style="fill:#9B6511;" d="M244.581,273.614c0,6.213-5.036,19.43-11.249,19.43c-6.213,0-11.249-13.218-11.249-19.43
		s5.036-11.249,11.249-11.249C239.545,262.364,244.581,267.401,244.581,273.614z"/>
</g>
<g>
	<path style="fill:#CC9221;" d="M327.784,417.29c-8.6-1.128-15.924-7.105-18.651-15.517l-4.838-14.869
		c-3.041-9.373,0.293-19.634,8.265-25.433l11.525-8.37L327.784,417.29z"/>
	<path style="fill:#CC9221;" d="M269.363,465.619l20.228-14.697c7.97-5.791,11.305-16.055,8.261-25.424l-7.726-23.78
		c-3.045-9.37-11.776-15.713-21.627-15.713h-25.003c-9.851,0-18.582,6.344-21.627,15.713l-7.726,23.78
		c-3.045,9.37,0.29,19.634,8.261,25.424l20.228,14.697C250.601,471.41,261.393,471.41,269.363,465.619z"/>
	<path style="fill:#CC9221;" d="M332.56,500.36c-17.293,5.413-35.38,9.038-54.032,10.658c0.157-0.784,0.366-1.567,0.616-2.341
		l10.24-31.504c3.041-9.362,11.776-15.705,21.629-15.705h19.31L332.56,500.36z"/>
	<path style="fill:#CC9221;" d="M207.705,386.905l-4.838,14.869c-2.727,8.411-10.052,14.388-18.651,15.517l3.699-64.188l11.525,8.37
		C207.412,367.271,210.745,377.532,207.705,386.905z"/>
	<path style="fill:#CC9221;" d="M233.472,511.018c-5.036-0.439-10.031-1.024-14.984-1.755c-13.385-1.954-26.425-4.953-39.048-8.903
		l2.236-38.891h19.31c7.513,0,14.388,3.689,18.578,9.603c1.296,1.829,2.33,3.887,3.051,6.102l10.24,31.504
		C233.106,509.45,233.315,510.234,233.472,511.018z"/>
</g>
<g>
</g>
<g>
</g>
<g>
</g>
<g>
</g>
<g>
</g>
<g>
</g>
<g>
</g>
<g>
</g>
<g>
</g>
<g>
</g>
<g>
</g>
<g>
</g>
<g>
</g>
<g>
</g>
<g>
</g>
</svg>
