<?xml version="1.0" encoding="iso-8859-1"?>
<!-- Generator: Adobe Illustrator 19.0.0, SVG Export Plug-In . SVG Version: 6.00 Build 0)  -->
<svg version="1.1" id="Capa_1" xmlns="http://www.w3.org/2000/svg" xmlns:xlink="http://www.w3.org/1999/xlink" x="0px" y="0px"
	 viewBox="0 0 512 512" style="enable-background:new 0 0 512 512;" xml:space="preserve">
<circle style="fill:#63CBFF;" cx="256" cy="256" r="256"/>
<g>
	<path style="fill:#427A2D;" d="M512,255.999c0,18.233-1.912,36.028-5.538,53.185h-77.73c-8.579,0-12.873-10.365-6.802-16.436
		l29.257-29.257c1.954-1.964,2.832-4.378,2.832-6.74c0-4.953-3.835-9.697-9.644-9.697c-8.579,0-12.873-10.376-6.802-16.436
		l22.695-22.695c6.06-6.071,1.766-16.447-6.813-16.447h-1.641c-8.579,0-12.873-10.365-6.813-16.436l37.825-37.815
		c17.095,32.569,27.376,69.277,28.954,108.231C511.927,248.956,512,252.467,512,255.999z"/>
	<path style="fill:#427A2D;" d="M83.268,309.184H5.538C1.912,292.027,0,274.232,0,255.999c0-3.532,0.073-7.043,0.219-10.543
		c1.578-38.954,11.86-75.661,28.954-108.231l37.825,37.815c6.06,6.071,1.766,16.436-6.813,16.436h-1.64
		c-8.579,0-12.873,10.376-6.813,16.447l22.695,22.695c1.964,1.964,2.842,4.378,2.842,6.74c0,4.953-3.845,9.697-9.644,9.697
		c-8.579,0-12.873,10.365-6.813,16.436l29.257,29.257C96.141,298.819,91.847,309.184,83.268,309.184z"/>
</g>
<path style="fill:#4C8E37;" d="M489.556,360.959c-12.184,27.094-28.965,51.681-49.34,72.777H71.784
	c-5.904-6.102-11.504-12.507-16.771-19.174v-28.891h-19.79c-4.692-7.973-8.965-16.217-12.779-24.712l20.982-20.992
	c1.964-1.964,2.842-4.368,2.842-6.729c0-4.953-3.845-9.707-9.655-9.707c-8.579,0-12.873-10.376-6.802-16.436l22.695-22.695
	c6.06-6.071,1.766-16.436-6.813-16.436h-1.64c-8.579,0-12.873-10.376-6.813-16.436l54.439-54.439c3.762-3.762,9.853-3.762,13.615,0
	l54.439,54.439c6.071,6.06,1.766,16.436-6.813,16.436h-1.641c-8.579,0-12.873,10.365-6.802,16.436l22.695,22.695
	c1.954,1.954,2.832,4.368,2.832,6.729c0,4.953-3.835,9.707-9.644,9.707c-8.579,0-12.873,10.376-6.813,16.436l23.301,23.301
	l23.301-23.301c6.071-6.06,1.776-16.436-6.802-16.436s-12.873-10.376-6.813-16.436l22.695-22.695
	c6.071-6.071,1.766-16.436-6.813-16.436h-1.64c-8.579,0-12.873-10.376-6.802-16.436l54.429-54.439c3.762-3.762,9.864-3.762,13.625,0
	l54.429,54.439c6.071,6.06,1.776,16.436-6.802,16.436h-1.64c-8.579,0-12.884,10.365-6.813,16.436l22.695,22.695
	c1.954,1.954,2.832,4.368,2.832,6.729c0,4.953-3.835,9.707-9.644,9.707c-8.579,0-12.873,10.376-6.802,16.436l24.085,24.085
	l24.085-24.085c1.954-1.954,2.832-4.368,2.832-6.729c0-4.953-3.835-9.707-9.644-9.707c-8.579,0-12.873-10.376-6.813-16.436
	l22.695-22.695c6.071-6.071,1.776-16.436-6.802-16.436h-1.641c-8.579,0-12.884-10.376-6.813-16.436l54.439-54.439
	c3.762-3.762,9.853-3.762,13.615,0l54.439,54.439c6.06,6.06,1.766,16.436-6.813,16.436h-1.641c-8.579,0-12.873,10.365-6.813,16.436
	l22.695,22.695c1.964,1.964,2.842,4.378,2.842,6.74c0,4.953-3.845,9.697-9.644,9.697c-8.579,0-12.884,10.376-6.813,16.436
	L489.556,360.959z"/>
<path style="fill:#69AF54;" d="M512,255.999c0,74.041-31.431,140.737-81.69,187.476c-9.07,8.432-18.745,16.227-28.965,23.28
	c-41.284,28.536-91.366,45.244-145.345,45.244s-104.061-16.708-145.345-45.244c-10.219-7.053-19.895-14.848-28.965-23.28
	C31.431,396.736,0,330.04,0,255.999c0-3.532,0.073-7.043,0.219-10.543l12.319-12.319c3.751-3.762,9.853-3.762,13.615,0
	l54.429,54.439c6.071,6.06,1.776,16.436-6.802,16.436h-1.64c-8.579,0-12.873,10.365-6.813,16.436l22.695,22.695
	c1.964,1.964,2.842,4.368,2.842,6.729c0,4.953-3.845,9.707-9.655,9.707c-8.579,0-12.873,10.376-6.802,16.436l24.085,24.085
	l24.085-24.085c1.954-1.954,2.832-4.368,2.832-6.729c0-4.953-3.835-9.707-9.644-9.707c-8.579,0-12.873-10.376-6.813-16.436
	l22.695-22.695c6.071-6.071,1.776-16.436-6.802-16.436h-1.64c-8.579,0-12.873-10.376-6.813-16.436l54.439-54.439
	c3.762-3.762,9.853-3.762,13.615,0l54.439,54.439c6.06,6.06,1.766,16.436-6.813,16.436h-1.641c-8.579,0-12.873,10.365-6.813,16.436
	l22.695,22.695c1.964,1.964,2.842,4.378,2.842,6.74c0,4.953-3.845,9.697-9.644,9.697c-8.579,0-12.884,10.376-6.813,16.436
	L256,399.317l23.301-23.301c1.964-1.964,2.842-4.368,2.842-6.729c0-4.953-3.845-9.707-9.655-9.707
	c-8.579,0-12.873-10.376-6.802-16.436l22.695-22.695c6.06-6.071,1.766-16.436-6.813-16.436h-1.641
	c-8.579,0-12.873-10.376-6.813-16.436l54.439-54.439c3.762-3.762,9.853-3.762,13.615,0l54.439,54.439
	c6.06,6.06,1.766,16.436-6.813,16.436h-1.64c-8.579,0-12.873,10.365-6.802,16.436l22.695,22.695
	c1.954,1.954,2.832,4.368,2.832,6.729c0,4.953-3.835,9.707-9.644,9.707c-8.579,0-12.873,10.376-6.813,16.436l24.085,24.085
	l24.085-24.085c1.964-1.964,2.842-4.378,2.842-6.74c0-4.953-3.845-9.697-9.644-9.697c-8.579,0-12.884-10.376-6.813-16.436
	l22.695-22.695c6.06-6.071,1.766-16.436-6.813-16.436h-1.641c-8.579,0-12.873-10.376-6.802-16.436l54.429-54.439
	c3.762-3.762,9.864-3.762,13.615,0l12.319,12.319C511.927,248.956,512,252.467,512,255.999z"/>
<path style="fill:#BC5410;" d="M379.291,480.401c-36.561,20.146-78.587,31.598-123.288,31.598s-86.727-11.452-123.288-31.598
	l5.59-42.674c0.01-0.115,0.031-0.24,0.042-0.355c2.435-18.213,9.226-35.568,19.446-50.824l8.296-12.392l9.394-14.012l7.126-10.627
	l4.796-7.158c7.847-11.724,17.805-20.762,29.027-25.924c0.073-0.031,0.136-0.063,0.209-0.094c12.727-5.851,26.06-8.767,39.351-8.767
	h0.01c13.322,0,26.614,2.915,39.361,8.767c0.084,0.031,0.167,0.073,0.23,0.104c11.222,5.172,21.17,14.211,29.017,25.924l4.775,7.126
	l7.272,10.867l9.247,13.793l8.307,12.403c10.23,15.255,17.021,32.622,19.456,50.834c0.01,0.104,0.021,0.219,0.042,0.334
	L379.291,480.401z"/>
<path style="fill:#A3460A;" d="M255.993,307.575c-8.997,0-18.035,2.915-26.655,8.767c-0.042,0.031-0.094,0.063-0.136,0.094
	c-7.607,5.162-14.346,14.2-19.665,25.924l-3.25,7.158l-4.827,10.627l-6.363,14.012l-5.622,12.392
	c-6.917,15.256-11.525,32.611-13.166,50.824c-0.01,0.115-0.021,0.24-0.031,0.355l-5.308,59.81
	c-13.291-4.681-26.081-10.428-38.254-17.136l5.59-42.674c0.01-0.115,0.031-0.24,0.042-0.355
	c2.435-18.213,9.226-35.568,19.446-50.824l8.296-12.392l9.394-14.012l7.126-10.627l4.796-7.158
	c7.847-11.724,17.805-20.762,29.027-25.924c0.073-0.031,0.136-0.063,0.209-0.094C229.369,310.49,242.702,307.575,255.993,307.575z"
	/>
<path style="fill:#EDA54C;" d="M331.134,432.369l-14.562-14.562c-3.934-3.934-10.603-2.586-12.688,2.57
	c-5.774,14.273-17.095,39.891-31.776,61.518c-3.373,4.979-6.928,9.743-10.636,14.109c-3.291,3.876-9.302,3.908-12.594,0.032
	c-19.834-23.346-35.337-58.092-42.444-75.659c-2.087-5.158-8.754-6.506-12.689-2.571l-14.563,14.563
	c-4.029,4.029-10.852,2.895-13.325-2.238c-23.226-48.214,0.205-92.726,9.44-107.248c2.038-3.208,3.385-4.953,3.385-4.953h152.952
	c0,0,41.145,53.302,12.856,112.135C342.01,435.229,335.184,436.419,331.134,432.369z"/>
<path style="fill:#DB8F40;" d="M178.683,317.931l0.206,6.681l-3.591-1.728c-9.236,14.522-32.666,59.035-9.44,107.248
	c2.472,5.133,9.296,6.266,13.325,2.238l14.563-14.563c3.934-3.934,10.603-2.586,12.689,2.571
	c7.105,17.567,22.61,52.313,42.444,75.659c3.292,3.876,9.302,3.843,12.594-0.032c3.708-4.367,7.263-9.129,10.636-14.109
	l-10.838-23.152c-2.052-4.384-8.295-4.337-10.288,0.059c-1.495,3.298-6.019,3.634-7.897,0.538
	c-14.475-23.847-23.211-55.425-26.869-70.707c-0.632-2.642,2.605-4.443,4.525-2.522l11.793,11.793
	c1.772,1.772,4.793,0.375,4.588-2.123l-1.789-21.891c-0.363-4.44,5.703-6.063,7.616-2.04c5.812,12.221,11.443,20.693,14.884,25.368
	c1.583,2.15,4.825,2.035,6.25-0.223l20.465-32.462c2.023-3.209,6.983-1.775,6.983,2.018v3.596c0,5.429,6.89,7.751,10.176,3.429
	c11.315-14.885,25.35-35.793,25.35-35.793L178.683,317.931z"/>
<g>
	<path style="fill:#EDA54C;" d="M176.57,380.579c0.669,3.475,1.819,7.967,3.798,13.093c1.39,3.6,6.736,2.678,6.886-1.179
		l0.753-19.454c0.133-3.438-3.653-5.606-6.55-3.751l0,0C177.679,371.707,175.722,376.175,176.57,380.579z"/>
	<path style="fill:#EDA54C;" d="M360.579,329.894l-25.025,10.668l-66.675,28.432c-4.044,1.724-8.213,2.612-12.403,2.664
		c-0.313,0.01-0.627,0.01-0.94,0c-4.19-0.052-8.38-0.94-12.403-2.664l-66.675-28.421l-25.025-10.668
		c-17.105-7.293-27.523-29.936-24.472-53.164l3.135-23.918l8.213-62.736c0.01-0.115,0.031-0.24,0.042-0.355
		c2.435-18.213,9.226-35.568,19.446-50.824l8.296-12.392l9.394-14.012l7.126-10.627l4.796-7.158
		c7.847-11.724,17.805-20.762,29.027-25.924c0.073-0.031,0.136-0.063,0.209-0.094c12.727-5.851,26.06-8.767,39.351-8.767h0.01
		c13.322,0,26.614,2.915,39.361,8.767c0.084,0.031,0.167,0.073,0.23,0.104c11.222,5.172,21.17,14.211,29.017,25.924l4.775,7.126
		l7.272,10.867l9.247,13.793l8.307,12.403c10.23,15.256,17.021,32.622,19.456,50.834c0.01,0.104,0.021,0.219,0.042,0.334
		l8.202,62.736l3.135,23.918C388.091,299.968,377.673,322.611,360.579,329.894z"/>
</g>
<path style="fill:#DB8F40;" d="M246.727,368.994c2.894,1.724,5.914,2.612,8.944,2.664h-0.136c-4.19-0.052-8.38-0.94-12.403-2.664
	l-66.675-28.421l-25.025-10.668c-17.105-7.293-27.523-29.936-24.472-53.164l3.135-23.918l8.213-62.736
	c0.01-0.115,0.031-0.24,0.042-0.355c2.435-18.213,9.226-35.568,19.446-50.824l8.296-12.392l9.394-14.012l7.126-10.627l4.796-7.158
	c7.847-11.724,17.805-20.762,29.027-25.924c0.073-0.031,0.136-0.063,0.209-0.094c12.727-5.851,26.06-8.767,39.351-8.767
	c-9.582,0-19.184,2.915-28.359,8.767c-0.052,0.031-0.104,0.063-0.157,0.094c-8.088,5.162-15.266,14.2-20.919,25.924l-3.459,7.158
	l-5.141,10.627l-6.76,14.012l-5.987,12.392c-7.367,15.256-12.257,32.611-14.012,50.824c-0.01,0.115-0.021,0.24-0.031,0.355
	l-5.925,62.736l-2.257,23.918c-2.194,23.228,5.308,45.871,17.638,53.164l18.045,10.668L246.727,368.994z"/>
<circle style="fill:#A3460A;" cx="256" cy="324.66" r="32.048"/>
<g>
	
		<line style="fill:none;stroke:#0F0F0E;stroke-width:13;stroke-linejoin:round;stroke-miterlimit:10;" x1="123.402" y1="119.066" x2="123.402" y2="119.045"/>
	
		<line style="fill:none;stroke:#0F0F0E;stroke-width:13;stroke-linejoin:round;stroke-miterlimit:10;" x1="383.582" y1="119.066" x2="383.582" y2="119.045"/>
</g>
<path style="fill:#EDA54C;" d="M443.022,66.55c0,0,12.914,110.134-83.736,125.427l-0.007-0.014
	c-0.123-0.796-16.478-42.439,11.735-71.53c15.149-15.618,50.62-35.511,70.718-53.956C442.155,66.498,442.574,66.531,443.022,66.55z"
	/>
<path style="fill:#91420E;" d="M407.155,87.973c0,0,13.325,17.542-7.608,52.475c-20.934,34.934-46.71,34.748-46.71,34.748
	l-13.468-41.208"/>
<path style="fill:#DB8F40;" d="M68.978,66.55c0,0-12.914,110.134,83.736,125.427l0.007-0.014
	c0.123-0.796,16.478-42.439-11.735-71.53c-15.149-15.618-50.62-35.512-70.717-53.957C69.846,66.498,69.426,66.531,68.978,66.55z"/>
<path style="fill:#91420E;" d="M104.846,87.973c0,0-13.325,17.542,7.608,52.475s46.71,34.748,46.71,34.748l13.468-41.208"/>
<path style="fill:#BC5410;" d="M441.736,66.475c-20.104,18.442-45.056,41.775-60.207,57.386
	c-17.847,18.401-22.068,40.448-22.727,54.377c-0.136,2.811-3.971,3.521-5.099,0.94c-0.031-0.084-0.063-0.157-0.094-0.23
	c-9.3-21.41-39.654-22.1-49.56-0.972c-16.112,34.346-0.731,59.235-3.584,102.525c-0.24,3.689-0.616,7.502-1.149,11.473
	c-9.979,73.624-43.311,45.923-43.311,45.923s-4.117,3.427-9.895,4.671c-10.658,2.278-26.958-2.853-33.426-50.594
	c-0.533-3.971-0.909-7.795-1.149-11.483c-2.853-43.28,12.507-68.169-3.584-102.504c-3.532-7.534-9.665-12.288-16.509-14.326
	c-0.01,0-0.021,0-0.021,0c-4.995-1.484-10.376-1.526-15.402-0.125c-7.419,2.048-14.075,7.21-17.638,15.412
	c-0.031,0.073-0.063,0.146-0.094,0.23c-1.118,2.581-4.953,1.87-5.089-0.94c-0.658-13.918-4.88-35.976-22.727-54.376
	C115.32,108.25,90.368,84.918,70.264,66.475c50.134-2.529,78.608,12.685,94.417,27.961c2.33,2.247,4.357,4.712,6.071,7.335
	c1.411,2.163,3.699,3.25,5.987,3.25c2.236,0,4.462-1.045,5.872-3.145l4.796-7.158c7.847-11.724,17.805-20.762,29.027-25.924
	c0.073-0.031,0.136-0.063,0.209-0.094c12.727-5.851,26.06-8.767,39.351-8.767h0.01c13.322,0,26.614,2.915,39.361,8.767
	c0.084,0.031,0.167,0.073,0.23,0.104c11.222,5.172,21.17,14.211,29.017,25.924l4.775,7.126c2.842,4.253,9.07,4.18,11.86-0.094
	c1.724-2.623,3.751-5.089,6.071-7.325C363.128,79.16,391.602,63.947,441.736,66.475z"/>
<path style="fill:#A3460A;" d="M246.11,347.793c-10.658,2.278-26.958-8.077-33.426-55.818c-0.533-3.971-0.909-7.795-1.149-11.483
	c-2.853-43.28,12.507-68.169-3.584-102.504c-3.532-7.534-9.665-12.288-16.509-14.326c1.16,0.084,45.15,3.49,45.15,45.16
	c0,42.235-19.948,80.196-7.409,115.837C232.327,333.614,247.124,342.277,246.11,347.793z"/>
<path style="fill:#0F0F0E;" d="M291.248,306.166c0,12.774-15.78,30.473-35.245,30.473s-35.245-17.7-35.245-30.473
	c0-12.774,15.78-15.786,35.245-15.786S291.248,293.392,291.248,306.166z"/>
<g>
	<path style="fill:#DB8F40;" d="M328.626,287.631c-13.828,0-25.078-11.249-25.078-25.078c0-11.319,7.628-21.275,18.55-24.213
		c2.138-0.574,4.332-0.864,6.527-0.864c13.828,0,25.078,11.249,25.078,25.078c0,2.194-0.29,4.389-0.864,6.523
		C349.902,280.003,339.945,287.631,328.626,287.631z"/>
	<path style="fill:#DB8F40;" d="M183.382,287.631c-13.828,0-25.078-11.249-25.078-25.078c0-11.319,7.628-21.275,18.55-24.213
		c2.138-0.574,4.332-0.864,6.527-0.864c13.828,0,25.078,11.249,25.078,25.078c0,2.194-0.29,4.389-0.864,6.523
		C204.657,280.003,194.701,287.631,183.382,287.631z"/>
</g>
<g>
	<path style="fill:#0F0F0E;" d="M342.209,257.329c0,1.223-0.167,2.414-0.47,3.542c-1.557,5.789-6.834,10.041-13.113,10.041
		c-7.502,0-13.584-6.081-13.584-13.584c0-6.28,4.253-11.557,10.041-13.113c1.128-0.303,2.32-0.47,3.542-0.47
		C336.128,243.745,342.209,249.827,342.209,257.329z"/>
	<circle style="fill:#0F0F0E;" cx="183.38" cy="257.327" r="13.584"/>
</g>
<g>
	<path style="fill:#E6E6E6;" d="M342.209,257.329c0,1.223-0.167,2.414-0.47,3.542c-1.599,0.742-3.396,1.16-5.277,1.16
		c-6.928,0-12.539-5.611-12.539-12.539c0-1.881,0.418-3.678,1.16-5.277c1.128-0.303,2.32-0.47,3.542-0.47
		C336.128,243.745,342.209,249.827,342.209,257.329z"/>
	<path style="fill:#E6E6E6;" d="M196.965,257.329c0,1.223-0.167,2.414-0.47,3.542c-1.599,0.742-3.396,1.16-5.277,1.16
		c-6.928,0-12.539-5.611-12.539-12.539c0-1.881,0.418-3.678,1.16-5.277c1.128-0.303,2.32-0.47,3.542-0.47
		C190.884,243.745,196.965,249.827,196.965,257.329z"/>
</g>
<circle style="fill:#807272;" cx="273.763" cy="304.87" r="9.404"/>
<path style="fill:#A3460A;" d="M255.995,59.934c-9.582,0-19.184,2.915-28.359,8.767c-0.052,0.031-0.104,0.063-0.157,0.094
	c-8.088,5.162-15.266,14.2-20.919,25.924l-3.459,7.158l-5.141,10.627l-6.76,14.012l-5.987,12.392
	c-3.73,7.722-6.823,15.987-9.195,24.628c-7.419,2.048-14.075,7.21-17.638,15.412c-0.032,0.075-0.065,0.15-0.097,0.225
	c-1.119,2.583-4.952,1.88-5.086-0.932c-0.659-13.924-4.879-35.977-22.727-54.38C115.32,108.25,90.368,84.918,70.264,66.475
	c50.134-2.529,78.608,12.685,94.417,27.961c2.33,2.247,4.357,4.712,6.071,7.335c1.411,2.163,3.699,3.25,5.987,3.25
	c2.236,0,4.462-1.045,5.872-3.145l4.796-7.158c7.847-11.724,17.805-20.762,29.027-25.924c0.073-0.031,0.136-0.063,0.209-0.094
	C229.371,62.85,242.704,59.934,255.995,59.934z"/>
<path style="fill:#E5B07B;" d="M212.913,50.6c-4.395-12.91-16.509-21.583-30.147-21.583h-60.186l-4.92-18.275
	c-1.725-6.409-8.319-10.204-14.727-8.479c-6.408,1.725-10.204,8.318-8.479,14.727l3.238,12.028H76.508
	c-3.569,0-6.681-2.414-7.568-5.87L65.45,9.552c-1.65-6.428-8.201-10.3-14.626-8.652c-6.428,1.65-10.302,8.199-8.651,14.626
	l3.489,13.594c3.616,14.088,16.3,23.928,30.846,23.928h36.78c0.025,0,0.049,0.003,0.074,0.003c0.016,0,0.031-0.003,0.047-0.003
	h69.356c3.346,0,6.318,2.128,7.397,5.296l12.144,35.671c1.701,5,6.372,8.147,11.374,8.147c1.284,0,2.59-0.208,3.873-0.645
	c6.282-2.139,9.641-8.965,7.502-15.248L212.913,50.6z"/>
<path style="fill:#F9C58E;" d="M461.177,0.901c-6.428-1.65-12.977,2.224-14.626,8.652l-3.49,13.594
	c-0.888,3.457-4,5.871-7.568,5.871h-21.183l3.238-12.028c1.725-6.408-2.071-13.002-8.479-14.727
	c-6.407-1.726-13.001,2.072-14.727,8.479l-4.92,18.275h-60.186c-13.638,0-25.753,8.674-30.148,21.583l-12.143,35.671
	c-2.139,6.282,1.22,13.109,7.503,15.247c1.284,0.437,2.59,0.645,3.873,0.645c5.002,0,9.673-3.148,11.375-8.147l12.143-35.671
	c1.077-3.167,4.051-5.296,7.397-5.296h69.355c0.016,0,0.031,0.003,0.047,0.003c0.025,0,0.049-0.003,0.074-0.003h36.781
	c14.545,0,27.23-9.84,30.846-23.928l3.49-13.594C471.478,9.1,467.605,2.551,461.177,0.901z"/>
<g>
</g>
<g>
</g>
<g>
</g>
<g>
</g>
<g>
</g>
<g>
</g>
<g>
</g>
<g>
</g>
<g>
</g>
<g>
</g>
<g>
</g>
<g>
</g>
<g>
</g>
<g>
</g>
<g>
</g>
</svg>
