<?xml version="1.0" encoding="iso-8859-1"?>
<!-- Generator: Adobe Illustrator 19.0.0, SVG Export Plug-In . SVG Version: 6.00 Build 0)  -->
<svg version="1.1" id="Capa_1" xmlns="http://www.w3.org/2000/svg" xmlns:xlink="http://www.w3.org/1999/xlink" x="0px" y="0px"
	 viewBox="0 0 512 512" style="enable-background:new 0 0 512 512;" xml:space="preserve">
<path style="fill:#63CBFF;" d="M512,256c0,2.508-0.031,4.995-0.104,7.481c-0.596,20.532-3.605,40.458-8.756,59.507
	c-6.834,25.297-17.46,49.048-31.222,70.593C426.454,464.792,346.739,512,256,512c-90.749,0-170.475-47.219-215.928-118.439
	c-13.761-21.546-24.377-45.286-31.211-70.572C3.709,303.94,0.7,284.014,0.104,263.481C0.031,260.995,0,258.508,0,256
	c0-7.784,0.345-15.485,1.024-23.082c1.87-20.929,6.259-41.138,12.863-60.312C48.483,72.161,143.809,0,256,0
	s207.517,72.161,242.113,172.607c6.604,19.174,10.992,39.382,12.863,60.312C511.655,240.515,512,248.215,512,256z"/>
<path style="fill:#427A2D;" d="M512,256c0,2.508-0.031,4.995-0.104,7.481c-6.98,3.835-14.994,6.008-23.51,6.008
	c-15.768,0-29.78-7.461-38.724-19.048c-8.955,11.588-22.967,19.048-38.734,19.048c-15.768,0-29.79-7.461-38.734-19.048
	c-8.944,11.588-22.956,19.048-38.734,19.048c-15.768,0-29.78-7.461-38.724-19.048C285.78,262.029,271.767,269.49,256,269.49
	s-29.78-7.461-38.734-19.048c-8.944,11.588-22.956,19.048-38.724,19.048c-15.778,0-29.79-7.461-38.734-19.048
	c-8.944,11.588-22.967,19.048-38.734,19.048s-29.78-7.461-38.734-19.048c-8.944,11.588-22.956,19.048-38.724,19.048
	c-8.516,0-16.53-2.173-23.51-6.008C0.031,260.995,0,258.508,0,256c0-7.784,0.345-15.485,1.024-23.082
	c1.87-20.929,6.259-41.138,12.863-60.312c3.145-0.627,6.395-0.961,9.728-0.961c15.768,0,29.78,7.471,38.724,19.048
	c8.955-11.577,22.967-19.048,38.734-19.048s29.79,7.471,38.734,19.048c8.944-11.577,22.956-19.048,38.734-19.048
	c15.768,0,29.78,7.471,38.724,19.048c8.955-11.577,22.967-19.048,38.734-19.048s29.78,7.471,38.734,19.048
	c8.944-11.577,22.956-19.048,38.724-19.048c15.778,0,29.79,7.471,38.734,19.048c8.944-11.577,22.967-19.048,38.734-19.048
	c15.767,0,29.78,7.471,38.734,19.048c8.944-11.577,22.956-19.048,38.724-19.048c3.333,0,6.583,0.334,9.728,0.961
	c6.604,19.174,10.992,39.382,12.863,60.312C511.655,240.515,512,248.215,512,256z"/>
<path style="fill:#4C8E37;" d="M512,256c0,2.508-0.031,4.995-0.104,7.481c-0.596,20.532-3.605,40.458-8.756,59.507
	c-4.66,1.463-9.613,2.257-14.754,2.257c-15.768,0-29.78-7.471-38.724-19.048c-8.955,11.577-22.967,19.048-38.734,19.048
	c-15.768,0-29.79-7.471-38.734-19.048c-8.944,11.577-22.956,19.048-38.734,19.048c-15.768,0-29.78-7.471-38.724-19.048
	c-8.955,11.577-22.967,19.048-38.734,19.048s-29.78-7.471-38.734-19.048c-8.944,11.577-22.956,19.048-38.724,19.048
	c-15.778,0-29.79-7.471-38.734-19.048c-8.944,11.577-22.967,19.048-38.734,19.048s-29.78-7.471-38.734-19.048
	c-8.944,11.577-22.956,19.048-38.724,19.048c-5.141,0-10.094-0.794-14.754-2.257C3.709,303.94,0.7,284.014,0.104,263.481
	C0.031,260.995,0,258.508,0,256c0-7.784,0.345-15.485,1.024-23.082c6.76-3.521,14.44-5.517,22.591-5.517
	c15.768,0,29.78,7.461,38.724,19.048c8.955-11.588,22.967-19.048,38.734-19.048s29.79,7.461,38.734,19.048
	c8.944-11.588,22.956-19.048,38.734-19.048c15.768,0,29.78,7.461,38.724,19.048c8.955-11.588,22.967-19.048,38.734-19.048
	s29.78,7.461,38.734,19.048c8.944-11.588,22.956-19.048,38.724-19.048c15.778,0,29.79,7.461,38.734,19.048
	c8.944-11.588,22.967-19.048,38.734-19.048c15.767,0,29.78,7.461,38.734,19.048c8.944-11.588,22.956-19.048,38.724-19.048
	c8.15,0,15.83,1.996,22.591,5.517C511.655,240.515,512,248.215,512,256z"/>
<path style="fill:#69AF54;" d="M508.886,295.988C489.691,418.377,383.781,512,256,512S22.309,418.377,3.114,295.988H508.886z"/>
<path style="fill:#726565;" d="M473.109,370.719c0,7.722-0.408,15.35-1.191,22.862C426.454,464.792,346.739,512,256,512
	c-50.667,0-97.896-14.723-137.644-40.124c-31.441-20.083-58.211-46.853-78.284-78.315c-0.794-7.513-1.191-15.13-1.191-22.841
	C38.881,250.807,136.088,153.6,256,153.6c68.503,0,129.609,31.734,169.388,81.304C455.252,272.091,473.109,319.321,473.109,370.719z
	"/>
<path style="fill:#807272;" d="M473.109,370.719c0,7.722-0.408,15.35-1.191,22.862C426.454,464.792,346.739,512,256,512
	c-50.667,0-97.896-14.723-137.644-40.124c-0.303-15.768-0.449-34.785-0.449-39.508c0-119.913,97.207-217.119,217.119-217.119
	c0.323,0,0.645,0.001,0.966,0.002c61.261,0.268,115.018,41.88,130.282,101.209C470.736,333.803,473.109,351.984,473.109,370.719z"/>
<path style="fill:#998888;" d="M363.869,375.478l-52.307,39.231c-8.485,6.364-18.805,9.804-29.412,9.804h-52.304
	c-10.607,0-20.927-3.44-29.412-9.804l-52.307-39.231c-12.343-9.258-19.608-23.786-19.608-39.215V169.417
	c0-61.671,49.994-111.665,111.665-111.665h31.625c61.671,0,111.665,49.994,111.665,111.665v166.846
	C383.475,351.692,376.211,366.22,363.869,375.478z"/>
<g>
	<path style="fill:#8E7E7E;" d="M239.53,424.511h-9.686c-10.606,0-20.919-3.438-29.403-9.801l-52.308-39.236
		c-12.34-9.258-19.613-23.782-19.613-39.215V169.42c0-61.67,49.998-111.668,111.668-111.668h5.851
		c-38.828,0-70.311,49.998-70.311,111.668v166.839c0,15.433,4.577,29.957,12.351,39.215l32.935,39.236
		C226.354,421.073,232.853,424.511,239.53,424.511z"/>
	<circle style="fill:#8E7E7E;" cx="254.433" cy="321.066" r="51.2"/>
	<circle style="fill:#8E7E7E;" cx="254.433" cy="236.314" r="33.308"/>
</g>
<path style="fill:#CCCCCC;" d="M247.695,169.341l-14.77,60.395c-3.412,13.948,7.151,27.406,21.511,27.406l0,0
	c14.36,0,24.922-13.456,21.511-27.406l-14.77-60.395C259.452,162.286,249.42,162.286,247.695,169.341z"/>
<path style="fill:#B39F9F;" d="M254.254,257.143c-14.267-0.112-24.726-13.515-21.328-27.406l14.769-60.395
	c0.561-2.297,2-3.847,3.748-4.639l-6.447,82.349C244.573,252.464,248.829,257.103,254.254,257.143z"/>
<path style="fill:#E6E6E6;" d="M243.762,220.137l-23.386,95.63c-5.401,22.086,11.323,43.394,34.061,43.394l0,0
	c22.737,0,39.462-21.307,34.061-43.394l-23.386-95.63C262.379,208.966,246.493,208.966,243.762,220.137z"/>
<path style="fill:#CCCCCC;" d="M254.147,359.163c-22.591-0.178-39.152-21.4-33.771-43.395l23.385-95.629
	c0.888-3.636,3.166-6.092,5.935-7.346l-10.209,130.393C238.819,351.754,245.558,359.1,254.147,359.163z"/>
<g>
	<path style="fill:#8E7E7E;" d="M339.07,328.902c-13.828,0-25.078-11.249-25.078-25.078c0-11.319,7.628-21.275,18.55-24.213
		c2.138-0.574,4.332-0.864,6.527-0.864c13.828,0,25.078,11.249,25.078,25.078c0,2.194-0.29,4.389-0.864,6.523
		C360.346,321.275,350.389,328.902,339.07,328.902z"/>
	<path style="fill:#8E7E7E;" d="M172.926,328.902c-13.828,0-25.078-11.249-25.078-25.078c0-11.319,7.628-21.275,18.55-24.213
		c2.138-0.574,4.332-0.864,6.527-0.864c13.828,0,25.078,11.249,25.078,25.078c0,2.194-0.29,4.389-0.864,6.523
		C194.203,321.275,184.246,328.902,172.926,328.902z"/>
</g>
<g>
	<path style="fill:#0F0F0E;" d="M352.654,298.6c0,1.223-0.167,2.414-0.47,3.542c-1.557,5.789-6.834,10.041-13.113,10.041
		c-7.502,0-13.584-6.081-13.584-13.584c0-6.28,4.253-11.557,10.041-13.113c1.128-0.303,2.32-0.47,3.542-0.47
		C346.573,285.017,352.654,291.098,352.654,298.6z"/>
	<circle style="fill:#0F0F0E;" cx="172.931" cy="298.6" r="13.584"/>
</g>
<g>
	<path style="fill:#E6E6E6;" d="M352.654,298.6c0,1.223-0.167,2.414-0.47,3.542c-1.599,0.742-3.396,1.16-5.277,1.16
		c-6.928,0-12.539-5.611-12.539-12.539c0-1.881,0.418-3.678,1.16-5.277c1.128-0.303,2.32-0.47,3.542-0.47
		C346.573,285.017,352.654,291.098,352.654,298.6z"/>
	<path style="fill:#E6E6E6;" d="M186.51,298.6c0,1.223-0.167,2.414-0.47,3.542c-1.599,0.742-3.396,1.16-5.277,1.16
		c-6.928,0-12.539-5.611-12.539-12.539c0-1.881,0.418-3.678,1.16-5.277c1.128-0.303,2.32-0.47,3.542-0.47
		C180.429,285.017,186.51,291.098,186.51,298.6z"/>
</g>
<g>
	<ellipse style="fill:#8E7E7E;" cx="228.049" cy="378.535" rx="12.016" ry="5.224"/>
	<ellipse style="fill:#8E7E7E;" cx="283.951" cy="378.535" rx="12.016" ry="5.224"/>
</g>
<path style="fill:#998888;" d="M323.04,120.446c0,0,27.167-22.988,27.167-40.751c0-35.527,24.313-64.02,75.233-51.2
	c61.81,15.562,27.167,82.829-67.918,111.804"/>
<path style="fill:#726565;" d="M360.656,117.312c0,0,19.853-32.392,25.078-52.245s49.11-1.045,27.167,20.898
	C390.958,107.908,360.656,117.312,360.656,117.312z"/>
<path style="fill:#8E7E7E;" d="M179.015,110.812c-7.757-8.324-17.225-20.63-17.225-31.117c0-35.527-24.313-64.02-75.233-51.2
	c-61.81,15.562-27.167,82.829,67.918,111.804"/>
<path style="fill:#726565;" d="M151.341,117.312c0,0-19.853-32.392-25.078-52.245c-5.224-19.853-49.11-1.045-27.167,20.898
	S151.341,117.312,151.341,117.312z"/>
<g>
</g>
<g>
</g>
<g>
</g>
<g>
</g>
<g>
</g>
<g>
</g>
<g>
</g>
<g>
</g>
<g>
</g>
<g>
</g>
<g>
</g>
<g>
</g>
<g>
</g>
<g>
</g>
<g>
</g>
</svg>
