<?xml version="1.0" encoding="iso-8859-1"?>
<!-- Generator: Adobe Illustrator 19.0.0, SVG Export Plug-In . SVG Version: 6.00 Build 0)  -->
<svg version="1.1" id="Capa_1" xmlns="http://www.w3.org/2000/svg" xmlns:xlink="http://www.w3.org/1999/xlink" x="0px" y="0px"
	 viewBox="0 0 512 512" style="enable-background:new 0 0 512 512;" xml:space="preserve">
<path style="fill:#63CBFF;" d="M512,256c0,71.158-29.027,135.523-75.891,181.917c-38.766,38.39-89.725,64.46-146.547,71.899
	C278.58,511.258,267.379,512,256,512c-5.81,0-11.577-0.199-17.293-0.585c-5.371-0.355-10.689-0.878-15.956-1.557
	c-56.957-7.387-108.032-33.489-146.871-71.952C29.027,391.513,0,327.147,0,256C0,114.615,114.615,0,256,0S512,114.615,512,256z"/>
<path style="fill:#69AF54;" d="M508.876,295.988C489.681,418.377,383.77,512,255.99,512S22.298,418.377,3.103,295.988H508.876z"/>
<g>
	<path style="fill:#77BC62;" d="M148.376,353.98c0,6.635-5.381,12.016-12.016,12.016h-25.6c-3.323,0-6.322,1.348-8.495,3.521
		c-2.173,2.173-3.521,5.172-3.521,8.495c0,6.635-5.381,12.016-12.016,12.016h-48.87c-4.775-7.743-9.153-15.767-13.082-24.033h20.679
		c3.323,0,6.322-1.348,8.495-3.521c2.173-2.173,3.521-5.172,3.521-8.495c0-6.635-5.381-12.016-12.016-12.016h-8.359
		c-3.323,0-6.322-1.348-8.495-3.521c-2.173-2.173-3.521-5.172-3.521-8.495c0-6.635,5.381-12.016,12.016-12.016h66.873
		c6.635,0,12.016,5.381,12.016,12.016c0,6.635,5.381,12.016,12.016,12.016h8.359c3.323,0,6.322,1.348,8.495,3.521
		C147.028,347.658,148.376,350.657,148.376,353.98z"/>
	<path style="fill:#77BC62;" d="M448.958,345.831L448.958,345.831c0-6.636-5.38-12.016-12.016-12.016h-66.873
		c-6.636,0-12.016,5.38-12.016,12.016l0,0c0,6.636,5.38,12.016,12.016,12.016h8.359c6.636,0,12.016,5.38,12.016,12.016l0,0
		c0,6.636-5.38,12.016-12.016,12.016h-25.6c-6.636,0-12.016,5.38-12.016,12.016l0,0c0,6.636,5.38,12.016,12.016,12.016h66.873
		c6.636,0,12.016-5.38,12.016-12.016l0,0c0-6.636,5.38-12.016,12.016-12.016h25.6c6.636,0,12.016-5.38,12.016-12.016l0,0
		c0-6.636-5.38-12.016-12.016-12.016h-8.359C454.338,357.847,448.958,352.467,448.958,345.831z"/>
</g>
<path style="fill:#C46837;" d="M198.186,451.365c0,6.635-5.381,12.016-12.016,12.016h-25.6c-3.312,0-6.322,1.348-8.495,3.521
	s-3.521,5.172-3.521,8.495c0,4.347-2.309,8.161-5.778,10.261c-14.211-7.011-27.669-15.308-40.239-24.733
	c0.428-0.324,0.836-0.679,1.223-1.066c2.173-2.173,3.521-5.172,3.521-8.495c0-6.635-5.381-12.016-12.016-12.016h-8.359
	c-3.312,0-6.322-1.348-8.495-3.521c-2.173-2.173-3.521-5.172-3.521-8.495c0-6.635,5.381-12.016,12.016-12.016h66.873
	c6.635,0,12.016,5.381,12.016,12.016s5.381,12.016,12.016,12.016h8.359c3.312,0,6.322,1.348,8.495,3.521
	C196.838,445.043,198.186,448.042,198.186,451.365z"/>
<path style="fill:#726565;" d="M436.109,437.917C389.851,483.725,326.238,512,256,512c-36.874,0-71.931-7.795-103.612-21.828
	c-28.651-12.706-54.533-30.511-76.507-52.266C83.707,306.751,161.353,203.755,256,203.755c51.921,0,98.732,31.002,131.699,80.656
	C414.824,325.245,432.577,378.713,436.109,437.917z"/>
<path style="fill:#807272;" d="M436.109,437.917C389.851,483.725,326.238,512,256,512c-2.038,0-4.075-0.021-6.102-0.073
	c-16.656-0.387-32.914-2.372-48.63-5.799c-16.99-3.688-33.343-9.07-48.88-15.956c4.201-40.469,15.078-77.866,30.992-109.861
	c14.305-28.682,32.643-53.039,53.865-71.367c7.147-6.175,14.618-11.661,22.371-16.405c21.964-13.427,46.174-20.867,71.617-20.867
	c19.717,0,38.703,4.472,56.466,12.737c3.856,5.799,7.523,11.86,10.971,18.15C419.579,340.553,433.079,387.124,436.109,437.917z"/>
<g>
	<path style="fill:#726565;" d="M398.67,302.561c0,0-112.368,26.864-125.952,70.75c-9.101,29.414-12.11-35.056-13.103-80.771
		c21.964-13.427,46.174-20.867,71.617-20.867c19.717,0,38.703,4.472,56.466,12.737C391.555,290.21,395.222,296.27,398.67,302.561z"
		/>
	<path style="fill:#726565;" d="M282.122,470.486c0,0-14.702,20.334-32.225,41.441c-16.656-0.387-32.914-2.372-48.63-5.799
		c17.774-64.282,1.254-103.382-17.889-125.816c-16.53-19.383-35.004-26.331-35.004-26.331l-4.106-84.564l80.384-5.82l12.591,45.349
		L282.122,470.486z"/>
</g>
<ellipse transform="matrix(0.3042 -0.9526 0.9526 0.3042 -170.0473 406.7435)" style="fill:#E6E6E6;" cx="193.41" cy="319.776" rx="74.71" ry="22.465"/>
<path style="fill:#CCCCCC;" d="M170.669,390.95c-11.815-3.773-11.225-38.697,1.328-78.004s32.313-68.107,44.129-64.334
	c-4.121-1.316-17.631,29.481-30.184,68.788C173.389,356.707,166.548,389.633,170.669,390.95z"/>
<ellipse transform="matrix(-0.2395 -0.9709 0.9709 -0.2395 88.5538 708.9182)" style="fill:#E6E6E6;" cx="321.924" cy="319.777" rx="74.71" ry="22.465"/>
<path style="fill:#CCCCCC;" d="M339.815,392.316c-12.042,2.971-29.822-27.093-39.704-67.156
	c-9.882-40.062-8.123-74.946,3.918-77.916c-4.201,1.037,0.412,34.348,10.294,74.41C324.207,361.718,335.615,393.353,339.815,392.316
	z"/>
<g>
	<path style="fill:#8E7E7E;" d="M351.51,210.265c0,0,49.11,159.869,120.163,107.624s34.482-283.167-5.224-283.167
		c-73.143,0-127.478,78.367-127.478,78.367"/>
	<path style="fill:#8E7E7E;" d="M160.805,210.265c0,0-49.11,159.869-120.163,107.624S6.16,34.722,45.866,34.722
		c73.143,0,127.478,78.367,127.478,78.367"/>
</g>
<g>
	<path style="fill:#807272;" d="M407.914,132.984c0,0,11.494-51.2,36.571-51.2s37.616,40.751,31.347,87.771
		c-6.269,47.02-72.098,47.02-72.098,47.02"/>
	<path style="fill:#807272;" d="M104.4,132.984c0,0-11.494-51.2-36.571-51.2s-37.616,40.751-31.347,87.771
		s72.098,47.02,72.098,47.02"/>
</g>
<path style="fill:#998888;" d="M423.163,219.523c-0.878,4.733-1.891,9.456-3.041,14.19c-8.38,34.45-36.268,60.646-71.126,67.166
	c-1.275,0.24-2.539,0.47-3.814,0.7c-26.561,4.765-46.268,27.324-47.658,54.282l-7.962,153.955C278.58,511.258,267.379,512,256,512
	c-11.264,0-22.361-0.731-33.249-2.142l-7.962-153.997c-1.39-26.958-21.096-49.518-47.658-54.282c-1.275-0.23-2.539-0.46-3.814-0.7
	c-34.847-6.52-62.746-32.716-71.126-67.166c-1.149-4.733-2.163-9.456-3.041-14.19c-16.583-89.861,50.51-173.955,141.772-178.604
	c16.823-0.846,33.656-0.846,50.479,0.01C372.663,45.568,439.745,129.661,423.163,219.523z"/>
<g>
	<path style="fill:#807272;" d="M342.2,261.509c-13.828,0-25.078-11.249-25.078-25.078c0-11.319,7.628-21.275,18.55-24.213
		c2.138-0.574,4.332-0.864,6.527-0.864c13.828,0,25.078,11.249,25.078,25.078c0,2.194-0.29,4.389-0.864,6.523
		C363.475,253.881,353.518,261.509,342.2,261.509z"/>
	<path style="fill:#807272;" d="M176.056,261.509c-13.828,0-25.078-11.249-25.078-25.078c0-11.319,7.628-21.275,18.55-24.213
		c2.138-0.574,4.332-0.864,6.527-0.864c13.828,0,25.078,11.249,25.078,25.078c0,2.194-0.29,4.389-0.864,6.523
		C197.332,253.881,187.375,261.509,176.056,261.509z"/>
</g>
<g>
	<path style="fill:#0F0F0E;" d="M355.784,231.206c0,1.223-0.167,2.414-0.47,3.542c-1.557,5.789-6.834,10.041-13.113,10.041
		c-7.502,0-13.584-6.081-13.584-13.584c0-6.28,4.253-11.557,10.041-13.113c1.128-0.303,2.32-0.47,3.542-0.47
		C349.702,217.622,355.784,223.704,355.784,231.206z"/>
	<circle style="fill:#0F0F0E;" cx="176.055" cy="231.205" r="13.584"/>
</g>
<g>
	<path style="fill:#E6E6E6;" d="M355.784,231.206c0,1.223-0.167,2.414-0.47,3.542c-1.599,0.742-3.396,1.16-5.277,1.16
		c-6.928,0-12.539-5.611-12.539-12.539c0-1.881,0.418-3.678,1.16-5.277c1.128-0.303,2.32-0.47,3.542-0.47
		C349.702,217.622,355.784,223.704,355.784,231.206z"/>
	<path style="fill:#E6E6E6;" d="M189.64,231.206c0,1.223-0.167,2.414-0.47,3.542c-1.599,0.742-3.396,1.16-5.277,1.16
		c-6.928,0-12.539-5.611-12.539-12.539c0-1.881,0.418-3.678,1.16-5.277c1.128-0.303,2.32-0.47,3.542-0.47
		C183.558,217.622,189.64,223.704,189.64,231.206z"/>
</g>
<path style="fill:#8E7E7E;" d="M243.777,350.878l16.285-6.871c4.391-1.853,3.697-8.28-0.988-9.151l-24.27-4.517
	c-5.791-1.078-10.931-4.371-14.337-9.176c-7.092-10.006-16.989-17.138-28.403-19.583c-1.066-0.23-2.121-0.46-3.187-0.7
	c-29.184-6.52-52.537-32.716-59.559-67.166c-0.961-4.733-1.808-9.456-2.539-14.19c-13.887-89.861,42.287-173.955,118.7-178.604
	c5.433-0.324,10.877-0.533,16.311-0.596c-10.292-0.125-20.584,0.073-30.866,0.596c-91.261,4.65-158.354,88.743-141.772,178.604
	c0.878,4.733,1.891,9.456,3.041,14.19c8.38,34.45,36.279,60.646,71.126,67.166c1.275,0.24,2.539,0.47,3.814,0.7
	c26.561,4.765,46.268,27.324,47.658,54.282l7.962,153.997c5.266,0.679,10.585,1.202,15.956,1.557l-3.887-89.719
	c-0.415-9.569,5.406-18.308,14.396-21.613l0,0c3.69-1.356,4.278-6.327,1.008-8.509l-9.582-6.39
	c-3.224-2.149-2.708-7.035,0.893-8.465l12.077-4.793c4.174-1.657,3.997-7.626-0.27-9.031l-9.199-3.029
	C239.924,358.48,239.686,352.604,243.777,350.878z"/>
<g>
</g>
<g>
</g>
<g>
</g>
<g>
</g>
<g>
</g>
<g>
</g>
<g>
</g>
<g>
</g>
<g>
</g>
<g>
</g>
<g>
</g>
<g>
</g>
<g>
</g>
<g>
</g>
<g>
</g>
</svg>
