<?xml version="1.0" encoding="iso-8859-1"?>
<!-- Generator: Adobe Illustrator 19.0.0, SVG Export Plug-In . SVG Version: 6.00 Build 0)  -->
<svg version="1.1" id="Capa_1" xmlns="http://www.w3.org/2000/svg" xmlns:xlink="http://www.w3.org/1999/xlink" x="0px" y="0px"
	 viewBox="0 0 512 512" style="enable-background:new 0 0 512 512;" xml:space="preserve">
<path style="fill:#63CBFF;" d="M511.999,255.999c0,73.749-31.18,140.204-81.084,186.911c-20.072,18.798-43.165,34.388-68.472,45.975
	c-32.412,14.848-68.461,23.113-106.444,23.113c-141.385,0-255.999-114.615-255.999-255.999c0-10.815,0.669-21.473,1.975-31.932
	c0.784-6.28,1.787-12.486,3.02-18.61c1.076-5.381,2.32-10.7,3.73-15.956c1.996-7.429,4.315-14.733,6.949-21.88
	C51.66,69.778,145.68,0,256,0c8.798,0,17.502,0.449,26.081,1.317c32.705,3.302,63.592,12.769,91.491,27.22
	c59.204,30.668,104.918,83.78,125.868,148.072c2.623,8.025,4.859,16.227,6.677,24.586
	C509.972,218.853,511.999,237.191,511.999,255.999z"/>
<path style="fill:#4C8E37;" d="M131.313,188.363c0,14.43-32.204,26.122-71.931,26.122c-5.747,0-11.337-0.251-16.697-0.711
	c-14.89-1.285-27.982-4.253-37.689-8.317c1.076-5.381,2.32-10.7,3.73-15.956c1.996-7.429,4.315-14.733,6.949-21.88
	c12.11-3.375,27.261-5.381,43.708-5.381C99.11,162.241,131.313,173.933,131.313,188.363z"/>
<path style="fill:#3D752A;" d="M42.686,213.775c-14.89-1.285-27.982-4.253-37.689-8.317c1.076-5.381,2.32-10.7,3.73-15.956
	c1.996-7.429,4.315-14.733,6.949-21.88c12.11-3.375,27.261-5.381,43.708-5.381c0,0-50.5,20.375-18.63,49.633
	C41.462,212.521,42.11,213.159,42.686,213.775z"/>
<path style="fill:#F2BC24;" d="M282.081,1.317c9.759,21.974,31.786,37.292,57.375,37.292c12.581,0,24.294-3.699,34.116-10.073
	C345.673,14.085,314.786,4.618,282.081,1.317z"/>
<g>
	<path style="fill:#BC5410;" d="M461.496,221.452c0,0,18.111,8.359,18.111,29.257s-17.415,14.629-11.842,52.942h21.595
		c0,0-18.111-13.932-6.269-32.74c11.842-18.808-5.903-42.019-5.903-42.019"/>
	<path style="fill:#BC5410;" d="M499.937,224.941c0,0,3.38,7.08-14.228,24.689l-4.011-3.275c0,0,13.525-11.647,15.122-20.801"/>
</g>
<path style="fill:#4C8E37;" d="M510.025,224.067c-8.913,3.009-20.365,4.827-32.841,4.827c-0.69,0-1.379-0.01-2.058-0.021
	c-0.104,0-0.209,0-0.313-0.01c-27.408-0.502-49.235-9.759-49.235-21.117c0-11.671,23.103-21.138,51.607-21.138
	c9.519,0,18.442,1.055,26.091,2.894C506.294,200.735,508.562,212.281,510.025,224.067z"/>
<g>
	<path style="fill:#BC5410;" d="M44.706,201.347c0,0,22.542,10.404,22.542,36.413s-21.674,18.206-14.738,65.89h26.876
		c0,0-22.542-17.339-7.803-40.748s-7.347-52.297-7.347-52.297"/>
	<path style="fill:#BC5410;" d="M64.262,258.894c0,0-0.522-21.943-13.584-27.69c-13.061-5.747-16.718-13.061-16.718-22.988
		l6.792,3.657c0,0,2.612,12.016,12.016,12.016s19.853,17.241,19.853,17.241"/>
</g>
<path style="fill:#DB7F45;" d="M508.875,295.988c-7.805,49.737-29.926,94.73-62.025,130.612
	c-15.997,17.899-34.482,33.531-54.909,46.352c-39.393,24.743-85.995,39.048-135.951,39.048c-40.646,0-79.078-9.467-113.214-26.342
	c-14.211-7.011-27.669-15.308-40.239-24.733c-25.757-19.32-47.752-43.384-64.679-70.896c-4.775-7.743-9.153-15.767-13.082-24.033
	C14.378,344.178,6.98,320.668,3.104,295.988H508.875z"/>
<g>
	<path style="fill:#C46837;" d="M148.376,353.979c0,6.635-5.381,12.016-12.016,12.016h-25.6c-3.323,0-6.322,1.348-8.495,3.521
		c-2.173,2.173-3.521,5.172-3.521,8.495c0,6.635-5.381,12.016-12.016,12.016h-48.87c-4.775-7.743-9.153-15.767-13.082-24.033h20.678
		c3.323,0,6.322-1.348,8.495-3.521s3.521-5.172,3.521-8.495c0-6.635-5.381-12.016-12.016-12.016h-8.359
		c-3.323,0-6.322-1.348-8.495-3.521c-2.173-2.173-3.521-5.172-3.521-8.495c0-6.635,5.381-12.016,12.016-12.016h66.873
		c6.635,0,12.016,5.381,12.016,12.016c0,6.635,5.381,12.016,12.016,12.016h8.359c3.323,0,6.322,1.348,8.495,3.521
		C147.028,347.658,148.376,350.657,148.376,353.979z"/>
	<path style="fill:#C46837;" d="M448.959,345.83L448.959,345.83c0-6.636-5.38-12.016-12.016-12.016h-66.873
		c-6.636,0-12.016,5.38-12.016,12.016l0,0c0,6.636,5.38,12.016,12.016,12.016h8.359c6.636,0,12.016,5.38,12.016,12.016l0,0
		c0,6.636-5.38,12.016-12.016,12.016h-25.6c-6.636,0-12.016,5.38-12.016,12.016l0,0c0,6.636,5.38,12.016,12.016,12.016h66.873
		c6.636,0,12.016-5.38,12.016-12.016l0,0c0-6.636,5.38-12.016,12.016-12.016h25.6c6.636,0,12.016-5.38,12.016-12.016l0,0
		c0-6.636-5.38-12.016-12.016-12.016h-8.359C454.338,357.846,448.959,352.466,448.959,345.83z"/>
	<path style="fill:#C46837;" d="M198.186,451.364c0,6.635-5.381,12.016-12.016,12.016h-25.6c-3.312,0-6.322,1.348-8.495,3.521
		s-3.521,5.172-3.521,8.495c0,4.347-2.309,8.161-5.778,10.261c-14.211-7.011-27.669-15.308-40.239-24.733
		c0.428-0.324,0.836-0.679,1.223-1.066c2.173-2.173,3.521-5.172,3.521-8.495c0-6.635-5.381-12.016-12.016-12.016h-8.359
		c-3.312,0-6.322-1.348-8.495-3.521c-2.173-2.173-3.521-5.172-3.521-8.495c0-6.635,5.381-12.016,12.016-12.016h66.873
		c6.635,0,12.016,5.381,12.016,12.016s5.381,12.016,12.016,12.016h8.359c3.312,0,6.322,1.348,8.495,3.521
		C196.838,445.042,198.186,448.041,198.186,451.364z"/>
	<path style="fill:#C46837;" d="M446.85,426.6c-15.997,17.899-34.482,33.531-54.909,46.352c-3.511-2.09-5.851-5.925-5.851-10.303
		c0-3.323,1.348-6.322,3.521-8.495c2.173-2.173,5.172-3.521,8.495-3.521h8.359c6.635,0,12.016-5.381,12.016-12.016
		c0-6.635,5.381-12.016,12.016-12.016L446.85,426.6L446.85,426.6z"/>
</g>
<path style="fill:#3D3636;" d="M460.528,270.116c0,70.259-13.322,128.209-29.612,172.794
	c-20.072,18.798-43.165,34.388-68.472,45.975c5.224-9.028,10.93-19.853,16.603-32.371c17.638-38.912,38.672-102.839,38.672-186.399
	c0-11.818,9.582-21.399,21.399-21.399C450.946,248.717,460.528,258.298,460.528,270.116z"/>
<path style="fill:#4D4445;" d="M410.432,460.184C367.508,492.711,314.009,512,255.997,512s-111.522-19.299-154.446-51.827
	l0.157-0.94l4.618-28.578l0.606-3.741l3.762-23.364c0.846-5.214,1.923-10.334,3.239-15.37c0.094-0.376,0.188-0.742,0.293-1.118
	c1.724-6.426,3.814-12.695,6.269-18.766c16.091-39.978,47.344-71.638,86.894-86.329c15.736-5.851,32.162-8.777,48.598-8.777
	s32.872,2.926,48.609,8.777h0.01c39.549,14.691,70.802,46.352,86.883,86.329c2.456,6.071,4.545,12.34,6.269,18.766
	c0.105,0.376,0.199,0.742,0.293,1.118c1.317,5.036,2.393,10.156,3.239,15.37l3.762,23.364l0.606,3.741l4.618,28.578L410.432,460.184
	z"/>
<g>
	<path style="fill:#3D3636;" d="M255.986,273.189c-12.267,0-24.534,2.926-36.268,8.777c-34.011,16.927-59.799,56.362-69.538,105.096
		c-1.087,5.392-1.964,10.888-2.633,16.488l-3.26,27.105l-5.601,46.383l-0.742,6.175c-12.8-6.666-24.963-14.378-36.383-23.04
		l4.765-29.518l4.368-27.105c0.909-5.601,2.079-11.097,3.532-16.488c13.051-48.734,47.605-88.168,93.163-105.096
		C223.124,276.115,239.55,273.189,255.986,273.189z"/>
	<path style="fill:#3D3636;" d="M237.889,330.817c0,0-11.146,37.616-22.988,37.616s-3.483-32.74-16.021-32.74
		c-12.539,0-43.734,15.497-48.699,51.368c-4.964,35.871-9.815-31.166-9.815-31.166l50.851-65.48"/>
</g>
<circle style="fill:#4D4445;" cx="372.966" cy="87.541" r="53.823"/>
<circle style="fill:#3D3636;" cx="377.814" cy="100.059" r="30.75"/>
<circle style="fill:#4D4445;" cx="139.013" cy="87.541" r="53.823"/>
<circle style="fill:#3D3636;" cx="134.176" cy="100.059" r="30.75"/>
<path style="fill:#665B5B;" d="M394.303,292.332c-5.336,6.687-12.239,11.901-20.29,14.848l-103.026,37.773
	c-9.747,3.563-20.244,3.563-29.981,0L137.972,307.18c-8.051-2.947-14.953-8.161-20.29-14.848
	c-9.311-11.661-13.851-27.815-11.35-44.241l1.344-8.85l7.069-46.383l4.123-27.105c0.853-5.601,1.964-11.097,3.335-16.488
	c12.313-48.734,44.925-88.168,87.924-105.096c14.843-5.851,30.352-8.777,45.862-8.777c15.509,0,31.019,2.926,45.871,8.777h0.009
	c42.999,16.927,75.601,56.362,87.914,105.096c1.371,5.392,2.483,10.888,3.335,16.488l4.123,27.105l7.069,46.383l1.344,8.85
	C408.155,264.516,403.624,280.66,394.303,292.332z"/>
<path style="fill:#4D4445;" d="M244.981,344.952c3.354,1.672,6.828,2.56,10.321,2.664c-4.837-0.073-9.654-0.961-14.296-2.664
	L137.971,307.18c-8.051-2.947-14.953-8.161-20.29-14.848c-9.311-11.661-13.851-27.815-11.35-44.241l1.344-8.85l7.069-46.383
	l4.123-27.105c0.853-5.601,1.964-11.097,3.335-16.488c12.313-48.734,44.925-88.168,87.924-105.096
	c14.843-5.851,30.352-8.777,45.862-8.777c-11.396,0-22.782,2.926-33.687,8.777c-31.593,16.927-55.552,56.362-64.594,105.096
	c-1.01,5.392-1.825,10.888-2.446,16.488l-3.029,27.105l-5.197,46.383l-0.982,8.85c-1.843,16.426,1.492,32.58,8.338,44.241
	c3.919,6.687,8.987,11.901,14.898,14.848L244.981,344.952z"/>
<path style="fill:#3D3636;" d="M212.886,301.627c0-15.624,19.3-87.212,43.108-87.212s43.108,71.589,43.108,87.212
	c0,15.623-19.3,19.308-43.108,19.308S212.886,317.25,212.886,301.627z"/>
<g>
	<path style="fill:#4D4445;" d="M212.886,262.966c0-15.624,19.3-87.212,43.108-87.212s43.108,71.589,43.108,87.212
		s-19.3,19.308-43.108,19.308C232.186,282.273,212.886,278.589,212.886,262.966z"/>
	<path style="fill:#4D4445;" d="M337.199,283.657c0,23.782-19.278,43.06-43.06,43.06c-16.572,0-30.939-9.362-38.139-23.082
		c-7.199,13.72-21.577,23.082-38.149,23.082c-3.02,0-5.966-0.313-8.819-0.909c-19.55-4.065-34.241-21.389-34.241-42.151
		c0-23.782,19.278-43.06,43.06-43.06c2.267,0,4.493,0.178,6.666,0.522c13.709,2.121,25.266,10.721,31.483,22.559
		c7.199-13.719,21.567-23.082,38.139-23.082C317.921,240.597,337.199,259.875,337.199,283.657z"/>
</g>
<path style="fill:#3D3636;" d="M209.032,325.808c-19.55-4.065-34.241-21.389-34.241-42.151c0-23.782,19.278-43.06,43.06-43.06
	c2.267,0,4.493,0.178,6.666,0.522l3.615,2.623C228.134,243.742,176.703,265.079,209.032,325.808z"/>
<path style="fill:#0F0F0E;" d="M285.416,256.835c0,10.663-13.173,25.438-29.422,25.438s-29.422-14.775-29.422-25.438
	s13.173-13.178,29.422-13.178S285.416,246.171,285.416,256.835z"/>
<circle style="fill:#807272;" cx="270.827" cy="255.759" r="7.85"/>
<g>
	<path style="fill:#4D4445;" d="M328.616,233.222c-13.828,0-25.077-11.249-25.077-25.077c0-11.319,7.628-21.275,18.55-24.213
		c2.138-0.574,4.332-0.864,6.527-0.864c13.828,0,25.078,11.249,25.078,25.077c0,2.194-0.29,4.389-0.864,6.523
		C349.891,225.594,339.934,233.222,328.616,233.222z"/>
	<path style="fill:#4D4445;" d="M183.371,233.222c-13.828,0-25.077-11.249-25.077-25.077c0-11.319,7.628-21.275,18.55-24.213
		c2.138-0.574,4.332-0.864,6.527-0.864c13.828,0,25.077,11.249,25.077,25.077c0,2.194-0.29,4.389-0.864,6.523
		C204.648,225.594,194.691,233.222,183.371,233.222z"/>
</g>
<g>
	<path style="fill:#0F0F0E;" d="M342.2,208.144c0,1.223-0.167,2.414-0.47,3.542c-1.557,5.789-6.834,10.041-13.113,10.041
		c-7.502,0-13.584-6.081-13.584-13.584c0-6.28,4.253-11.557,10.041-13.113c1.128-0.303,2.32-0.47,3.542-0.47
		C336.118,194.561,342.2,200.642,342.2,208.144z"/>
	<circle style="fill:#0F0F0E;" cx="183.369" cy="208.143" r="13.584"/>
</g>
<g>
	<path style="fill:#E6E6E6;" d="M342.2,208.144c0,1.223-0.167,2.414-0.47,3.542c-1.599,0.742-3.396,1.16-5.277,1.16
		c-6.928,0-12.539-5.611-12.539-12.539c0-1.881,0.418-3.678,1.16-5.277c1.128-0.303,2.32-0.47,3.542-0.47
		C336.118,194.561,342.2,200.642,342.2,208.144z"/>
	<path style="fill:#E6E6E6;" d="M196.955,208.144c0,1.223-0.167,2.414-0.47,3.542c-1.599,0.742-3.396,1.16-5.277,1.16
		c-6.928,0-12.539-5.611-12.539-12.539c0-1.881,0.418-3.678,1.16-5.277c1.128-0.303,2.32-0.47,3.542-0.47
		C190.874,194.561,196.955,200.642,196.955,208.144z"/>
</g>
<path style="fill:#3D752A;" d="M474.812,228.864c-27.408-0.502-49.235-9.759-49.235-21.117c0-11.671,23.103-21.138,51.607-21.138
	c0,0-25.266,0.711-25.266,22.131C451.918,226.105,468.511,228.561,474.812,228.864z"/>
<g>
</g>
<g>
</g>
<g>
</g>
<g>
</g>
<g>
</g>
<g>
</g>
<g>
</g>
<g>
</g>
<g>
</g>
<g>
</g>
<g>
</g>
<g>
</g>
<g>
</g>
<g>
</g>
<g>
</g>
</svg>
