<?xml version="1.0" encoding="iso-8859-1"?>
<!-- Generator: Adobe Illustrator 19.0.0, SVG Export Plug-In . SVG Version: 6.00 Build 0)  -->
<svg version="1.1" id="Capa_1" xmlns="http://www.w3.org/2000/svg" xmlns:xlink="http://www.w3.org/1999/xlink" x="0px" y="0px"
	 viewBox="0 0 512 512" style="enable-background:new 0 0 512 512;" xml:space="preserve">
<path style="fill:#63CBFF;" d="M512,256c0,2.508-0.031,4.995-0.104,7.481c-0.24,8.338-0.878,16.572-1.912,24.68
	c-1.484,11.88-3.783,23.51-6.844,34.826c-5.454,20.187-13.322,39.382-23.28,57.26c-2.508,4.535-5.162,8.976-7.941,13.333
	C426.454,464.792,346.739,512,256,512c-90.749,0-170.475-47.219-215.928-118.439c-2.779-4.347-5.433-8.788-7.941-13.312
	c-9.947-17.878-17.816-37.083-23.27-57.26c-3.062-11.316-5.36-22.946-6.844-34.826c-1.034-8.108-1.672-16.342-1.912-24.68
	C0.031,260.995,0,258.508,0,256c0-7.784,0.345-15.485,1.024-23.082c1.87-20.929,6.259-41.138,12.863-60.312
	C48.483,72.161,143.809,0,256,0s207.517,72.161,242.113,172.607c6.604,19.174,10.992,39.382,12.863,60.312
	C511.655,240.515,512,248.215,512,256z"/>
<path style="fill:#427A2D;" d="M512,256c0,2.508-0.031,4.995-0.104,7.481c-6.98,3.835-14.994,6.008-23.51,6.008
	c-15.768,0-29.78-7.461-38.724-19.048c-8.955,11.588-22.967,19.048-38.734,19.048c-15.768,0-29.79-7.461-38.734-19.048
	c-8.944,11.588-22.956,19.048-38.734,19.048c-15.768,0-29.78-7.461-38.724-19.048C285.78,262.029,271.767,269.49,256,269.49
	s-29.78-7.461-38.734-19.048c-8.944,11.588-22.956,19.048-38.724,19.048c-15.778,0-29.79-7.461-38.734-19.048
	c-8.944,11.588-22.967,19.048-38.734,19.048s-29.78-7.461-38.734-19.048c-8.944,11.588-22.956,19.048-38.724,19.048
	c-8.516,0-16.53-2.173-23.51-6.008C0.031,260.995,0,258.508,0,256c0-7.784,0.345-15.485,1.024-23.082
	c1.87-20.929,6.259-41.138,12.863-60.312c3.145-0.627,6.395-0.961,9.728-0.961c15.768,0,29.78,7.471,38.724,19.048
	c8.955-11.577,22.967-19.048,38.734-19.048s29.79,7.471,38.734,19.048c8.944-11.577,22.956-19.048,38.734-19.048
	c15.768,0,29.78,7.471,38.724,19.048c8.955-11.577,22.967-19.048,38.734-19.048s29.78,7.471,38.734,19.048
	c8.944-11.577,22.956-19.048,38.724-19.048c15.778,0,29.79,7.471,38.734,19.048c8.944-11.577,22.967-19.048,38.734-19.048
	c15.767,0,29.78,7.471,38.734,19.048c8.944-11.577,22.956-19.048,38.724-19.048c3.333,0,6.583,0.334,9.728,0.961
	c6.604,19.174,10.992,39.382,12.863,60.312C511.655,240.515,512,248.215,512,256z"/>
<path style="fill:#4C8E37;" d="M512,256c0,2.508-0.031,4.995-0.104,7.481c-0.596,20.532-3.605,40.458-8.756,59.507
	c-4.66,1.463-9.613,2.257-14.754,2.257c-15.768,0-29.78-7.471-38.724-19.048c-8.955,11.577-22.967,19.048-38.734,19.048
	c-15.768,0-29.79-7.471-38.734-19.048c-8.944,11.577-22.956,19.048-38.734,19.048c-15.768,0-29.78-7.471-38.724-19.048
	c-8.955,11.577-22.967,19.048-38.734,19.048s-29.78-7.471-38.734-19.048c-8.944,11.577-22.956,19.048-38.724,19.048
	c-15.778,0-29.79-7.471-38.734-19.048c-8.944,11.577-22.967,19.048-38.734,19.048s-29.78-7.471-38.734-19.048
	c-8.944,11.577-22.956,19.048-38.724,19.048c-5.141,0-10.094-0.794-14.754-2.257C3.709,303.94,0.7,284.014,0.104,263.481
	C0.031,260.995,0,258.508,0,256c0-7.784,0.345-15.485,1.024-23.082c6.76-3.521,14.44-5.517,22.591-5.517
	c15.768,0,29.78,7.461,38.724,19.048c8.955-11.588,22.967-19.048,38.734-19.048s29.79,7.461,38.734,19.048
	c8.944-11.588,22.956-19.048,38.734-19.048c15.768,0,29.78,7.461,38.724,19.048c8.955-11.588,22.967-19.048,38.734-19.048
	s29.78,7.461,38.734,19.048c8.944-11.588,22.956-19.048,38.724-19.048c15.778,0,29.79,7.461,38.734,19.048
	c8.944-11.588,22.967-19.048,38.734-19.048c15.767,0,29.78,7.461,38.734,19.048c8.944-11.588,22.956-19.048,38.724-19.048
	c8.15,0,15.83,1.996,22.591,5.517C511.655,240.515,512,248.215,512,256z"/>
<path style="fill:#69AF54;" d="M509.983,288.162c-1.484,11.88-3.783,23.51-6.844,34.826c-5.454,20.187-13.322,39.382-23.28,57.26
	c-12.236-2.152-22.904-8.861-30.198-18.307c-8.955,11.577-22.967,19.048-38.734,19.048c-15.768,0-29.79-7.471-38.734-19.048
	c-8.944,11.577-22.956,19.048-38.734,19.048c-15.768,0-29.78-7.471-38.724-19.048c-8.955,11.577-22.967,19.048-38.734,19.048
	s-29.78-7.471-38.734-19.048c-8.944,11.577-22.956,19.048-38.724,19.048c-15.778,0-29.79-7.471-38.734-19.048
	c-8.944,11.577-22.967,19.048-38.734,19.048s-29.78-7.471-38.734-19.048c-7.293,9.446-17.962,16.154-30.208,18.307
	c-9.947-17.878-17.816-37.083-23.27-57.26c-3.062-11.316-5.36-22.946-6.844-34.826c6.52-3.218,13.845-5.016,21.598-5.016
	c15.768,0,29.78,7.461,38.724,19.048c8.955-11.588,22.967-19.048,38.734-19.048s29.79,7.461,38.734,19.048
	c8.944-11.588,22.956-19.048,38.734-19.048c15.768,0,29.78,7.461,38.724,19.048c8.955-11.588,22.967-19.048,38.734-19.048
	s29.78,7.461,38.734,19.048c8.944-11.588,22.956-19.048,38.724-19.048c15.778,0,29.79,7.461,38.734,19.048
	c8.944-11.588,22.967-19.048,38.734-19.048c15.767,0,29.78,7.461,38.734,19.048c8.944-11.588,22.956-19.048,38.724-19.048
	C496.138,283.146,503.463,284.944,509.983,288.162z"/>
<path style="fill:#427A2D;" d="M495.95,345.401c-18.118,48.588-50.573,90.206-92.223,119.693C361.994,494.634,311.024,512,256,512
	c-22.037,0-43.416-2.779-63.822-8.025c-30.542-7.837-58.89-21.17-83.916-38.891C66.612,435.608,34.158,394,16.05,345.401H495.95z"/>
<path style="fill:#E29C37;" d="M394.919,471.061C354.91,496.964,307.21,512,256,512c-31.232,0-61.158-5.59-88.827-15.83
	c-17.711-6.551-34.492-15.005-50.103-25.119c-0.355-34.22,1.191-68.441,4.65-102.661c0.094-0.93,0.199-1.86,0.303-2.779
	c6.228-53.478,34.92-95.295,71.199-103.382c5.36-1.202,10.731-2.247,16.102-3.124c31.128-5.151,62.234-5.151,93.341,0
	c5.371,0.878,10.742,1.923,16.102,3.124c17.366,3.877,33.008,15.475,45.244,32.392c13.364,18.411,22.706,43.112,25.955,70.99
	c0.104,0.92,0.209,1.849,0.303,2.779C393.728,402.61,395.274,436.84,394.919,471.061z"/>
<path style="fill:#F4B345;" d="M394.919,471.061C354.91,496.964,307.21,512,256,512c-31.232,0-61.158-5.59-88.827-15.83
	c-0.042-31.451,1.526-62.892,4.702-94.344c0.094-0.93,0.199-1.86,0.303-2.779c6.228-53.478,34.92-95.295,71.199-103.382
	c5.36-1.202,10.731-2.247,16.102-3.124c31.128-5.151,62.234-5.151,93.341,0c3.73,0.606,7.461,1.296,11.191,2.079
	c13.364,18.411,22.706,43.112,25.955,70.99c0.104,0.92,0.209,1.849,0.303,2.779C393.728,402.61,395.274,436.84,394.919,471.061z"/>
<path style="fill:#DB3E20;" d="M196.577,505.062c-10.041-2.382-19.853-5.36-29.403-8.902c-17.701-6.541-34.492-15.005-50.103-25.109
	c-0.355-34.22,1.191-68.441,4.65-102.661c0.094-0.93,0.199-1.86,0.303-2.779c0.104,0.021,0.199,0.042,0.303,0.063
	c19.362,4.315,36.561,18.233,49.33,38.4c11.588,18.286,19.54,41.702,22.173,67.762C194.947,482.91,195.866,493.986,196.577,505.062z
	"/>
<path style="fill:#ED4B27;" d="M394.919,471.061c-24.033,15.559-50.834,27.199-79.506,34.001c0.711-11.076,1.63-22.152,2.748-33.228
	c5.538-54.805,34.597-97.938,71.502-106.162c0.105-0.021,0.199-0.042,0.303-0.063c0.104,0.92,0.209,1.849,0.303,2.779
	C393.728,402.61,395.274,436.84,394.919,471.061z"/>
<path style="fill:#6191C6;" d="M255.409,106.118l-12.489-4.601c-29.384-10.824-44.429-43.42-33.605-72.803l0,0
	c2.541-6.897,10.192-10.429,17.089-7.888l0,0c29.384,10.824,44.429,43.42,33.605,72.803L255.409,106.118z"/>
<path style="fill:#ED4B27;" d="M255.409,106.118l-9.381-9.441c-22.072-22.212-21.959-58.112,0.254-80.184l0,0
	c5.214-5.181,13.64-5.154,18.822,0.06l0,0c22.072,22.212,21.958,58.112-0.254,80.184L255.409,106.118z"/>
<path style="fill:#F4B345;" d="M255.409,106.118l-4.347-12.58c-10.227-29.597,5.475-61.881,35.072-72.108l0,0
	c6.948-2.4,14.525,1.285,16.925,8.233l0,0c10.227,29.597-5.475,61.881-35.072,72.108L255.409,106.118z"/>
<ellipse style="fill:#E29C37;" cx="254.966" cy="338.745" rx="52.969" ry="97.907"/>
<path style="fill:#E2D8AE;" d="M374.826,266.459c-0.24,1.755-0.491,3.521-0.752,5.287c-4.869,32.455-30.417,58.002-62.871,62.871
	c-36.801,5.517-73.603,5.517-110.414,0c-32.455-4.869-58.002-30.417-62.872-62.871c-0.261-1.766-0.512-3.532-0.752-5.287
	c-4.754-35.046-4.504-70.081,0.752-105.127c4.869-32.455,30.417-58.002,62.872-62.872c4.723-0.711,9.446-1.327,14.169-1.849
	c27.366-3.051,54.721-3.051,82.077,0c4.723,0.522,9.446,1.139,14.169,1.849c32.455,4.869,58.002,30.417,62.871,62.872
	C379.329,196.378,379.58,231.414,374.826,266.459z"/>
<path style="fill:#D3C9A2;" d="M208.165,335.653c-2.456-0.324-4.921-0.669-7.377-1.034c-32.455-4.869-58.002-30.417-62.872-62.872
	c-0.261-1.766-0.512-3.532-0.752-5.287c-4.754-35.046-4.504-70.081,0.752-105.127c4.869-32.455,30.417-58.002,62.872-62.872
	c2.456-0.366,4.921-0.711,7.377-1.034c-15.715,10.386-27.293,33.322-29.895,61.043c-3.459,36.864-3.626,73.718-0.502,110.582
	c0.167,1.851,0.324,3.699,0.502,5.559C180.872,302.331,192.449,325.266,208.165,335.653z"/>
<g>
	<path style="fill:#6191C6;" d="M374.826,266.459c-4.723-0.522-9.446-1.139-14.169-1.851c-32.455-4.869-58.002-30.417-62.872-62.871
		c-5.256-35.035-5.507-70.071-0.752-105.127c4.723,0.522,9.446,1.139,14.169,1.849c32.455,4.869,58.002,30.417,62.872,62.871
		C379.329,196.378,379.58,231.414,374.826,266.459z"/>
	<path style="fill:#6191C6;" d="M214.204,201.738c-3.5,23.322-17.669,43.071-37.407,54.147c-7.743,4.347-16.332,7.356-25.464,8.725
		c-4.723,0.711-9.446,1.328-14.169,1.851c-4.754-35.046-4.504-70.081,0.752-105.127c4.796-31.943,29.612-57.187,61.336-62.631
		c0.512-0.084,1.024-0.167,1.536-0.24c2.361-0.355,4.723-0.679,7.084-0.993c0.042-0.01,0.094-0.021,0.146-0.021
		c0.042-0.01,0.084-0.01,0.136-0.01c0-0.01,0.01-0.01,0.01-0.01c2.267-0.293,4.524-0.564,6.792-0.815
		C219.711,131.668,219.46,166.703,214.204,201.738z"/>
</g>
<path style="fill:#475F68;" d="M296.265,288.743c7.388-11.596,11.826-26.438,11.826-42.617c0-37.103-23.323-67.18-52.094-67.18
	s-52.094,30.077-52.094,67.18c0,22.967,8.941,43.235,22.577,55.348c4.717,4.19,9.187,8.652,13.055,13.636
	c2.27,2.924,4.474,5.944,6.494,8.978c4.734,7.113,15.2,7.113,19.936,0c1.527-2.293,3.159-4.578,4.844-6.819
	c4.159-5.53,8.795-10.707,14.042-15.215C289.148,298.363,292.997,293.873,296.265,288.743L296.265,288.743L296.265,288.743z"/>
<path style="fill:#5586B2;" d="M208.165,97.426c0,0-0.01,0-0.01,0.01c-15.705,10.386-27.282,33.322-29.884,61.032
	c-3.051,32.475-3.542,64.94-1.473,97.416c-7.743,4.347-16.332,7.356-25.464,8.725c-4.723,0.711-9.446,1.328-14.169,1.851
	c-4.754-35.046-4.504-70.081,0.752-105.127c4.796-31.943,29.612-57.187,61.336-62.631c0.512-0.084,1.024-0.167,1.536-0.24
	c2.361-0.355,4.723-0.679,7.084-0.993c0.042-0.01,0.094-0.021,0.146-0.021C208.071,97.437,208.123,97.437,208.165,97.426z"/>
<path style="fill:#394F59;" d="M256.006,329.425c-3.804,0-7.609-1.783-9.968-5.336c-2.022-3.039-4.231-6.051-6.491-8.977
	c-3.88-4.984-8.35-9.454-13.057-13.635c-13.635-12.116-22.587-32.38-22.587-55.356c0-37.101,23.327-67.183,52.104-67.183
	c-15.254,0-27.622,30.083-27.622,67.183c0,22.976,4.746,43.24,11.965,55.356c2.498,4.181,4.871,8.65,6.931,13.635
	c1.192,2.926,2.373,5.938,3.44,8.977C251.976,327.642,253.997,329.425,256.006,329.425z"/>
<g>
	<path style="fill:#5586B2;" d="M336.057,232.742c-12.523,0-22.711-10.188-22.711-22.711c0-10.25,6.908-19.267,16.799-21.927
		c1.936-0.519,3.924-0.783,5.911-0.783c12.523,0,22.711,10.188,22.711,22.711c0,1.987-0.263,3.975-0.783,5.908
		C355.325,225.833,346.307,232.742,336.057,232.742z"/>
	<path style="fill:#5586B2;" d="M175.933,232.742c-12.523,0-22.711-10.188-22.711-22.711c0-10.25,6.908-19.267,16.799-21.927
		c1.936-0.519,3.924-0.783,5.911-0.783c12.523,0,22.711,10.188,22.711,22.711c0,1.987-0.263,3.975-0.783,5.908
		C195.199,225.833,186.183,232.742,175.933,232.742z"/>
</g>
<g>
	<path style="fill:#0F0F0E;" d="M348.359,210.031c0,1.108-0.151,2.186-0.426,3.208c-1.41,5.242-6.189,9.094-11.875,9.094
		c-6.794,0-12.302-5.508-12.302-12.302c0-5.687,3.852-10.466,9.094-11.875c1.022-0.275,2.1-0.426,3.208-0.426
		C342.851,197.729,348.359,203.237,348.359,210.031z"/>
	<circle style="fill:#0F0F0E;" cx="175.929" cy="210.035" r="12.302"/>
</g>
<g>
	<path style="fill:#E6E6E6;" d="M348.359,210.031c0,1.108-0.151,2.186-0.426,3.208c-1.448,0.672-3.075,1.05-4.778,1.05
		c-6.274,0-11.355-5.081-11.355-11.355c0-1.703,0.378-3.331,1.05-4.778c1.022-0.275,2.1-0.426,3.208-0.426
		C342.851,197.729,348.359,203.237,348.359,210.031z"/>
	<path style="fill:#E6E6E6;" d="M188.234,210.031c0,1.108-0.152,2.186-0.426,3.208c-1.448,0.672-3.075,1.05-4.778,1.05
		c-6.274,0-11.355-5.081-11.355-11.355c0-1.703,0.378-3.331,1.05-4.778c1.022-0.275,2.1-0.426,3.208-0.426
		C182.727,197.729,188.234,203.237,188.234,210.031z"/>
</g>
<path style="fill:#ED4B27;" d="M196.577,505.062c-10.041-2.382-19.853-5.36-29.403-8.902c-0.042-30.699,1.452-61.388,4.483-92.087
	c11.588,18.286,19.54,41.702,22.173,67.762C194.947,482.91,195.866,493.986,196.577,505.062z"/>
<g>
</g>
<g>
</g>
<g>
</g>
<g>
</g>
<g>
</g>
<g>
</g>
<g>
</g>
<g>
</g>
<g>
</g>
<g>
</g>
<g>
</g>
<g>
</g>
<g>
</g>
<g>
</g>
<g>
</g>
</svg>
