<?xml version="1.0" encoding="iso-8859-1"?>
<!-- Generator: Adobe Illustrator 19.0.0, SVG Export Plug-In . SVG Version: 6.00 Build 0)  -->
<svg version="1.1" id="Capa_1" xmlns="http://www.w3.org/2000/svg" xmlns:xlink="http://www.w3.org/1999/xlink" x="0px" y="0px"
	 viewBox="0 0 512 512" style="enable-background:new 0 0 512 512;" xml:space="preserve">
<circle style="fill:#63CBFF;" cx="256" cy="256" r="256"/>
<g>
	<path style="fill:#427A2D;" d="M512,255.999c0,18.233-1.912,36.028-5.538,53.185h-77.73c-8.579,0-12.873-10.365-6.802-16.436
		l29.257-29.257c1.954-1.964,2.832-4.378,2.832-6.74c0-4.953-3.835-9.697-9.644-9.697c-8.579,0-12.873-10.376-6.802-16.436
		l22.695-22.695c6.06-6.071,1.766-16.447-6.813-16.447h-1.641c-8.579,0-12.873-10.365-6.813-16.436l37.825-37.815
		c17.095,32.569,27.376,69.277,28.954,108.231C511.927,248.956,512,252.467,512,255.999z"/>
	<path style="fill:#427A2D;" d="M83.268,309.184H5.538C1.912,292.027,0,274.232,0,255.999c0-3.532,0.073-7.043,0.219-10.543
		c1.578-38.954,11.86-75.661,28.954-108.231l37.825,37.815c6.06,6.071,1.766,16.436-6.813,16.436h-1.64
		c-8.579,0-12.873,10.376-6.813,16.447l22.695,22.695c1.964,1.964,2.842,4.378,2.842,6.74c0,4.953-3.845,9.697-9.644,9.697
		c-8.579,0-12.873,10.365-6.813,16.436l29.257,29.257C96.141,298.819,91.847,309.184,83.268,309.184z"/>
</g>
<path style="fill:#4C8E37;" d="M489.556,360.959c-12.184,27.094-28.965,51.681-49.34,72.777H71.785
	c-5.904-6.102-11.504-12.507-16.771-19.174v-28.891h-19.79c-4.692-7.973-8.965-16.217-12.779-24.712l20.982-20.992
	c1.964-1.964,2.842-4.368,2.842-6.729c0-4.953-3.845-9.707-9.655-9.707c-8.579,0-12.873-10.376-6.802-16.436l22.695-22.695
	c6.06-6.071,1.766-16.436-6.813-16.436h-1.64c-8.579,0-12.873-10.376-6.813-16.436l54.439-54.439c3.762-3.762,9.853-3.762,13.615,0
	l54.439,54.439c6.071,6.06,1.766,16.436-6.813,16.436h-1.641c-8.579,0-12.873,10.365-6.802,16.436l22.695,22.695
	c1.954,1.954,2.832,4.368,2.832,6.729c0,4.953-3.835,9.707-9.644,9.707c-8.579,0-12.873,10.376-6.813,16.436l23.301,23.301
	l23.301-23.301c6.071-6.06,1.776-16.436-6.802-16.436s-12.873-10.376-6.813-16.436l22.695-22.695
	c6.071-6.071,1.766-16.436-6.813-16.436h-1.64c-8.579,0-12.873-10.376-6.802-16.436l54.429-54.439c3.762-3.762,9.864-3.762,13.625,0
	l54.429,54.439c6.071,6.06,1.776,16.436-6.802,16.436h-1.641c-8.579,0-12.884,10.365-6.813,16.436l22.695,22.695
	c1.954,1.954,2.832,4.368,2.832,6.729c0,4.953-3.835,9.707-9.644,9.707c-8.579,0-12.873,10.376-6.802,16.436l24.085,24.085
	l24.085-24.085c1.954-1.954,2.832-4.368,2.832-6.729c0-4.953-3.835-9.707-9.644-9.707c-8.579,0-12.873-10.376-6.813-16.436
	l22.695-22.695c6.071-6.071,1.776-16.436-6.802-16.436h-1.641c-8.579,0-12.884-10.376-6.813-16.436l54.439-54.439
	c3.762-3.762,9.853-3.762,13.615,0l54.439,54.439c6.06,6.06,1.766,16.436-6.813,16.436h-1.641c-8.579,0-12.873,10.365-6.813,16.436
	l22.695,22.695c1.964,1.964,2.842,4.378,2.842,6.74c0,4.953-3.845,9.697-9.644,9.697c-8.579,0-12.884,10.376-6.813,16.436
	L489.556,360.959z"/>
<path style="fill:#69AF54;" d="M512,255.999c0,74.041-31.431,140.737-81.69,187.476c-9.07,8.432-18.745,16.227-28.965,23.28
	c-41.284,28.536-91.366,45.244-145.345,45.244s-104.061-16.708-145.345-45.244c-10.219-7.053-19.895-14.848-28.965-23.28
	C31.431,396.736,0,330.04,0,255.999c0-3.532,0.073-7.043,0.219-10.543l12.319-12.319c3.751-3.762,9.853-3.762,13.615,0
	l54.429,54.439c6.071,6.06,1.776,16.436-6.802,16.436h-1.64c-8.579,0-12.873,10.365-6.813,16.436l22.695,22.695
	c1.964,1.964,2.842,4.368,2.842,6.729c0,4.953-3.845,9.707-9.655,9.707c-8.579,0-12.873,10.376-6.802,16.436l24.085,24.085
	l24.085-24.085c1.954-1.954,2.832-4.368,2.832-6.729c0-4.953-3.835-9.707-9.644-9.707c-8.579,0-12.873-10.376-6.813-16.436
	l22.695-22.695c6.071-6.071,1.776-16.436-6.802-16.436h-1.64c-8.579,0-12.873-10.376-6.813-16.436l54.439-54.439
	c3.762-3.762,9.853-3.762,13.615,0l54.439,54.439c6.06,6.06,1.766,16.436-6.813,16.436h-1.641c-8.579,0-12.873,10.365-6.813,16.436
	l22.695,22.695c1.964,1.964,2.842,4.378,2.842,6.74c0,4.953-3.845,9.697-9.644,9.697c-8.579,0-12.884,10.376-6.813,16.436
	L256,399.317l23.301-23.301c1.964-1.964,2.842-4.368,2.842-6.729c0-4.953-3.845-9.707-9.655-9.707
	c-8.579,0-12.873-10.376-6.802-16.436l22.695-22.695c6.06-6.071,1.766-16.436-6.813-16.436h-1.641
	c-8.579,0-12.873-10.376-6.813-16.436l54.439-54.439c3.762-3.762,9.853-3.762,13.615,0l54.439,54.439
	c6.06,6.06,1.766,16.436-6.813,16.436h-1.641c-8.579,0-12.873,10.365-6.802,16.436l22.695,22.695
	c1.954,1.954,2.832,4.368,2.832,6.729c0,4.953-3.835,9.707-9.644,9.707c-8.579,0-12.873,10.376-6.813,16.436l24.085,24.085
	l24.085-24.085c1.964-1.964,2.842-4.378,2.842-6.74c0-4.953-3.845-9.697-9.644-9.697c-8.579,0-12.884-10.376-6.813-16.436
	l22.695-22.695c6.06-6.071,1.766-16.436-6.813-16.436h-1.641c-8.579,0-12.873-10.376-6.802-16.436l54.429-54.439
	c3.762-3.762,9.864-3.762,13.615,0l12.319,12.319C511.927,248.956,512,252.467,512,255.999z"/>
<path style="fill:#998888;" d="M370.513,485.02c-34.461,17.262-73.341,26.979-114.51,26.979c-41.169,0-80.05-9.718-114.51-26.979
	c12.361-58.796,58.932-138.501,114.51-138.501C311.571,346.518,358.152,426.223,370.513,485.02z"/>
<path style="fill:#938383;" d="M256.003,346.518c-38.17,0-69.569,95.775-73.394,154.802c-14.263-4.263-28.014-9.738-41.117-16.3
	C153.854,426.223,200.425,346.518,256.003,346.518z"/>
<path style="fill:#E6E6E6;" d="M311.801,448.846l-10.694-10.695c-2.889-2.889-7.787-1.9-9.319,1.888
	c-4.241,10.483-12.555,29.298-23.338,45.181c-2.477,3.657-5.089,7.155-7.812,10.362c-2.418,2.846-6.832,2.87-9.249,0.024
	c-14.567-17.147-25.953-42.665-31.172-55.567c-1.532-3.788-6.43-4.778-9.319-1.888L200.2,448.848
	c-2.959,2.959-7.97,2.126-9.787-1.644c-17.058-35.411,0.15-68.102,6.933-78.768c1.496-2.356,2.487-3.637,2.487-3.637h112.335
	c0,0,30.218,39.147,9.443,82.357C319.787,450.947,314.774,451.821,311.801,448.846z"/>
<path style="fill:#CCCCCC;" d="M199.834,364.798l0.15,4.907l-2.637-1.27c-6.782,10.666-23.991,43.357-6.933,78.768
	c1.816,3.77,6.827,4.603,9.787,1.644l10.696-10.696c2.889-2.889,7.787-1.9,9.319,1.888c5.218,12.901,16.606,38.421,31.172,55.567
	c2.418,2.846,6.832,2.822,9.249-0.024c2.724-3.207,5.334-6.705,7.812-10.362l-7.96-17.004c-1.508-3.22-6.092-3.185-7.557,0.043
	c-1.098,2.422-4.421,2.669-5.8,0.396c-10.631-17.514-17.048-40.706-19.733-51.93c-0.464-1.939,1.913-3.263,3.324-1.853l8.661,8.661
	c1.302,1.302,3.52,0.275,3.37-1.56l-1.313-16.077c-0.266-3.261,4.188-4.452,5.593-1.497c4.268,8.976,8.404,15.198,10.932,18.632
	c1.163,1.579,3.544,1.495,4.59-0.164l15.031-23.841c1.486-2.356,5.128-1.304,5.128,1.482v2.64c0,3.987,5.06,5.693,7.474,2.519
	c8.31-10.932,18.618-26.289,18.618-26.289L199.834,364.798z"/>
<path style="fill:#E6E6E6;" d="M198.281,410.809c0.491,2.553,1.336,5.851,2.79,9.616c1.021,2.644,4.948,1.966,5.057-0.865
	l0.553-14.287c0.098-2.524-2.683-4.117-4.811-2.755l0,0C199.096,404.293,197.658,407.575,198.281,410.809z"/>
<path style="fill:#998888;" d="M295.771,184.554c0,0,25.74-154.544,50.155-178.959c24.415-24.415,49.11,36.853,49.11,72.379
	s-55.38,147.331-55.38,147.331"/>
<path style="fill:#E6E6E6;" d="M316.669,186.121c0,0,19.237-120.414,34.015-135.192c14.777-14.777,32.667,22.508,29.724,43.808
	c-4.18,30.257-48.065,117.506-48.065,117.506"/>
<path style="fill:#807272;" d="M216.229,184.554c0,0-25.74-154.544-50.155-178.959s-49.11,36.853-49.11,72.379
	s55.38,147.331,55.38,147.331"/>
<path style="fill:#CCCCCC;" d="M195.331,186.121c0,0-19.237-120.414-34.015-135.192c-14.777-14.777-32.667,22.508-29.724,43.808
	c4.18,30.257,48.065,117.506,48.065,117.506"/>
<path style="fill:#998888;" d="M366.895,297.225c0,18.631-5.966,36.039-16.3,50.834c-6.238,8.923-14.064,16.896-23.134,23.604
	c-19.289,14.305-44.231,22.915-71.461,22.915s-52.172-8.61-71.461-22.915c-9.07-6.708-16.896-14.681-23.134-23.604
	c-10.334-14.796-16.3-32.204-16.3-50.834c0-53.76,49.643-156.557,110.895-156.557S366.895,243.465,366.895,297.225z"/>
<path style="fill:#938383;" d="M256,394.579c-27.23,0-52.172-8.61-71.461-22.915c-9.07-6.708-16.896-14.681-23.134-23.604
	c-10.334-14.796-16.3-32.204-16.3-50.834c0-53.76,49.643-156.557,110.895-156.557c-38.379,0-69.486,102.797-69.486,156.557
	c0,18.631,3.741,36.039,10.209,50.834c3.918,8.923,8.819,16.896,14.503,23.604C223.305,385.969,238.937,394.579,256,394.579z"/>
<path style="fill:#E6E6E6;" d="M312.68,345.299c10.825,17.655,0.064,39.537-22.058,45.077c-10.893,2.728-22.532,4.203-34.623,4.203
	c-12.091,0-23.73-1.475-34.623-4.203c-22.122-5.54-32.883-27.421-22.058-45.077c15.143-24.698,34.978-43.333,56.68-43.333
	C277.703,301.966,297.538,320.601,312.68,345.299z"/>
<path style="fill:#CCCCCC;" d="M256.005,394.579c-12.089,0-23.73-1.473-34.628-4.2c-22.12-5.538-32.883-27.429-22.058-45.077
	c15.005-24.472,34.617-42.987,56.08-43.321c-12.8,0.575-24.471,19.007-33.416,43.321c-6.499,17.648-0.042,39.539,13.239,45.077
	C241.763,393.105,248.743,394.579,256.005,394.579z"/>
<path style="fill:#0F0F0E;" d="M283.176,323.02c0,9.849-12.167,23.497-27.176,23.497s-27.176-13.647-27.176-23.497
	c0-9.849,12.167-12.172,27.176-12.172C271.009,310.848,283.176,313.171,283.176,323.02z"/>
<g>
	<circle style="fill:#807272;" cx="269.699" cy="322.027" r="7.251"/>
	<path style="fill:#807272;" d="M310.087,312.416c-11.052,0-20.043-8.991-20.043-20.043c0-9.047,6.097-17.005,14.826-19.353
		c1.708-0.459,3.463-0.691,5.217-0.691c11.052,0,20.043,8.991,20.043,20.043c0,1.754-0.232,3.508-0.691,5.214
		C327.092,306.319,319.134,312.416,310.087,312.416z"/>
	<path style="fill:#807272;" d="M201.913,312.416c-11.052,0-20.043-8.991-20.043-20.043c0-9.047,6.097-17.005,14.826-19.353
		c1.708-0.459,3.463-0.691,5.217-0.691c11.052,0,20.043,8.991,20.043,20.043c0,1.754-0.232,3.508-0.691,5.214
		C218.918,306.319,210.96,312.416,201.913,312.416z"/>
</g>
<g>
	<path style="fill:#0F0F0E;" d="M320.944,288.195c0,0.977-0.134,1.929-0.376,2.832c-1.244,4.627-5.462,8.026-10.481,8.026
		c-5.997,0-10.858-4.861-10.858-10.858c0-5.02,3.399-9.237,8.026-10.481c0.902-0.242,1.854-0.376,2.832-0.376
		C316.083,277.339,320.944,282.2,320.944,288.195z"/>
	<circle style="fill:#0F0F0E;" cx="201.916" cy="288.193" r="10.858"/>
</g>
<g>
	<path style="fill:#E6E6E6;" d="M320.944,288.195c0,0.977-0.134,1.929-0.376,2.832c-1.278,0.592-2.715,0.927-4.217,0.927
		c-5.537,0-10.022-4.485-10.022-10.022c0-1.504,0.334-2.939,0.927-4.217c0.902-0.242,1.854-0.376,2.832-0.376
		C316.083,277.339,320.944,282.2,320.944,288.195z"/>
	<path style="fill:#E6E6E6;" d="M212.77,288.195c0,0.977-0.134,1.929-0.376,2.832c-1.278,0.592-2.715,0.927-4.217,0.927
		c-5.537,0-10.022-4.485-10.022-10.022c0-1.504,0.334-2.939,0.927-4.217c0.902-0.242,1.854-0.376,2.832-0.376
		C207.91,277.339,212.77,282.2,212.77,288.195z"/>
</g>
<g>
</g>
<g>
</g>
<g>
</g>
<g>
</g>
<g>
</g>
<g>
</g>
<g>
</g>
<g>
</g>
<g>
</g>
<g>
</g>
<g>
</g>
<g>
</g>
<g>
</g>
<g>
</g>
<g>
</g>
</svg>
