<?xml version="1.0" encoding="iso-8859-1"?>
<!-- Generator: Adobe Illustrator 19.0.0, SVG Export Plug-In . SVG Version: 6.00 Build 0)  -->
<svg version="1.1" id="Capa_1" xmlns="http://www.w3.org/2000/svg" xmlns:xlink="http://www.w3.org/1999/xlink" x="0px" y="0px"
	 viewBox="0 0 512 512" style="enable-background:new 0 0 512 512;" xml:space="preserve">
<path style="fill:#427A2D;" d="M512,256c0,13.605-1.066,26.958-3.114,39.988C489.691,418.377,383.781,512,256,512
	S22.309,418.377,3.114,295.988C1.066,282.958,0,269.605,0,256c0-34.126,6.677-66.706,18.808-96.486
	c4.754-11.682,10.355-22.946,16.718-33.698c5.966-10.083,12.601-19.717,19.853-28.85c5.256-6.625,10.836-12.988,16.718-19.048
	c9.07-9.373,18.85-18.045,29.257-25.945c10.533-8.004,21.713-15.203,33.437-21.514c4.786-2.581,9.665-5.016,14.629-7.283
	c10.762-4.942,21.932-9.153,33.437-12.57c10.522-3.135,21.337-5.611,32.392-7.377c5.517-0.888,11.086-1.588,16.718-2.111
	C239.877,0.376,247.892,0,256,0c1.4,0,2.79,0.01,4.18,0.042c16.081,0.251,31.796,1.985,47.02,5.078
	c5.287,1.076,10.512,2.309,15.673,3.709c11.483,3.093,22.653,6.969,33.437,11.577c3.521,1.494,7.011,3.072,10.449,4.733
	c5.695,2.727,11.264,5.674,16.718,8.808c11.766,6.771,22.946,14.451,33.437,22.946c5.789,4.681,11.368,9.603,16.718,14.764
	c5.465,5.266,10.689,10.773,15.673,16.499c12.936,14.879,24.179,31.284,33.437,48.891C501.426,172.586,512,213.065,512,256z"/>
<path style="fill:#69AF54;" d="M508.886,295.988c-4.399,28.097-13.385,54.669-26.143,78.952
	c-9.258,17.607-20.501,34.001-33.437,48.891c-4.984,5.736-10.209,11.243-15.673,16.509c-5.35,5.162-10.93,10.094-16.718,14.775
	c-10.491,8.485-21.671,16.165-33.437,22.936c-5.454,3.135-11.024,6.081-16.718,8.808c-3.438,1.661-6.917,3.239-10.449,4.733
	c-10.783,4.598-21.943,8.485-33.437,11.577c-5.162,1.4-10.386,2.633-15.673,3.709c-15.224,3.093-30.939,4.827-47.02,5.078
	C258.79,511.99,257.4,512,256,512c-8.108,0-16.123-0.376-24.033-1.108c-5.632-0.533-11.201-1.233-16.718-2.121
	c-11.055-1.766-21.859-4.242-32.392-7.377c-11.504-3.417-22.664-7.628-33.437-12.57c-4.963-2.278-9.843-4.702-14.629-7.283
	c-11.724-6.311-22.904-13.51-33.437-21.514c-10.407-7.899-20.187-16.583-29.257-25.945c-5.883-6.071-11.463-12.434-16.718-19.059
	c-7.252-9.122-13.887-18.766-19.853-28.839c-6.363-10.762-11.964-22.026-16.718-33.719c-7.293-17.899-12.612-36.822-15.694-56.477
	L508.886,295.988L508.886,295.988z"/>
<g>
	<path style="fill:#4C8E37;" d="M482.743,137.049v237.892c-9.258,17.607-20.501,34.001-33.437,48.891V88.158
		C462.242,103.037,473.485,119.442,482.743,137.049z"/>
	<path style="fill:#4C8E37;" d="M356.31,20.407v471.186c-10.783,4.598-21.943,8.485-33.437,11.577V8.829
		C334.357,11.922,345.527,15.799,356.31,20.407z"/>
	<path style="fill:#4C8E37;" d="M134.792,30.459v451.082c-11.724-6.311-22.904-13.51-33.437-21.514V51.973
		C111.888,43.969,123.068,36.77,134.792,30.459z"/>
	<path style="fill:#4C8E37;" d="M182.857,10.606v490.789c-11.504-3.417-22.664-7.628-33.437-12.57V23.176
		C160.183,18.233,171.353,14.023,182.857,10.606z"/>
	<path style="fill:#4C8E37;" d="M433.633,71.659v368.682c-5.35,5.162-10.93,10.094-16.718,14.775V56.895
		C422.703,61.576,428.283,66.497,433.633,71.659z"/>
	<path style="fill:#4C8E37;" d="M35.527,125.816v260.368c-6.363-10.762-11.964-22.026-16.718-33.719V159.514
		C23.562,147.832,29.163,136.568,35.527,125.816z"/>
	<path style="fill:#4C8E37;" d="M72.098,77.918v356.164c-5.883-6.071-11.463-12.434-16.718-19.059V96.967
		C60.635,90.342,66.215,83.978,72.098,77.918z"/>
	<path style="fill:#4C8E37;" d="M383.478,33.949v444.102c-5.454,3.135-11.024,6.081-16.718,8.809V25.14
		C372.454,27.867,378.023,30.814,383.478,33.949z"/>
	<path style="fill:#4C8E37;" d="M231.967,1.118v509.774c-5.632-0.533-11.201-1.233-16.718-2.121V3.229
		C220.766,2.341,226.335,1.64,231.967,1.118z"/>
	<path style="fill:#4C8E37;" d="M307.2,5.12v501.76c-15.224,3.093-30.939,4.827-47.02,5.078V0.042
		C276.261,0.293,291.976,2.027,307.2,5.12z"/>
</g>
<path style="fill:#755139;" d="M457.728,413.633C410.864,473.516,337.93,512,256,512s-154.864-38.484-201.728-98.367
	c7.199-28.003,20.929-53.708,39.612-75.191c31.932-36.728,78.346-61.158,131.427-63.843c20.459-1.034,40.918-1.034,61.377,0
	c53.081,2.685,99.495,27.115,131.427,63.843C436.799,359.926,450.529,385.63,457.728,413.633z"/>
<path style="fill:#603F2A;" d="M418.116,338.442c-31.932-36.728-78.346-61.158-131.427-63.843
	c-11.274-0.575-22.549-0.815-33.813-0.752c0.209-0.01,0.408-0.01,0.616-0.021c-0.742,0.01-1.494,0.021-2.236,0.021
	c-1.327,0.01-2.654,0.021-3.981,0.042c-1.264,0.021-2.529,0.052-3.793,0.073c-1.191,0.021-2.382,0.042-3.574,0.073
	c-1.317,0.042-2.644,0.084-3.96,0.125c-1.118,0.042-2.247,0.073-3.365,0.115c-2.424,0.094-4.848,0.199-7.272,0.324
	c-84.156,4.253-151.531,63.164-171.039,139.034c18.453,23.583,40.96,43.844,66.456,59.747c-0.721-13.866-0.397-27.512,0.867-40.761
	c3.371-35.248,34.523-60.942,69.499-58.533c1.888,0.13,3.617,1.113,4.686,2.674l14.286,20.883c2.911,4.256,9.25,4.067,11.903-0.354
	l6.432-10.72c2.456-4.092,8.432-3.951,10.691,0.252l16.031,29.818c3.046,5.664,11.458,4.655,13.077-1.569l7.119-27.379
	c1.196-4.602,6.939-6.164,10.302-2.801l6.399,6.399c3.264,3.264,8.729,2.578,11.085-1.392l7.278-12.263
	c0.994-1.674,2.721-2.77,4.657-2.971c16.035-1.653,32.069-3.973,48.104-6.975C384.439,363.708,403.466,353.28,418.116,338.442z"/>
<path style="fill:#755139;" d="M284.951,48.851c-19.302-0.976-38.606-0.976-57.908,0C121.784,54.175,44.327,150.122,63.044,253.84
	c1.003,5.558,2.172,11.116,3.508,16.673c9.611,40.004,41.861,70.799,82.3,78.368c71.43,13.37,142.859,13.37,214.29,0
	c40.44-7.569,72.689-38.364,82.3-78.368c1.335-5.558,2.505-11.116,3.508-16.673C467.667,150.122,390.21,54.175,284.951,48.851z"/>
<path style="fill:#603F2A;" d="M255.997,358.915c-35.715,0-71.429-3.344-107.144-10.031c-40.438-7.565-72.694-38.358-82.296-78.367
	c-1.337-5.559-2.508-11.118-3.511-16.677C44.332,150.124,121.78,54.181,227.043,48.852c8.861-0.439,17.721-0.69,26.593-0.721
	c-5.528,0.052-11.055,0.303-16.572,0.721C168.236,54.181,117.59,150.124,129.825,253.84c0.658,5.559,1.421,11.118,2.299,16.677
	c6.28,40.009,27.366,70.802,53.812,78.367C209.29,355.571,232.643,358.915,255.997,358.915z"/>
<path style="fill:#B79A86;" d="M383.744,199.58c-19.05-23.6-50.135-33.685-79.668-26.783c-14.817,3.463-30.727,5.346-47.291,5.346
	c-16.573,0-32.493-1.885-47.316-5.352c-28.865-6.751-59.367,2.635-78.442,25.328c-11.902,14.161-18.699,30.531-18.699,47.973
	c0,53.812,64.675,97.437,144.457,97.437s144.456-43.622,144.456-97.435C401.241,229.247,394.901,213.402,383.744,199.58z"/>
<g>
	<path style="fill:#755139;" d="M377.558,266.509c-9.778,9.778-30.311,5.153-45.773-10.308
		c-12.656-12.656-18.395-29.183-13.957-40.191c0.869-2.154,2.097-4.03,3.649-5.582c9.778-9.778,30.311-5.153,45.773,10.308
		c2.453,2.453,4.702,5.114,6.683,7.905C384.073,242.935,385.562,258.505,377.558,266.509z"/>
	<path style="fill:#755139;" d="M135.474,266.509c9.778,9.778,30.311,5.153,45.773-10.308
		c12.656-12.656,18.395-29.183,13.957-40.191c-0.869-2.154-2.097-4.03-3.649-5.582c-9.778-9.778-30.311-5.153-45.773,10.308
		c-2.453,2.453-4.702,5.114-6.683,7.905C128.959,242.935,127.47,258.505,135.474,266.509z"/>
</g>
<g>
	<path style="fill:#0F0F0E;" d="M352.652,225.98c0,1.223-0.167,2.414-0.47,3.542c-1.557,5.789-6.834,10.041-13.113,10.041
		c-7.502,0-13.584-6.081-13.584-13.584c0-6.28,4.253-11.557,10.041-13.113c1.128-0.303,2.32-0.47,3.542-0.47
		C346.571,212.396,352.652,218.478,352.652,225.98z"/>
	<circle style="fill:#0F0F0E;" cx="172.931" cy="225.98" r="13.584"/>
</g>
<g>
	<path style="fill:#E6E6E6;" d="M352.652,225.98c0,1.223-0.167,2.414-0.47,3.542c-1.599,0.742-3.396,1.16-5.277,1.16
		c-6.928,0-12.539-5.611-12.539-12.539c0-1.881,0.418-3.678,1.16-5.277c1.128-0.303,2.32-0.47,3.542-0.47
		C346.571,212.396,352.652,218.478,352.652,225.98z"/>
	<path style="fill:#E6E6E6;" d="M186.509,225.98c0,1.223-0.167,2.414-0.47,3.542c-1.599,0.742-3.396,1.16-5.277,1.16
		c-6.928,0-12.539-5.611-12.539-12.539c0-1.881,0.418-3.678,1.16-5.277c1.128-0.303,2.32-0.47,3.542-0.47
		C180.428,212.396,186.509,218.478,186.509,225.98z"/>
</g>
<g>
	<path style="fill:#755139;" d="M99.538,379.981c2.834-4.355,9.692-2.907,10.326,2.251c1.17,9.539-8.215,22.913-19.569,27.238
		C78.513,413.958,92.154,391.329,99.538,379.981z"/>
	<path style="fill:#755139;" d="M102.934,413.36c1.875-4.846,8.885-4.843,10.568,0.072c3.113,9.093-3.312,24.115-13.529,30.689
		C89.37,450.943,98.05,425.986,102.934,413.36z"/>
</g>
<path style="fill:#7C6758;" d="M202.293,303.92c35.405,8.621,73.576,8.621,108.981,0c6.657-1.621,5.177-8.976-1.821-8.976H204.115
	C197.117,294.944,195.636,302.299,202.293,303.92z"/>
<path style="fill:#755139;" d="M291.243,265.413c0,12.774-15.78,30.473-35.245,30.473s-35.245-17.7-35.245-30.473
	c0-12.774,15.78-15.786,35.245-15.786C275.463,249.627,291.243,252.64,291.243,265.413z"/>
<circle style="fill:#93735D;" cx="273.763" cy="264.119" r="9.404"/>
<g>
</g>
<g>
</g>
<g>
</g>
<g>
</g>
<g>
</g>
<g>
</g>
<g>
</g>
<g>
</g>
<g>
</g>
<g>
</g>
<g>
</g>
<g>
</g>
<g>
</g>
<g>
</g>
<g>
</g>
</svg>
