<?xml version="1.0" encoding="iso-8859-1"?>
<!-- Generator: Adobe Illustrator 19.0.0, SVG Export Plug-In . SVG Version: 6.00 Build 0)  -->
<svg version="1.1" id="Capa_1" xmlns="http://www.w3.org/2000/svg" xmlns:xlink="http://www.w3.org/1999/xlink" x="0px" y="0px"
	 viewBox="0 0 512 512" style="enable-background:new 0 0 512 512;" xml:space="preserve">
<circle style="fill:#63CBFF;" cx="256" cy="256" r="256"/>
<g>
	<path style="fill:#427A2D;" d="M512,255.999c0,18.233-1.912,36.028-5.538,53.185h-77.73c-8.579,0-12.873-10.365-6.802-16.436
		l29.257-29.257c1.954-1.964,2.832-4.378,2.832-6.74c0-4.953-3.835-9.697-9.644-9.697c-8.579,0-12.873-10.376-6.802-16.436
		l22.695-22.695c6.06-6.071,1.766-16.447-6.813-16.447h-1.641c-8.579,0-12.873-10.365-6.813-16.436l37.825-37.815
		c17.095,32.569,27.376,69.277,28.954,108.231C511.927,248.956,512,252.467,512,255.999z"/>
	<path style="fill:#427A2D;" d="M83.268,309.184H5.538C1.912,292.027,0,274.232,0,255.999c0-3.532,0.073-7.043,0.219-10.543
		c1.578-38.954,11.86-75.661,28.954-108.231l37.825,37.815c6.06,6.071,1.766,16.436-6.813,16.436h-1.64
		c-8.579,0-12.873,10.376-6.813,16.447l22.695,22.695c1.964,1.964,2.842,4.378,2.842,6.74c0,4.953-3.845,9.697-9.644,9.697
		c-8.579,0-12.873,10.365-6.813,16.436l29.257,29.257C96.141,298.819,91.847,309.184,83.268,309.184z"/>
</g>
<path style="fill:#4C8E37;" d="M489.556,360.959c-12.184,27.094-28.965,51.681-49.34,72.777H71.784
	c-5.904-6.102-11.504-12.507-16.771-19.174v-28.891h-19.79c-4.692-7.973-8.965-16.217-12.779-24.712l20.982-20.992
	c1.964-1.964,2.842-4.368,2.842-6.729c0-4.953-3.845-9.707-9.655-9.707c-8.579,0-12.873-10.376-6.802-16.436l22.695-22.695
	c6.06-6.071,1.766-16.436-6.813-16.436h-1.64c-8.579,0-12.873-10.376-6.813-16.436l54.439-54.439c3.762-3.762,9.853-3.762,13.615,0
	l54.439,54.439c6.071,6.06,1.766,16.436-6.813,16.436h-1.641c-8.579,0-12.873,10.365-6.802,16.436l22.695,22.695
	c1.954,1.954,2.832,4.368,2.832,6.729c0,4.953-3.835,9.707-9.644,9.707c-8.579,0-12.873,10.376-6.813,16.436l23.301,23.301
	l23.301-23.301c6.071-6.06,1.776-16.436-6.802-16.436s-12.873-10.376-6.813-16.436l22.695-22.695
	c6.071-6.071,1.766-16.436-6.813-16.436h-1.64c-8.579,0-12.873-10.376-6.802-16.436l54.429-54.439c3.762-3.762,9.864-3.762,13.625,0
	l54.429,54.439c6.071,6.06,1.776,16.436-6.802,16.436h-1.64c-8.579,0-12.884,10.365-6.813,16.436l22.695,22.695
	c1.954,1.954,2.832,4.368,2.832,6.729c0,4.953-3.835,9.707-9.644,9.707c-8.579,0-12.873,10.376-6.802,16.436l24.085,24.085
	l24.085-24.085c1.954-1.954,2.832-4.368,2.832-6.729c0-4.953-3.835-9.707-9.644-9.707c-8.579,0-12.873-10.376-6.813-16.436
	l22.695-22.695c6.071-6.071,1.776-16.436-6.802-16.436h-1.641c-8.579,0-12.884-10.376-6.813-16.436l54.439-54.439
	c3.762-3.762,9.853-3.762,13.615,0l54.439,54.439c6.06,6.06,1.766,16.436-6.813,16.436h-1.641c-8.579,0-12.873,10.365-6.813,16.436
	l22.695,22.695c1.964,1.964,2.842,4.378,2.842,6.74c0,4.953-3.845,9.697-9.644,9.697c-8.579,0-12.884,10.376-6.813,16.436
	L489.556,360.959z"/>
<path style="fill:#69AF54;" d="M512,255.999c0,74.041-31.431,140.737-81.69,187.476c-9.07,8.432-18.745,16.227-28.965,23.28
	c-41.284,28.536-91.366,45.244-145.345,45.244s-104.061-16.708-145.345-45.244c-10.219-7.053-19.895-14.848-28.965-23.28
	C31.431,396.736,0,330.04,0,255.999c0-3.532,0.073-7.043,0.219-10.543l12.319-12.319c3.751-3.762,9.853-3.762,13.615,0
	l54.429,54.439c6.071,6.06,1.776,16.436-6.802,16.436h-1.64c-8.579,0-12.873,10.365-6.813,16.436l22.695,22.695
	c1.964,1.964,2.842,4.368,2.842,6.729c0,4.953-3.845,9.707-9.655,9.707c-8.579,0-12.873,10.376-6.802,16.436l24.085,24.085
	l24.085-24.085c1.954-1.954,2.832-4.368,2.832-6.729c0-4.953-3.835-9.707-9.644-9.707c-8.579,0-12.873-10.376-6.813-16.436
	l22.695-22.695c6.071-6.071,1.776-16.436-6.802-16.436h-1.64c-8.579,0-12.873-10.376-6.813-16.436l54.439-54.439
	c3.762-3.762,9.853-3.762,13.615,0l54.439,54.439c6.06,6.06,1.766,16.436-6.813,16.436h-1.641c-8.579,0-12.873,10.365-6.813,16.436
	l22.695,22.695c1.964,1.964,2.842,4.378,2.842,6.74c0,4.953-3.845,9.697-9.644,9.697c-8.579,0-12.884,10.376-6.813,16.436
	L256,399.317l23.301-23.301c1.964-1.964,2.842-4.368,2.842-6.729c0-4.953-3.845-9.707-9.655-9.707
	c-8.579,0-12.873-10.376-6.802-16.436l22.695-22.695c6.06-6.071,1.766-16.436-6.813-16.436h-1.641
	c-8.579,0-12.873-10.376-6.813-16.436l54.439-54.439c3.762-3.762,9.853-3.762,13.615,0l54.439,54.439
	c6.06,6.06,1.766,16.436-6.813,16.436h-1.64c-8.579,0-12.873,10.365-6.802,16.436l22.695,22.695
	c1.954,1.954,2.832,4.368,2.832,6.729c0,4.953-3.835,9.707-9.644,9.707c-8.579,0-12.873,10.376-6.813,16.436l24.085,24.085
	l24.085-24.085c1.964-1.964,2.842-4.378,2.842-6.74c0-4.953-3.845-9.697-9.644-9.697c-8.579,0-12.884-10.376-6.813-16.436
	l22.695-22.695c6.06-6.071,1.766-16.436-6.813-16.436h-1.641c-8.579,0-12.873-10.376-6.802-16.436l54.429-54.439
	c3.762-3.762,9.864-3.762,13.615,0l12.319,12.319C511.927,248.956,512,252.467,512,255.999z"/>
<path style="fill:#A3460A;" d="M385.341,476.964c-37.951,22.267-82.15,35.035-129.337,35.035c-29.017,0-56.916-4.827-82.913-13.72
	c-16.28-5.569-31.828-12.737-46.435-21.316l29.205-108.377c6.196-22.998,27.052-38.975,50.866-38.975h98.544
	c23.824,0,44.669,15.977,50.866,38.975l13.458,49.946L385.341,476.964z"/>
<path style="fill:#BC5410;" d="M385.341,476.964c-37.951,22.267-82.15,35.035-129.337,35.035c-29.017,0-56.916-4.827-82.913-13.72
	l14.117-52.37c6.196-22.998,27.052-38.975,50.866-38.975h98.544c12.33,0,23.855,4.274,32.977,11.598L385.341,476.964z"/>
<circle style="fill:#843703;" cx="256" cy="453.747" r="34.401"/>
<path style="fill:#BC5410;" d="M317.77,177.599c0.682,0.364,1.37,0.692,2.073,1.015c38.485,18.459,84.937,3.011,104.584-35.186
	l3.315-6.443l9.389-18.242c3.229-6.274,0.098-14.009-6.625-16.148c-36.153-11.5-76.402,4.407-94.357,39.267L317.77,177.599z"/>
<path style="fill:#91420E;" d="M324.475,180.022c0.4,0.213,0.804,0.405,1.216,0.596c22.573,10.827,49.819,1.766,61.342-20.638
	l1.945-3.778l6.335-12.308c1.415-2.748,0.119-6.136-2.783-7.201c-21.686-7.965-46.423,1.3-57.275,22.37L324.475,180.022z"/>
<path style="fill:#BC5410;" d="M194.23,177.599c-0.682,0.364-1.37,0.692-2.073,1.015c-38.485,18.459-84.937,3.011-104.584-35.186
	l-3.315-6.443l-9.389-18.242c-3.229-6.274-0.098-14.009,6.625-16.148c36.153-11.5,76.402,4.407,94.357,39.267L194.23,177.599z"/>
<path style="fill:#91420E;" d="M187.525,180.022c-0.4,0.213-0.804,0.405-1.216,0.596c-22.573,10.827-49.819,1.766-61.342-20.638
	l-1.945-3.778l-6.335-12.308c-1.415-2.748-0.119-6.136,2.783-7.201c21.686-7.965,46.423,1.3,57.275,22.37L187.525,180.022z"/>
<path style="fill:#BC5410;" d="M290.708,424.901l67.631-59.237c26.132-22.89,36.964-58.652,27.924-92.194l-30.125-111.776
	c-6.197-22.993-27.049-38.968-50.863-38.968h-98.552c-23.813,0-44.665,15.976-50.862,38.968L125.736,273.47
	c-9.04,33.542,1.792,69.306,27.924,92.194l67.631,59.237C241.159,442.303,270.841,442.303,290.708,424.901z"/>
<g>
	<path style="fill:#A3460A;" d="M203.097,406.74l40.368-28.555l-26.47-58.514l-19.472,12.719
		c-19.856,12.969-46.192-2.314-44.456-25.967c0.263-3.584,0.74-7.17,1.435-10.738l25.391-130.351
		c4.817-24.743,26.499-42.611,51.702-42.611h-24.869c-23.813,0-44.669,15.976-50.866,38.975L125.735,273.47
		c-9.038,33.541,1.797,69.308,27.93,92.191l47.808,41.882l0.192,0.209l0.025-0.018l8.022,7.027L203.097,406.74z"/>
	<path style="fill:#A3460A;" d="M304.755,297.994l-27.921-37.373c-0.34-0.453-0.681-0.895-1.027-1.325
		c-4.142-5.142-6.5-11.498-6.313-18.099c1.056-37.291,6.476-87.791,26.176-118.474h-79.34
		c19.699,30.681,25.119,81.182,26.176,118.474c0.187,6.601-2.171,12.957-6.313,18.099c-0.346,0.429-0.688,0.87-1.027,1.324
		l-27.92,37.374c-12.423,16.629-17.621,46.104-12.876,73.009l12.203,69.193c3.47,19.673,15.267,29.798,25.674,22.034l0,0
		c15.235-11.365,32.272-11.365,47.506,0l0,0c10.407,7.765,22.205-2.36,25.674-22.034l12.203-69.193
		C322.376,344.098,317.178,314.623,304.755,297.994z"/>
</g>
<path style="fill:#933E07;" d="M248.88,243.032c0.094,6.698-1.149,13.155-3.333,18.38c-0.178,0.428-0.366,0.878-0.543,1.337
	L230.27,300.7c-6.552,16.886-9.3,46.822-6.792,74.135l6.437,70.269c0.616,6.719,1.724,12.34,3.145,16.541
	c-0.272,0.188-0.543,0.387-0.815,0.585c-10.407,7.764-22.204-2.361-25.673-22.037L194.368,371
	c-4.744-26.906,0.449-56.383,12.873-73.007l27.92-37.376c0.345-0.449,0.69-0.888,1.034-1.317c4.138-5.141,6.499-11.504,6.311-18.098
	c-1.055-37.292-6.478-87.792-26.175-118.481h18.735C245.463,153.881,248.326,205.165,248.88,243.032z"/>
<g>
	<path style="fill:#A3460A;" d="M346.025,303.983c-14.802,0-26.843-12.042-26.843-26.843c0-12.116,8.165-22.774,19.856-25.918
		c2.288-0.614,4.637-0.926,6.987-0.926c14.802,0,26.843,12.042,26.843,26.843c0,2.349-0.311,4.698-0.925,6.983
		C368.799,295.818,358.142,303.983,346.025,303.983z"/>
	<path style="fill:#A3460A;" d="M165.975,303.983c-14.802,0-26.843-12.042-26.843-26.843c0-12.116,8.165-22.774,19.856-25.918
		c2.288-0.614,4.637-0.926,6.987-0.926c14.802,0,26.843,12.042,26.843,26.843c0,2.349-0.311,4.698-0.925,6.983
		C188.748,295.818,178.09,303.983,165.975,303.983z"/>
</g>
<g>
	<path style="fill:#0F0F0E;" d="M360.566,271.547c0,1.308-0.179,2.584-0.504,3.792c-1.667,6.196-7.315,10.749-14.037,10.749
		c-8.031,0-14.54-6.51-14.54-14.54c0-6.722,4.553-12.371,10.749-14.037c1.208-0.324,2.483-0.504,3.792-0.504
		C354.056,257.006,360.566,263.516,360.566,271.547z"/>
	<circle style="fill:#0F0F0E;" cx="165.972" cy="271.548" r="14.54"/>
</g>
<g>
	<path style="fill:#E6E6E6;" d="M360.566,271.547c0,1.308-0.179,2.584-0.504,3.792c-1.712,0.794-3.635,1.241-5.649,1.241
		c-7.416,0-13.422-6.006-13.422-13.422c0-2.014,0.447-3.937,1.241-5.649c1.208-0.324,2.483-0.504,3.792-0.504
		C354.056,257.006,360.566,263.516,360.566,271.547z"/>
	<path style="fill:#E6E6E6;" d="M180.514,271.547c0,1.308-0.179,2.584-0.504,3.792c-1.712,0.794-3.635,1.241-5.649,1.241
		c-7.416,0-13.422-6.006-13.422-13.422c0-2.014,0.447-3.937,1.241-5.649c1.208-0.324,2.483-0.504,3.792-0.504
		C174.006,257.006,180.514,263.516,180.514,271.547z"/>
</g>
<g>
	<path style="fill:#843703;" d="M307.721,402.527c0,9.954-12.164,18.023-15.645,18.023s-6.305-8.07-6.305-18.023
		c0-9.954,2.822-18.023,6.305-18.023C295.559,384.504,307.721,392.572,307.721,402.527z"/>
	<path style="fill:#843703;" d="M226.229,402.527c0,9.954-2.822,18.023-6.305,18.023s-15.645-8.07-15.645-18.023
		c0-9.954,12.164-18.023,15.645-18.023S226.229,392.572,226.229,402.527z"/>
</g>
<g>
	<path style="fill:#755139;" d="M494.498,0.019c-8.711,0.41-15.413,7.914-15.413,16.635v62.725c0,9.975-8.085,18.06-18.06,18.06l0,0
		c-4.163,0-7.537-3.375-7.537-7.537V36.957c0-8.721-6.702-16.225-15.413-16.635c-9.301-0.438-16.979,6.973-16.979,16.177v48.139
		c0,7.069-5.73,12.799-12.799,12.799l0,0c-7.069,0-12.799-5.73-12.799-12.799V69.164c0-8.721-6.702-16.225-15.413-16.635
		c-9.301-0.438-16.979,6.973-16.979,16.177v12.205c0,9.963-5.549,19.195-14.5,23.572c-16.127,7.887-28.933,21.926-35.054,39.697
		c-2.889,8.387,0.958,17.817,9.233,21.017c1.937,0.749,3.92,1.102,5.866,1.102c6.713,0,12.971-4.209,15.291-10.871
		c5.246-15.068,18.864-25.599,34.819-25.599h82.264c27.863,0,50.452-22.588,50.452-50.452V16.196
		C511.476,6.991,503.799-0.419,494.498,0.019z"/>
	<path style="fill:#755139;" d="M17.502,0.019c8.711,0.41,15.413,7.914,15.413,16.635v62.725c0,9.975,8.085,18.06,18.06,18.06l0,0
		c4.163,0,7.537-3.375,7.537-7.537V36.958c0-8.721,6.702-16.225,15.413-16.635c9.301-0.438,16.979,6.973,16.979,16.177V84.64
		c0,7.069,5.73,12.799,12.799,12.799l0,0c7.069,0,12.799-5.73,12.799-12.799V69.164c0-8.721,6.702-16.225,15.413-16.635
		c9.301-0.438,16.979,6.973,16.979,16.177v12.205c0,9.963,5.549,19.195,14.5,23.572c16.127,7.887,28.933,21.926,35.054,39.697
		c2.889,8.387-0.958,17.817-9.233,21.017c-1.937,0.749-3.92,1.102-5.866,1.102c-6.713,0-12.971-4.209-15.291-10.871
		c-5.246-15.068-18.864-25.599-34.819-25.599H50.974c-27.863,0-50.452-22.588-50.452-50.452V16.196
		C0.523,6.991,8.201-0.419,17.502,0.019z"/>
</g>
<g>
</g>
<g>
</g>
<g>
</g>
<g>
</g>
<g>
</g>
<g>
</g>
<g>
</g>
<g>
</g>
<g>
</g>
<g>
</g>
<g>
</g>
<g>
</g>
<g>
</g>
<g>
</g>
<g>
</g>
</svg>
